<svg xmlns="http://www.w3.org/2000/svg" xmlns:xlink="http://www.w3.org/1999/xlink" xml:space="preserve" style="width:512px;height:512px;opacity:1" viewBox="0 0 512 512"><path d="M491.874 156.349c-19.451-45.961-51.883-85.014-92.731-112.619C358.303 16.125 308.967-.008 256.004 0c-35.306 0-69.024 7.161-99.662 20.118-45.946 19.451-85.007 51.892-112.604 92.731C16.133 153.69-.008 203.032 0 255.996c-.008 35.306 7.161 69.017 20.118 99.655 19.451 45.953 51.891 85.014 92.739 112.611C153.69 495.867 203.032 512 256.004 512c35.298 0 69.017-7.169 99.647-20.126 45.952-19.452 85.006-51.883 112.611-92.731C495.867 358.302 512 308.968 512 255.996c0-35.299-7.169-69.017-20.126-99.647m-193.22 188.226c-9.94 14.069-2.064 35.314-13.688 47.509-11.702 12.243-17.45 8.4-24.89 25.716-.928 2.175-13.64 30.749-17.268 21.682 3.295 8.177.254 15.886-9.305 15.878-9.488-.016 1.723 7.915-7.487 10.17-2.732.73-3.033 6.296-1.866 13.456a224 224 0 0 1-20.634-3.897c-9.258-29.114-14.386-63.523-14.45-72.598-.15-31.432-6.534-19.031-21.944-42.158-10.456-15.735-19.49-32.694-19.046-51.883-.111 3.454 20.174-48.604 5.51-38.688-17.816 12.06-21.031-16.72-38.172-19.182-8.75-1.254-6.201-10.837-16.07-9.273-8.876 1.405-19.102-7.757-25.882-12.663-4.382-3.192-12.608-49.002-19.332-48.89-9.511.055 7.352 31.956 3.882 32.726-4.184.841-10.639-15.522-15.108-29.614a214 214 0 0 1 5.542-14.537c17.085-40.411 45.667-74.82 81.632-99.114 12.227-8.265 25.326-15.315 39.094-21.078a22 22 0 0 0 2.008-.168c12.441-1.468 48.907-15.759 59.101-4.62 4.287 4.557-55.131 26.12-56.862 35.37-1.135 6.034 14.648 4.978 16.03 5.073 15.863.961-4.628 16.839 5.049 19.57 14.569 3.906 29.066-62.078 40.237-28.502 4.566 13.632 24.064-10.305 25.446 6.478 1.421 17.507 17.419 21.905-12.433 26.66-27.43 4.414-5.438 15.57-23.397 24.961-16.991 8.892-31.837 13.06-43.833 29.002-13.434 17.88-14.577 17.316-19.88 39.213-2.866 11.869-17.189-8.09-11.615-15.664-1.946 2.62-18.848-5.661-20.548-1.39-3.302 8.281-12.203 3.803-19.22 8.781-8.884 6.272-17.491 26.509-8.575 36.028 7.098 7.638 31.344-16.37 32.67-8.185 1.016 6.304-8.614 10.734-7.558 16.998 1.501 9.051 16.332-2.596 16.332 4.43-.008 4.526-6.002 29.352 7.074 24.636 7.058-2.541 8.996 2.866 13.449 1.739 6.09-1.54 9.67-15.8 16.967-14.744 8.638 1.246 21.809 5.208 30.502 7.709 14.196 4.09 13.449 16.07 29.947 18.57 16.855 2.557 10.202 17.674 8.13 26.12-1.779 7.314 78.567-1.268 50.461 38.373m93.653-218.641c.007 0 14.942.167 18.109-.325 3.168-.493 3.065-7.948 3.034-9.536-.024-1.611-8.575-5.438-6.471-6.47 2.111-1.032 7.391-2.549 8.955-3.589.731-.484 2.564-2.08 4.541-3.85a226 226 0 0 1 18.229 22.102c-1.032.651-2.096 1.43-2.866 2.208-2.072 2.104-8.456-.643-8.456-.643-2.779 2.969-5.55 5.962-8.344 8.956-1.374 3.184-2.74 6.383-4.121 9.574 0 0-9.519 4.724-13.782 5.224-4.264.492-11.258-3.335-12.362-4.954-1.063-1.62 3.541-18.714 3.534-18.697m71.24 217.728a218 218 0 0 1-4.264 9.401c-1.492-4.7-2.969-8.876-4.27-11.139-3.105-5.344-7.257-11.766-1.898-24.723 5.366-12.957-3.002-29.114-7.217-33.44-4.216-4.311-4.2-7.558.024-14.052 4.223-6.487-1.048-8.654-5.28-8.654-4.24 0-7.424-7.582-12.735-6.502-5.304 1.072-25.589 6.494-33.123 5.406-7.48-1.072-31.242-23.952-31.29-29.415 0-5.454 1.001-26.112 3.144-29.352 2.16-3.247 13.918-18.046 18.157-24.493 4.24-6.454 10.592-15.021 15.926-16.054 5.359-1.032 29.765-5.081 37.101-7.129 7.352-2.057 6.352 1.897 8.519 6.208 1.413.191 2.811.389 4.216.58.008 0 5.812 1.144 9.504 3.866a46 46 0 0 0 2.39 1.62c12.083 27.613 18.784 58.092 18.792 90.207-.008 31.145-6.311 60.727-17.696 87.665" style="fill:#4b4b4b"/></svg>
