<!--?xml version="1.0" encoding="utf-8"?-->
<!-- Generator: Adobe Illustrator 18.1.1, SVG Export Plug-In . SVG Version: 6.00 Build 0)  -->

<svg version="1.1" id="_x32_" xmlns="http://www.w3.org/2000/svg" xmlns:xlink="http://www.w3.org/1999/xlink" x="0px" y="0px" viewBox="0 0 512 512" style="width: 512px; height: 512px; opacity: 1;" xml:space="preserve">
<style type="text/css">
	.st0{fill:#4B4B4B;}
</style>
<g>
	<path class="st0" d="M404.751,54.102C371.523,20.771,324.986-0.026,274.178,0h-90.85h-8.682H53.16v512h130.167V369.324h90.85
		c50.808,0.026,97.333-20.771,130.573-54.074c33.331-33.229,54.115-79.78,54.089-130.575
		C458.866,133.854,438.082,87.329,404.751,54.102z M321.923,232.394c-12.408,12.305-28.919,19.754-47.745,19.779h-90.85V117.15
		h90.85c18.826,0.026,35.338,7.474,47.732,19.779c12.318,12.408,19.754,28.906,19.779,47.745
		C341.664,203.488,334.228,219.988,321.923,232.394z" style="fill: rgb(75, 75, 75);"></path>
</g>
</svg>
