<svg xmlns="http://www.w3.org/2000/svg" xmlns:xlink="http://www.w3.org/1999/xlink" xml:space="preserve" width="512" height="512" style="width:512px;height:512px;opacity:1" viewBox="0 0 512 512"><path d="M137.484 9.563v30.781h371.688V0zm179.282 51.062c0-7.953-6.453-14.406-14.406-14.406-7.969 0-14.406 6.453-14.406 14.406v7.109h-24.188v-7.109c0-7.953-6.453-14.406-14.391-14.406-7.969 0-14.422 6.453-14.422 14.406v7.109h-24.172v-7.109c0-7.953-6.438-14.406-14.406-14.406-7.953 0-14.406 6.453-14.406 14.406v7.109h-44.484v30.797l44.484 1.125v116H2.828v16.469c-.016 62.688 24.391 121.594 68.719 165.891 22.828 22.828 49.547 40.406 79.453 52.266V512h172.859v-61.719c29.922-11.859 56.641-29.438 79.453-52.266 44.328-44.297 68.719-103.203 68.719-165.891v-16.469H316.766v-112.53l192.406 4.938V67.734H316.766zm-105.985 39.781 24.172.625v114.625h-24.172zm84.266 382.782H179.813v-27.844a229.8 229.8 0 0 0 57.625 7.266 229.8 229.8 0 0 0 57.609-7.266zm87.906-105.547c-37.297 37.266-88.656 60.266-145.516 60.266-56.875 0-108.25-23-145.531-60.266-34.531-34.563-56.813-81.234-59.891-133.172h410.828c-3.062 51.937-25.343 98.609-59.89 133.172m-95-161.985h-24.188v-113.89l24.188.625z" style="fill:#4b4b4b"/></svg>
