<svg xmlns="http://www.w3.org/2000/svg" xmlns:xlink="http://www.w3.org/1999/xlink" xml:space="preserve" style="width:512px;height:512px;opacity:1" viewBox="0 0 512 512"><path d="M247.09 18.527h29.967v474.002H247.09zM106.846 97.722c21.867 0 39.598-17.73 39.598-39.606 0-21.867-17.73-39.589-39.598-39.589-21.885 0-39.598 17.722-39.598 39.589 0 21.876 17.713 39.606 39.598 39.606m77.194 56.48c-8.026-27.097-26.002-45.054-46.244-45.054H75.897c-20.243 0-38.238 17.958-46.264 45.054L.478 257.652c-2.153 8.715 3.172 17.608 11.877 19.742 8.724 2.153 17.448-2.946 19.6-11.66l29.062-103.13h8.573l-50.57 179.39H66.7v133.068c0 10.169 8.252 18.411 18.411 18.411 10.178 0 18.429-8.242 18.429-18.411V341.994h10.141v133.068c0 10.169 8.252 18.411 18.43 18.411 10.159 0 18.411-8.242 18.411-18.411V341.994h44.13l-50.569-179.389h8.573l29.061 103.13c2.152 8.714 10.895 13.813 19.6 11.66 8.724-2.134 14.03-11.028 11.877-19.742zm239.134-56.48c21.886 0 39.598-17.73 39.598-39.606 0-21.867-17.712-39.589-39.598-39.589-21.866 0-39.598 17.722-39.598 39.589.001 21.876 17.732 39.606 39.598 39.606m48.756 11.18H367.884c-19.184 0-40.07 20.884-40.07 40.07v133.097c0 9.593 7.78 17.373 17.373 17.373s17.372-7.78 17.372-17.373V172.642h8.006v297.067c0 12.604 10.215 22.82 22.829 22.82s22.829-10.216 22.829-22.82V297.307h7.365v172.402c0 12.604 10.215 22.82 22.829 22.82 12.595 0 22.83-10.216 22.83-22.82V172.642h8.006v109.426c0 9.593 7.78 17.373 17.372 17.373 9.593 0 17.373-7.78 17.373-17.373V148.971c.002-19.185-20.883-40.069-40.068-40.069" style="fill:#4b4b4b"/></svg>
