<svg xmlns="http://www.w3.org/2000/svg" xml:space="preserve" viewBox="0 0 512 512"><path d="M495.957 390.227H16.044C7.185 390.227 0 397.401 0 406.249v26.685c0 54.749 114.619 47.804 256 47.804s256-2.185 256-47.804v-26.685c0-8.848-7.185-16.022-16.043-16.022M42.934 353.858h426.13c15.913 0 28.794-12.891 28.794-28.794v-25.272c0-15.891-12.881-28.771-28.794-28.771H430.37l-61.163 61.152c-15.652 15.662-41.033 15.662-56.696 0l-61.152-61.152H42.934c-15.913 0-28.793 12.88-28.793 28.771v25.272c0 15.903 12.881 28.794 28.793 28.794M256 30.977c-141.38 0-256 74.13-256 172.554v20.739c0 8.848 7.185 16.032 16.044 16.032h479.913c8.858 0 16.043-7.185 16.043-16.032v-20.739c0-98.424-114.62-172.554-256-172.554M128.706 144.118c-9.38 0-16.967-7.586-16.967-16.967 0-9.37 7.587-16.978 16.967-16.978 9.37 0 16.978 7.609 16.978 16.978 0 9.381-7.608 16.967-16.978 16.967m76.37-50.913c-9.37 0-16.967-7.598-16.967-16.967 0-9.381 7.598-16.967 16.967-16.967 9.38 0 16.978 7.586 16.978 16.967 0 9.37-7.598 16.967-16.978 16.967M256 161.097c-9.37 0-16.978-7.609-16.978-16.978s7.609-16.967 16.978-16.967 16.978 7.598 16.978 16.967-7.609 16.978-16.978 16.978m50.924-67.892c-9.38 0-16.978-7.598-16.978-16.967 0-9.381 7.598-16.967 16.978-16.967 9.37 0 16.967 7.586 16.967 16.967 0 9.37-7.598 16.967-16.967 16.967m76.369 50.913c-9.37 0-16.978-7.586-16.978-16.967 0-9.37 7.609-16.978 16.978-16.978 9.381 0 16.967 7.609 16.967 16.978 0 9.381-7.586 16.967-16.967 16.967" fill="#FFFFFF"/></svg>
