<svg xml:space="preserve" viewBox="0 0 512 512"><path d="M30.922 460.156h450.172v-38.187L30.922 431zm0 39.485 450.172 9.047v-38.204H30.922zm122.172-158.969v22.016c0 22.844 46.078 41.375 102.906 41.375s102.906-18.531 102.906-41.375v-22.016C449.047 301.063 512 211 512 106.219 512 49.391 397.391 3.313 256 3.313 114.625 3.313 0 49.391 0 106.219 0 211 62.969 301.063 153.094 340.672M41.828 106.219c0-2.234 8.984-17.984 48.75-33.953C133.469 55.031 193.75 45.141 256 45.141s122.531 9.891 165.438 27.125c39.75 15.969 48.734 31.719 48.734 33.953s-8.984 17.969-48.734 33.953C378.531 157.406 318.25 167.297 256 167.297s-122.531-9.891-165.422-27.125c-39.765-15.984-48.75-31.719-48.75-33.953" fill="currentColor"/></svg>