<svg xml:space="preserve" id="_x32_" x="0" y="0" viewBox="0 0 512 512"><style>.st0{fill:#4b4b4b}</style><path d="M412.262 191.663c-1.799-16.594-9.896-31.889-24.807-42.016-49.036-33.265-87.561-5.252-119.081-12.249-31.527-7.013-61.786-25.96-80.564-31.527-40.332-11.95-79.38 20.692-74.774 62.07v27.06c-1.253 11.004.577 23.007 6.483 35.203 28.606 59.264 141.327 95.459 211.894 89.315 50.19-4.36 78.627-40.694 81.072-75.489 0 0-.076-52.905-.223-52.367m-17.224 21.477c-5.767 22.123-25.868 46.999-64.992 50.406-4.691.407-9.704.607-14.872.607-33.611 0-74.051-8.651-108.162-23.153-36.787-15.633-62.816-36.203-73.305-57.918-7.428-15.394-7.059-30.997 1.061-43.923 7.752-12.342 21.569-20.016 36.049-20.016 4.176 0 8.382.615 12.519 1.838 6.236 1.846 15.132 5.983 24.544 10.351 16.14 7.489 36.211 16.817 57.073 21.454 4.69 1.038 9.612 1.546 15.048 1.546 8.882 0 17.917-1.4 26.652-2.761 8.997-1.392 18.301-2.83 27.713-2.83 16.148 0 30.206 4.429 44.231 13.949 18.532 12.579 20.639 34.31 16.441 50.45" class="st0" fill="currentColor"/><path d="M280.001 170.44c-6.728 0-12.896-.638-18.855-1.968a158 158 0 0 1-7.321-1.807l-49.167 52.65c2.984 1.43 6.036 2.83 9.204 4.176a269 269 0 0 0 20.57 7.713l57.304-61.363c-3.853.361-7.79.599-11.735.599m89.007 5.514-64.4 68.975a182 182 0 0 0 10.566.316c4.66 0 9.151-.185 13.357-.554 37.81-3.291 47.491-29.436 49.56-37.371 1.298-4.999 4.459-21.947-9.083-31.366m-160.682-26.538-42.278 45.276c6.667 5.944 14.818 11.711 24.231 17.125l47.014-50.366c-10.365-3.714-20.116-7.974-28.967-12.035m126.04 15.433c-5.875 0-11.85.676-18.054 1.576l-65.155 69.776c11.288 2.999 22.708 5.298 33.834 6.836l69.683-74.635c-6.428-2.391-13.018-3.553-20.308-3.553M178.36 136.375c-2.514-.746-5.06-1.123-7.544-1.123-8.512 0-16.64 4.529-21.215 11.819-6.144 9.781-3.461 20.078-.123 26.99 1.492 3.084 3.46 6.167 5.829 9.251l38.071-40.786c-5.921-2.706-11.427-5.089-15.018-6.151M92.706 242.353c5.914-6.621 14.226-23.038 5.952-41.416-8.274-18.363-23.415-46.138-25.691-49.967-2.268-3.821-6.598-6.851-11.396-4.791-4.798 2.069-6.383 7.267-4.352 11.95L74.65 198.53c1.984 4.598.569 7.82-3.053 9.389-3.306 1.423-6.443-.462-7.836-3.706L45.46 162.312c-2.283-5.298-8.374-6.697-12.657-4.852-4.291 1.861-7.451 7.251-5.168 12.55l18.117 41.97c1.399 3.237.446 6.89-2.869 8.32-3.613 1.568-6.928.384-8.912-4.206l-17.44-40.409c-2.023-4.69-6.89-7.098-11.68-5.029-4.791 2.076-5.56 7.313-4.337 11.588 1.23 4.268 11.058 34.342 18.74 52.966 7.689 18.616 25.345 23.838 34.219 24.076 6.067.169 11.911 3.637 14.533 9.712l56.665 139.628 27.852-12.019-62.724-137.014c-2.615-6.075-1.139-12.703 2.907-17.24m410.132-96.504c-12.472-3.476-36.902 20.408-58.748 53.704-11.042 16.863-8.266 36.849-4.214 44.769 3.961 7.736 5.89 10.973 3.476 17.117l-52.504 131.339 28.228 11.08s71.044-190.072 78.404-208.811c12.856-32.742 22.337-44.477 5.358-49.198" class="st0" fill="currentColor"/></svg>