<svg xml:space="preserve" viewBox="0 0 512 512"><path d="M507.346 80.023a59.3 59.3 0 0 0-21.419-26.01c-9.408-6.37-20.911-10.118-33.091-10.118H60.613A50.1 50.1 0 0 0 41.1 47.847a50.27 50.27 0 0 0-22.03 18.128 50 50 0 0 0-8.565 28.035v93.732c-.007 27.831 5.654 54.46 15.877 78.642 15.357 36.283 40.945 67.082 73.171 88.858 32.219 21.777 71.209 34.525 112.97 34.511 27.832.007 54.467-5.646 78.642-15.877 36.284-15.357 67.082-40.945 88.866-73.171a202 202 0 0 0 11.51-19.281c.556.014 1.105.056 1.667.056 16.341.007 32.022-3.326 46.246-9.345 21.356-9.036 39.441-24.062 52.245-43.012a118.34 118.34 0 0 0 20.3-66.428v-59.622a59.3 59.3 0 0 0-4.653-23.05m-138.06 107.718c0 21.706-4.381 42.267-12.306 61.013-11.882 28.099-31.797 52.083-56.822 68.995-25.053 16.896-55.092 26.741-87.635 26.755-21.706 0-42.274-4.381-61.013-12.313-28.105-11.876-52.083-31.79-68.994-56.815-16.912-25.054-26.755-55.093-26.755-87.635V94.009c0-.724.126-1.315.365-1.877a4.97 4.97 0 0 1 1.786-2.159c.801-.528 1.617-.809 2.7-.823h185.832v42.513l-38.28 34.659 1.083-.978a32.64 32.64 0 0 0-10.73 24.204v41.177a32.6 32.6 0 0 0 9.563 23.092 32.6 32.6 0 0 0 23.092 9.564h64.016a32.58 32.58 0 0 0 23.092-9.564 32.6 32.6 0 0 0 9.564-23.092v-41.177a32.64 32.64 0 0 0-10.731-24.204l-38.35-34.736V89.15h90.524zM263.18 160.113l32.233 29.181.112.254v41.177l-.099.232-.239.099h-64.016l-.239-.099-.092-.232v-41.177l.112-.254zm203.565-40.931v43.512c0 10.21-2.054 19.836-5.766 28.612-5.569 13.17-14.921 24.442-26.664 32.374a73.1 73.1 0 0 1-25.23 10.808 202.6 202.6 0 0 0 5.457-46.746V89.15h38.294c1.983.014 3.755.394 5.415 1.083a14.1 14.1 0 0 1 6.132 5.062c1.504 2.25 2.356 4.803 2.363 7.763zM0 422.857h425.048v45.248H0z" fill="currentColor"/></svg>