<?xml version="1.0" encoding="UTF-8"?>
<svg version="1.1" xmlns="http://www.w3.org/2000/svg" width="800" height="376">
<path d="M0 0 C2.15981919 0.00852817 4.3170022 -0.02034476 6.4765625 -0.05200195 C15.28186579 -0.09750017 21.18628913 0.56412465 28.2578125 6.07885742 C32.1640625 10.2238227 32.1640625 10.2238227 32.1640625 12.44604492 C32.98648438 12.38803711 33.80890625 12.3300293 34.65625 12.27026367 C42.63096898 11.94795979 48.66548369 12.55742144 55.1640625 17.44604492 C64.95593515 27.54327742 64.34899069 39.15176275 64.1640625 52.44604492 C64.69768906 52.23501129 65.23131561 52.02397766 65.78111267 51.80654907 C71.69633329 49.63005364 76.89580015 48.99295994 83.16796875 48.96948242 C84.09069077 48.95390289 85.01341278 48.93832336 85.96409607 48.92227173 C88.88491019 48.87516307 91.80549196 48.84714101 94.7265625 48.82104492 C97.65103636 48.7843411 100.57538489 48.74353504 103.4997406 48.69839478 C105.31058869 48.67154717 107.12152689 48.65003726 108.93251038 48.63485718 C118.09279993 48.87984006 118.09279993 48.87984006 126.37890625 45.92260742 C126.94738281 45.3115918 127.51585937 44.70057617 128.1015625 44.07104492 C133.89289628 37.87075591 142.75745189 36.9438552 150.7890625 35.75854492 C151.59601562 35.62899414 152.40296875 35.49944336 153.234375 35.3659668 C163.10266454 33.85208147 171.79140037 34.02156311 180.28515625 39.91870117 C185.59814026 44.75180275 188.67997279 50.87485491 189.4375 58.02807617 C189.51726512 63.22078535 188.92406441 68.31603202 188.1640625 73.44604492 C189.05544922 72.80989258 189.05544922 72.80989258 189.96484375 72.16088867 C195.41572924 68.3037302 200.94288214 64.63611076 206.62109375 61.12182617 C209.21701358 59.46853147 209.21701358 59.46853147 211.67578125 57.42651367 C214.1640625 55.44604492 214.1640625 55.44604492 216.78515625 54.00073242 C219.59295541 52.16575038 220.62984829 50.49761304 222.2265625 47.57104492 C222.73832031 46.6815918 223.25007812 45.79213867 223.77734375 44.87573242 C224.23496094 44.07393555 224.69257812 43.27213867 225.1640625 42.44604492 C229.39848336 35.791955 237.5366964 31.15831078 245.1640625 29.44604492 C255.47991567 27.75680346 265.28100447 28.53631816 274.1640625 34.44604492 C280.81748309 39.67081692 284.40721829 46.21490447 286.1640625 54.44604492 C286.8440453 61.58586436 285.2499129 66.35302995 282.51953125 72.93041992 C281.1316822 76.53002842 280.15442062 80.07829236 279.2265625 83.82104492 C277.23695212 91.67304638 274.33142945 99.00273258 271.1640625 106.44604492 C271.91558594 106.70514648 272.66710937 106.96424805 273.44140625 107.23120117 C279.6291549 109.99216219 283.15059175 115.69361804 285.6015625 121.82104492 C289.14895327 133.00070069 286.79035672 143.04917421 281.69140625 153.44995117 C278.15151804 159.73471724 273.99574215 165.49366781 269.72729492 171.28979492 C266.57658514 175.64980076 264.32299563 180.07384377 262.234375 185.03979492 C257.94119842 194.69160797 250.05256355 198.62650213 241.1640625 203.44604492 C241.7828125 203.28104492 242.4015625 203.11604492 243.0390625 202.94604492 C250.863668 201.69410804 258.87928337 202.52628596 266.7265625 203.25854492 C268.04817383 203.36392578 268.04817383 203.36392578 269.39648438 203.47143555 C279.40076731 204.39433988 287.41235229 206.67319569 294.1640625 214.44604492 C298.07889456 219.89372672 298.22385975 224.35820774 297.7890625 230.94604492 C297.5724989 236.41997217 297.5724989 236.41997217 300.12890625 241.05932617 C301.87723629 242.5394913 303.66703663 243.97187064 305.4921875 245.35620117 C309.79282817 248.72000638 312.45971247 252.75118345 315.1640625 257.44604492 C315.67195312 258.30713867 316.17984375 259.16823242 316.703125 260.05541992 C320.45080342 267.80201778 320.65153166 275.26056365 320.7265625 283.75854492 C320.74130615 284.8800293 320.7560498 286.00151367 320.77124023 287.15698242 C320.68755459 293.8839048 319.88592192 298.7941368 316.1640625 304.44604492 C315.49503906 305.5037207 315.49503906 305.5037207 314.8125 306.58276367 C310.02714085 312.41033294 303.59310382 316.03242168 296.1640625 317.44604492 C287.21333996 317.44604492 280.84510647 314.21264432 274.1640625 308.44604492 C274.1640625 311.4266049 274.56702365 312.7545168 275.6953125 315.43823242 C283.75636786 335.31820541 283.75636786 335.31820541 280.26953125 346.25073242 C277.07738828 353.44639918 272.74956058 357.9536818 265.50390625 360.96948242 C247.35729199 367.47652782 227.74791733 369.28848606 209.7890625 361.25854492 C203.34058717 357.78224959 198.31659552 352.52570626 196.1640625 345.44604492 C195.80004682 342.51305695 195.65783235 339.58547065 195.5390625 336.63354492 C195.48105469 335.45115234 195.48105469 335.45115234 195.421875 334.24487305 C195.32817406 332.31229112 195.24505471 330.37920116 195.1640625 328.44604492 C194.4628125 328.48084961 193.7615625 328.5156543 193.0390625 328.55151367 C183.83728878 328.81406428 177.82807527 326.4705298 169.828125 322.21557617 C168.16707673 321.30613371 168.16707673 321.30613371 166.1640625 321.44604492 C164.71019291 323.56361944 164.71019291 323.56361944 163.2890625 326.19604492 C161.71803757 329.00908433 160.41698121 331.20908027 158.05859375 333.41870117 C155.70087648 335.94170172 155.36491958 337.76566102 154.7265625 341.13354492 C152.37876542 351.36944329 147.51898175 358.97069598 139.1640625 365.44604492 C126.40574585 373.42129258 113.78071555 376.97704898 98.7265625 376.88354492 C97.58896484 376.90352539 96.45136719 376.92350586 95.27929688 376.9440918 C82.87817556 376.93701757 71.46229187 373.53202154 62.41796875 364.75073242 C59.85400479 361.89904183 58.11873947 359.35378018 56.4140625 355.88354492 C54.20548148 351.73436971 50.67292178 350.18894677 46.68359375 347.94604492 C36.26944569 341.74599398 31.33512192 329.93180429 26.1640625 319.44604492 C25.65101563 320.00291992 25.13796875 320.55979492 24.609375 321.13354492 C17.43248424 328.28627106 9.68358611 331.74614207 0.4140625 335.5246582 C-8.06040471 338.98176332 -8.06040471 338.98176332 -15.7109375 343.94604492 C-23.57081786 349.60369874 -32.08176105 352.8888815 -41.8359375 351.44604492 C-50.64228181 349.44744196 -58.01855855 345.3923155 -62.98291016 337.65942383 C-67.299609 330.27006842 -70.8359375 323.15186509 -70.8359375 314.44604492 C-71.4959375 314.44604492 -72.1559375 314.44604492 -72.8359375 314.44604492 C-72.80113281 315.2684668 -72.76632812 316.09088867 -72.73046875 316.93823242 C-72.50372147 326.28885824 -72.92807167 334.21110133 -78.8984375 341.75854492 C-89.26290032 352.44555327 -107.26512727 355.18403339 -121.578125 355.64916992 C-138.04846497 355.89872053 -160.79505813 355.82415278 -173.8359375 344.44604492 C-176.54161739 345.48056958 -179.03199142 346.55759284 -181.5546875 347.99291992 C-185.34329668 349.67073256 -188.08049677 349.87928674 -192.2109375 349.88354492 C-194.07878906 349.91254883 -194.07878906 349.91254883 -195.984375 349.94213867 C-206.42330337 348.59757082 -212.40319116 341.36847525 -219.3359375 334.19604492 C-220.35843103 333.15345165 -221.3818616 332.11177647 -222.40625 331.07104492 C-224.89370887 328.53987605 -227.3682437 325.99650451 -229.8359375 323.44604492 C-231.20783098 325.76609225 -232.57949197 328.08627603 -233.95068359 330.40673828 C-235.13196735 332.40443492 -236.3146025 334.40133302 -237.49853516 336.39746094 C-240.26134881 341.06078266 -243.01026344 345.72852826 -245.6796875 350.44604492 C-256.32193695 369.18307923 -256.32193695 369.18307923 -266.8359375 372.44604492 C-274.88985235 374.20783879 -282.05100409 373.45030945 -289.0859375 369.00854492 C-293.4869055 365.86608597 -297.58324288 362.35743598 -301.67993164 358.83374023 C-307.37260902 353.94088774 -313.27574696 349.33730207 -319.19775391 344.72729492 C-323.10629547 341.67036107 -326.96915448 338.55550869 -330.8359375 335.44604492 C-335.36920176 336.90406337 -338.51355865 339.46826801 -342.0234375 342.57104492 C-343.18660755 343.57728581 -344.35067681 344.58248815 -345.515625 345.58666992 C-346.0837793 346.07844727 -346.65193359 346.57022461 -347.23730469 347.0769043 C-350.10850789 349.53593111 -353.07649126 351.86945931 -356.04296875 354.21166992 C-358.26894137 355.99244802 -360.46867738 357.79534624 -362.66015625 359.61791992 C-383.54878967 376.93346518 -383.54878967 376.93346518 -396.1171875 376.71166992 C-404.56231708 375.88657105 -409.80148144 372.17043453 -415.2421875 365.86010742 C-419.46198192 359.46835999 -419.10976514 353.02459698 -419.0234375 345.63745117 C-419.01268188 343.86997276 -419.01268188 343.86997276 -419.00170898 342.06678772 C-418.87681335 327.87442217 -418.39757445 313.69053382 -417.90881348 299.50701904 C-417.71407057 293.83256318 -417.52685777 288.15785559 -417.34030151 282.48312569 C-417.27554663 280.536783 -417.20825064 278.59052537 -417.14086914 276.64427185 C-416.91486096 269.908165 -416.7747541 263.18599135 -416.8359375 256.44604492 C-417.78855469 256.93975586 -418.74117188 257.4334668 -419.72265625 257.94213867 C-420.98941921 258.5895953 -422.25635551 259.23671286 -423.5234375 259.88354492 C-424.46219727 260.37177734 -424.46219727 260.37177734 -425.41992188 260.86987305 C-428.8830565 262.62863775 -431.97872592 263.9434979 -435.8359375 264.44604492 C-436.52171875 264.5362793 -437.2075 264.62651367 -437.9140625 264.71948242 C-448.60498565 265.21941768 -462.66787254 261.62097047 -470.8359375 254.44604492 C-477.66469793 247.75601778 -479.28619277 241.8172749 -479.8359375 232.44604492 C-479.90167969 231.42897461 -479.96742188 230.4119043 -480.03515625 229.36401367 C-480.42418214 218.27006856 -478.28205671 208.01881517 -470.83984375 199.48901367 C-470.17855469 198.81483398 -469.51726562 198.1406543 -468.8359375 197.44604492 C-468.18496094 196.78217773 -467.53398437 196.11831055 -466.86328125 195.43432617 C-460.8627897 190.04764152 -454.10169721 187.20777275 -446.78540039 184.07836914 C-437.14225869 179.87054973 -428.54135603 174.31080766 -419.8359375 168.44604492 C-419.1135791 167.96312988 -418.3912207 167.48021484 -417.64697266 166.98266602 C-408.83461552 161.0761902 -400.25338208 154.90260753 -391.8359375 148.44604492 C-392.43112183 147.87442627 -392.43112183 147.87442627 -393.03833008 147.29125977 C-425.41909282 116.0177313 -425.41909282 116.0177313 -425.9765625 97.03588867 C-425.46668824 87.64570442 -423.17571863 79.34425436 -416.2734375 72.69604492 C-409.64547608 67.32235449 -401.82851356 64.69287745 -393.30078125 65.13745117 C-383.71187058 66.33796455 -378.02911787 70.16297732 -370.8359375 76.44604492 C-369.02798838 77.93077058 -367.21539047 79.40985154 -365.3984375 80.88354492 C-362.56108831 83.20647386 -359.72883139 85.53487159 -356.90625 87.87573242 C-355.95492187 88.66206055 -355.00359375 89.44838867 -354.0234375 90.25854492 C-353.17136719 90.96624023 -352.31929688 91.67393555 -351.44140625 92.40307617 C-348.65596861 94.58715996 -345.80296968 96.51855686 -342.8359375 98.44604492 C-340.10348384 96.74293053 -337.3752092 95.03324109 -334.6484375 93.32104492 C-333.80434326 92.7913208 -332.96024902 92.26159668 -332.09057617 91.71582031 C-327.40530128 88.75780797 -322.76621324 85.74667791 -318.1796875 82.63745117 C-317.25567139 82.01177246 -316.33165527 81.38609375 -315.37963867 80.74145508 C-313.59623114 79.52828521 -311.8175062 78.30819491 -310.04418945 77.08032227 C-302.00952572 71.61722148 -295.66830593 68.90440089 -285.8984375 69.13354492 C-285.10791992 69.14482422 -284.31740234 69.15610352 -283.50292969 69.16772461 C-271.4545322 69.45115781 -264.18775871 72.69651794 -255.8359375 81.44604492 C-255.29066406 80.84018555 -254.74539062 80.23432617 -254.18359375 79.61010742 C-253.42949219 78.7722168 -252.67539063 77.93432617 -251.8984375 77.07104492 C-251.0734375 76.1506543 -250.2484375 75.23026367 -249.3984375 74.28198242 C-247.80940898 72.52339293 -246.2075478 70.77619896 -244.5859375 69.04760742 C-240.21082128 64.34435748 -236.25886194 59.47527029 -232.5234375 54.25854492 C-232.11488525 53.68845703 -231.70633301 53.11836914 -231.28540039 52.53100586 C-227.49752877 47.1400042 -224.12299284 41.73436829 -222.0234375 35.44604492 C-219.46980719 28.89239214 -215.599354 25.01024294 -209.5234375 21.57104492 C-199.56074143 18.53157832 -192.4120717 19.78760769 -182.8984375 23.63354492 C-180.74019472 24.62930718 -180.74019472 24.62930718 -177.8359375 24.44604492 C-177.495625 23.14666992 -177.495625 23.14666992 -177.1484375 21.82104492 C-174.47542634 14.94758765 -170.47324781 11.63600841 -163.98828125 8.5 C-158.28083829 6.59177267 -152.48552602 6.70763249 -146.53173828 6.79418945 C-144.3384131 6.82101464 -142.15020171 6.79433578 -139.95703125 6.76245117 C-130.76912452 6.73923806 -122.8459739 7.72726064 -115.87890625 14.28930664 C-113.15023634 17.21134033 -111.6076341 19.48351292 -110.8359375 23.44604492 C-109.90652344 23.43444336 -108.97710937 23.4228418 -108.01953125 23.41088867 C-97.32911587 23.33285644 -97.32911587 23.33285644 -93.0234375 24.32104492 C-88.56301541 24.49596344 -86.3385981 22.51273034 -82.8515625 19.89135742 C-79.15502333 17.24073825 -75.88111937 17.283832 -71.4609375 17.25854492 C-69.77871094 17.23727539 -69.77871094 17.23727539 -68.0625 17.21557617 C-64.8694076 17.4436542 -62.73963317 18.17694716 -59.8359375 19.44604492 C-56.6637453 19.1956087 -54.57220055 18.31663974 -51.69921875 16.90698242 C-47.55874635 15.11353604 -43.85109671 15.09966687 -39.3984375 15.25854492 C-38.66689453 15.27208008 -37.93535156 15.28561523 -37.18164062 15.29956055 C-35.39941328 15.33450618 -33.61757177 15.38829687 -31.8359375 15.44604492 C-31.58070313 14.69581055 -31.32546875 13.94557617 -31.0625 13.17260742 C-29.7648097 10.2879328 -28.57509042 8.88379189 -26.2109375 6.82104492 C-25.57929688 6.2512793 -24.94765625 5.68151367 -24.296875 5.09448242 C-16.60556648 -0.05747344 -8.98397658 -0.05410804 0 0 Z M165.1640625 95.44604492 C163.48894275 97.35692226 162.07574255 99.35830236 160.62890625 101.44604492 C157.10083996 106.26303143 152.97599095 108.92387319 147.1640625 110.44604492 C147.42960938 110.97713867 147.69515625 111.50823242 147.96875 112.05541992 C150.3671875 116.85229492 152.765625 121.64916992 155.1640625 126.44604492 C157.76621522 123.33977145 158.95940408 120.46392875 160.2265625 116.63354492 C162.84944205 109.51545335 166.72295254 103.65648154 171.0546875 97.46557617 C173.10294708 94.68961179 173.10294708 94.68961179 174.1640625 92.44604492 C170.7721794 92.44604492 167.97975406 93.66336389 165.1640625 95.44604492 Z M51.1640625 94.44604492 C48.47083532 96.53329599 46.50203451 98.25560848 45.55078125 101.60620117 C45.33256329 104.16919252 45.37431471 105.9915447 46.1640625 108.44604492 C48.00453413 110.12282076 49.84822751 111.13182726 52.05859375 112.27026367 C56.80938574 114.92330335 59.54910176 119.32841377 61.1640625 124.44604492 C61.39453125 128.07495117 61.39453125 128.07495117 61.3515625 132.00854492 C61.34189453 133.95954102 61.34189453 133.95954102 61.33203125 135.94995117 C61.20128713 138.67125327 60.98230072 140.87350396 60.1640625 143.44604492 C61.28941406 143.33776367 61.28941406 143.33776367 62.4375 143.22729492 C69.03694877 142.62885624 75.53863818 142.31412276 82.1640625 142.44604492 C81.82632813 141.32327148 81.48859375 140.20049805 81.140625 139.04370117 C80.92591553 138.32214844 80.71120605 137.6005957 80.48999023 136.85717773 C80.02104607 135.28586362 79.54655483 133.71619477 79.06665039 132.14819336 C77.85622184 128.12323484 76.98067696 124.39491643 76.6015625 120.19604492 C76.32607791 118.13286386 76.32607791 118.13286386 75.1640625 116.44604492 C72.24796053 114.76535741 69.40680494 113.65145582 66.20703125 112.61401367 C60.74100484 110.5160138 57.87522635 107.66698059 55.4765625 102.38354492 C54.16029163 99.53233929 52.91443876 97.07160932 51.1640625 94.44604492 Z M-249.8359375 112.44604492 C-250.14724609 113.46311523 -250.14724609 113.46311523 -250.46484375 114.50073242 C-254.11354913 125.5231813 -259.81207864 133.25807459 -268.8359375 140.44604492 C-270.83609976 142.09168106 -272.83609476 143.73752051 -274.8359375 145.38354492 C-276.50149608 146.73907425 -278.16777108 148.09372619 -279.8359375 149.44604492 C-278.42505339 152.75257846 -276.78062381 154.60082662 -274.0234375 156.88354492 C-271.80505392 158.73291305 -269.75397727 160.53507458 -267.79516602 162.6628418 C-264.10269654 166.36661264 -259.69363617 169.02969581 -255.3203125 171.85620117 C-253.92646332 172.7684269 -253.92646332 172.7684269 -252.50445557 173.69908142 C-249.53529808 175.64127876 -246.56103256 177.57545759 -243.5859375 179.50854492 C-239.70310131 182.03709062 -235.82304714 184.56983912 -231.9453125 187.10620117 C-231.00272583 187.7216983 -230.06013916 188.33719543 -229.08898926 188.97134399 C-222.24033627 193.46542896 -215.51887058 198.1153871 -208.89837646 202.93946838 C-205.69316559 205.54457605 -205.69316559 205.54457605 -201.8359375 206.44604492 C-202.02929688 205.8659668 -202.22265625 205.28588867 -202.421875 204.68823242 C-203.2265625 202.27416992 -204.03125 199.86010742 -204.8359375 197.44604492 C-205.19429688 196.51920898 -205.55265625 195.59237305 -205.921875 194.63745117 C-206.99781707 190.88085002 -207.12988596 187.37967199 -207.0859375 183.50854492 C-207.09753906 182.49244141 -207.09753906 182.49244141 -207.109375 181.45581055 C-207.09123764 176.7264951 -206.29535114 172.88799042 -204.8359375 168.44604492 C-205.75375 168.35967773 -206.6715625 168.27331055 -207.6171875 168.18432617 C-216.93602042 167.11735896 -223.37644446 165.52899391 -229.7109375 158.44604492 C-233.38302274 153.26192458 -234.0985237 149.29452202 -234.25 142.95776367 C-234.26936615 142.25456497 -234.2887323 141.55136627 -234.3086853 140.82685852 C-234.36813933 138.59587474 -234.41472799 136.36483838 -234.4609375 134.13354492 C-234.49914887 132.61464306 -234.53820242 131.09576214 -234.578125 129.5769043 C-234.67381166 125.86681025 -234.75796822 122.15655841 -234.8359375 118.44604492 C-235.95742187 118.04772461 -235.95742187 118.04772461 -237.1015625 117.64135742 C-238.08640625 117.2881543 -239.07125 116.93495117 -240.0859375 116.57104492 C-241.54773438 116.04897461 -241.54773438 116.04897461 -243.0390625 115.51635742 C-245.39888077 114.61329848 -247.60498866 113.62526074 -249.8359375 112.44604492 Z M152.1640625 143.44604492 C151.6484375 144.33291992 151.1328125 145.21979492 150.6015625 146.13354492 C145.30600856 154.12365635 134.674415 156.96779692 126.1640625 160.44604492 C126.4940625 164.07604492 126.8240625 167.70604492 127.1640625 171.44604492 C128.24945312 171.50663086 129.33484375 171.5672168 130.453125 171.62963867 C131.89844736 171.71410556 133.34375932 171.79875043 134.7890625 171.88354492 C135.50191406 171.92286133 136.21476563 171.96217773 136.94921875 172.00268555 C140.23192537 172.19844328 143.2925282 172.47185743 146.52734375 173.12182617 C147.39746094 173.22881836 148.26757812 173.33581055 149.1640625 173.44604492 C151.80979751 171.21726767 151.80979751 171.21726767 154.1640625 168.44604492 C155.80831758 167.40960726 157.47235959 166.40308151 159.1640625 165.44604492 C158.81472656 164.61202148 158.46539063 163.77799805 158.10546875 162.91870117 C155.43410644 156.31218759 153.52643479 150.57270003 153.1640625 143.44604492 C152.8340625 143.44604492 152.5040625 143.44604492 152.1640625 143.44604492 Z M-81.8359375 160.44604492 C-82.23683594 160.84436523 -82.63773437 161.24268555 -83.05078125 161.65307617 C-83.61925781 162.18288086 -84.18773437 162.71268555 -84.7734375 163.25854492 C-85.59134766 164.04165039 -85.59134766 164.04165039 -86.42578125 164.84057617 C-94.84390442 170.4481104 -104.19667837 169.8096184 -113.8984375 169.63354492 C-115.35089755 169.61846748 -116.80337277 169.6047845 -118.25585938 169.5925293 C-121.78287207 169.55977353 -125.30930535 169.50816156 -128.8359375 169.44604492 C-128.04300293 170.22036865 -127.25006836 170.99469238 -126.43310547 171.79248047 C-124.06117109 174.21592047 -122.60320724 176.32869684 -120.9609375 179.25854492 C-119.51719374 181.61310238 -119.51719374 181.61310238 -117.8359375 183.44604492 C-114.46236416 183.94674813 -114.46236416 183.94674813 -110.8359375 183.44604492 C-103.72600097 185.01221975 -97.43590408 187.86440512 -93.0859375 193.88354492 C-89.90646913 199.27126142 -89.46129104 205.32318043 -88.8359375 211.44604492 C-88.05089844 211.31327148 -87.26585937 211.18049805 -86.45703125 211.04370117 C-85.40644531 210.86709961 -84.35585938 210.69049805 -83.2734375 210.50854492 C-82.24089844 210.33452148 -81.20835937 210.16049805 -80.14453125 209.98120117 C-79.05269531 209.80459961 -77.96085937 209.62799805 -76.8359375 209.44604492 C-75.79050781 209.26428711 -74.74507813 209.0825293 -73.66796875 208.89526367 C-49.18385362 206.0250565 -19.25742237 208.16938545 1.1640625 223.44604492 C3.54219193 225.92506469 5.38890849 228.51318177 7.1640625 231.44604492 C9.75737503 235.95745817 9.75737503 235.95745817 14.1640625 238.44604492 C14.00397705 237.81931885 13.8438916 237.19259277 13.67895508 236.546875 C12.97415347 232.30235855 12.96145393 228.1291206 12.92578125 223.83276367 C12.91367363 222.44019096 12.91367363 222.44019096 12.90132141 221.01948547 C12.88752086 219.05858201 12.87678078 217.09765493 12.86889648 215.13671875 C12.85737108 213.13990191 12.83691047 211.14311601 12.80737305 209.14648438 C12.76455656 206.25003277 12.74850918 203.35449303 12.73828125 200.45776367 C12.72077316 199.57416672 12.70326508 198.69056976 12.68522644 197.78019714 C12.71640979 188.78248707 16.26799245 182.99723387 22.1640625 176.44604492 C17.78133203 174.36310661 13.38734324 172.30905538 8.97558594 170.28833008 C7.53921627 169.62047626 6.11813314 168.91975983 4.703125 168.20776367 C0.81203773 166.40515793 -1.57210929 166.38971383 -5.5234375 167.69604492 C-6.22855469 167.98995117 -6.93367188 168.28385742 -7.66015625 168.58666992 C-16.69144531 172.15378589 -30.15029114 172.13161265 -39.3671875 169.39916992 C-42.68997409 167.73777663 -45.21217971 166.06980271 -47.8359375 163.44604492 C-50.20750741 163.78484062 -52.18505705 164.59080181 -54.3984375 165.50854492 C-63.21833587 167.91397175 -70.78385596 166.56222093 -78.8359375 162.44604492 C-79.8259375 161.78604492 -80.8159375 161.12604492 -81.8359375 160.44604492 Z M162.1640625 223.44604492 C161.5040625 227.07604492 160.8440625 230.70604492 160.1640625 234.44604492 C161.4221875 233.49729492 162.6803125 232.54854492 163.9765625 231.57104492 C166.33997471 229.78879965 168.69920436 228.08928368 171.1640625 226.44604492 C171.1640625 225.78604492 171.1640625 225.12604492 171.1640625 224.44604492 C168.1940625 224.11604492 165.2240625 223.78604492 162.1640625 223.44604492 Z M29.1640625 250.44604492 C29.4940625 251.10604492 29.8240625 251.76604492 30.1640625 252.44604492 C30.8240625 252.44604492 31.4840625 252.44604492 32.1640625 252.44604492 C32.1640625 251.78604492 32.1640625 251.12604492 32.1640625 250.44604492 C31.1740625 250.44604492 30.1840625 250.44604492 29.1640625 250.44604492 Z M-225.8359375 271.44604492 C-225.22602859 275.00384688 -224.2575694 278.12890382 -222.8359375 281.44604492 C-221.5159375 280.12604492 -220.1959375 278.80604492 -218.8359375 277.44604492 C-222.01133306 274.02025544 -222.01133306 274.02025544 -225.8359375 271.44604492 Z M269.1640625 298.44604492 C270.1640625 300.44604492 270.1640625 300.44604492 270.1640625 300.44604492 Z M270.1640625 300.44604492 C271.1640625 302.44604492 271.1640625 302.44604492 271.1640625 302.44604492 Z M271.1640625 303.44604492 C272.1640625 305.44604492 272.1640625 305.44604492 272.1640625 305.44604492 Z " fill="#FEFEFD" transform="translate(479.8359375,-0.446044921875)"/>
<path d="M0 0 C36.3 0 72.6 0 110 0 C110 22.98543969 110 22.98543969 109.78125 30.484375 C109.75905396 31.3217218 109.73685791 32.1590686 109.71398926 33.02178955 C109.6451501 35.59793477 109.57268128 38.17396066 109.5 40.75 C109.45157693 42.53775377 109.40339904 44.3255142 109.35546875 46.11328125 C109.23978485 50.40893564 109.12085547 54.70448813 109 59 C98.99105937 60.88693758 89.11127556 62.47435432 78.9375 63.1875 C77.86951172 63.26935547 76.80152344 63.35121094 75.70117188 63.43554688 C73.13457432 63.63120678 70.56769277 63.81939577 68 64 C96.1556883 86.15261567 96.1556883 86.15261567 129.6875 96.5625 C130.86699219 96.64628906 132.04648438 96.73007812 133.26171875 96.81640625 C134.16535156 96.87699219 135.06898438 96.93757813 136 97 C134.69273231 100.44539021 133.1883393 103.60552502 131.35546875 106.80078125 C130.84306641 107.69603516 130.33066406 108.59128906 129.80273438 109.51367188 C129.00319336 110.8990918 129.00319336 110.8990918 128.1875 112.3125 C127.66607422 113.22451172 127.14464844 114.13652344 126.60742188 115.07617188 C123.51641359 120.45938855 120.32469454 125.75792154 117 131 C112.36760797 128.44234726 108.43912232 125.22919191 104.375 121.875 C103.66496826 121.29314941 102.95493652 120.71129883 102.22338867 120.11181641 C100.79907771 118.94431669 99.37579765 117.77555804 97.95361328 116.60546875 C95.41452104 114.51885658 92.86260292 112.44813227 90.3125 110.375 C84.72598108 105.79738972 79.21118564 101.13802497 73.71337891 96.45458984 C71.96416753 94.96957967 70.20724891 93.49408565 68.44921875 92.01953125 C67.25777513 91.01306507 66.06636891 90.00655461 64.875 89 C64.28178955 88.50604736 63.6885791 88.01209473 63.07739258 87.50317383 C60.25741322 85.11385669 57.69742608 82.74864958 55.375 79.8671875 C50.44170993 73.96265594 46.87540385 71.47973582 39.29931641 70.58642578 C35.90422618 70.32414673 32.52049972 70.16148991 29.11547852 70.12255859 C27 70 27 70 23 69 C23 78.9 23 88.8 23 99 C33.395 97.515 33.395 97.515 44 96 C36.93951143 103.06048857 29.54953942 109.44382761 21.67089844 115.55859375 C18.29399784 118.18325938 14.95282889 120.84296621 11.6484375 123.55859375 C10.92599854 124.15196533 10.20355957 124.74533691 9.45922852 125.35668945 C8.05054689 126.51705349 6.64468122 127.68084634 5.24194336 128.84838867 C4.60135986 129.37537354 3.96077637 129.9023584 3.30078125 130.4453125 C2.73528564 130.91469238 2.16979004 131.38407227 1.5871582 131.86767578 C0 133 0 133 -3 134 C-2.87832494 128.65529593 -2.754032 123.31066014 -2.62768555 117.96606445 C-2.58536293 116.16204326 -2.54366013 114.35800739 -2.50268555 112.55395508 C-2.28285258 102.89487448 -2.01971271 93.24077545 -1.63217163 83.58682251 C-0.93550517 66.16340514 -0.67235426 48.74746559 -0.4375 31.3125 C-0.293125 20.979375 -0.14875 10.64625 0 0 Z " fill="#269067" transform="translate(89,216)"/>
<path d="M0 0 C0.96711914 0.00676758 1.93423828 0.01353516 2.93066406 0.02050781 C14.50643169 0.18849904 24.90586411 1.89378685 34.9375 8 C43.39841272 16.95861347 42.25671769 29.25858853 42.3125 40.8125 C42.333125 41.88435547 42.35375 42.95621094 42.375 44.06054688 C42.41591833 52.42323134 41.67747815 60.23372218 35.6875 66.5625 C34.84058594 67.48482422 34.84058594 67.48482422 33.9765625 68.42578125 C32.0625 70.25 32.0625 70.25 29.36328125 72.0546875 C26.75221286 74.09958763 26.75221286 74.09958763 26.56640625 77.45703125 C26.58574219 78.64683594 26.60507812 79.83664062 26.625 81.0625 C26.38730976 86.51805685 26.15455525 90.00155274 22.14453125 93.85546875 C13.85729386 99.40620749 5.0708407 101.44291249 -4.6875 101.5625 C-5.84765625 101.60600586 -5.84765625 101.60600586 -7.03125 101.65039062 C-12.80722108 101.7133836 -17.10938312 100.47361336 -21.9375 97.25 C-25.53288517 93.19069416 -25.6082196 88.46171384 -25.9375 83.25 C-27.25041016 83.08564453 -27.25041016 83.08564453 -28.58984375 82.91796875 C-35.16866796 81.60527454 -42.85384013 77.81717035 -46.83203125 72.23046875 C-51.40089588 64.04525898 -54.36358716 55.44309388 -56.8125 46.4375 C-57.02777344 45.66188721 -57.24304688 44.88627441 -57.46484375 44.0871582 C-59.18472013 37.3977218 -60.16180926 31.09039747 -57.375 24.625 C-56.60156494 23.47279366 -55.78682177 22.34746698 -54.9375 21.25 C-54.50953125 20.68667969 -54.0815625 20.12335938 -53.640625 19.54296875 C-41.1377391 5.26776655 -18.14437391 -0.18391711 0 0 Z " fill="#97579F" transform="translate(582.9375,249.75)"/>
<path d="M0 0 C11.53760831 -0.96146736 20.94783367 4.20549986 30 11 C30.495 11.495 30.495 11.495 31 12 C32.34747084 12.23075082 33.70377565 12.41153063 35.0625 12.5625 C36.361875 12.706875 37.66125 12.85125 39 13 C39.21914063 13.78503906 39.43828125 14.57007813 39.6640625 15.37890625 C41.76901606 22.35263452 43.97994754 26.75176334 49 32 C49 32.66 49 33.32 49 34 C52.35738082 35.59593872 52.35738082 35.59593872 56 35.875 C58.71179468 34.68858983 60.71999057 32.87077697 63 31 C63.99 30.67 64.98 30.34 66 30 C64.98548404 32.1851113 64.08370965 33.90959357 62.4375 35.6875 C60.24813397 39.20952362 60.25258047 42.92387378 60 47 C62.64 47 65.28 47 68 47 C68 55.58 68 64.16 68 73 C65.92460937 72.93554688 63.84921875 72.87109375 61.7109375 72.8046875 C45.76741158 72.15043023 45.76741158 72.15043023 32.10546875 78.7890625 C29.0266133 82.5139207 26.56374724 86.55509204 24.25341797 90.79199219 C22.50443752 93.87297762 20.40702799 96.41777364 18.125 99.125 C17.50882812 99.89070313 16.89265625 100.65640625 16.2578125 101.4453125 C15.63519531 102.21488281 15.63519531 102.21488281 15 103 C16.66289062 102.25943359 16.66289062 102.25943359 18.359375 101.50390625 C19.82284257 100.85660329 21.28638835 100.20947712 22.75 99.5625 C23.84441406 99.07426758 23.84441406 99.07426758 24.9609375 98.57617188 C25.66992188 98.26357422 26.37890625 97.95097656 27.109375 97.62890625 C27.75874023 97.34088135 28.40810547 97.05285645 29.07714844 96.75610352 C34.58373923 94.59080239 40.33036448 94.11012149 46 96 C47.40701145 98.81402291 47.09403729 101.14215893 47.0625 104.28515625 C47.05476563 105.53748047 47.04703125 106.78980469 47.0390625 108.08007812 C47.02617187 109.39427734 47.01328125 110.70847656 47 112.0625 C46.97462091 114.65751161 46.95354381 117.25257014 46.9375 119.84765625 C46.92589844 121.00273682 46.91429687 122.15781738 46.90234375 123.34790039 C46.69590845 125.92277787 46.69590845 125.92277787 48 127 C59.34049291 127.92306338 67.59692692 126.70064784 78 122 C79.32 121.67 80.64 121.34 82 121 C82 129.58 82 138.16 82 147 C64.61112978 153.04830269 42.59525223 154.0967391 25 148 C23.19605125 146.19605125 23.76294211 143.43322201 23.68359375 140.99609375 C23.64169922 139.78115234 23.59980469 138.56621094 23.55664062 137.31445312 C23.51732422 136.03505859 23.47800781 134.75566406 23.4375 133.4375 C23.39431641 132.15423828 23.35113281 130.87097656 23.30664062 129.54882812 C23.200152 126.36600147 23.09814038 123.18309326 23 120 C14.07990762 126.1212131 5.31331076 132.25820454 -2.79956055 139.43286133 C-5.79338582 142.06672959 -8.51246876 143.90748126 -12 146 C-17.61 140.39 -23.22 134.78 -29 129 C-27.46827331 125.93654661 -26.33333487 124.01067197 -24.19921875 121.48828125 C-23.64097412 120.82183594 -23.08272949 120.15539062 -22.50756836 119.46875 C-21.60663452 118.40140625 -21.60663452 118.40140625 -20.6875 117.3125 C-14.12127285 109.43743258 -7.84698711 101.37873981 -1.66601562 93.19970703 C1.31202797 89.26767703 4.31392112 85.35387686 7.3125 81.4375 C8.41285858 79.99877299 9.51312851 78.55997817 10.61328125 77.12109375 C11.40089844 76.09113281 12.18851562 75.06117188 13 74 C4.92074669 73.87738064 -3.04694682 74.12964064 -11.1015625 74.78125 C-16.06044303 75.05950382 -21.03331889 75 -26 75 C-26 67.74 -26 60.48 -26 53 C-18.94246405 52.44641728 -11.88483939 51.89436307 -4.8269043 51.34594727 C-2.43458504 51.15962657 -0.0423302 50.97247664 2.34985352 50.78442383 C25.30099886 48.98122259 25.30099886 48.98122259 36.71875 48.375 C37.82444084 48.31609337 37.82444084 48.31609337 38.95246887 48.2559967 C45.30470489 47.94191503 51.64127825 47.89725584 58 48 C57.29446776 45.30856615 57.29446776 45.30856615 55 43 C51.36888581 42.43298633 47.78258647 42.71860969 44.125 42.9375 C33.82333387 43.51872241 33.82333387 43.51872241 30.0859375 41.1640625 C29.39757812 40.44992188 28.70921875 39.73578125 28 39 C26.52274631 38.10707097 25.02300106 37.24994599 23.5 36.4375 C20.94908379 35.0665417 18.50691283 33.68526351 16.0625 32.125 C15.0415625 31.568125 15.0415625 31.568125 14 31 C13.01 31.495 13.01 31.495 12 32 C11.62875 30.989375 11.2575 29.97875 10.875 28.9375 C9.64893547 26.04583837 8.25231536 23.99026405 6.125 21.6875 C2.02770609 17.149747 -1.83750844 11.43143931 -2.1328125 5.1953125 C-2.08898437 4.47085938 -2.04515625 3.74640625 -2 3 C-1.01 3 -0.02 3 1 3 C0.67 2.01 0.34 1.02 0 0 Z " fill="#295BA9" transform="translate(299,178)"/>
<path d="M0 0 C4.05744227 0.38387777 5.42203662 1.56696887 8.44921875 4.24609375 C9.40183594 5.06980469 10.35445313 5.89351563 11.3359375 6.7421875 C12.30144531 7.58910156 13.26695313 8.43601562 14.26171875 9.30859375 C16.08883623 10.81615895 17.92206973 12.31634626 19.76171875 13.80859375 C23.42838542 16.80859375 27.09505208 19.80859375 30.76171875 22.80859375 C32.11910156 23.91847656 32.11910156 23.91847656 33.50390625 25.05078125 C35.36513403 26.57456263 37.22446705 28.10066091 39.08203125 29.62890625 C44.74126878 34.27925464 50.45208711 38.84737044 56.26171875 43.30859375 C56.42671875 42.48359375 56.59171875 41.65859375 56.76171875 40.80859375 C60.34799089 32.44062542 67.86274694 28.06970352 75.40380859 23.5324707 C82.78560505 19.07718026 89.84024241 14.16993675 96.89892578 9.22241211 C97.79724121 8.59987549 98.69555664 7.97733887 99.62109375 7.3359375 C100.41999023 6.77640381 101.21888672 6.21687012 102.04199219 5.64038086 C104.16089227 4.36908742 105.84659494 3.74755043 108.26171875 3.30859375 C106.72148457 7.57385764 103.51572472 9.69787722 100.01171875 12.30859375 C94.12985189 16.79969712 88.46368699 21.4778323 82.88183594 26.3359375 C80.07996595 28.77005175 77.27198415 31.13532898 74.26171875 33.30859375 C79.34278583 31.68145439 83.21370201 28.63075133 87.44921875 25.49609375 C88.22789307 24.92802002 89.00656738 24.35994629 89.80883789 23.7746582 C93.15078924 21.33590076 96.4828474 18.88394392 99.81054688 16.42578125 C101.47430999 15.19755149 103.14003123 13.97196902 104.80786133 12.74926758 C106.38009456 11.59661757 107.94780002 10.4377614 109.51049805 9.2722168 C110.22117432 8.75183838 110.93185059 8.23145996 111.6640625 7.6953125 C112.28788818 7.23342529 112.91171387 6.77153809 113.55444336 6.2956543 C115.26171875 5.30859375 115.26171875 5.30859375 118.26171875 5.30859375 C103.4563781 18.25833171 103.4563781 18.25833171 95.8125 24.2578125 C93.79896868 25.87665468 91.82745876 27.52141574 89.8671875 29.203125 C89.28018066 29.70634277 88.69317383 30.20956055 88.08837891 30.72802734 C86.93495316 31.7205545 85.78473935 32.71682976 84.63818359 33.71728516 C82.17946083 35.83198289 80.37211871 37.27179376 77.26171875 38.30859375 C77.26171875 38.96859375 77.26171875 39.62859375 77.26171875 40.30859375 C82.37460294 37.51915116 86.96308839 34.4191089 91.57421875 30.87109375 C97.67239705 26.24153343 103.81256509 21.67720692 110.01171875 17.18359375 C110.77395752 16.62744385 111.53619629 16.07129395 112.3215332 15.49829102 C113.03913818 14.97936279 113.75674316 14.46043457 114.49609375 13.92578125 C115.12741211 13.46800293 115.75873047 13.01022461 116.40917969 12.53857422 C118.29738159 11.28491565 120.21537587 10.27853989 122.26171875 9.30859375 C119.7051409 12.68258085 117.18183601 15.36300651 113.82421875 17.93359375 C109.74442093 21.11943587 105.76167165 24.3879523 101.82421875 27.74609375 C96.75593687 32.06868703 91.61719277 36.28315032 86.40625 40.43359375 C84.0726784 42.30909813 84.0726784 42.30909813 82.26171875 45.30859375 C84.72105146 43.5808347 87.1793444 41.8516353 89.63671875 40.12109375 C90.39098145 39.5902417 91.14524414 39.05938965 91.92236328 38.51245117 C96.06736866 35.58789589 100.19363522 32.64064296 104.29296875 29.65234375 C105.50847412 28.76712036 105.50847412 28.76712036 106.74853516 27.86401367 C108.32094796 26.71645132 109.89100377 25.56565127 111.45849609 24.41137695 C112.17473145 23.88890381 112.8909668 23.36643066 113.62890625 22.828125 C114.25909668 22.36510986 114.88928711 21.90209473 115.53857422 21.42504883 C117.26171875 20.30859375 117.26171875 20.30859375 120.26171875 19.30859375 C118.89631691 23.67787964 117.13203149 25.56658174 113.51171875 28.30859375 C108.82426487 31.9920332 104.41754603 35.8507026 100.07421875 39.93359375 C98.8802534 41.05082941 97.68624425 42.16801828 96.4921875 43.28515625 C95.6556665 44.06874512 95.6556665 44.06874512 94.80224609 44.86816406 C80.42782044 58.30859375 80.42782044 58.30859375 75.26171875 58.30859375 C75.26171875 58.96859375 75.26171875 59.62859375 75.26171875 60.30859375 C75.80054688 60.53675781 76.339375 60.76492187 76.89453125 61 C79.9786622 62.70492387 82.49796758 64.93823677 85.13671875 67.24609375 C88.76470846 70.38506385 92.41401267 73.46116934 96.2265625 76.375 C96.86932129 76.86685791 97.51208008 77.35871582 98.17431641 77.86547852 C99.42461537 78.81517232 100.68069558 79.75731053 101.94287109 80.69116211 C103.43681491 81.82896914 104.85723683 83.06203709 106.26171875 84.30859375 C106.26171875 85.29859375 106.26171875 86.28859375 106.26171875 87.30859375 C107.8050071 88.76391287 107.8050071 88.76391287 109.91992188 90.05737305 C110.72412064 90.58661377 111.5283194 91.11585449 112.35688782 91.66113281 C113.24329453 92.22928711 114.12970123 92.79744141 115.04296875 93.3828125 C115.95592209 93.979729 116.86887543 94.57664551 117.80949402 95.19165039 C120.78751176 97.13594334 123.77461203 99.06580058 126.76171875 100.99609375 C128.78827386 102.31695363 130.81407247 103.6389749 132.83911133 104.9621582 C136.8268454 107.56650962 140.81745373 110.16634295 144.81103516 112.76171875 C151.5455741 117.14053198 158.25633518 121.55393803 164.94921875 125.99609375 C165.9134375 126.62926514 166.87765625 127.26243652 167.87109375 127.91479492 C168.72574219 128.48174072 169.58039063 129.04868652 170.4609375 129.6328125 C171.18112061 130.10807373 171.90130371 130.58333496 172.64331055 131.07299805 C174.26171875 132.30859375 174.26171875 132.30859375 175.26171875 134.30859375 C175.46484375 136.3671875 175.46484375 136.3671875 175.51171875 138.74609375 C175.55039062 139.91978516 175.55039062 139.91978516 175.58984375 141.1171875 C175.18134603 143.84536873 174.42899414 144.65275485 172.26171875 146.30859375 C168.1073311 147.69338963 164.58924216 148.20535036 160.26171875 147.30859375 C156.96050374 145.21716356 154.39053749 142.5614364 151.69921875 139.74609375 C150.2825491 138.32682709 148.86458633 136.90884997 147.4453125 135.4921875 C146.75244141 134.78964844 146.05957031 134.08710938 145.34570312 133.36328125 C142.71108241 130.76569832 139.9472107 128.34927778 137.14379883 125.93676758 C134.32941227 123.50206218 131.61003386 120.96912346 128.88671875 118.43359375 C124.18319298 114.07358008 119.45609801 109.74390497 114.66796875 105.4765625 C112.98255715 103.95805043 111.31739978 102.41689496 109.66796875 100.859375 C108.81203125 100.05886719 107.95609375 99.25835937 107.07421875 98.43359375 C105.93919922 97.35464844 105.93919922 97.35464844 104.78125 96.25390625 C102.34915466 94.37610241 100.05087478 93.27655812 97.2097168 92.14453125 C93.39018147 90.50546759 89.84649779 88.33874056 86.26171875 86.24609375 C85.01865967 85.52353394 85.01865967 85.52353394 83.75048828 84.78637695 C76.04259405 80.2606341 68.63440017 75.35584161 61.26171875 70.30859375 C59.45108044 69.09747253 57.63888674 67.88866876 55.82421875 66.68359375 C54.63671875 65.89192708 53.44921875 65.10026042 52.26171875 64.30859375 C51.41351563 65.04722656 50.5653125 65.78585938 49.69140625 66.546875 C43.63252254 71.79616273 37.53336006 76.95585728 31.19921875 81.87109375 C24.94307998 86.72903737 18.88574423 91.78607405 12.87060547 96.93798828 C11.26036384 98.30974799 9.6399774 99.668428 8.015625 101.0234375 C-5.53418626 112.34373879 -18.94231196 124.04156918 -29.81640625 138.00390625 C-33.05516601 141.88778483 -37.34067855 146.9420474 -42.62109375 147.51171875 C-48.37255706 147.6319584 -52.46626798 146.60910863 -57.73828125 144.30859375 C-57.84673156 141.74494892 -57.92577869 139.18593096 -57.98828125 136.62109375 C-58.02179687 135.89986328 -58.0553125 135.17863281 -58.08984375 134.43554688 C-58.15902369 130.64794542 -58.01804395 128.76080442 -55.9765625 125.4609375 C-51.37238509 121.03353479 -45.87486326 118.18240105 -40.01953125 115.69921875 C-16.86450125 105.72939223 3.99978537 89.77829571 24.17431641 74.83251953 C26.54064775 73.10495927 28.93562073 71.42218386 31.3359375 69.7421875 C32.17970947 69.14736572 33.02348145 68.55254395 33.89282227 67.93969727 C35.51699684 66.79601761 37.14617522 65.65940074 38.78100586 64.53100586 C39.49909424 64.02190674 40.21718262 63.51280762 40.95703125 62.98828125 C41.59656738 62.54210449 42.23610352 62.09592773 42.89501953 61.63623047 C43.34603027 61.19811035 43.79704102 60.75999023 44.26171875 60.30859375 C44.26171875 59.31859375 44.26171875 58.32859375 44.26171875 57.30859375 C42.37727259 55.47157581 42.37727259 55.47157581 39.88671875 53.68359375 C35.31549794 50.16182223 31.00731727 46.4673798 26.75 42.57421875 C25.13923691 41.10758987 23.5124289 39.65831284 21.8671875 38.23046875 C-2.39793954 17.06218345 -2.39793954 17.06218345 -4.0546875 6.2421875 C-4.11328125 4.30859375 -4.11328125 4.30859375 -3.73828125 1.30859375 C-2.73828125 0.30859375 -2.73828125 0.30859375 0 0 Z " fill="#299168" transform="translate(83.73828125,90.69140625)"/>
<path d="M0 0 C0.99 0.99 0.99 0.99 2 2 C1.70214844 4.33154297 1.70214844 4.33154297 1 7 C0.80696289 7.76586426 0.61392578 8.53172852 0.41503906 9.32080078 C-3.44662486 23.4405539 -7.00303823 35.51280338 -16.25439453 47.0847168 C-21.16727909 53.30677869 -26.06052206 60.39113985 -26.75 68.5 C-26.30199919 72.16681908 -26.30199919 72.16681908 -23.4375 74.5 C-17.35107815 77.15589317 -12.35149562 75.9433733 -6.15234375 74.44921875 C-3.38930757 73.87254151 -0.81010684 73.78924199 2 74 C3 75 3 75 3.375 77.9375 C3.16259468 86.68151908 -3.34329711 94.18066292 -8.34521484 100.91430664 C-12.14306455 106.04251423 -15.33981052 111.27984288 -17.8125 117.1875 C-19.94331132 121.43285691 -22.79758177 123.03887149 -27 125 C-29.02744543 126.04982791 -31.04756828 127.11385025 -33.0625 128.1875 C-34.18269531 128.78175781 -35.30289063 129.37601563 -36.45703125 129.98828125 C-39.57970407 131.70805185 -42.5063069 133.64782813 -45.45068359 135.65380859 C-51.18884758 139.5482857 -55.86200001 142.38777867 -63 142 C-67.27363739 141.84737009 -70.45044113 142.04148616 -74.4375 143.5 C-78.91756277 145.09783809 -82.24977779 145.56358569 -87 145 C-89.5 143.3125 -89.5 143.3125 -91 141 C-91.375 138.375 -91.375 138.375 -91 136 C-87.90665162 132.90665162 -84.1780156 133.24660131 -79.9453125 132.7578125 C-76.50733287 131.87323949 -75.22125031 130.71715736 -73 128 C-71.67488539 125.34977078 -71.92652967 123.20927539 -71.875 120.25 C-71.54308112 115.85075776 -71.19874322 113.37720566 -67.8125 110.4375 C-64.7220787 108.27101909 -61.43877474 106.55563619 -58 105 C-56.43022426 103.43022426 -56.79262919 101.85803613 -56.75 99.6875 C-56.80002596 96.83147233 -56.9581722 95.10087882 -58.0625 92.4375 C-60.05125459 90.75332303 -60.05125459 90.75332303 -63.25 90.3125 C-67.94234187 91.17276268 -69.38626044 92.96933558 -72.32421875 96.56640625 C-74 98 -74 98 -76.14453125 97.83984375 C-78 97 -78 97 -79 95 C-79.07116382 92.62597499 -79.08409085 90.24999323 -79.0625 87.875 C-79.05347656 86.59367187 -79.04445313 85.31234375 -79.03515625 83.9921875 C-79.02355469 83.00476563 -79.01195312 82.01734375 -79 81 C-77.515 80.505 -77.515 80.505 -76 80 C-75.93683594 79.26136719 -75.87367188 78.52273437 -75.80859375 77.76171875 C-74.77865485 69.22948804 -72.07210467 63.83965629 -67 57 C-66.51499023 56.33210449 -66.02998047 55.66420898 -65.53027344 54.97607422 C-63.88962837 52.72231439 -62.23028175 50.48374378 -60.5625 48.25 C-60.03744873 47.54077393 -59.51239746 46.83154785 -58.97143555 46.10083008 C-53.42408292 38.83731041 -47.32253733 33.47360866 -39.22265625 29.25 C-36.31714185 27.6159673 -33.79003029 25.63537627 -31.21484375 23.52734375 C-29 22 -29 22 -27.14013672 21.21191406 C-21.16229953 18.67213654 -19.00659126 15.64629031 -16.25 9.875 C-15.53633609 8.42976663 -14.81271723 6.98939651 -14.078125 5.5546875 C-13.77293945 4.92030762 -13.46775391 4.28592773 -13.15332031 3.63232422 C-9.93677666 -0.92013363 -4.98827841 -0.32182441 0 0 Z " fill="#47B036" transform="translate(738,54)"/>
<path d="M0 0 C1.98782803 0.11299233 3.97625136 0.22024373 5.96606445 0.29003906 C24.91391156 0.95831217 45.06807693 6.39207514 59 20 C64.50847837 27.38044038 66.36560529 33.85986784 66 43 C65.01 43.495 65.01 43.495 64 44 C63.58041016 43.14728516 63.58041016 43.14728516 63.15234375 42.27734375 C57.41925401 31.23515484 50.07717307 25.78523209 38.375 21.75 C27.43848449 19.31966322 15.74347547 18.50180271 5 22 C4.70751602 28.20813732 5.61148754 33.00425316 7.59765625 38.86328125 C7.86960312 39.69474167 8.14154999 40.52620209 8.42173767 41.38285828 C8.99888266 43.14027459 9.58163769 44.89585738 10.16967773 46.6496582 C11.04603307 49.2633874 11.90647847 51.8818852 12.76367188 54.50195312 C15.9135101 64.06758983 19.22671794 73.55258552 22.86378479 82.94514465 C23.14390915 83.68278549 23.42403351 84.42042633 23.71264648 85.18041992 C23.96175278 85.82379807 24.21085907 86.46717621 24.46751404 87.13005066 C25 89 25 89 25 93 C18.39027622 95.3983447 12.1704829 96.30038597 5.1875 96.3125 C4.11254272 96.32023437 4.11254272 96.32023437 3.01586914 96.328125 C-1.34929203 96.27123008 -4.94288045 95.59864522 -9 94 C-9.0501123 93.36610352 -9.10022461 92.73220703 -9.15185547 92.07910156 C-10.64657141 60.97477923 -10.64657141 60.97477923 -24.8125 34.25 C-27.88409746 32.08181356 -30.38561281 30.94662522 -34 30 C-37.87172827 38.87114439 -39.09108471 47.46834886 -40 57 C-40.33 57 -40.66 57 -41 57 C-42.16989449 51.23900697 -42.33204041 45.4809405 -42.5625 39.625 C-42.60568359 38.60277344 -42.64886719 37.58054687 -42.69335938 36.52734375 C-42.79887792 34.01834712 -42.90099213 31.50926057 -43 29 C-45.66960863 32.37873767 -46.90601632 35.28623669 -48.125 39.4375 C-48.45757813 40.54996094 -48.79015625 41.66242188 -49.1328125 42.80859375 C-49.8727603 45.53173499 -50.49182723 48.22579153 -51 51 C-51.33 51 -51.66 51 -52 51 C-52.82555811 26.22373113 -52.82555811 26.22373113 -48 15 C-57.63787746 24.89519943 -60.46843938 33.51752183 -63 47 C-63.33 47 -63.66 47 -64 47 C-65.02833936 32.60324901 -59.99304309 18.37873946 -51.125 7.125 C-38.82890625 -6.22504464 -15.9001424 -7.9500712 0 0 Z " fill="#E85584" transform="translate(710,244)"/>
<path d="M0 0 C16.335 0.495 16.335 0.495 33 1 C33 5.88981285 32.93512242 9.16208328 31.90625 13.71484375 C31.68066406 14.72998047 31.45507812 15.74511719 31.22265625 16.79101562 C30.98417969 17.82935547 30.74570312 18.86769531 30.5 19.9375 C30.26152344 21.00291016 30.02304687 22.06832031 29.77734375 23.16601562 C29.19149341 25.77890813 28.59888542 28.39007007 28 31 C29.71509766 30.75443359 29.71509766 30.75443359 31.46484375 30.50390625 C38.80373844 29.68847351 46.18969863 29.89436516 53.5625 29.9375 C55.06314955 29.9425254 56.56380072 29.94708647 58.06445312 29.95117188 C61.70970938 29.96123608 65.35473527 29.98082561 69 30 C69 38.91 69 47.82 69 57 C53.82 56.67 38.64 56.34 23 56 C22.34 63.26 21.68 70.52 21 78 C18.751875 78.5775 16.50375 79.155 14.1875 79.75 C7.64248527 81.46399992 1.3058444 83.53534564 -5 86 C-4.40211877 75.9304214 -3.33682757 65.99375949 -2 56 C-3.08796875 56.144375 -4.1759375 56.28875 -5.296875 56.4375 C-6.78120077 56.62538934 -8.26557871 56.81286682 -9.75 57 C-10.46027344 57.09539062 -11.17054688 57.19078125 -11.90234375 57.2890625 C-18.4090101 58.09519815 -24.28978451 58 -31 58 C-31 49.09 -31 40.18 -31 31 C-21.1 31 -11.2 31 -1 31 C-1 27.04 -1 23.08 -1 19 C-0.85948695 15.57750358 -0.70215753 12.16795964 -0.5 8.75 C-0.335 5.8625 -0.17 2.975 0 0 Z " fill="#9857A0" transform="translate(548,167)"/>
<path d="M0 0 C0.495 1.485 0.495 1.485 1 3 C2.05960937 2.98839844 3.11921875 2.97679687 4.2109375 2.96484375 C5.59895658 2.95546524 6.98697755 2.94636511 8.375 2.9375 C9.07367188 2.92912109 9.77234375 2.92074219 10.4921875 2.91210938 C15.7734375 2.88671875 15.7734375 2.88671875 18 4 C18 4.99 18 5.98 18 7 C18.556875 7.13535156 19.11375 7.27070313 19.6875 7.41015625 C26.05071334 9.20518434 30.64628452 11.97236787 35 17 C36.375 20.1875 36.375 20.1875 37 23 C37.33386719 23.61230469 37.66773438 24.22460938 38.01171875 24.85546875 C40.27530582 29.76736321 39.69261918 35.52425485 38.265625 40.625 C34.17884169 50.10159898 26.0257796 55.95717801 16.75 59.9375 C13.69687548 61.11404936 10.76949949 62.05452984 7.58203125 62.80859375 C2.64097712 64.45201961 -0.80993929 67.32592511 -4.83789062 70.54296875 C-7.84679124 72.83387422 -9.48492054 73.937731 -13.328125 74.40234375 C-16 74 -16 74 -17.6875 72.4375 C-18.120625 71.633125 -18.55375 70.82875 -19 70 C-19.556875 69.01 -20.11375 68.02 -20.6875 67 C-22.76786465 61.96332769 -22.60155972 56.34372526 -22 51 C-21.34 50.01 -20.68 49.02 -20 48 C-17.77270508 47.67529297 -17.77270508 47.67529297 -15.01953125 47.7421875 C-14.01986328 47.75636719 -13.02019531 47.77054687 -11.99023438 47.78515625 C-10.94158203 47.81480469 -9.89292969 47.84445312 -8.8125 47.875 C3.0009066 48.56666591 3.0009066 48.56666591 14 45 C13.505 41.535 13.505 41.535 13 38 C14.32 37.67 15.64 37.34 17 37 C15.515 36.01 15.515 36.01 14 35 C14 34.67 14 34.34 14 34 C13.34 33.34 12.68 32.68 12 32 C12 31.01 12 30.02 12 29 C12.66 29 13.32 29 14 29 C14 28.34 14 27.68 14 27 C13.360625 27.185625 12.72125 27.37125 12.0625 27.5625 C11.381875 27.706875 10.70125 27.85125 10 28 C9.67 27.67 9.34 27.34 9 27 C8.34 27.66 7.68 28.32 7 29 C7.33 27.68 7.66 26.36 8 25 C7.34 24.67 6.68 24.34 6 24 C5.505 25.485 5.505 25.485 5 27 C4.505 26.01 4.505 26.01 4 25 C3.34 25.66 2.68 26.32 2 27 C2.33 25.35 2.66 23.7 3 22 C2.54625 22.45375 2.0925 22.9075 1.625 23.375 C0.41666667 24.58333333 -0.79166667 25.79166667 -2 27 C-2.99 26.67 -3.98 26.34 -5 26 C-4.67 24.35 -4.34 22.7 -4 21 C-5.20062774 22.16632409 -6.39559128 23.33900296 -7.5625 24.5390625 C-8.89949018 25.89785143 -10.29175731 27.20163471 -11.6875 28.5 C-14.99740405 32.42016761 -15.03598641 37.33898868 -15.54296875 42.26953125 C-15.69378906 43.17058594 -15.84460938 44.07164062 -16 45 C-16.99 45.495 -16.99 45.495 -18 46 C-18.33 40.72 -18.66 35.44 -19 30 C-22.06098195 33.06098195 -22.82645413 34.69822763 -24.1875 38.6875 C-24.53167969 39.68136719 -24.87585938 40.67523438 -25.23046875 41.69921875 C-25.48441406 42.45847656 -25.73835938 43.21773438 -26 44 C-26.99 44 -27.98 44 -29 44 C-28.5359375 42.2365625 -28.5359375 42.2365625 -28.0625 40.4375 C-27.33965218 37.61136583 -26.89264314 35.04912494 -26.5625 32.125 C-26.2840625 30.578125 -26.2840625 30.578125 -26 29 C-25.01 28.34 -24.02 27.68 -23 27 C-31.21027107 28.46893278 -31.21027107 28.46893278 -37.4375 33.625 C-37.84871094 34.23601562 -38.25992187 34.84703125 -38.68359375 35.4765625 C-40.32294943 37.3737397 -41.5661246 37.61760769 -44 38 C-41.49671934 33.52985596 -38.8891456 29.23053463 -36 25 C-39.64320399 25.31227463 -40.85560599 25.85560599 -43.5 28.5 C-46.14439401 31.14439401 -47.35679601 31.68772537 -51 32 C-50.443125 31.319375 -49.88625 30.63875 -49.3125 29.9375 C-47.09837051 27.23906855 -47.09837051 27.23906855 -45.83203125 25.109375 C-44.65209926 23.23064833 -43.56341111 21.5767736 -42 20 C-38.6875 19.5625 -38.6875 19.5625 -36 20 C-36 19.34 -36 18.68 -36 18 C-36.78375 17.71125 -37.5675 17.4225 -38.375 17.125 C-41 16 -41 16 -43 14 C-45.89883083 13.75660449 -45.89883083 13.75660449 -49.125 13.875 C-50.76855469 13.90207031 -50.76855469 13.90207031 -52.4453125 13.9296875 C-53.28835938 13.95289063 -54.13140625 13.97609375 -55 14 C-55 13.67 -55 13.34 -55 13 C-51.535 12.505 -51.535 12.505 -48 12 C-49.32 11.67 -50.64 11.34 -52 11 C-52 10.01 -52 9.02 -52 8 C-53.53353564 6.32154581 -53.53353564 6.32154581 -55.5 4.8125 C-56.47453125 4.01779297 -56.47453125 4.01779297 -57.46875 3.20703125 C-57.9740625 2.80871094 -58.479375 2.41039062 -59 2 C-58.34 1.67 -57.68 1.34 -57 1 C-56.42822021 1.3084082 -55.85644043 1.61681641 -55.26733398 1.93457031 C-52.26893959 3.34352833 -50.02562276 3.1646927 -46.72265625 3.046875 C-45.48580078 3.00433594 -44.24894531 2.96179688 -42.97460938 2.91796875 C-41.68361328 2.86253906 -40.39261719 2.80710938 -39.0625 2.75 C-37.80630859 2.71003906 -36.55011719 2.67007813 -35.25585938 2.62890625 C-28.03578089 2.35307465 -21.04591862 1.68891259 -13.93066406 0.42333984 C-9.2885883 -0.24721659 -4.67774313 -0.16873623 0 0 Z " fill="#C43C48" transform="translate(456,251)"/>
<path d="M0 0 C6.27 0 12.54 0 19 0 C19 5.61 19 11.22 19 17 C29.56 16.67 40.12 16.34 51 16 C51 21.61 51 27.22 51 33 C39.12 33 27.24 33 15 33 C14.67 35.31 14.34 37.62 14 40 C9.84655546 52.52652398 3.20068356 62.6367602 -6 72 C-6.56460937 72.5775 -7.12921875 73.155 -7.7109375 73.75 C-14.07829511 79.71357396 -22.35360182 83.90795863 -31 85 C-30.1875 83.91666667 -29.375 82.83333333 -28.5625 81.75 C-28.0159375 81.01523438 -27.469375 80.28046875 -26.90625 79.5234375 C-25.57496656 77.76112376 -24.21860754 76.01759716 -22.84375 74.2890625 C-13.54102063 62.40578149 -6.38368477 49.22053242 -5 34 C-10.28 34 -15.56 34 -21 34 C-21 28.72 -21 23.44 -21 18 C-13.41 18 -5.82 18 2 18 C1.505 15.215625 1.505 15.215625 1 12.375 C0.23197333 8.05484995 0 4.46563464 0 0 Z " fill="#F5B81D" transform="translate(326,32)"/>
<path d="M0 0 C6.27 0 12.54 0 19 0 C18.67 4.62 18.34 9.24 18 14 C19.423125 13.855625 20.84625 13.71125 22.3125 13.5625 C24.20831312 13.37479573 26.10414761 13.18730718 28 13 C29.40185547 12.85691406 29.40185547 12.85691406 30.83203125 12.7109375 C31.75371094 12.62070312 32.67539062 12.53046875 33.625 12.4375 C34.46289062 12.35371094 35.30078125 12.26992188 36.1640625 12.18359375 C39.76901371 11.95021537 43.38750243 12 47 12 C47 17.28 47 22.56 47 28 C25.32686266 29.09836714 3.69391336 29.10868694 -18 29 C-17.98694824 29.79664062 -17.97389648 30.59328125 -17.96044922 31.4140625 C-17.81742949 46.34259793 -21.7001198 60.14159929 -32.12109375 71.30859375 C-35.13252313 74.01950627 -38.44397986 76.07882548 -42 78 C-43.18795773 74.4361268 -42.78991919 73.96248114 -41.375 70.625 C-39.18507731 64.93272708 -37.71160774 59.17436291 -36.3125 53.25 C-36.09835449 52.35104004 -35.88420898 51.45208008 -35.66357422 50.52587891 C-33.68735905 42.02736635 -32.80084236 33.7670963 -32.4375 25.0625 C-32.293125 21.741875 -32.14875 18.42125 -32 15 C-21.11 15 -10.22 15 1 15 C0.505 12.03 0.505 12.03 0 9 C0 6.03 0 3.06 0 0 Z " fill="#F5B81E" transform="translate(471,25)"/>
<path d="M0 0 C0.495 6.435 0.495 6.435 1 13 C-1.784375 14.2684375 -1.784375 14.2684375 -4.625 15.5625 C-11.2416731 18.87863923 -15.13245288 22.18001725 -18.375 28.8125 C-20.21124527 38.17735085 -18.81821284 45.1374749 -13.62109375 53.1171875 C-12.45371784 54.77346443 -11.23216539 56.39133962 -10 58 C-11.89454824 58.96087136 -13.79069581 59.91858969 -15.6875 60.875 C-16.74324219 61.40867188 -17.79898438 61.94234375 -18.88671875 62.4921875 C-26.24300189 66.05495449 -26.24300189 66.05495449 -29.15234375 65.84375 C-33.75357337 63.74255423 -35.98814714 57.47482776 -37.8125 53 C-40.31557729 44.65158614 -40.57359011 34.28236514 -36.875 26.3125 C-34.48832389 21.92132795 -32.2273328 20.52277733 -28 17 C-39.55 17 -51.1 17 -63 17 C-63 11.72 -63 6.44 -63 1 C-57.08169178 0.85464211 -51.163319 0.71239142 -45.24487305 0.57275391 C-43.24062186 0.52506031 -41.23638908 0.47658562 -39.23217773 0.42724609 C-26.15176723 0.10589231 -13.08439708 -0.06884009 0 0 Z " fill="#5D3F41" transform="translate(620,73)"/>
<path d="M0 0 C13.2 0 26.4 0 40 0 C40 4.95 40 9.9 40 15 C35.38 15 30.76 15 26 15 C26 21.27 26 27.54 26 34 C31.94 34 37.88 34 44 34 C44 40.27 44 46.54 44 53 C18.755 52.01 18.755 52.01 -7 51 C-7 46.05 -7 41.1 -7 36 C-0.07 36 6.86 36 14 36 C14 29.4 14 22.8 14 16 C9.71 16 5.42 16 1 16 C0.67 10.72 0.34 5.44 0 0 Z " fill="#F5B920" transform="translate(334,92)"/>
<path d="M0 0 C4.14032846 1.54385129 7.93553053 3.51028938 11.8125 5.625 C12.40998047 5.94984375 13.00746094 6.2746875 13.62304688 6.609375 C15.08337135 7.40379151 16.54187491 8.20155376 18 9 C17.40463619 13.17517954 15.99696575 16.18232093 13.875 19.8125 C13.31554687 20.78832031 12.75609375 21.76414062 12.1796875 22.76953125 C10 26 10 26 8.27992249 27.55351257 C3.8961269 31.62095877 2.50543957 34.69992233 2.20532227 40.69140625 C2.20642557 43.32219414 2.24393 45.93448183 2.31640625 48.5625 C2.3294841 49.96351635 2.33943794 51.36456501 2.34642029 52.765625 C2.37297623 56.42924496 2.44158142 60.09088021 2.51934814 63.75372314 C2.59133301 67.50090696 2.62300621 71.24841581 2.65820312 74.99609375 C2.73297375 82.33173302 2.85595334 89.66533407 3 97 C-1.62 97 -6.24 97 -11 97 C-11.06794021 84.44804587 -10.8712029 71.92115967 -10.5 59.375 C-10.45159025 57.67448577 -10.40341227 55.97396493 -10.35546875 54.2734375 C-10.23963371 50.18221097 -10.12072265 46.09108511 -10 42 C-10.60328125 42.34933594 -11.2065625 42.69867188 -11.828125 43.05859375 C-12.62734375 43.51363281 -13.4265625 43.96867187 -14.25 44.4375 C-15.43335938 45.11619141 -15.43335938 45.11619141 -16.640625 45.80859375 C-20.58720167 47.80148429 -23.86168222 48.12024102 -28.25 48.0625 C-29.14203125 48.05347656 -30.0340625 48.04445312 -30.953125 48.03515625 C-31.62859375 48.02355469 -32.3040625 48.01195312 -33 48 C-30.07503073 44.56824186 -27.14187659 41.14667019 -24.140625 37.78125 C-13.973422 26.30119627 -5.15691705 14.57507607 0 0 Z " fill="#F5B81D" transform="translate(281,45)"/>
<path d="M0 0 C-1.23823242 9.64967336 -4.93400536 18.3586575 -11 26 C-2.30884948 29.41438056 5.67623096 31.2739688 15 32 C13.60121198 36.46797338 11.86369228 40.63822079 9.875 44.875 C9.33617187 46.02742188 8.79734375 47.17984375 8.2421875 48.3671875 C7.83226562 49.23601562 7.42234375 50.10484375 7 51 C-0.17215159 49.00638498 -6.60153927 45.14724809 -13.12109375 41.63671875 C-14.07371094 41.14300781 -15.02632813 40.64929688 -16.0078125 40.140625 C-16.87035645 39.68204102 -17.73290039 39.22345703 -18.62158203 38.75097656 C-20.98069712 37.73973235 -20.98069712 37.73973235 -23.19140625 38.80371094 C-23.78824219 39.19848633 -24.38507813 39.59326172 -25 40 C-33.27414924 44.28781823 -39.58339136 46.33497817 -49 46 C-45.05653156 41.79363366 -40.69723425 38.35558935 -36.109375 34.8671875 C-33.7538281 33.09608377 -33.7538281 33.09608377 -33 30 C-34.32 29.01 -35.64 28.02 -37 27 C-36.52797514 22.75177626 -34.03344482 20.80010291 -31 18 C-29.8553125 18.4640625 -29.8553125 18.4640625 -28.6875 18.9375 C-26.81210323 19.67893593 -24.91315348 20.36228217 -23 21 C-21.68 18.36 -20.36 15.72 -19 13 C-20.19496094 13.144375 -21.38992188 13.28875 -22.62109375 13.4375 C-24.22653089 13.62527043 -25.83200148 13.8127551 -27.4375 14 C-28.22060547 14.09539062 -29.00371094 14.19078125 -29.81054688 14.2890625 C-35.24375619 14.91511131 -40.53074263 15.08759571 -46 15 C-46 11.04 -46 7.08 -46 3 C-30.65799029 0.9234862 -15.48838393 -0.19772405 0 0 Z " fill="#F5B91F" transform="translate(501,100)"/>
<path d="M0 0 C3.63 0 7.26 0 11 0 C11 2.31 11 4.62 11 7 C14.96 7 18.92 7 23 7 C23 11.29 23 15.58 23 20 C19.04 20 15.08 20 11 20 C10.67 24.29 10.34 28.58 10 33 C-0.58409834 36.7556478 -9.73350305 38.26201156 -21 38 C-21 33.05 -21 28.1 -21 23 C-22.216875 23.33 -23.43375 23.66 -24.6875 24 C-27.87385536 24.86409637 -30.69843345 25.09251325 -34 25 C-34.02685938 22.85423363 -34.04633088 20.70837355 -34.0625 18.5625 C-34.07410156 17.36753906 -34.08570313 16.17257813 -34.09765625 14.94140625 C-34 12 -34 12 -33 11 C-30.98035801 10.92755947 -28.95832876 10.91622812 -26.9375 10.9375 C-25.28041016 10.95103516 -25.28041016 10.95103516 -23.58984375 10.96484375 C-22.73519531 10.97644531 -21.88054687 10.98804687 -21 11 C-21 8.03 -21 5.06 -21 2 C-16.38 2 -11.76 2 -7 2 C-7 4.64 -7 7.28 -7 10 C-3.535 9.505 -3.535 9.505 0 9 C0 6.03 0 3.06 0 0 Z " fill="#F5B921" transform="translate(488,59)"/>
<path d="M0 0 C11.53760831 -0.96146736 20.94783367 4.20549986 30 11 C30.495 11.495 30.495 11.495 31 12 C32.34747084 12.23075082 33.70377565 12.41153063 35.0625 12.5625 C36.361875 12.706875 37.66125 12.85125 39 13 C39.21914063 13.78503906 39.43828125 14.57007813 39.6640625 15.37890625 C41.76901606 22.35263452 43.97994754 26.75176334 49 32 C49 32.66 49 33.32 49 34 C49.763125 34.28875 50.52625 34.5775 51.3125 34.875 C54 36 54 36 57 38 C56.34 38.66 55.68 39.32 55 40 C55 40.99 55 41.98 55 43 C51.4377769 43.11654436 47.87604658 43.1873639 44.3125 43.25 C43.30509766 43.28351563 42.29769531 43.31703125 41.25976562 43.3515625 C33.71148653 43.45120975 33.71148653 43.45120975 30.07421875 41.14453125 C29.38972656 40.43683594 28.70523437 39.72914063 28 39 C26.52274631 38.10707097 25.02300106 37.24994599 23.5 36.4375 C20.94908379 35.0665417 18.50691283 33.68526351 16.0625 32.125 C15.0415625 31.568125 15.0415625 31.568125 14 31 C13.34 31.33 12.68 31.66 12 32 C11.443125 30.4840625 11.443125 30.4840625 10.875 28.9375 C9.64893547 26.04583837 8.25231536 23.99026405 6.125 21.6875 C2.02770609 17.149747 -1.83750844 11.43143931 -2.1328125 5.1953125 C-2.08898437 4.47085938 -2.04515625 3.74640625 -2 3 C-1.01 3 -0.02 3 1 3 C0.67 2.01 0.34 1.02 0 0 Z " fill="#3060AB" transform="translate(299,178)"/>
<path d="M0 0 C3.60937463 2.52430167 6.17758294 4.9610671 8.5625 8.6875 C9.54095032 14.55820195 7.89491376 18.93471316 4.5625 23.6875 C-5.19334599 35.10577715 -21.85146806 41.0923773 -36.4375 42.6875 C-40.41779792 42.80197918 -44.39349882 42.78212881 -48.375 42.75 C-49.97311523 42.74323242 -49.97311523 42.74323242 -51.60351562 42.73632812 C-54.21490291 42.72461787 -56.82617124 42.70821724 -59.4375 42.6875 C-59.4375 42.3575 -59.4375 42.0275 -59.4375 41.6875 C-57.49810547 41.34138672 -57.49810547 41.34138672 -55.51953125 40.98828125 C-40.44768539 38.20451321 -25.90936738 35.44298366 -15.375 23.3125 C-13.96739374 19.37120248 -13.66367692 15.81205216 -14.4375 11.6875 C-18.17964315 6.25535671 -24.44806232 3.74026828 -30.6875 2.09375 C-34.4365412 1.53991437 -38.15560791 1.45382701 -41.9375 1.4375 C-43.12484741 1.43157837 -43.12484741 1.43157837 -44.33618164 1.42553711 C-50.53261855 1.48623128 -55.96455554 2.41366538 -61.93359375 4.12890625 C-64.4375 4.6875 -64.4375 4.6875 -67.4375 3.6875 C-59.57214841 0.15924831 -51.86711628 -2.50178417 -43.4375 -4.3125 C-42.65761719 -4.48523438 -41.87773438 -4.65796875 -41.07421875 -4.8359375 C-27.96230417 -7.20579465 -11.70894032 -6.68466206 0 0 Z " fill="#FCFAFC" transform="translate(611.4375,257.3125)"/>
<path d="M0 0 C2.26571607 2.82675053 3.83139594 5.55488069 5.26171875 8.87890625 C5.65810547 9.79994141 6.05449219 10.72097656 6.46289062 11.66992188 C6.86701172 12.62447266 7.27113281 13.57902344 7.6875 14.5625 C8.10322266 15.52091797 8.51894531 16.47933594 8.94726562 17.46679688 C9.33978516 18.38654297 9.73230469 19.30628906 10.13671875 20.25390625 C10.49467529 21.09252197 10.85263184 21.9311377 11.22143555 22.79516602 C12 25 12 25 12 28 C-0.54 28 -13.08 28 -26 28 C-26 27.01 -26 26.02 -26 25 C-24.09375 23.203125 -24.09375 23.203125 -21.5 21.25 C-20.58476562 20.54101562 -19.66953125 19.83203125 -18.7265625 19.1015625 C-17.37691406 18.06128906 -17.37691406 18.06128906 -16 17 C-9.7287142 11.99655538 -4.83783929 6.39469714 0 0 Z " fill="#299168" transform="translate(221,262)"/>
<path d="M0 0 C1.41702273 2.83404545 1.61631027 5.61675657 2.0625 8.75 C2.23910156 9.96171875 2.41570312 11.1734375 2.59765625 12.421875 C2.96131954 15.65600678 3.07476926 18.75002958 3 22 C-4.32168224 23.16558465 -11.62346781 24.24984418 -19 25 C-21.31177931 17.44818759 -21.6123387 9.83483894 -22 2 C-7.40318907 -0.29612756 -7.40318907 -0.29612756 0 0 Z " fill="#299168" transform="translate(151,182)"/>
<path d="M0 0 C0.99 0.99 0.99 0.99 2 2 C0.824375 1.855625 -0.35125 1.71125 -1.5625 1.5625 C-2.22378906 1.48128906 -2.88507813 1.40007812 -3.56640625 1.31640625 C-5.45979053 1.0702359 -7.34857732 0.78860414 -9.23486328 0.49291992 C-15.2539883 -0.2950851 -21.24954647 -0.22556492 -27.3125 -0.25 C-29.21418945 -0.2809375 -29.21418945 -0.2809375 -31.15429688 -0.3125 C-38.62980921 -0.34347053 -45.00413552 0.28954966 -52 3 C-50.36417969 2.75830078 -50.36417969 2.75830078 -48.6953125 2.51171875 C-43.42256659 1.85697118 -38.1828491 1.80811153 -32.875 1.8125 C-31.35628296 1.8137085 -31.35628296 1.8137085 -29.80688477 1.81494141 C-19.86036613 1.89586546 -10.44580233 2.65958253 -1 6 C-4.29250689 7.07813183 -6.42782517 6.86435358 -9.77734375 6.0859375 C-16.36209379 4.78932227 -22.82644668 4.62778097 -29.52514648 4.62939453 C-31.56382441 4.62499714 -33.6003708 4.58846865 -35.63867188 4.55078125 C-44.67217812 4.52425113 -52.6252234 5.14603014 -59.625 11.3125 C-61.45371801 14.88681248 -61.63709264 17.03586802 -61 21 C-57.30845517 26.29121425 -51.87403025 27.95834677 -46 30 C-46 30.33 -46 30.66 -46 31 C-54.05183597 31.39312762 -60.03952194 31.43936253 -66.375 25.9375 C-69.42176016 22.30482442 -69.47065387 19.22989893 -69.390625 14.6015625 C-68.71261759 10.08603313 -66.57110508 7.71126619 -63 5 C-44.67289903 -6.15430523 -20.13521105 -4.9994032 0 0 Z " fill="#E4ACA8" transform="translate(451,235)"/>
<path d="M0 0 C11.88 0 23.76 0 36 0 C36 2.97 36 5.94 36 9 C23.97960136 9.94014291 12.05276854 10.11114233 0 10 C0 6.7 0 3.4 0 0 Z " fill="#F4F8F5" transform="translate(126,256)"/>
<path d="M0 0 C1.94229492 0.00676758 1.94229492 0.00676758 3.92382812 0.01367188 C7.095101 0.02537399 10.26627546 0.04176887 13.4375 0.0625 C13.4375 3.0325 13.4375 6.0025 13.4375 9.0625 C1.2275 9.0625 -10.9825 9.0625 -23.5625 9.0625 C-23.5625 6.4225 -23.5625 3.7825 -23.5625 1.0625 C-15.68902596 -0.02556442 -7.93970997 -0.05279603 0 0 Z " fill="#F3F7F4" transform="translate(148.5625,230.9375)"/>
<path d="M0 0 C7.75864831 -0.08253881 15.30088239 0.02674811 23 1 C21.13236819 6.72210596 19.14710968 12.37661751 17 18 C10.90673051 17.44606641 5.76123315 16.07044316 0 14 C0 9.38 0 4.76 0 0 Z " fill="#E85987" transform="translate(730,228)"/>
<path d="M0 0 C-0.73624034 10.19111627 -2.13263697 19.50738166 -6 29 C-10.82829428 27.51299286 -13.7487769 24.78716744 -17.3125 21.375 C-17.86228516 20.859375 -18.41207031 20.34375 -18.97851562 19.8125 C-20.32498054 18.54799382 -21.66332535 17.27485078 -23 16 C-20.19810394 13.81503519 -17.33883995 12.00099844 -14.25 10.25 C-9.88460949 7.67603641 -6.20206009 4.7652953 -2.49609375 1.3203125 C-1 0 -1 0 0 0 Z " fill="#F5B922" transform="translate(423,112)"/>
<path d="M0 0 C0.77085937 0.49371094 1.54171875 0.98742187 2.3359375 1.49609375 C3.33882813 2.13675781 4.34171875 2.77742188 5.375 3.4375 C6.37273437 4.07558594 7.37046875 4.71367188 8.3984375 5.37109375 C10.85830521 6.96899211 10.85830521 6.96899211 13 8 C11.62712658 11.69876091 9.93644547 14.9514476 7.875 18.3125 C7.33617187 19.19550781 6.79734375 20.07851562 6.2421875 20.98828125 C5.62730469 21.98408203 5.62730469 21.98408203 5 23 C1.09714233 21.41332422 -1.33520982 18.86649519 -4.25 15.875 C-5.14203125 14.96492188 -6.0340625 14.05484375 -6.953125 13.1171875 C-7.62859375 12.41851562 -8.3040625 11.71984375 -9 11 C-8.06558465 9.72689688 -7.12732889 8.456612 -6.1875 7.1875 C-5.66542969 6.47980469 -5.14335937 5.77210937 -4.60546875 5.04296875 C-3.16871123 3.21468607 -1.68184237 1.60103312 0 0 Z " fill="#F5B920" transform="translate(405,77)"/>
<path d="M0 0 C5.15464734 0.48324819 8.81550319 3.18610761 13 6 C12.42176904 10.06225548 11.10882263 12.84762346 8.9375 16.3125 C8.38964844 17.19550781 7.84179688 18.07851563 7.27734375 18.98828125 C6.85582031 19.65214844 6.43429687 20.31601562 6 21 C2.20206721 19.68302856 -0.35328268 18.08343619 -3.3125 15.375 C-4.00988281 14.74335937 -4.70726562 14.11171875 -5.42578125 13.4609375 C-5.94527344 12.97882812 -6.46476562 12.49671875 -7 12 C-5.44298069 7.32894208 -2.91552627 3.91294315 0 0 Z " fill="#F5B921" transform="translate(408,43)"/>
<path d="M0 0 C1.27138808 4.92662882 1 8.53685423 1 14 C-6.59 13.01 -14.18 12.02 -22 11 C-22.33 9.02 -22.66 7.04 -23 5 C-19.40420992 3.48251061 -15.84382862 2.33858181 -12.0625 1.375 C-11.06347656 1.11460937 -10.06445312 0.85421875 -9.03515625 0.5859375 C-5.94675951 -0.01027809 -3.13707819 -0.10285502 0 0 Z " fill="#E85786" transform="translate(704,225)"/>
<path d="M0 0 C-0.33 0.99 -0.66 1.98 -1 3 C-1.61101562 2.7834375 -2.22203125 2.566875 -2.8515625 2.34375 C-17.17607931 -2.01413117 -33.8027178 -1.54771624 -48 3 C-49.09183594 3.34804688 -50.18367187 3.69609375 -51.30859375 4.0546875 C-53.35896665 4.72911988 -55.40418229 5.4196459 -57.44140625 6.1328125 C-59.61789935 6.87049413 -61.76250462 7.48405989 -64 8 C-64 8.66 -64 9.32 -64 10 C-64.66 9.67 -65.32 9.34 -66 9 C-66 8.34 -66 7.68 -66 7 C-45.9413309 -3.46539257 -21.88964661 -7.29654887 0 0 Z " fill="#A874B0" transform="translate(608,253)"/>
<path d="M0 0 C15.70711698 2.28415884 27.82051464 19.25025874 37 31 C31.54443566 29.49574731 28.14289179 25.69791456 24.1875 21.875 C23.49462891 21.21628906 22.80175781 20.55757812 22.08789062 19.87890625 C20.38571219 18.25890195 18.69012081 16.63256449 17 15 C17.33 14.34 17.66 13.68 18 13 C17.43152344 12.76925781 16.86304688 12.53851563 16.27734375 12.30078125 C3.91385218 7.07880568 3.91385218 7.07880568 0.5625 1.6875 C0.376875 1.130625 0.19125 0.57375 0 0 Z " fill="#E6E9F4" transform="translate(307,183)"/>
<path d="M0 0 C1.4540625 0.0309375 1.4540625 0.0309375 2.9375 0.0625 C2.9375 3.0325 2.9375 6.0025 2.9375 9.0625 C0.9575 9.3925 -1.0225 9.7225 -3.0625 10.0625 C-3.25662181 8.58418779 -3.44262131 7.10480684 -3.625 5.625 C-3.72941406 4.80128906 -3.83382812 3.97757813 -3.94140625 3.12890625 C-3.98136719 2.44699219 -4.02132812 1.76507813 -4.0625 1.0625 C-3.0625 0.0625 -3.0625 0.0625 0 0 Z " fill="#624446" transform="translate(640.0625,59.9375)"/>
<path d="M0 0 C2.31 0 4.62 0 7 0 C7 2.97 7 5.94 7 9 C5.35 9.33 3.7 9.66 2 10 C0.39644899 6.49223216 -0.22036864 3.85645121 0 0 Z " fill="#614345" transform="translate(625,62)"/>
<path d="M0 0 C0.66 0.33 1.32 0.66 2 1 C-14.14893617 15.34042553 -14.14893617 15.34042553 -22 20 C-20.64527118 14.35182293 -16.60907677 12.05750404 -12.125 8.875 C-11.40441406 8.35035156 -10.68382812 7.82570313 -9.94140625 7.28515625 C-8.59510133 6.3058 -7.24538189 5.33110702 -5.89111328 4.36279297 C-3.90789988 2.93362989 -1.95147148 1.47212473 0 0 Z " fill="#3E9870" transform="translate(200,95)"/>
<path d="M0 0 C9.97643593 -0.24234257 19.42122305 -0.19292565 29 3 C28.67 3.99 28.34 4.98 28 6 C26.81664062 5.72285156 25.63328125 5.44570312 24.4140625 5.16015625 C16.27929562 3.28515183 8.35393605 1.53896362 0 1 C0 0.67 0 0.34 0 0 Z " fill="#A066A8" transform="translate(579,250)"/>
<path d="M0 0 C2.97 0 5.94 0 9 0 C8.67 1.65 8.34 3.3 8 5 C5.36 5.33 2.72 5.66 0 6 C0 4.02 0 2.04 0 0 Z " fill="#FEF8ED" transform="translate(478,80)"/>
<path d="M0 0 C0.66 0.33 1.32 0.66 2 1 C-1.26545995 5.64039045 -5.18070299 9.94777856 -10 13 C-10.99 13 -11.98 13 -13 13 C-13 12.34 -13 11.68 -13 11 C-11.25998065 9.44038399 -9.45696803 7.95050425 -7.625 6.5 C-3.68517459 3.39240862 -3.68517459 3.39240862 0 0 Z " fill="#EAF1EB" transform="translate(174,118)"/>
<path d="M0 0 C0.66 0.33 1.32 0.66 2 1 C-1.62534285 6.07547999 -5.55572478 9.87243764 -11 13 C-11.99 12.67 -12.98 12.34 -14 12 C-9.38 8.04 -4.76 4.08 0 0 Z " fill="#EAF1EB" transform="translate(171,112)"/>
<path d="M0 0 C1.2065625 0.0309375 1.2065625 0.0309375 2.4375 0.0625 C3.0625 2.4375 3.0625 2.4375 3.4375 5.0625 C2.7775 5.7225 2.1175 6.3825 1.4375 7.0625 C-0.6875 6.6875 -0.6875 6.6875 -2.5625 6.0625 C-2.94468767 4.40635343 -3.27645102 2.73792976 -3.5625 1.0625 C-2.5625 0.0625 -2.5625 0.0625 0 0 Z " fill="#FBF4F3" transform="translate(427.5625,256.9375)"/>
<path d="M0 0 C1.2065625 0.0309375 1.2065625 0.0309375 2.4375 0.0625 C3.0625 2.4375 3.0625 2.4375 3.4375 5.0625 C2.7775 5.7225 2.1175 6.3825 1.4375 7.0625 C-0.6875 6.6875 -0.6875 6.6875 -2.5625 6.0625 C-2.94468767 4.40635343 -3.27645102 2.73792976 -3.5625 1.0625 C-2.5625 0.0625 -2.5625 0.0625 0 0 Z " fill="#FCEFF2" transform="translate(696.5625,251.9375)"/>
<path d="M0 0 C0.66 0.33 1.32 0.66 2 1 C-0.19798272 2.96841564 -2.40072925 4.93076505 -4.61328125 6.8828125 C-6.02136897 8.1318854 -7.41932517 9.39283185 -8.79296875 10.6796875 C-10.3125 12.0625 -10.3125 12.0625 -13 14 C-15.16796875 13.62109375 -15.16796875 13.62109375 -17 13 C-16.52054932 12.64172119 -16.04109863 12.28344238 -15.54711914 11.91430664 C-13.38495777 10.29786735 -11.22371811 8.68020021 -9.0625 7.0625 C-7.93038086 6.21655273 -7.93038086 6.21655273 -6.77539062 5.35351562 C-6.05673828 4.81533203 -5.33808594 4.27714844 -4.59765625 3.72265625 C-3.60004272 2.97640991 -3.60004272 2.97640991 -2.58227539 2.21508789 C-1.04817319 1.09155506 -1.04817319 1.09155506 0 0 Z " fill="#58A17D" transform="translate(204,100)"/>
<path d="M0 0 C-3.3 2.97 -6.6 5.94 -10 9 C-10.99 8.67 -11.98 8.34 -13 8 C-5.38235294 -1.79411765 -5.38235294 -1.79411765 0 0 Z " fill="#3E9871" transform="translate(189,115)"/>
<path d="M0 0 C1.65 0 3.3 0 5 0 C3.77263971 4.15414253 2.672336 6.43688534 0 10 C0 6.7 0 3.4 0 0 Z " fill="#E95B88" transform="translate(733,267)"/>
<path d="M0 0 C0.66 0.33 1.32 0.66 2 1 C0.59785066 2.36919284 -0.82228473 3.71998709 -2.25 5.0625 C-3.43335938 6.19365234 -3.43335938 6.19365234 -4.640625 7.34765625 C-5.41921875 7.89292969 -6.1978125 8.43820313 -7 9 C-8.32 8.67 -9.64 8.34 -11 8 C-7.37 5.36 -3.74 2.72 0 0 Z " fill="#5BA27E" transform="translate(200,95)"/>
<path d="M0 0 C0.66 0.33 1.32 0.66 2 1 C0.9024777 3.99324263 0.32317108 4.84610901 -2.625 6.25 C-3.40875 6.4975 -4.1925 6.745 -5 7 C-3.70700306 4.11562221 -2.34058637 2.12780579 0 0 Z " fill="#E5EDE7" transform="translate(171,129)"/>
<path d="M0 0 C0.66 0.33 1.32 0.66 2 1 C0.15794162 3.54379491 -1.72478134 5.83312509 -4 8 C-4.66 7.67 -5.32 7.34 -6 7 C-4.02 4.69 -2.04 2.38 0 0 Z " fill="#F2F6F2" transform="translate(177,124)"/>
</svg>
