<svg width="800" height="376"><path fill="#fefefd" d="M479.836-.446c2.16.008 4.317-.02 6.476-.052 8.806-.046 14.71.616 21.782 6.13C512 9.779 512 9.779 512 12l2.492-.176c7.975-.322 14.01.287 20.508 5.176 9.792 10.097 9.185 21.706 9 35l1.617-.64c5.915-2.176 11.115-2.813 17.387-2.837a1218 1218 0 0 1 11.559-.148q4.386-.055 8.773-.123 2.715-.04 5.432-.063c9.16.245 9.16.245 17.447-2.712l1.722-1.852c5.792-6.2 14.656-7.127 22.688-8.313l2.445-.392c9.869-1.514 18.557-1.344 27.051 4.553 5.313 4.833 8.395 10.956 9.152 18.109.08 5.193-.513 10.288-1.273 15.418l1.8-1.285a324 324 0 0 1 16.657-11.04c2.596-1.653 2.596-1.653 5.055-3.695C694 55 694 55 696.622 53.555c2.807-1.835 3.844-3.503 5.44-6.43l1.551-2.695L705 42c4.234-6.654 12.373-11.288 20-13 10.316-1.69 20.117-.91 29 5 6.653 5.225 10.243 11.769 12 20 .68 7.14-.914 11.907-3.645 18.484-1.387 3.6-2.365 7.148-3.293 10.891-1.99 7.852-4.895 15.182-8.062 22.625l2.277.785c6.188 2.761 9.71 8.463 12.16 14.59 3.548 11.18 1.19 21.228-3.91 31.629-3.54 6.285-7.695 12.044-11.964 17.84-3.15 4.36-5.404 8.784-7.493 13.75-4.293 9.652-12.18 13.586-21.07 18.406l1.875-.5c7.825-1.252 15.84-.42 23.688.312l2.67.213c10.004.923 18.015 3.202 24.767 10.975 3.915 5.448 4.06 9.912 3.625 16.5-.217 5.474-.217 5.474 2.34 10.113a128 128 0 0 0 5.363 4.297c4.3 3.364 6.968 7.395 9.672 12.09l1.54 2.61c3.747 7.746 3.947 15.205 4.023 23.702l.044 3.399c-.084 6.727-.885 11.637-4.607 17.289l-1.352 2.137c-4.785 5.827-11.219 9.45-18.648 10.863-8.95 0-15.319-3.233-22-9 0 2.98.403 4.308 1.531 6.992 8.061 19.88 8.061 19.88 4.574 30.813-3.192 7.195-7.52 11.703-14.765 14.718-18.147 6.507-37.756 8.32-55.715.29-6.448-3.477-11.472-8.733-13.625-15.813-.364-2.933-.506-5.86-.625-8.813l-.117-2.388A883 883 0 0 1 675 328l-2.125.105c-9.202.263-15.211-2.08-23.21-6.335-1.662-.91-1.662-.91-3.665-.77-1.454 2.118-1.454 2.118-2.875 4.75-1.571 2.813-2.872 5.013-5.23 7.223-2.358 2.523-2.694 4.347-3.332 7.714-2.348 10.236-7.208 17.838-15.563 24.313-12.758 7.975-25.383 11.531-40.437 11.437l-3.448.061c-12.4-.007-23.817-3.412-32.861-12.193-2.564-2.852-4.3-5.397-6.004-8.868-2.209-4.149-5.741-5.694-9.73-7.937-10.415-6.2-15.349-18.014-20.52-28.5l-1.555 1.687c-7.177 7.153-14.925 10.613-24.195 14.392-8.474 3.457-8.474 3.457-16.125 8.421-7.86 5.658-16.37 8.943-26.125 7.5-8.806-1.999-16.183-6.054-21.147-13.787C412.536 329.824 409 322.706 409 314h-2l.105 2.492c.227 9.35-.197 17.273-6.168 24.82-10.364 10.688-28.366 13.426-42.68 13.891-16.47.25-39.216.175-52.257-11.203-2.706 1.035-5.196 2.112-7.719 3.547-3.788 1.678-6.526 1.886-10.656 1.89l-3.773.06c-10.44-1.345-16.42-8.575-23.352-15.747l-3.07-3.125A1368 1368 0 0 1 250 323l-4.115 6.96a5249 5249 0 0 1-3.548 5.991c-2.762 4.664-5.511 9.331-8.18 14.049-10.643 18.737-10.643 18.737-21.157 22-8.054 1.762-15.215 1.004-22.25-3.438-4.401-3.142-8.497-6.65-12.594-10.174-5.693-4.893-11.596-9.497-17.518-14.107-3.908-3.057-7.771-6.172-11.638-9.281-4.533 1.458-7.678 4.022-11.187 7.125a2608 2608 0 0 1-3.493 3.016l-1.721 1.49c-2.872 2.459-5.84 4.792-8.806 7.135a449 449 0 0 0-6.617 5.406c-20.889 17.315-20.889 17.315-33.457 17.094-8.445-.825-13.685-4.542-19.125-10.852-4.22-6.392-3.868-12.835-3.781-20.223l.021-3.57c.125-14.193.604-28.377 1.093-42.56.195-5.674.382-11.35.569-17.024q.097-2.92.2-5.839c.225-6.736.365-13.458.304-20.198l-2.887 1.496q-1.9.972-3.8 1.941l-1.897.987C50.953 262.183 47.857 263.497 44 264l-2.078.273C31.23 264.773 17.168 261.175 9 254c-6.829-6.69-8.45-12.629-9-22l-.2-3.082c-.388-11.094 1.754-21.345 9.196-29.875L11 197l1.973-2.012c6-5.386 12.761-8.226 20.078-11.356C42.694 179.425 51.295 173.865 60 168l2.189-1.463A497 497 0 0 0 88 148l-1.202-1.155c-32.381-31.273-32.381-31.273-32.939-50.255.51-9.39 2.801-17.692 9.703-24.34 6.628-5.374 14.445-8.003 22.973-7.559 9.59 1.2 15.272 5.026 22.465 11.309q2.712 2.228 5.438 4.437 4.257 3.483 8.492 6.993l2.882 2.382 2.583 2.145c2.785 2.184 5.638 4.116 8.605 6.043q4.097-2.556 8.188-5.125l2.557-1.605a509 509 0 0 0 13.911-9.079l2.8-1.896a783 783 0 0 0 5.336-3.66c8.034-5.464 14.376-8.177 24.146-7.948l2.395.035C208.381 69.005 215.648 72.25 224 81l1.652-1.836 2.286-2.539 2.5-2.79a381 381 0 0 1 4.812-5.233c4.375-4.704 8.327-9.573 12.063-14.79l1.238-1.727c3.787-5.391 7.162-10.797 9.262-17.085 2.553-6.554 6.424-10.436 12.5-13.875 9.962-3.04 17.11-1.783 26.625 2.062 2.158.996 2.158.996 5.062.813l.688-2.625c2.673-6.873 6.675-10.185 13.16-13.321 5.707-1.908 11.502-1.792 17.456-1.706 2.194.027 4.382 0 6.575-.032 9.188-.023 17.111.965 24.078 7.527 2.729 2.922 4.271 5.194 5.043 9.157l2.816-.035c10.69-.078 10.69-.078 14.997.91 4.46.175 6.684-1.808 10.171-4.43 3.697-2.65 6.97-2.607 11.391-2.633l3.398-.042c3.194.228 5.323.96 8.227 2.23 3.172-.25 5.264-1.13 8.137-2.54 4.14-1.793 7.848-1.806 12.3-1.648l2.217.042c1.783.034 3.564.088 5.346.146l.773-2.273c1.298-2.885 2.488-4.29 4.852-6.352l1.914-1.727C463.23-.504 470.852-.5 479.836-.446M645 95c-1.675 1.91-3.088 3.912-4.535 6-3.528 4.817-7.653 7.478-13.465 9l.805 1.61L635 126c2.602-3.106 3.795-5.982 5.063-9.813 2.622-7.118 6.496-12.977 10.828-19.167 2.048-2.776 2.048-2.776 3.109-5.02-3.392 0-6.184 1.217-9 3m-114-1c-2.693 2.087-4.662 3.81-5.613 7.16-.218 2.563-.177 4.385.613 6.84 1.84 1.677 3.684 2.686 5.895 3.824 4.75 2.653 7.49 7.058 9.105 12.176.23 3.629.23 3.629.188 7.562l-.02 3.942c-.13 2.721-.35 4.923-1.168 7.496l2.273-.219c6.6-.598 13.102-.913 19.727-.781l-1.023-3.402-.651-2.187a705 705 0 0 0-1.423-4.709c-1.21-4.025-2.086-7.753-2.466-11.952-.275-2.063-.275-2.063-1.437-3.75-2.916-1.68-5.757-2.795-8.957-3.832-5.466-2.098-8.332-4.947-10.73-10.23-1.317-2.852-2.563-5.312-4.313-7.938m-301 18-.629 2.055C225.722 125.077 220.024 132.812 211 140l-6 4.937q-2.499 2.034-5 4.063c1.41 3.307 3.055 5.155 5.813 7.437 2.218 1.85 4.269 3.652 6.228 5.78 3.692 3.704 8.101 6.367 12.475 9.193l2.815 1.843a3473 3473 0 0 0 8.919 5.81q5.825 3.792 11.64 7.597l2.857 1.865a501 501 0 0 1 20.19 13.968c3.206 2.606 3.206 2.606 7.063 3.507l-.586-1.758L275 197l-1.086-2.809c-1.076-3.756-1.208-7.257-1.164-11.129l-.023-2.052c.018-4.73.814-8.568 2.273-13.01l-2.781-.262c-9.32-1.067-15.76-2.655-22.094-9.738-3.672-5.184-4.388-9.152-4.54-15.488-.018-.703-.038-1.407-.058-2.131a1128 1128 0 0 1-.152-6.694l-.117-4.556q-.142-5.565-.258-11.131l-2.266-.805-2.984-1.07-2.953-1.055A61 61 0 0 1 230 112m402 31-1.562 2.687C625.142 153.677 614.51 156.522 606 160l1 11 3.29.184 4.335.253 2.16.12c3.283.195 6.343.469 9.578 1.119L629 173c2.646-2.229 2.646-2.229 5-5a123 123 0 0 1 5-3l-1.059-2.527c-2.671-6.607-4.579-12.346-4.941-19.473zm-234 17-1.215 1.207-1.723 1.605-1.652 1.583c-8.418 5.607-17.77 4.969-27.473 4.792a2243 2243 0 0 0-4.357-.04c-3.527-.033-7.053-.085-10.58-.147l2.403 2.346c2.372 2.424 3.83 4.537 5.472 7.466 1.444 2.355 1.444 2.355 3.125 4.188 3.374.5 3.374.5 7 0 7.11 1.566 13.4 4.418 17.75 10.437 3.18 5.388 3.625 11.44 4.25 17.563l2.379-.402 3.183-.536 3.13-.527L403 209c1.045-.182 2.09-.364 3.168-.55 24.484-2.871 54.41-.727 74.832 14.55 2.378 2.479 4.225 5.067 6 8 2.593 4.511 2.593 4.511 7 7l-.485-1.9c-.705-4.244-.718-8.417-.753-12.713l-.025-2.814q-.02-2.94-.032-5.882a664 664 0 0 0-.062-5.99 772 772 0 0 1-.069-8.69l-.053-2.677c.031-8.998 3.583-14.783 9.479-21.334a1029 1029 0 0 0-13.188-6.158 154 154 0 0 1-4.273-2.08c-3.891-1.803-6.275-1.818-10.226-.512l-2.137.89c-9.032 3.568-22.49 3.546-31.707.813-3.323-1.661-5.845-3.33-8.469-5.953-2.372.339-4.35 1.145-6.562 2.062-8.82 2.406-16.386 1.054-24.438-3.062zm244 63-2 11 3.813-2.875A151 151 0 0 1 651 226v-2zm-133 27 1 2h2v-2zm-255 21c.61 3.558 1.578 6.683 3 10l4-4c-3.175-3.426-3.175-3.426-7-6m495 27 1 2Zm1 2 1 2Zm1 3 1 2Z"/><path fill="#269067" d="M89 216h110c0 22.985 0 22.985-.219 30.484l-.067 2.538q-.104 3.864-.214 7.728l-.145 5.363q-.173 6.443-.355 12.887c-10.009 1.887-19.889 3.474-30.062 4.188l-3.237.248q-3.849.292-7.701.564c28.156 22.153 28.156 22.153 61.688 32.563l3.574.253L225 313a67.5 67.5 0 0 1-4.645 9.8l-1.552 2.714-1.615 2.798-1.58 2.764A422 422 0 0 1 206 347c-4.632-2.558-8.56-5.77-12.625-9.125l-2.152-1.763a3037 3037 0 0 1-4.27-3.507c-2.538-2.086-5.09-4.157-7.64-6.23-5.587-4.578-11.102-9.237-16.6-13.92-1.749-1.485-3.506-2.96-5.264-4.435l-3.574-3.02-1.798-1.497c-2.82-2.39-5.38-4.754-7.702-7.636-4.933-5.904-8.5-8.387-16.076-9.28a155 155 0 0 0-10.184-.464C116 286 116 286 112 285v30l21-3c-7.06 7.06-14.45 13.444-22.33 19.559a471 471 0 0 0-10.022 8l-2.189 1.798q-2.112 1.74-4.217 3.491l-1.941 1.597-1.714 1.423C89 349 89 349 86 350q.183-8.018.372-16.034.064-2.706.125-5.412c.22-9.66.483-19.313.87-28.967.697-17.424.96-34.84 1.195-52.274z"/><path fill="#97579f" d="m582.938 249.75 2.93.02c11.576.168 21.975 1.874 32.007 7.98 8.46 8.959 7.32 21.259 7.375 32.813l.063 3.248c.04 8.362-.698 16.173-6.688 22.502l-1.71 1.863C615 320 615 320 612.3 321.805c-2.611 2.045-2.611 2.045-2.797 5.402l.058 3.606c-.237 5.455-.47 8.939-4.48 12.792-8.287 5.551-17.074 7.588-26.832 7.707l-2.344.088c-5.776.063-10.078-1.176-14.906-4.4-3.595-4.06-3.67-8.788-4-14l-2.652-.332c-6.58-1.313-14.264-5.1-18.243-10.688-4.568-8.185-7.531-16.787-9.98-25.793l-.652-2.35c-1.72-6.69-2.697-12.997.09-19.462A62 62 0 0 1 528 271l1.297-1.707c12.503-14.275 35.496-19.727 53.64-19.543"/><path fill="#295ba9" d="M299 178c11.538-.961 20.948 4.205 30 11l1 1c1.347.23 2.704.412 4.063.563L338 191l.664 2.379c2.105 6.974 4.316 11.373 9.336 16.621v2c3.357 1.596 3.357 1.596 7 1.875 2.712-1.186 4.72-3.004 7-4.875l3-1c-1.015 2.185-1.916 3.91-3.562 5.688-2.19 3.522-2.185 7.236-2.438 11.312h8v26l-6.29-.195c-15.943-.655-15.943-.655-29.605 5.984-3.078 3.725-5.541 7.766-7.852 12.003-1.749 3.081-3.846 5.626-6.128 8.333l-1.867 2.32L314 281l3.36-1.496 4.39-1.942 2.21-.986 2.15-.947 1.967-.873c5.507-2.165 11.253-2.646 16.923-.756 1.407 2.814 1.094 5.142 1.063 8.285l-.024 3.795-.039 3.983q-.038 3.892-.062 7.785l-.036 3.5c-.206 2.575-.206 2.575 1.098 3.652 11.34.923 19.597-.3 30-5l4-1v26c-17.389 6.048-39.405 7.097-57 1-1.804-1.804-1.237-4.567-1.316-7.004l-.127-3.682-.12-3.877-.13-3.888q-.16-4.775-.307-9.549c-8.92 6.121-17.687 12.258-25.8 19.433-2.993 2.634-5.712 4.474-9.2 6.567l-17-17c1.532-3.063 2.667-4.99 4.8-7.512l1.692-2.02 1.82-2.156c6.567-7.875 12.841-15.933 19.022-24.112 2.978-3.932 5.98-7.846 8.978-11.762l3.301-4.317L312 252c-8.08-.123-16.047.13-24.102.781-4.958.279-9.931.219-14.898.219v-22q10.587-.832 21.173-1.654l7.177-.562c22.951-1.803 22.951-1.803 34.369-2.409l2.233-.119c6.353-.314 12.69-.359 19.048-.256-.706-2.691-.706-2.691-3-5-3.631-.567-7.217-.281-10.875-.062-10.302.58-10.302.58-14.04-1.774L327 217a97 97 0 0 0-4.5-2.562c-2.55-1.371-4.993-2.753-7.437-4.313L313 209l-2 1-1.125-3.062c-1.226-2.892-2.623-4.948-4.75-7.25-4.097-4.538-7.963-10.257-8.258-16.493L297 181h3z"/><path fill="#299168" d="M83.738 90.691c4.058.384 5.422 1.567 8.45 4.246l2.886 2.497L98 100a851 851 0 0 0 5.5 4.5l11 9 2.742 2.242q2.791 2.286 5.578 4.578c5.66 4.65 11.37 9.219 17.18 13.68l.5-2.5c3.586-8.368 11.101-12.739 18.642-17.276 7.382-4.455 14.437-9.363 21.495-14.31l2.722-1.887 2.421-1.695c2.12-1.272 3.805-1.893 6.22-2.332-1.54 4.265-4.746 6.39-8.25 9-5.882 4.491-11.548 9.17-17.13 14.027-2.802 2.434-5.61 4.8-8.62 6.973 5.081-1.627 8.952-4.678 13.188-7.812a2133 2133 0 0 0 12.361-9.07q2.496-1.844 4.997-3.677a711 711 0 0 0 4.703-3.477l2.153-1.577 1.89-1.4C199 96 199 96 202 96c-14.805 12.95-14.805 12.95-22.45 18.95a242 242 0 0 0-5.945 4.945l-1.778 1.524a662 662 0 0 0-3.45 2.99c-2.46 2.114-4.267 3.554-7.377 4.591v2c5.113-2.79 9.701-5.89 14.313-9.437 6.098-4.63 12.238-9.194 18.437-13.688l2.31-1.685 2.174-1.573 1.913-1.387c1.889-1.254 3.807-2.26 5.853-3.23-2.557 3.374-5.08 6.054-8.437 8.625a358 358 0 0 0-12 9.813 595 595 0 0 1-15.418 12.687c-2.334 1.876-2.334 1.876-4.145 4.875a7965 7965 0 0 0 9.66-6.796 984 984 0 0 0 12.371-8.86l2.456-1.789q2.358-1.72 4.71-3.452l2.17-1.583 1.91-1.404C201 111 201 111 204 110c-1.365 4.37-3.13 6.258-6.75 9-4.687 3.683-9.094 7.542-13.437 11.625l-3.583 3.352-1.69 1.583C164.167 149 164.167 149 159 149v2l1.633.691c3.084 1.705 5.603 3.939 8.242 6.246 3.628 3.14 7.277 6.216 11.09 9.13l1.948 1.49q1.875 1.425 3.768 2.826c1.494 1.137 2.915 2.37 4.319 3.617v3c1.543 1.455 1.543 1.455 3.658 2.749l2.437 1.604 2.686 1.721 2.767 1.81c2.978 1.943 5.965 3.873 8.952 5.804a6327 6327 0 0 1 6.077 3.966q5.982 3.906 11.972 7.8a2553 2553 0 0 1 20.138 13.233l2.922 1.92 2.59 1.717 2.183 1.44C258 223 258 223 259 225c.203 2.059.203 2.059.25 4.438l.078 2.37c-.408 2.729-1.16 3.536-3.328 5.192-4.154 1.385-7.672 1.897-12 1-3.301-2.091-5.871-4.747-8.562-7.562q-2.125-2.13-4.254-4.254l-2.1-2.13c-2.635-2.597-5.399-5.013-8.202-7.426-2.814-2.435-5.534-4.967-8.257-7.503-4.704-4.36-9.43-8.69-14.219-12.957a291 291 0 0 1-5-4.617l-2.594-2.426-2.292-2.18c-2.433-1.877-4.73-2.977-7.572-4.11-3.82-1.638-7.363-3.805-10.948-5.898l-2.511-1.46c-7.708-4.525-15.116-9.43-22.489-14.477q-2.715-1.817-5.437-3.625L136 155l-2.57 2.238c-6.06 5.25-12.158 10.41-18.493 15.325-6.256 4.857-12.313 9.914-18.328 15.066a613 613 0 0 1-4.855 4.086c-13.55 11.32-26.958 23.018-37.832 36.98-3.239 3.884-7.524 8.938-12.805 9.508-5.751.12-9.845-.902-15.117-3.203a429 429 0 0 1-.25-7.687l-.102-2.186c-.069-3.788.072-5.675 2.114-8.975 4.604-4.427 10.101-7.278 15.957-9.761 23.155-9.97 44.02-25.921 64.194-40.867a440 440 0 0 1 7.161-5.09l2.557-1.803a635 635 0 0 1 4.888-3.409l2.176-1.542 1.938-1.352L128 151v-3c-1.884-1.837-1.884-1.837-4.375-3.625-4.571-3.522-8.88-7.216-13.137-11.11a274 274 0 0 0-4.883-4.343C81.34 107.754 81.34 107.754 79.684 96.934 79.625 95 79.625 95 80 92c1-1 1-1 3.738-1.309"/><path fill="#47b036" d="m738 54 2 2c-.298 2.332-.298 2.332-1 5l-.585 2.32c-3.862 14.12-7.418 26.193-16.67 37.765-4.912 6.222-9.806 13.306-10.495 21.415.448 3.667.448 3.667 3.313 6 6.086 2.656 11.086 1.443 17.285-.05 2.763-.577 5.342-.66 8.152-.45 1 1 1 1 1.375 3.938-.212 8.744-6.718 16.243-11.72 22.976-3.798 5.129-6.995 10.366-9.467 16.274-2.131 4.245-4.986 5.85-9.188 7.812a581 581 0 0 0-6.062 3.188l-3.395 1.8c-3.123 1.72-6.05 3.66-8.994 5.666-5.738 3.894-10.411 6.734-17.549 6.346-4.274-.153-7.45.041-11.437 1.5-4.48 1.598-7.813 2.064-12.563 1.5-2.5-1.687-2.5-1.687-4-4-.375-2.625-.375-2.625 0-5 3.093-3.093 6.822-2.753 11.055-3.242 3.438-.885 4.724-2.04 6.945-4.758 1.325-2.65 1.073-4.79 1.125-7.75.332-4.4.676-6.873 4.063-9.812 3.09-2.167 6.373-3.882 9.812-5.438 1.57-1.57 1.207-3.142 1.25-5.312-.05-2.857-.208-4.587-1.312-7.25-1.99-1.685-1.99-1.685-5.188-2.125-4.692.86-6.136 2.656-9.074 6.253C664 152 664 152 661.856 151.84 660 151 660 151 659 149c-.071-2.374-.084-4.75-.062-7.125l.027-3.883L659 135l3-1 .191-2.238c1.03-8.533 3.737-13.922 8.809-20.762l1.47-2.024c1.64-2.254 3.3-4.492 4.967-6.726l1.592-2.15c5.547-7.263 11.648-12.626 19.748-16.85 2.906-1.634 5.433-3.615 8.008-5.723C709 76 709 76 710.86 75.212c5.978-2.54 8.133-5.566 10.89-11.337a333 333 0 0 1 2.172-4.32l.925-1.923C728.063 53.08 733.012 53.678 738 54"/><path fill="#e85584" d="M710 244c1.988.113 3.976.22 5.966.29 18.948.668 39.102 6.102 53.034 19.71 5.508 7.38 7.366 13.86 7 23l-2 1-.848-1.723c-5.733-11.042-13.075-16.492-24.777-20.527-10.937-2.43-22.632-3.248-33.375.25-.292 6.208.611 11.004 2.598 16.863l.824 2.52q.866 2.636 1.748 5.267a1130 1130 0 0 1 2.594 7.852c3.15 9.566 6.463 19.05 10.1 28.443l.849 2.235.755 1.95C735 333 735 333 735 337c-6.61 2.398-12.83 3.3-19.812 3.313l-2.172.015c-4.365-.057-7.959-.73-12.016-2.328l-.152-1.92c-1.495-31.105-1.495-31.105-15.66-57.83-3.072-2.168-5.574-3.303-9.188-4.25-3.872 8.871-5.091 17.468-6 27h-1c-1.17-5.761-1.332-11.52-1.562-17.375l-.131-3.098q-.159-3.763-.307-7.527c-2.67 3.379-3.906 6.286-5.125 10.438l-1.008 3.37A99 99 0 0 0 659 295h-1c-.826-24.776-.826-24.776 4-36-9.638 9.895-12.468 18.518-15 32h-1c-1.028-14.397 4.007-28.621 12.875-39.875C671.171 237.775 694.1 236.05 710 244"/><path fill="#9857a0" d="m548 167 33 1c0 4.89-.065 8.162-1.094 12.715l-.683 3.076-.723 3.147-.723 3.228q-.879 3.92-1.777 7.834l3.465-.496c7.339-.816 14.725-.61 22.097-.566q2.252.008 4.502.013c3.646.01 7.29.03 10.936.049v27l-46-1-2 22-6.812 1.75A173 173 0 0 0 543 253c.598-10.07 1.663-20.006 3-30l-3.297.438-4.453.562c-.71.095-1.42.19-2.152.29-6.507.805-12.388.71-19.098.71v-27h30v-12c.14-3.422.298-6.832.5-10.25z"/><path fill="#c43c48" d="m456 251 1 3 3.21-.035 4.165-.028 2.117-.025c5.281-.025 5.281-.025 7.508 1.088v3l1.688.41c6.363 1.795 10.958 4.562 15.312 9.59 1.375 3.188 1.375 3.188 2 6l1.012 1.855c2.263 4.912 1.68 10.67.254 15.77-4.087 9.477-12.24 15.332-21.516 19.313-3.053 1.176-5.98 2.117-9.168 2.87-4.941 1.644-8.392 4.518-12.42 7.735-3.009 2.29-4.647 3.395-8.49 3.86C440 325 440 325 438.312 323.436L437 321l-1.687-3c-2.08-5.037-1.915-10.656-1.313-16l2-3c2.227-.325 2.227-.325 4.98-.258l3.03.043 3.178.09C459 299.567 459 299.567 470 296l-1-7 4-1-3-2v-1l-2-2v-3h2v-2l-1.937.563L466 279l-1-1-2 2 1-4-2-1-1 3-1-2-2 2 1-5-1.375 1.375L454 278l-3-1 1-5a176 176 0 0 0-3.562 3.54c-1.337 1.358-2.73 2.662-4.125 3.96-3.31 3.92-3.349 8.839-3.856 13.77L440 296l-2 1-1-16c-3.061 3.061-3.826 4.698-5.187 8.688l-1.043 3.011L430 295h-3l.938-3.562c.722-2.827 1.17-5.389 1.5-8.313L430 280l3-2c-8.21 1.469-8.21 1.469-14.437 6.625l-1.247 1.852c-1.639 1.897-2.882 2.14-5.316 2.523 2.503-4.47 5.11-8.77 8-13-3.643.312-4.856.856-7.5 3.5s-3.857 3.188-7.5 3.5l1.688-2.062c2.214-2.699 2.214-2.699 3.48-4.829 1.18-1.878 2.269-3.532 3.832-5.109 3.313-.437 3.313-.437 6 0v-2l-2.375-.875C415 267 415 267 413 265c-2.899-.243-2.899-.243-6.125-.125l-3.32.055L401 265v-1l7-1-4-1v-3c-1.534-1.678-1.534-1.678-3.5-3.187l-1.969-1.606L397 253l2-1 1.733.935c2.998 1.409 5.241 1.23 8.544 1.112l3.748-.129 3.913-.168 3.806-.121c7.22-.276 14.21-.94 21.325-2.206 4.642-.67 9.253-.592 13.931-.423"/><path fill="#f5b81d" d="M326 32h19v17l32-1v17h-36l-1 7c-4.153 12.527-10.8 22.637-20 32-.565.578-1.13 1.155-1.71 1.75-6.368 5.964-14.644 10.158-23.29 11.25l2.438-3.25 1.656-2.227a265 265 0 0 1 4.062-5.234C312.46 94.406 319.616 81.221 321 66h-16V50h23l-1-5.625c-.768-4.32-1-7.91-1-12.375"/><path fill="#f5b81e" d="M471 25h19l-1 14 4.313-.437L499 38l2.832-.29 2.793-.273 2.54-.253C510.768 36.95 514.387 37 518 37v16c-21.673 1.098-43.306 1.109-65 1l.04 2.414c.143 14.929-3.74 28.728-14.161 39.895-3.012 2.71-6.323 4.77-9.879 6.691-1.188-3.564-.79-4.038.625-7.375 2.19-5.692 3.663-11.45 5.063-17.375l.648-2.724c1.977-8.499 2.863-16.759 3.226-25.463L439 40h33l-1-6z"/><path fill="#5d3f41" d="m620 73 1 13-5.625 2.563c-6.617 3.316-10.507 6.617-13.75 13.25-1.836 9.364-.443 16.324 4.754 24.304A153 153 0 0 0 610 131q-2.842 1.44-5.687 2.875l-3.2 1.617c-7.356 3.563-7.356 3.563-10.265 3.352-4.602-2.101-6.836-8.37-8.66-12.844-2.504-8.348-2.762-18.718.937-26.687 2.387-4.392 4.648-5.79 8.875-9.313h-35V74q8.877-.218 17.755-.427 3.007-.072 6.013-.146c13.08-.321 26.148-.496 39.232-.427"/><path fill="#f5b920" d="M334 92h40v15h-14v19h18v19l-51-2v-15h21v-20h-13z"/><path fill="#f5b81d" d="M281 45c4.14 1.544 7.936 3.51 11.813 5.625l1.81.984Q296.813 52.802 299 54c-.595 4.175-2.003 7.182-4.125 10.813l-1.695 2.957C291 71 291 71 289.28 72.554c-4.384 4.067-5.775 7.146-6.075 13.137.001 2.631.039 5.243.111 7.871q.02 2.103.03 4.204c.027 3.663.096 7.325.173 10.988.072 3.747.104 7.494.14 11.242.074 7.336.197 14.67.341 22.004h-14c-.068-12.552.129-25.079.5-37.625l.145-5.102q.173-6.136.355-12.273l-1.828 1.059-2.422 1.379-2.39 1.37c-3.947 1.993-7.222 2.312-11.61 2.254l-2.703-.027L248 93c2.925-3.432 5.858-6.853 8.86-10.219C267.026 71.301 275.842 59.575 281 45"/><path fill="#f5b91f" d="M501 100c-1.238 9.65-4.934 18.359-11 26 8.691 3.414 16.676 5.274 26 6-1.399 4.468-3.136 8.638-5.125 12.875l-1.633 3.492L508 151c-7.172-1.994-13.602-5.853-20.121-9.363l-2.887-1.496-2.614-1.39c-2.359-1.011-2.359-1.011-4.57.053L476 140c-8.274 4.288-14.583 6.335-24 6 3.943-4.206 8.303-7.644 12.89-11.133 2.356-1.77 2.356-1.77 3.11-4.867l-4-3c.472-4.248 2.967-6.2 6-9l2.313.938c1.875.74 3.774 1.424 5.687 2.062l4-8-3.621.438-4.817.562c-.783.095-1.566.19-2.373.29-5.433.625-10.72.798-16.189.71v-12c15.342-2.077 30.512-3.198 46-3"/><path fill="#f5b921" d="M488 59h11v7h12v13h-12l-1 13c-10.584 3.756-19.734 5.262-31 5V82l-3.687 1c-3.187.864-6.011 1.093-9.313 1q-.04-3.22-.062-6.437l-.036-3.622C454 71 454 71 455 70c2.02-.072 4.042-.084 6.063-.062l3.347.027L467 70v-9h14v8l7-1z"/><path fill="#3060ab" d="M299 178c11.538-.961 20.948 4.205 30 11l1 1c1.347.23 2.704.412 4.063.563L338 191l.664 2.379c2.105 6.974 4.316 11.373 9.336 16.621v2l2.313.875C353 214 353 214 356 216l-2 2v3c-3.562.117-7.124.187-10.687.25l-3.053.102c-7.549.1-7.549.1-11.186-2.207L327 217a97 97 0 0 0-4.5-2.562c-2.55-1.371-4.993-2.753-7.437-4.313L313 209l-2 1-1.125-3.062c-1.226-2.892-2.623-4.948-4.75-7.25-4.097-4.538-7.963-10.257-8.258-16.493L297 181h3z"/><path fill="#fcfafc" d="M611.438 257.313c3.609 2.524 6.177 4.96 8.562 8.687.978 5.87-.668 10.247-4 15-9.756 11.418-26.414 17.405-41 19-3.98.114-7.956.095-11.937.063l-3.229-.014A2271 2271 0 0 1 552 300v-1l3.918-.7c15.072-2.783 29.61-5.545 40.144-17.675 1.408-3.941 1.712-7.5.938-11.625-3.742-5.432-10.01-7.947-16.25-9.594-3.749-.554-7.468-.64-11.25-.656l-2.399-.012c-6.196.06-11.628.988-17.597 2.703C547 262 547 262 544 261c7.865-3.528 15.57-6.19 24-8l2.363-.523c13.112-2.37 29.366-1.85 41.074 4.835"/><path fill="#299168" d="M221 262c2.266 2.827 3.831 5.555 5.262 8.879l1.2 2.79 1.226 2.894c.415.958.83 1.916 1.26 2.904l1.189 2.787 1.084 2.541C233 287 233 287 233 290h-38v-3c1.906-1.797 1.906-1.797 4.5-3.75l2.773-2.148L205 279c6.271-5.003 11.162-10.605 16-17m-70-80c1.417 2.834 1.616 5.617 2.063 8.75l.535 3.672c.363 3.234.477 6.328.402 9.578-7.322 1.166-14.623 2.25-22 3-2.312-7.552-2.612-15.165-3-23 14.597-2.296 14.597-2.296 22-2"/><path fill="#e4aca8" d="m451 235 2 2-3.562-.437-2.004-.247a219 219 0 0 1-5.669-.823c-6.019-.788-12.015-.719-18.077-.743l-3.842-.062c-7.476-.031-13.85.602-20.846 3.312l3.305-.488c5.272-.655 10.512-.704 15.82-.7l3.068.003c9.947.08 19.361.845 28.807 4.185-3.293 1.078-5.428.864-8.777.086-6.585-1.297-13.05-1.458-19.748-1.457-2.039-.004-4.075-.04-6.114-.078-9.033-.027-16.986.595-23.986 6.762-1.829 3.574-2.012 5.723-1.375 9.687 3.692 5.291 9.126 6.958 15 9v1c-8.052.393-14.04.44-20.375-5.062-3.047-3.633-3.096-6.708-3.016-11.336.678-4.516 2.82-6.89 6.391-9.602 18.327-11.154 42.865-10 63-5"/><path fill="#f4f8f5" d="M126 256h36v9c-12.02.94-23.947 1.111-36 1z"/><path fill="#f3f7f4" d="m148.563 230.938 3.923.013q4.758.018 9.514.049v9h-37v-8c7.873-1.088 15.623-1.115 23.563-1.062"/><path fill="#e85987" d="M730 228c7.759-.083 15.3.027 23 1a366 366 0 0 1-6 17c-6.093-.554-11.239-1.93-17-4z"/><path fill="#f5b922" d="M423 112c-.736 10.191-2.133 19.507-6 29-4.828-1.487-7.749-4.213-11.312-7.625l-1.667-1.562A719 719 0 0 1 400 128c2.802-2.185 5.661-3.999 8.75-5.75 4.365-2.574 8.048-5.485 11.754-8.93C422 112 422 112 423 112"/><path fill="#f5b920" d="m405 77 2.336 1.496 3.039 1.942 3.023 1.933c2.46 1.598 2.46 1.598 4.602 2.629-1.373 3.699-3.064 6.951-5.125 10.313l-1.633 2.675L410 100c-3.903-1.587-6.335-4.134-9.25-7.125l-2.703-2.758L396 88q1.402-1.909 2.813-3.812l1.582-2.145A46.6 46.6 0 0 1 405 77"/><path fill="#f5b921" d="M408 43c5.155.483 8.816 3.186 13 6-.578 4.062-1.891 6.848-4.062 10.313l-1.66 2.675L414 64c-3.798-1.317-6.353-2.917-9.312-5.625l-2.114-1.914L401 55c1.557-4.671 4.084-8.087 7-12"/><path fill="#e85786" d="M704 225c1.271 4.927 1 8.537 1 14l-23-3-1-6c3.596-1.517 7.156-2.661 10.938-3.625.999-.26 1.998-.52 3.027-.79 3.088-.595 5.898-.688 9.035-.585"/><path fill="#a874b0" d="m608 253-1 3-1.852-.656c-14.324-4.358-30.95-3.892-45.148.656l-3.309 1.055q-3.076 1.01-6.132 2.078A67 67 0 0 1 544 261v2l-2-1v-2c20.059-10.465 44.11-14.297 66-7"/><path fill="#e6e9f4" d="M307 183c15.707 2.284 27.82 19.25 37 31-5.456-1.504-8.857-5.302-12.812-9.125l-2.1-1.996A951 951 0 0 1 324 198l1-2-1.723-.7c-12.363-5.221-12.363-5.221-15.714-10.613z"/><path fill="#624446" d="M640.063 59.938 643 60v9l-6 1q-.29-2.218-.562-4.437l-.317-2.497L636 61c1-1 1-1 4.063-1.062"/><path fill="#614345" d="M625 62h7v9l-5 1c-1.604-3.508-2.22-6.144-2-10"/><path fill="#3e9870" d="m200 95 2 1c-16.149 14.34-16.149 14.34-24 19 1.355-5.648 5.39-7.942 9.875-11.125l2.184-1.59q2.019-1.47 4.05-2.922A334 334 0 0 0 200 95"/><path fill="#a066a8" d="M579 250c9.976-.242 19.421-.193 29 3l-1 3-3.586-.84c-8.135-1.875-16.06-3.621-24.414-4.16z"/><path fill="#fef8ed" d="M478 80h9l-1 5-8 1z"/><path fill="#eaf1eb" d="m174 118 2 1c-3.265 4.64-7.18 8.948-12 12h-3v-2c1.74-1.56 3.543-3.05 5.375-4.5 3.94-3.108 3.94-3.108 7.625-6.5m-3-6 2 1c-3.625 5.075-7.556 8.872-13 12l-3-1z"/><path fill="#fbf4f3" d="M427.563 256.938 430 257c.625 2.375.625 2.375 1 5l-2 2c-2.125-.375-2.125-.375-4-1a88 88 0 0 1-1-5c1-1 1-1 3.563-1.062"/><path fill="#fceff2" d="M696.563 251.938 699 252c.625 2.375.625 2.375 1 5l-2 2c-2.125-.375-2.125-.375-4-1a88 88 0 0 1-1-5c1-1 1-1 3.563-1.062"/><path fill="#58a17d" d="m204 100 2 1q-3.295 2.953-6.613 5.883a208 208 0 0 0-4.18 3.797c-1.52 1.382-1.52 1.382-4.207 3.32-2.168-.379-2.168-.379-4-1l1.453-1.086q3.243-2.424 6.484-4.852l2.288-1.708 2.177-1.631 2.016-1.508c1.534-1.123 1.534-1.123 2.582-2.215"/><path fill="#3e9871" d="m189 115-10 9-3-1c7.618-9.794 7.618-9.794 13-8"/><path fill="#e95b88" d="M733 267h5c-1.227 4.154-2.328 6.437-5 10z"/><path fill="#5ba27e" d="m200 95 2 1a312 312 0 0 1-4.25 4.063l-2.39 2.285L193 104l-4-1z"/><path fill="#e5ede7" d="m171 129 2 1c-1.098 2.993-1.677 3.846-4.625 5.25L166 136c1.293-2.884 2.66-4.872 5-7"/><path fill="#f2f6f2" d="m177 124 2 1c-1.842 2.544-3.725 4.833-6 7l-2-1z"/></svg>