<svg width="512" height="512"><path fill="#64171b" d="m255.625-.312 3.085.006c14.609.05 28.94.3 43.29 3.306l2.954.602C353.336 13.722 397.324 35.64 433 70l1.998 1.916C444.486 81.06 453.226 90.357 461 101l2.574 3.453c6.038 8.19 11.42 16.692 16.426 25.547l1.219 2.143c13.025 23.135 21.774 48.307 27.094 74.295l.446 2.178c2.974 15.646 3.614 31.12 3.553 47.009l-.006 3.085c-.05 14.609-.3 28.94-3.306 43.29l-.602 2.954C498.278 353.336 476.36 397.324 442 433l-1.916 1.998C430.94 444.486 421.643 453.226 411 461l-3.453 2.574c-8.19 6.038-16.692 11.42-25.547 16.426l-2.143 1.219c-23.135 13.025-48.307 21.774-74.295 27.094l-2.178.446c-15.646 2.974-31.12 3.614-47.009 3.553l-3.085-.006c-14.609-.05-28.94-.3-43.29-3.306l-2.954-.602C158.664 498.278 114.676 476.36 79 442l-1.998-1.916C67.514 430.94 58.774 421.643 51 411l-2.574-3.453C42.388 399.357 37.006 390.855 32 382l-1.219-2.143C17.756 356.722 9.007 331.55 3.688 305.562l-.447-2.178c-2.974-15.646-3.614-31.12-3.553-47.009l.006-3.085c.05-14.609.3-28.94 3.306-43.29l.602-2.954C13.722 158.664 35.64 114.676 70 79l1.916-1.998C81.06 67.514 90.357 58.774 101 51l3.453-2.574C112.643 42.388 121.145 37.006 130 32l2.143-1.219c23.135-13.025 48.307-21.774 74.295-27.093l2.178-.447c15.646-2.974 31.12-3.614 47.009-3.553"/><path fill="#f4e2d1" d="m302 3 2.954.602C353.336 13.722 397.324 35.64 433 70l1.998 1.916C444.486 81.06 453.226 90.357 461 101l2.574 3.453c6.038 8.19 11.42 16.692 16.426 25.547l1.219 2.143c13.025 23.135 21.774 48.307 27.094 74.295l.446 2.178c2.974 15.646 3.614 31.12 3.553 47.009l-.006 3.085c-.05 14.604-.284 28.947-3.306 43.29l-.634 3.05c-2.908 13.618-6.649 26.853-11.366 39.95-26.321-25.586-37.905-65.27-50-99 3.893 20.278 8.275 40.134 14.656 59.781 1.1 3.403 2.074 6.819 2.969 10.281 1.125 4.275 2.64 8.264 4.34 12.34 1.52 3.817 2.75 7.72 4.02 11.625 1.267 3.71 2.742 7.31 4.28 10.914C478 353 478 353 478 356c-6.051-1.956-7.977-5.658-11-11-4-7.84-4-7.84-4-12l-1 1 .438 1.938c.8 4.354.64 8.647.562 13.062-3.44-.597-3.872-.83-6.125-3.812-1.394-2.37-2.724-4.694-3.875-7.188l1 3.125c.972 3.36 1.171 6.366 1 9.875-1.75-.062-1.75-.062-4-1-3.166-4.51-4.768-8.98-6.191-14.277-1.45-4.883-3.377-9.6-5.204-14.352-4.731-12.87-7.06-26.185-9.526-39.625-1.133-6.13-2.421-12.221-3.767-18.308-.203-.931-.407-1.861-.618-2.82a999 999 0 0 0-2.67-11.825c-2.337-10.254-2.998-17.023.976-26.793v-4l-1.137 2.012c-2.85 4.918-5.448 9.309-9.863 12.988l-1.562 1.406c-6.368 4.94-13.74 4.54-21.438 3.594-7.492-1.266-15.01-2.981-22-6v7l1.934.742 2.503 1.133 2.497 1.055c3.408 3.414 2.91 7.423 3.066 12.07l.177 3.003c1.108 20.973-.004 45.363-13.806 62.423L362 322l-2.34 2.668C346.217 339.07 328.63 347.473 310 353l-2.805.867c-8.032 2.259-16.272 3.153-24.539 4.132l-2.949.353c-.882.1-1.764.202-2.673.307-2.023.137-2.023.137-3.034 1.341-.099 2.165-.13 4.333-.125 6.5l-.008 3.594c-.2 2.799-.2 2.799 1.133 3.906 2.522.4 5.03.75 7.563 1.063l2.154.275q2.64.335 5.283.662c2.016 5.336-.427 9.622-2.5 14.563l-1.113 2.704c-2.927 6.96-6.17 13.45-10.387 19.733l-1.676 2.512c-4.297 5.976-9.41 10.507-16.3 13.285-4.617.463-8.542-3.121-12.024-5.797-12.753-12.305-19.048-29.398-24-46 2.081-2.081 6.186-1.73 9.063-2.062l2.298-.276q2.82-.335 5.639-.662v-15l-4.512-.445c-33.406-3.566-61.426-13.653-84.504-38.926-14.538-19.26-15.176-42.418-14.148-65.59.117-2.633.179-5.25.21-7.887.241-18.894.241-18.894 4.555-24.075 3.982-3.276 8.452-5.22 13.207-7.123 3.341-1.454 6.192-3.446 9.13-5.579l3.136-2.223C176.637 199.382 186.622 191.13 195 181c3.128 2.584 4.09 5.418 5.438 9.188 1.851 5.151 4.042 9.963 6.562 14.812l-3.629-.14c-19.26-.522-34.54 3.603-49.18 16.699-2.653 2.956-4.323 5.94-6.191 9.441l2.12-.351a5175 5175 0 0 1 9.692-1.587l3.334-.552c11.128-1.806 21.956-2.684 33.229-2.635l3.31.008c20.32.12 20.32.12 24.315 2.117l-1-4c5 5 5 5 7 7.375 1.868 1.9 1.868 1.9 4.277 1.438C253.968 226.936 268.814 204.834 278 188c.99-1.672 1.987-3.341 3-5 1 2 1 2 .441 3.988l-.878 2.325c-1.196 3.37-1.913 6.069-1.563 9.687 9.685-3.738 15.568-18.165 20-27l-2-1q2.185-1.972 4.375-3.937l2.46-2.215C306 163 306 163 308 162l-.437-1.625c-1.176-4.965-1.537-8.873-.84-13.957 2.2-19.183-3.188-40.638-13.938-56.734C291 87 291 87 291 85c24.634-.495 51.495 5.654 69.809 22.852L363 110l2.285 2.125C367 114 367 114 367 116.375c-1 2.625-1 2.625-3 5.375-2.38 3.866-3.834 7.68-3 12.25 3.42 4.268 6.98 6.17 12 8.188l3.625 1.48c2.074.818 4.156 1.617 6.25 2.383C385 147 385 147 386 149c.83 16.304-9.385 30.18-17.567 43.467-2.024 3.577-3.433 6.39-3.433 10.533 3.123-.486 5.996-.999 9-2 4.02 5.238 4.02 5.238 3.938 8.438-1.187 3.243-2.57 6.391-3.938 9.562-14.465-6.51-27.468-15.23-39.008-26.129-2.103-2.034-2.103-2.034-5.055-4.246-3.775-3.373-6.658-7.254-9.69-11.297-2.477-2.567-3.75-3.058-7.247-3.328 16.244 22.805 43.165 46.082 71 53l2.64.672c8.279 1.879 15.513 2.523 23.29-1.352 6.114-3.899 10.156-10.385 12.07-17.32.531-6.536-.976-12.703-2.312-19.062l-.689-3.354q-.988-4.793-1.999-9.584l-.531-2.527Q415.26 168.73 414 163c3.874 3.185 7.51 6.469 11.02 10.054 7.41 8.623 7.41 8.623 17.19 13.184 2.38-.182 4.49-.609 6.79-1.238l2.242-.582c3.444-1.079 5.208-1.702 7.465-4.64 4.478-9.62.595-24.522-.707-34.778l-1.832.068c-6.36.133-12.1-.622-18.293-2.006-5.954-1.29-11.816-2.397-17.875-3.062l-1.328 2.938c-6.552 14.02-15.324 25.56-25.777 36.917-6.014 6.808-8.859 14.669-11.895 23.145-3 0-3 0-4.687-1.5L375 200l.875-1.5c1.272-2.585 1.272-2.585 1.836-5.93 1.42-5.816 4.292-10.912 7.039-16.195q1.627-3.202 3.246-6.406l1.57-3.106c1.82-3.633 3.588-7.279 5.247-10.988l1.394-3.07c.957-3.383.808-5.45-.207-8.805-1.376-1.562-1.376-1.562-3.312-2.5l-2.165-1.219c-2.885-1.465-5.797-2.871-8.71-4.281-4.475-2.183-7.654-4.165-10.813-8 3.464-11.908 9.447-22.956 15-34l-1.758 2.16C379.89 101.496 375.51 106.796 371 112a159 159 0 0 1-6-5v-2l-1.762-.8c-2.325-1.247-4.055-2.668-6.05-4.388-15.809-12.46-37.641-17.263-57.294-18.374-16.361-.96-16.361-.96-23.035-6.817-5.388-4.698-13.444-4.046-20.195-3.937-7.548.651-14.51 2.743-20.789 7.004-5.127 3.072-10.355 2.84-16.166 3.009-28.296.854-55.733 8.462-75.709 29.365-10.865 12.362-20.23 27.49-26 42.938-2.922-2.922-3.915-6.562-5.312-10.375l-.935-2.547C104.673 120.235 96.53 95.038 106 75l1.215-2.668C121.7 43.237 153.477 25.406 183 15 225.345.93 278.031.477 320 16q2.306.798 4.613 1.59C335.187 21.28 345.142 25.699 355 31l1.79.94c13.049 6.875 24.706 15.635 35.585 25.56l1.64 1.491c2.621 2.46 4.664 4.636 5.985 8.009l3-1c-.473-4.266-3.139-6.635-6.062-9.5l-1.603-1.58C365.341 26.11 324.375 10.354 284 4l-3.208-.553c-8.829-1.427-17.432-1.757-26.35-1.708-2.308.011-4.615 0-6.922-.012-8.758-.007-17.212.551-25.876 1.844-3.942.464-7.679.498-11.644.429V3c29.063-5.587 63.006-6.073 92 0"/><path fill="#a6eefe" d="m178 13-1.706.7C146.601 25.946 118.668 42.793 103 72l-1.383 2.566c-9.097 20.326.174 48.333 7.508 67.809a1672 1672 0 0 1 2.133 5.71l.942 2.502c1.52 4.583 2.137 7.469.394 12.054l-.994 2.702-1.1 2.907C90.512 223.498 80.963 283.301 71 341l-.452 2.612q-1.406 8.13-2.798 16.263l-.364 2.122a2245 2245 0 0 0-3.364 20.005c-.518 3.168-1.053 6.333-1.585 9.498l-.526 3.363C60.663 402.187 58.387 408.39 55 415c-4.764-4.335-8.153-9.326-11.687-14.687l-1.866-2.824C22.407 368.35 9.4 336.259 3 302l-.492-2.44C-2.965 271.57-2.846 237.912 3 210l.602-2.954C13.722 158.664 35.64 114.676 70 79l1.916-1.998C81.06 67.514 90.357 58.774 101 51l3.453-2.574C112.643 42.388 121.145 37.006 130 32l2.143-1.219C169.034 10.011 169.034 10.011 178 13"/><path fill="#fefefe" d="M320 16q2.306.798 4.613 1.59C335.187 21.28 345.142 25.699 355 31l1.79.94c12.992 6.845 24.62 15.56 35.46 25.435l1.59 1.44c3.342 3.135 5.766 6.321 8.16 10.185-8.87 15.759-19.224 29.321-31 43a159 159 0 0 1-6-5v-2l-1.762-.8c-2.325-1.247-4.055-2.668-6.05-4.388-15.809-12.46-37.641-17.263-57.294-18.374-16.361-.96-16.361-.96-23.035-6.817-5.388-4.698-13.444-4.046-20.195-3.937-7.548.651-14.51 2.743-20.789 7.004-5.127 3.072-10.355 2.84-16.166 3.009-28.296.854-55.733 8.462-75.709 29.365-10.865 12.362-20.23 27.49-26 42.938-2.922-2.922-3.915-6.562-5.312-10.375l-.935-2.547C104.673 120.235 96.53 95.038 106 75l1.215-2.668C121.7 43.237 153.477 25.406 183 15 225.345.93 278.031.477 320 16"/><path fill="#a6eefe" d="m302 3 2.954.602C353.336 13.722 397.324 35.64 433 70l1.998 1.916C444.486 81.06 453.226 90.357 461 101l2.574 3.453c6.038 8.19 11.42 16.692 16.426 25.547l1.219 2.143c13.025 23.135 21.774 48.307 27.094 74.295l.446 2.178c2.974 15.647 3.61 31.119 3.553 47.009l-.003 3.071c-.042 18.78-.82 37.202-6.309 55.304-19.872-18.249-30.51-49.79-40.562-74.062a3485 3485 0 0 0-5.754-13.786l-1.407-3.35c-3.635-8.546-7.65-16.856-11.948-25.087l-1.325-2.557-1.176-2.225C443 191 443 191 443 188l3 2c6.337.644 10.702-.423 16-4 4.59-4.886 4.193-10.06 4.188-16.375v-2.706c.475-11.703.475-11.703-3.188-21.919-2.105.034-4.21.104-6.312.188-8.287.178-16.002-1.43-24.06-3.215-4.196-.926-8.357-1.507-12.628-1.973l-1.328 2.938c-6.552 14.02-15.324 25.56-25.777 36.917-6.014 6.808-8.859 14.669-11.895 23.145-3 0-3 0-4.687-1.5L375 200l.875-1.5c1.272-2.585 1.272-2.585 1.836-5.93 1.42-5.816 4.292-10.912 7.039-16.195q1.627-3.202 3.246-6.406l1.57-3.106c1.82-3.633 3.588-7.279 5.247-10.988l1.394-3.07c.957-3.383.808-5.45-.207-8.805-1.376-1.562-1.376-1.562-3.312-2.5l-2.165-1.219c-2.885-1.465-5.797-2.871-8.71-4.281-4.475-2.183-7.654-4.165-10.813-8 1.789-6.149 4.217-11.843 6.938-17.625l1.017-2.17c1.611-3.381 3.285-6.68 5.174-9.916 1.865-3.092 1.865-3.092 2.848-5.8 1.386-3.372 3.383-6.283 5.398-9.302C395.62 78.253 398.438 73.33 401 68l2-2c-.139-4.216-3.228-6.723-6.062-9.5l-1.603-1.58C365.341 26.11 324.375 10.354 284 4l-3.208-.553c-8.829-1.427-17.432-1.757-26.35-1.708-2.308.011-4.615 0-6.922-.012-8.758-.007-17.212.551-25.876 1.844-3.942.464-7.679.498-11.644.429V3c29.063-5.587 63.006-6.073 92 0"/><path fill="#fdf6f4" d="M276.21 77.734c15.962 11.292 21.742 29.582 26.411 47.672 3.071 21.024-2.684 41.23-14.621 58.594-1.065-3.196-.944-4.53-.441-7.79l.42-2.855.459-2.98c1.056-6.874 1.741-13.414 1.562-20.375h-3l-.227 2.063C284.104 171.74 274.237 192.273 261 207l-1.559 1.984C253.34 216.593 245.075 222.617 237 228h-3c-7.223-32.08-9.016-64.186-10-97q-.725 4.905-1.437 9.813l-.409 2.755c-1.632 11.266-2.318 22.326-2.284 33.702q.005 3.24-.007 6.482c-.003 8.125.288 16.16 1.137 24.248-5.325-5.325-4.59-16.566-5.062-23.687l-.25-3.549C214.942 169.851 214.42 158.93 214 148l-3 1a67 67 0 0 0-2.187 7.063l-.538 2.01A462 462 0 0 0 207 163c-3.054-1.295-5.592-2.697-8-5-1.086-3.405-.52-6.51 0-10 .15-1.168.3-2.336.453-3.54 3.653-23.367 14.048-46.89 33.422-61.335A132 132 0 0 1 238 80l2.629-1.535c10.228-5.107 25.233-6.28 35.582-.73"/><path fill="#f5bdb3" d="m225 84-2.437 2.688C205.118 107.176 197.153 130.64 194 157h3l2-2 1 3a107 107 0 0 0 6 4l.734-2.773 1.016-3.602.984-3.586C210 149 210 149 212.141 147.586L214 147c1.923 1.923 1.253 5.47 1.316 8.098l.063 2.148q.097 3.408.184 6.816l.13 4.612q.161 5.662.307 11.326h-1v-8h-9l.291 1.956c.432 2.93.852 5.862 1.272 8.794l.458 3.078c.14.98.278 1.96.42 2.969l.397 2.73c.16 2.433-.1 4.165-.838 6.473-4.26-8.064-7.83-15.88-9-25l-4-1-.742 2.2c-2.288 5.094-6.449 8.788-10.258 12.8l-1.914 2.074C163.756 208.301 136.46 223.891 111 231h-4c-.968-41.288 11.459-85.588 39-117a843 843 0 0 0 2.438-3.187C166.799 90.659 198.582 83.1 225 84"/><path fill="#fcedea" d="m119 234 .531 2.62c3.825 19.764 3.825 19.764 9.781 38.942 9.671 25.325 27.346 73.3 16.868 99.895-9.102 19.62-9.102 19.62-14.18 26.543l-1.52 2.086c-4.761 5.913-10.447 9.923-16.757 14.02-4.064 2.652-7.418 5.334-10.723 8.894l-1 1c-.49 4.212-.007 6.942 2.559 10.375 4.874 5.496 10.396 9.66 16.629 13.5 5.81 3.732 9.018 7.84 11.812 14.125v1c-17.72.662-28.71-2.157-42-14l-2.953-2.57c-6.207-5.546-12.13-11.392-18.047-17.243l-2.214-2.174c-3.758-3.752-7.3-7.29-9.786-12.013.103-11.58 13.514-23.556 21.07-31.055L81.063 386c11.505-11.368 18.824-23.176 21.937-39 9.73 9.307 16.944 20.663 17.416 34.324.07 7.295-.6 13.855-3.416 20.676 7.334-12.338 10.082-23.443 6.938-37.75-2.602-9.327-6.856-18.123-11.184-26.758-4.137-8.31-7.667-16.498-10.254-25.43l-.737-2.506C95.531 286.68 97.05 257.839 103 235q2.874-.253 5.75-.5l3.234-.281c2.334-.17 4.676-.219 7.016-.219"/><path fill="#fceeeb" d="M411 245c6.056 6.056 4.26 22.084 4.313 30.063-.091 25.262-5.376 44.091-16.332 66.547-3.546 7.313-6.611 14.601-8.981 22.39l-.598 1.895c-1.938 10.141-.81 20.797 3.598 30.105 2.019 3.123 2.019 3.123 4 5l-1.469-3.457c-1.669-4.476-2.072-8.48-2.031-13.23l.02-2.376c.435-14.01 7.565-25.375 17.48-34.937l.664 2.93c4.035 16.937 13.731 28.727 26.024 40.695 7.164 7.032 13.584 14.973 17.312 24.375-.2 4.827-2.785 7.445-6 10.75l-1.592 1.673A816 816 0 0 1 442 433l-2.007 2.085c-9.125 9.468-18.45 18.063-28.993 25.915l-2.617 2.215c-7.408 5.55-18.597 3.996-27.383 3.785 2.77-8.31 7.702-12.987 14.938-17.562 9.89-6.06 9.89-6.06 16.062-15.438.324-3.884.306-6.772-2-10a151 151 0 0 0-4-2c-20.08-12.476-34.403-29.446-40-53-1.827-19.603 3.543-39.496 8.563-58.25q1.118-4.25 2.231-8.5.685-2.608 1.38-5.213a278 278 0 0 0 3.368-14.106c.647-2.728 1.675-5.229 2.77-7.806 3.387-8.478 5.493-17.278 7.688-26.125l2.125-.113c6.198-.43 11.175-1.413 16.875-3.887"/><path fill="#fbe9e5" d="M463 144c5.48 5.48 4.23 18.05 4.313 25.438l.053 2.581c-.005 5.084-.547 8.58-3.366 12.981-4.31 4.084-8.194 6.09-14.125 6.188C446 191 446 191 443 190l1.766 3.207c9.854 18.164 17.875 37.125 25.859 56.168 6.108 14.53 12.446 28.92 20.375 42.563l1.22 2.103c2.04 3.41 4.17 6.518 6.772 9.525 6.87 8.058 6.87 8.058 7.126 12.465-.513 5.247-2.277 10.064-4.118 14.969q-.716 2.094-1.418 4.191A254 254 0 0 1 497 345c-26.321-25.586-37.905-65.27-50-99 3.893 20.278 8.275 40.134 14.656 59.781 1.1 3.403 2.074 6.819 2.969 10.281 1.125 4.275 2.64 8.264 4.34 12.34 1.52 3.817 2.75 7.72 4.02 11.625 1.267 3.71 2.742 7.31 4.28 10.914C478 353 478 353 478 356c-6.051-1.956-7.977-5.658-11-11-4-7.84-4-7.84-4-12l-1 1 .438 1.938c.8 4.354.64 8.647.562 13.062-3.44-.597-3.872-.83-6.125-3.812-1.394-2.37-2.724-4.694-3.875-7.188l1 3.125c.972 3.36 1.171 6.366 1 9.875-1.75-.062-1.75-.062-4-1-3.166-4.51-4.768-8.98-6.191-14.277-1.45-4.883-3.377-9.6-5.204-14.352-4.731-12.87-7.06-26.185-9.526-39.625-1.133-6.13-2.421-12.221-3.767-18.308-.203-.931-.407-1.861-.618-2.82a999 999 0 0 0-2.67-11.825c-2.337-10.254-2.998-17.023.976-26.793v-4l-1.137 2.012c-2.85 4.918-5.448 9.309-9.863 12.988l-1.562 1.406c-6.442 4.998-13.647 4.225-21.438 3.594-9.158-1.158-9.158-1.158-12-4 .375-3.125.375-3.125 1-6 3.638-.922 6.12-.97 9.75-.062 8.627 1.853 15.587 1.949 23.25-2.938 5.58-4.786 9.647-11.66 10.246-19.027-.338-5.465-1.434-10.684-2.558-16.036l-.689-3.353q-.988-4.793-1.999-9.584l-.531-2.527Q415.26 168.73 414 163c3.874 3.185 7.51 6.469 11.02 10.054 7.41 8.623 7.41 8.623 17.19 13.184 2.38-.182 4.49-.609 6.79-1.238l2.242-.582c3.444-1.079 5.208-1.702 7.465-4.64 4.478-9.62.595-24.522-.707-34.778 2.375-.625 2.375-.625 5-1"/><path fill="#fefcfb" d="M291 85c24.634-.495 51.495 5.654 69.809 22.852L363 110l2.285 2.125C367 114 367 114 367 116.375c-1 2.625-1 2.625-3 5.375-2.38 3.866-3.834 7.68-3 12.25 3.42 4.268 6.98 6.17 12 8.188l3.625 1.48c2.074.818 4.156 1.617 6.25 2.383C385 147 385 147 386 149c.83 16.304-9.385 30.18-17.567 43.467-2.024 3.577-3.433 6.39-3.433 10.533 3.123-.486 5.996-.999 9-2 4.02 5.238 4.02 5.238 3.938 8.438-1.187 3.243-2.57 6.391-3.938 9.562-14.465-6.51-27.468-15.23-39.008-26.129-2.103-2.034-2.103-2.034-5.055-4.246-4.524-4.043-8.378-8.714-11.937-13.625v-2c12.205-.225 23.924.111 36 2v-2l-1.687-.766c-2.669-1.424-4.914-3.142-7.313-4.984-10.217-7.556-10.217-7.556-22.25-10.875-3.92.653-6.67 1.79-10.086 3.75C311 161 311 161 309 161c-1.99-2.613-2.98-4.307-3.074-7.621l.387-2.816c2.223-21.057-1.565-42.966-13.528-60.88C291 87 291 87 291 85"/><path fill="#1b5e76" d="m386 93 1 2a118 118 0 0 1-3.5 7.188l-2.21 4.34-1.148 2.241a656 656 0 0 0-5.267 10.481l-.967 1.876c-1.668 3.428-1.668 3.428-1.33 7.116 4.855 6.003 12.975 9.135 19.82 12.266 2.802 1.606 4.17 2.597 5.602 5.492-.129 5.503-2.726 10.337-5 15.25l-1.201 2.64a439 439 0 0 1-9.88 20.109C379.06 189.557 377 194.641 377 201l3 2 1.215-3.367c3.064-8.152 5.971-14.674 12.195-20.93 11.17-11.658 19.47-25.31 26.59-39.703 6.905.766 13.612 2.09 20.402 3.54 5.85 1.21 11.644 1.977 17.598 2.46 6.136 25.594 6.136 25.594 1.621 34.816-3.583 4.827-8.905 6.264-14.621 7.184-3.225.366-4.606.242-7.402-1.477-7.97-6.754-15.31-14.044-22.598-21.523l5.371 25.293.448 2.11c2.516 11.86 2.983 18.961-3.819 29.597-5.144 5.9-9.997 8.606-17.812 9.375-30.075-.86-57.71-23.483-77.833-44.082-3.94-4.247-6.904-8.001-9.355-13.293 2.184-.324 2.184-.324 5 0 2.535 2.23 2.535 2.23 5.063 5.188l2.535 2.917a187 187 0 0 1 4.398 5.493c3.726 4.466 8.445 7.825 13.004 11.402l2.86 2.266C353.596 207.02 363.01 213.23 373 218a205 205 0 0 0 2.063-3.75l1.16-2.11c1.448-3.987-.662-7.393-2.223-11.14l-2.187 1.563c-3.233 1.651-4.43 1.5-7.813.437.514-5.428 2.478-9.153 5.188-13.75l1.23-2.15c2.182-3.789 4.466-7.486 6.832-11.162 5.248-8.679 8.642-18.77 7.75-28.938l-1.766-.445c-7.552-2.066-16.536-4.709-22.082-10.477-2.046-3.69-1.268-7.137-.152-11.078 1.139-2.005 2.372-3.72 3.844-5.492 1.377-1.626 1.377-1.626 2.156-4.508a264 264 0 0 1 5-5c1.922-2.148 3.774-4.353 5.625-6.562l1.445-1.71c2.4-2.848 4.737-5.718 6.93-8.728"/><path fill="#e1b6a7" d="M195 181c3.128 2.584 4.09 5.418 5.438 9.188 1.851 5.151 4.042 9.963 6.562 14.812l-3.629-.14c-19.341-.524-34.772 3.57-49.277 16.992-10.576 10.852-9.783 32.253-9.702 46.666.317 9.318 2.614 17.118 6.608 25.482l.924 1.995c4.228 8.976 9.348 16.659 16.076 24.005l2.336 2.582c23.343 24.59 58.524 35.19 91.601 36.23 4.021.097 8.041.164 12.063.188l-.035 3.027c-.01 1.29-.018 2.581-.027 3.91l-.036 3.903c-.267 3.023-.267 3.023 1.098 4.16 2.522.4 5.03.75 7.563 1.063l2.154.275q2.64.335 5.283.662c2.016 5.336-.427 9.622-2.5 14.563l-1.113 2.704c-2.927 6.96-6.17 13.45-10.387 19.733l-1.676 2.512c-4.297 5.976-9.41 10.507-16.3 13.285-4.617.463-8.542-3.121-12.024-5.797-12.753-12.305-19.048-29.398-24-46 2.081-2.081 6.186-1.73 9.063-2.062l2.298-.276q2.82-.335 5.639-.662v-15l-4.512-.445c-33.406-3.566-61.426-13.653-84.504-38.926-14.538-19.26-15.176-42.418-14.148-65.59.117-2.633.179-5.25.21-7.887.241-18.894.241-18.894 4.555-24.075 3.982-3.276 8.452-5.22 13.207-7.123 3.341-1.454 6.192-3.446 9.13-5.579l3.136-2.223C176.637 199.382 186.622 191.13 195 181"/><path fill="#faefc4" d="M326 388q2.097.647 4.188 1.313l2.355.738c2.84 1.097 5.034 2.081 7.457 3.949.521 2.782.521 2.782.371 6.168l-.137 3.802q-.114 2.016-.234 4.03l-.19 3.963a680 680 0 0 1-.608 10.225q-.213 3.27-.416 6.54-.547 8.764-1.141 17.526c-.89 13.364-1.204 26.737.132 40.078.353 4.223.307 8.434.223 12.668-5.92 2.778-11.909 4.44-18.25 6l-3.205.792c-6.502 1.568-13.003 2.962-19.608 4.02l-2.08.338c-7.242 1.068-14.556 1.414-21.857 1.85a4344 4344 0 0 1-2.563-13.342q-.434-2.268-.874-4.533-.632-3.268-1.25-6.54l-.398-2.026c-1.852-9.867-1.852-9.867.581-14.262l1.942-2.547 1.933-2.578L274 464c1.766-3.533.874-7.25 0-11-1.44-3.155-3.13-6.082-5-9 3.38-1.126 5.561-.762 9 0 11.958.991 23.197-1.125 33.008-8.312 9.978-8.452 16.02-20.307 17.242-33.36.125-5.15-.56-9.47-2.25-14.328"/><path fill="#faf0c5" d="m186 388 2 1-.969 2.137c-3.48 9.665-.567 19.213 3.266 28.254 2.101 4.453 4.28 8.077 7.703 11.609l1.77 1.852c8.455 8.094 18.249 11.331 29.73 11.273l2.3.012c3.57-.007 6.767-.174 10.2-1.137l2 4-1.348 1.652c-4.016 5.317-4.016 5.317-4.902 11.723.775 3.831 2.34 6.391 4.48 9.633 3.154 5.673 2.946 9.143 1.311 15.308l-.978 3.184-.874 3.184a372 372 0 0 1-1.782 6.242c-1.378 4.67-2.638 9.373-3.907 14.074-20.53-1.859-40.498-5.144-60-12-.099-6.593-.046-13.113.5-19.687 1.251-16.224.178-32.307-1-48.5-.913-12.625-1.77-25.15-1.5-37.813 9.18-4.785 9.18-4.785 12-6"/><path fill="#53ae73" d="m302 3 2.954.602C348.087 12.625 387.062 30.9 421 59l1.957 1.46C424 62 424 62 423.742 64.603l-.867 3.023c-.3 1.076-.598 2.153-.906 3.262a148 148 0 0 1-2.594 7.55c-1.255 3.58-1.581 6.777-1.75 10.563-.387 7.137-2.32 13.486-4.469 20.25L412 113l-.86 2.676c-.203 3.358 1.157 4.825 3.11 7.511 6.978 10.68 6.978 10.68 6.75 15.813-4.852 15.395-17.394 29.218-28.105 40.855-6.014 6.808-8.859 14.669-11.895 23.145-3 0-3 0-4.687-1.5L375 200l.875-1.5c1.272-2.585 1.272-2.585 1.836-5.93 1.42-5.816 4.292-10.912 7.039-16.195q1.627-3.202 3.246-6.406l1.57-3.106c1.82-3.633 3.588-7.279 5.247-10.988l1.394-3.07c.957-3.383.808-5.45-.207-8.805-1.376-1.562-1.376-1.562-3.312-2.5l-2.165-1.219c-2.885-1.465-5.797-2.871-8.71-4.281-4.475-2.183-7.654-4.165-10.813-8 1.789-6.149 4.217-11.843 6.938-17.625l1.017-2.17c1.611-3.381 3.285-6.68 5.174-9.916 1.865-3.092 1.865-3.092 2.848-5.8 1.386-3.372 3.383-6.283 5.398-9.302C395.62 78.253 398.438 73.33 401 68l2-2c-.139-4.216-3.228-6.723-6.062-9.5l-1.603-1.58C365.341 26.11 324.375 10.354 284 4l-3.208-.553c-8.829-1.427-17.432-1.757-26.35-1.708-2.308.011-4.615 0-6.922-.012-8.758-.007-17.212.551-25.876 1.844-3.942.464-7.679.498-11.644.429V3c29.063-5.587 63.006-6.073 92 0"/><path fill="#e6e4e2" d="M174 19c-1.097 3.29-1.848 3.968-4.437 6.125-.72.611-1.44 1.222-2.18 1.852L165 29a702 702 0 0 0-10 9l-1.91 1.742c-8.836 8.413-15.927 17.907-16.488 30.414q-.012 2.672.023 5.344l-.035 2.684c.024 5.546.204 13.61 4.41 17.816 6.278-.422 11.674-2.617 17.5-4.875 10.159-3.82 20.493-7.453 31.5-7.125-3.201 1.754-6.362 2.72-9.875 3.688-26.175 7.96-42.344 26.869-54.927 50.179-2.632 4.962-5.23 9.862-7.198 15.133-2.922-2.922-3.915-6.562-5.312-10.375l-.935-2.547C104.673 120.235 96.53 95.038 106 75l1.215-2.668C117.067 52.542 149.923 19 174 19"/><path fill="#fdfcfc" d="M344 397c5.704 1.066 10.416 3.37 15.625 5.875l2.89 1.355 2.774 1.325 2.522 1.202c3.005 1.706 4.755 3.036 5.941 6.333l.53 2.418.608 2.716.61 2.901.647 2.975c6.848 31.912 6.848 31.912-.334 43.15-3.401 5.443-6.09 10.085-7.625 16.375-1.67 4.612-4.083 6.051-8.34 8.102C345.333 498 345.333 498 342 498c-2.181-33.809-.109-67.237 2-101m-174 0 .168 3.406q.313 6.326.632 12.652l.27 5.45c.534 11.675.534 11.675 1.489 23.32.66 6.693.59 13.39.566 20.11l-.003 2.043c-.017 11.361-.367 22.682-1.122 34.019-7.83-1.007-19.447-3.636-24.645-10.02-.792-2.23-.792-2.23-1.406-4.75-1.388-4.723-3.744-8.847-6.074-13.168l-1.35-2.55c-1.74-3.273-3.466-6.424-5.525-9.512-.22-8.164 1.872-16.578 3.375-24.562l.633-3.499c3.4-18.273 3.4-18.273 6.945-21.982l2.297-1.144 2.645-1.364L152 404q1.944-.957 3.887-1.918C166.345 397 166.345 397 170 397"/><path fill="#ba6667" d="M146 322c2.868 2.13 5.155 4.186 7.445 6.945 17.177 20.54 48.42 29.734 73.96 32.412 2.864.24 5.727.46 8.595.643v8a463 463 0 0 1-5.187 1.063l-2.918.597c-4.057.476-7.06-.382-10.895-1.66-7.05-1.022-11.689.36-17.676 4.102-2.513 1.91-2.513 1.91-4.691 4.93-3.021 3.406-5.18 4.355-9.446 5.843-5.536 2.034-10.813 4.307-16.062 7-4.216 2.163-8.434 4.29-12.738 6.273l-2.315 1.067q-2.197 1.006-4.402 1.995c-7.069 3.159-7.069 3.159-11.727 9.07-.96 2.77-1.602 5.448-2.162 8.325l-.636 3.233-.645 3.35-.645 3.29q-.63 3.217-1.253 6.434c-.85 4.366-1.724 8.727-2.602 13.088h-1c-5.01-22.279 6.232-43.302 16.298-62.436 4.152-8.028 6.209-15.18 6.014-24.252l-.031-2.647c-.254-12.467-2.726-24.504-5.281-36.665"/><path fill="#2997af" d="M334.5 206.746c11.876 4.255 22.228 10.672 29.5 21.254l-1 3a179 179 0 0 1-22-3l1 7-3.375.875c-3.628.817-3.628.817-5.625 3.125.095 2.048.095 2.048 1 4 3.188 2.125 5.265 2.502 9 3-1.627 8.12-4.781 13.5-11 19-5.85 3.713-12.254 3.95-19 3-5.7-2.194-9.497-6.117-13-11l-1-3 5-1-1-3-6-1c-2.244-6.733-.984-13.348 1-20l1-2h-10c.365-6.936 4.057-13.287 9.105-17.941 10.648-8.05 24.148-6.036 36.395-2.313"/><path fill="#fdfcfc" d="M216 373c2.12 5.186 4.141 10.388 6.02 15.666 5.456 15.121 12.593 29.86 25.437 40.08 1.628 1.323 3.083 2.75 4.543 4.254q-1.806 1.199-3.625 2.375l-2.04 1.336c-8.822 4.869-20.22 4.745-29.862 2.45-11.242-4.298-18.574-11.978-23.66-22.653-3.635-8.707-4.414-17.725-1.375-26.758 3.115-6.796 8.525-11.745 14.687-15.812 3.417-1.115 6.304-1.152 9.875-.938m82 0c8.382.039 12.88 2.926 18.727 8.707 6.202 6.768 7.918 12.703 7.687 21.816-1.332 11.186-6.99 22.03-15.601 29.29-10.635 7.595-22.224 8.773-34.883 6.68-5.311-1.38-8.475-3.232-11.93-7.493l1.906-1.398c17.053-12.995 24.198-30.905 31.308-50.462A203 203 0 0 1 298 373"/><path fill="#f09c8f" d="m212 147 3 1 1 32h-1v-8h-9l.291 1.956c.432 2.93.852 5.862 1.272 8.794l.458 3.078c.14.98.278 1.96.42 2.969l.397 2.73c.16 2.433-.1 4.165-.838 6.473-4.26-8.064-7.83-15.88-9-25l-4-1-.742 2.2c-2.288 5.094-6.449 8.788-10.258 12.8l-1.914 2.074C163.756 208.301 136.46 223.891 111 231h-4v-13h1v10c15.057-8.009 28.71-20.798 38.875-34.437l1.542-2.057c5.22-7.12 9.476-14.706 13.583-22.506h3c2.221-1.375 2.221-1.375 4.563-3.187 7.36-5.282 14.224-9.495 23.437-9.813 1.337.317 2.673.643 4 1l2-2 1 3a107 107 0 0 0 6 4l.805-2.773 1.07-3.602 1.055-3.586C210 149 210 149 212 147"/><path fill="#f6dad3" d="M103 206h1c-.351 7.506-1.213 14.448-3.172 21.7-.986 3.93-1.743 7.874-2.453 11.863l-.373 2.036c-2.168 12.436-2.238 24.877-2.252 37.464l-.007 2.82c-.013 13.42.77 26.36 2.577 39.664 2.223 16.65 1.704 34.297-8.32 48.453-3.012 3.606-6.181 7.01-9.449 10.384-2.794 2.91-5.51 5.894-8.239 8.866l-3.074 3.328L67 395c-1.26-3.78-.672-6.01.004-9.937l.358-2.119c.393-2.316.797-4.63 1.2-6.944l.837-4.89q.865-5.067 1.743-10.13a2818 2818 0 0 0 2.35-13.851C78.848 315.246 84.85 283.53 92 252l.81-3.583A1606 1606 0 0 1 103 206"/><path fill="#bd6b6b" d="M446 243c1.964 2.945 2.95 5.403 4.11 8.73l1.265 3.576.676 1.913c15.012 44.948 15.012 44.948 41.522 83.313 1.71 1.826 2.673 3.072 3.427 5.468-.865 4.31-2.732 8.023-4.687 11.938l-1.514 3.228A387 387 0 0 1 487 369c-4.875-4.75-4.875-4.75-6-7h-3c-.182.699-.364 1.397-.55 2.117l-.762 2.758-.739 2.742C475 372 475 372 472 374c-3.09.602-5.913.622-9 0-2.575-1.77-3.359-3.194-5-6-.312-2.875-.312-2.875 0-5h-4l.188 3.75c.016 3.032-.081 4.072-1.688 6.75L451 375l-4-1-.295-2.309c-1.498-11.127-3.625-22.11-5.767-33.128q-.823-4.245-1.641-8.49-.505-2.618-1.015-5.235A241 241 0 0 1 436 311c1.683 2.525 2.505 4.178 3.402 6.984l.76 2.336.776 2.43c1.78 5.556 3.707 10.911 6.062 16.25a318 318 0 0 1 2.254 6.203c.797 2.082.797 2.082 2.746 4.797l3 1-.691-2.738-.872-3.575-.878-3.55C452 338 452 338 453 335l1.172 2.555 1.578 3.32 1.547 3.305c1.597 3.212 1.597 3.212 5.703 4.82l-2-16h2l.883 2.309c4.141 11.452 4.141 11.452 12.3 19.933L478 356l-.918-2.316a382 382 0 0 1-7.871-22.176c-1.177-3.551-1.177-3.551-2.746-7.07-1.354-3.177-2.365-6.237-3.277-9.563l-1.032-3.719-.558-2.023a549 549 0 0 0-1.942-6.727c-3.014-10.292-5.79-20.63-8.406-31.031l-.89-3.518C446 250.323 446 250.323 446 243"/><path fill="#fae8e3" d="M363 339c1.437 2.875.666 5.3.284 8.396C361.847 360.56 361.8 373.09 368 385q1.416 2.795 2.828 5.594c1.59 3.148 3.18 6.296 4.782 9.438 5.812 11.522 10.508 23.019 10.577 36.093l.043 3.695C386 443 386 443 384 446l-.61-3.15q-1.129-5.793-2.27-11.584-.493-2.505-.978-5.01-.702-3.606-1.415-7.21l-.433-2.257c-1.245-6.624-1.245-6.624-5.517-11.465-6.567-3.785-13.148-6.827-20.184-9.617-5.28-2.111-10.389-4.463-15.468-7.02l-2.036-1.023c-2.812-1.433-5.46-2.911-8.089-4.664-.914-3.223-.914-3.223-1.625-7.062-.466-4.295-.466-4.295-2.375-7.938l-1 12c-1.829-3.658-2.734-6.608-3.625-10.562-.26-1.136-.52-2.272-.79-3.442C317 363 317 363 317 360l3.813-1.031C336.37 354.62 350.113 348.913 363 339"/><path fill="#f8e4df" d="M416 240h2l.563 2.908c4.42 22.837 4.42 22.837 8.937 45.655l.591 2.955q1.523 7.597 3.077 15.187a2066 2066 0 0 1 10.144 53.17l.518 2.912c1.843 10.388 3.64 20.774 5.17 31.213-14.884-11.84-29.305-27.646-32-47-.575-10.644.162-20.94 1.5-31.5 1.55-12.682 1.81-25.238 1.813-38l.01-2.816c.019-9.23.009-18.216-1.896-27.291-.448-2.511-.498-4.848-.427-7.393"/><path fill="#f3e2d1" d="m274 375 16 1c1.126 5.632 1.126 5.632-.406 9.441l-.995 2.501-1.099 2.62-1.113 2.705c-2.927 6.96-6.17 13.45-10.387 19.733l-1.676 2.512c-4.297 5.976-9.41 10.507-16.3 13.285-4.608.462-8.56-3.11-12.024-5.797-6.452-6.604-13.098-14.498-14.625-23.812C232 396 232 396 233.938 393.5c4.27-2.092 7.561-1.31 12.062-.5q3.78.54 7.563 1.063 3.219.466 6.437.937l.793-1.766c1.273-2.357 2.696-4.027 4.52-5.984 3.447-3.837 6.07-7.81 8.687-12.25"/><path fill="#2a97b0" d="m196.875 225.813 3.336-.038 3.219-.005 2.882-.013c2.955.267 5.073.841 7.688 2.243.813 3.125.813 3.125 1 6l-8 3c-.25 2.416-.25 2.416 0 5 3.188 2.125 5.265 2.502 9 3-1.346 8.03-4.814 14.698-11.156 19.844-5.971 3.744-11.968 4.022-18.844 3.156-6.487-2.478-11.212-7.284-14.191-13.477-3.682-9.108-3.855-17.216-.809-26.523 7.17-3.585 18.036-2.183 25.875-2.187"/><path fill="#5e0f13" d="M334.5 206.746c11.876 4.255 22.228 10.672 29.5 21.254l-1 3c-5.027-.341-9.972-.808-14.93-1.734-19.456-3.58-39.37-2.532-59.07-2.266 1.232-8.147 4.584-14.524 11.25-19.562 9.68-6.623 23.586-3.934 34.25-.692"/><path fill="#631a1e" d="M475 143c2.597 15.305 5.82 34.328-3.309 47.953-1.698 2.157-3.219 3.81-5.691 5.047-2.172.203-2.172.203-4.75.25l-2.547.078c-3.354-.407-5.728-1.773-8.703-3.328l1.079 2.17c6.935 14.009 13.588 28.064 19.546 42.518 14.34 35.095 14.34 35.095 34.266 67.21C507 308 507 308 506.812 311.438L506 314c-19.872-18.249-30.51-49.79-40.562-74.062a3485 3485 0 0 0-5.754-13.786l-1.407-3.35c-3.635-8.546-7.65-16.856-11.948-25.087l-1.325-2.557-1.176-2.225C443 191 443 191 443 188l3 2c6.337.644 10.702-.423 16-4 3.187-3.393 4.126-6.545 4.133-11.14l.006-2.476-.014-2.634-.006-2.688c-.05-7.719-.467-15.372-1.119-23.062 3.215-1.607 6.436-1.057 10-1"/><path fill="#fafafa" d="M289 234h7l1 15h6l1 4-4 2c3.374 5.499 6.976 9.5 13 12 7.355.904 13.969.557 20-4 5.353-4.694 7.73-10.365 10-17l-2.687.25c-4.003-.302-5.441-1.547-8.313-4.25.357-2.591.766-3.773 2.668-5.617 7.167-4.25 18.62-1.114 26.332.617l1-2c.784 8.433-1.837 17.49-6.75 24.375A106 106 0 0 1 352 263l-1.672 1.969C344.5 271.047 338.126 271.527 330 272l-3.57.281c-7.594.328-14.28-.663-21.618-2.531l-2.467-.62c-4.448-1.235-7.427-2.344-10.345-6.13-3.239-6.477-3.136-13.304-3.062-20.375l.013-2.52q.02-3.053.049-6.105"/><path fill="#458959" d="m386 93 1 2a118 118 0 0 1-3.5 7.188l-2.21 4.34-1.148 2.241a656 656 0 0 0-5.267 10.481l-.967 1.876c-1.668 3.428-1.668 3.428-1.33 7.116 4.855 6.003 12.975 9.135 19.82 12.266 2.802 1.606 4.17 2.597 5.602 5.492-.129 5.503-2.726 10.337-5 15.25l-1.201 2.64a439 439 0 0 1-9.88 20.109C379.06 189.557 377 194.641 377 201c1.42 2.227 1.42 2.227 3 4l-1 2-3-1c-1.187-2.562-1.187-2.562-2-5l-2.187 1.563c-3.233 1.651-4.43 1.5-7.813.437.514-5.428 2.478-9.153 5.188-13.75l1.23-2.15c2.182-3.789 4.466-7.486 6.832-11.162 5.248-8.679 8.642-18.77 7.75-28.938l-1.766-.445c-7.552-2.066-16.536-4.709-22.082-10.477-2.046-3.69-1.268-7.137-.152-11.078 1.139-2.005 2.372-3.72 3.844-5.492 1.377-1.626 1.377-1.626 2.156-4.508a264 264 0 0 1 5-5c1.922-2.148 3.774-4.353 5.625-6.562l1.445-1.71c2.4-2.848 4.737-5.718 6.93-8.728"/><path fill="#fafafb" d="M222 234c2.33 2.33 1.25 8.648 1.251 11.917-.094 7.203-.83 13.496-4.939 19.583-2.56 1.66-4.951 2.386-7.93 2.996-2.45.487-2.45.487-5.077 1.29-7.894 2.262-15.13 2.59-23.305 2.214-1.018-.03-2.037-.062-3.086-.094-8.979-.492-14.205-3.524-20.348-9.996-5.638-6.876-9.267-17.03-8.566-25.91 6.373-.745 12.583-1.103 19-1l.262 2.93c1.016 9.418 2.263 18.467 9.8 25.07 6.352 4.324 11.281 4.786 18.938 4 5.661-1.63 10.009-4.88 13-10 1.825-3.943 3.456-7.94 5-12l-2.852.074C210 245 210 245 207.625 243.812 206 242 206 242 205.438 239.5c.562-2.5.562-2.5 2.375-4.312 4.666-1.74 9.254-1.618 14.187-1.188"/><path fill="#a4e8f8" d="m302 3 2.954.602C341.056 11.154 384.222 25.222 411 52l-6 12c-3.682-3.068-7.156-6.132-10.437-9.625C365.872 25.407 323.233 10.174 284 4l-3.208-.553c-8.829-1.427-17.432-1.757-26.35-1.708-2.308.011-4.615 0-6.922-.012-8.758-.007-17.212.551-25.876 1.844-3.942.464-7.679.498-11.644.429V3c29.063-5.587 63.006-6.073 92 0"/><path fill="#f4b4a9" d="M195 172c-2.118 6.275-6.518 10.279-11 15l-1.914 2.074C169.14 202.653 151.188 214.491 134 222l-2-1 1.977-1.836c8.23-7.89 13.027-16.105 18.085-26.164l1.059-2.085c1.509-3.007 2.884-5.93 4.043-9.095 1.037-2.731 1.856-4.667 3.836-6.82 4.291-1.565 8.463-1.791 13-2q3.126-.309 6.25-.625c4.932-.374 9.806-.457 14.75-.375"/><path fill="#ba6768" d="M366 323c1.812 5.437.007 10.776-2 16-2.508 3.247-5.437 5.02-9 7l-1.742.979C341.921 353.256 329.954 358.432 317 360l.91 3.395q.577 2.208 1.152 4.418l.604 2.236c1.447 5.611 1.447 5.611.334 8.951l-1.793-1.46-2.394-1.915-2.356-1.898c-4.121-2.896-7.557-4.008-12.582-3.977l-2.57-.016c-2.58.12-2.58.12-5.305 2.266-3.066.012-3.066.012-6.562-.312l-3.504-.301C280 371 280 371 278 370v-7l2.668-.456c23.695-3.847 23.695-3.847 46.332-11.544l2.042-.898C343.607 343.578 355.054 334.528 366 323"/><path fill="#e5e3e1" d="m170 397 .168 3.406q.313 6.326.632 12.652l.27 5.45c.534 11.675.534 11.675 1.489 23.32.66 6.693.59 13.39.566 20.11l-.003 2.043c-.017 11.361-.367 22.682-1.122 34.019h-2v-20l-6-1c-2.15-.848-2.15-.848-4.086-1.848l-2.129-1.084-2.16-1.13-2.23-1.143A918 918 0 0 1 148 469c.838-4.57 3-5.86 6.75-8.562l3.172-2.317C161 456 161 456 163.89 454.785c2.283-1.525 2.283-1.525 2.338-3.596l-.056-2.21-.059-2.452c-.18-4.001-.448-7.988-.77-11.98l-.202-2.616q-.317-4.09-.642-8.181a6928 6928 0 0 1-.642-8.224q-.197-2.546-.4-5.092c-.298-3.822-.539-7.596-.458-11.434 2.647-1.46 3.894-2 7-2"/><path fill="#f09d90" d="M333.875 159c5.55 2.847 10.387 6.238 15.137 10.3 2.082 1.849 2.082 1.849 4.988 3.7v2q-2.312.04-4.625.063l-2.602.035C344 175 344 175 341.205 174.5c-3.15-.492-6.074-.614-9.26-.598l-3.36.01-3.46.025-3.531.014q-4.298.018-8.594.049l2.82 3.75 1.587 2.11c2.244 3.014 4.42 6.073 6.593 9.14-7.375-1.17-12.064-3.548-18-8l-2.344-1.727A438 438 0 0 1 298 175l1-3-2-1c11.039-10.505 21.752-19.24 36.875-12"/><path fill="#f6cbcd" d="M358 282c2.985 4.478 2.586 8.753 2 14-1.94 4.143-4.665 5.517-8.687 7.375-5.074 1.815-9.152 2.336-14.313.625-4.978-2.517-10.124-5.506-12-11 .169-4.733.944-8.333 4-12 9.734-5.143 19.807-5.258 29 1"/><path fill="#206178" d="M424 216h1c.202 4.603-.45 8.294-1.812 12.688l-1.02 3.386c-1.136 2.846-1.915 3.972-4.168 5.926l-1.543 1.938c-3.899 4.89-7.18 7.99-13.457 9.062-3.683.21-7.316.183-11 0l-.348 3.457c-.572 4.57-1.742 8.836-3.09 13.23l-.658 2.221c-1.134 3.778-2.362 7.455-3.904 11.092h-1l-2-33-9-4c-1.688-.964-3.367-1.946-5-3l1-7 3.688.813 2.503.542q2.901.667 5.774 1.446c9.897 2.581 21.063 4.86 30.535-.113 6.565-4.585 10.063-11.648 13.5-18.688"/><path fill="#f6cacd" d="M186.875 282.5c2.655 3.54 2.417 7.265 2.125 11.5-1.821 4.121-4.334 6.434-8 9-5.652 1.884-11.97 1.997-17.648.129C158 300.417 155.196 297.59 153 292c0-4.481 2.197-7.607 5-11 9.473-4.995 20.177-5.458 28.875 1.5"/><path fill="#e05d5e" d="m263 442 .688 1.563c1.156 2.148 2.357 3.739 3.875 5.625 2.88 4.035 4.166 7.839 3.437 12.812-1.593 3.062-3.689 5.455-6 8l-2.187 2.938c-4.185 4.982-9.989 10.15-15.813 13.062l.465-2.422c1.206-8.495-.014-12.946-4.996-19.922C241 461 241 461 241.066 458.441c1.077-2.814 2.44-4.695 4.371-7.003 2.259-2.72 4.106-5.208 5.563-8.438l2 1c3.956.258 6.597.094 10-2"/><path fill="#d8cba6" d="m186 388 2 1-.969 2.137c-3.48 9.665-.567 19.213 3.266 28.254 2.101 4.453 4.28 8.077 7.703 11.609l1.77 1.852c8.455 8.094 18.249 11.331 29.73 11.273l2.3.012c3.57-.007 6.767-.174 10.2-1.137l2 4c-2.366 3.848-2.366 3.848-5.154 4.518l-2.494.013-2.779.025-2.948-.056-3.01-.037c-12.71-.341-24.272-3.727-33.834-12.498-7.775-8.225-13.377-19.153-13.969-30.59L180 406c-2.867.573-3.861.861-6 3v-15c9.18-4.785 9.18-4.785 12-6"/><path fill="#bc696a" d="m381 401 2 2.063c6.625 6.551 13.67 11.92 21.452 17.03 6.535 4.355 6.535 4.355 8.548 7.907.558 3.665.224 5.553-1.437 8.875C406.059 444.271 397.82 450.269 390 455h-2l.5-3.812c1.631-17.502.511-32.283-7.5-48.188zm-249 0c0 4.56-2.012 8.293-3.71 12.48-2.913 7.95-3.58 14.668-3.477 23.082l.001 3.038c.031 5.234.282 10.243 1.186 15.4-8.95-3.183-19.338-10.626-24.16-19.02-1.213-2.86-1.217-4.903-.84-7.98 3.086-4.724 7.118-7.353 11.75-10.375 7.213-4.832 14.124-9.498 19.25-16.625"/><path fill="#a6ecfc" d="m480 370 4 2c-.566 4.946-2.799 8.565-5.312 12.75l-1.323 2.223c-3.402 5.627-7.03 11.08-10.803 16.464l-1.538 2.205-1.458 2.042-1.283 1.798C461 411 461 411 458 413c-6.253-10.907-7.71-21.671-9-34l2.938-.875c3.169-.767 3.169-.767 4.062-3.125l2.313.938c5.652 2.234 10.792 3.284 16.5.875 2.446-2.028 3.742-4 5.187-6.813"/><path fill="#bc6a6b" d="M413 299h1c.191 4.787-.144 9.149-.937 13.875-.79 4.862-1.115 9.461-1.102 14.39-.006 21.18-.006 21.18-7.598 29.196-9.2 9.885-9.933 21.615-9.521 34.363.312 4.293 1.492 8.228 3.158 12.176-6.593-5.651-9.504-14.162-10.371-22.621-.298-17.131 6.047-30.15 13.71-45.11C407.34 323.496 411.044 312.066 413 299"/><path fill="#bd6b6c" d="M101 307c1.896 2.844 2.774 5.305 3.75 8.546 2.528 8.335 5.815 15.968 9.813 23.704 8.417 16.298 15.061 32.613 9.503 51.059-1.807 4.562-4.34 8.625-7.066 12.691l-1-2 1.438-3.562c3.591-10.374 2.646-22.247-1.598-32.235-1.44-2.505-2.735-4.373-4.586-6.531-8.827-10.328-9.59-18.44-9.286-31.851.048-4.27-.233-8.502-.53-12.759l-.254-4.152z"/><path fill="#be6d6d" d="M224 127h1l.062 1.719q.332 9.032.683 18.062.128 3.35.25 6.7c.718 19.713 1.875 39.176 5.567 58.582l.67 3.658c1.22 6.675 1.22 6.675 2.768 13.279-4.462-1.498-6.281-5.004-8.625-8.812l-1.195-1.87c-7.353-11.687-6.413-24.49-6.43-37.943l-.005-2.16c-.002-17.283 1.642-34.299 5.255-51.215"/><path fill="#ef9a87" d="m197 382 1 2-1 2c-1.554 12.74-.501 23.324 7 34 2.425 3.076 4.91 5.598 8 8l1.688 1.367c6.568 4.252 15.814 3.465 23.312 2.633 2.886-.758 5.27-1.769 8-3 3.3.365 4.847 1.524 7 4q-1.806 1.199-3.625 2.375l-2.04 1.336c-8.822 4.869-20.22 4.745-29.862 2.45-11.242-4.298-18.574-11.978-23.66-22.653-3.73-8.937-4.451-17.98-1-27.133 1.327-3.062 2.703-5.14 5.187-7.375m119 0c4.995 4.455 7.544 8.304 8.355 14.883.527 11.806-3.637 23.133-11.355 32.117-8.003 7.878-16.877 11.34-28.062 11.438-7.584-.12-15.387-.591-21.063-6.125L262 432l6-4 2.25 1.438c6.906 3.923 16.016 3.55 23.75 2.562 8.65-2.894 14.983-10.023 19.605-17.648 4.95-10.12 4.475-21.474 2.395-32.352"/><path fill="#20637a" d="M475 143c2.597 15.305 5.82 34.328-3.309 47.953-1.698 2.157-3.219 3.81-5.691 5.047-7.262.837-12.626-.551-19-4v-1l1.723-.297c5.51-1.067 9.697-2.405 14.277-5.703 3.38-5.132 3.4-9.516 3.25-15.437l-.033-2.648c-.129-7.658-.57-15.284-1.217-22.915 3.215-1.607 6.436-1.057 10-1"/><path fill="#e15d5e" d="M262 481c1.593 2.906 2.448 5.524 3.07 8.773l.528 2.75.527 2.852.55 2.828c.905 4.8 1.325 8.833 1.325 13.797h-28c1.564-10.164 2.911-15.658 11-22l2.969-2.48A463 463 0 0 1 262 481"/><path fill="#671c1e" d="M256 299c3.53 1.177 3.57 1.666 5.188 4.813 2.838 4.636 5.487 6.89 10.812 8.187 8.422.893 16.862 1.088 24-4 1.965-1.905 3.413-3.747 5-6l4 1c-.475 4.271-2.918 6.205-6 9l-1.75 1.625c-7.528 4.6-15.582 5.32-24.25 4.375-6.296-1.589-10.844-4.012-15-9-3.89 1.83-7.27 4.2-10.781 6.66-6.52 3.937-15.989 3.378-23.149 1.621C217.7 314.88 212.826 311.74 209 306v-4c4 0 4 0 5.457 1.426q1.346 1.874 2.688 3.75c4.154 4.084 9.066 5.192 14.754 5.293l2.038-.031 2.133-.03c5.424-.186 9.852-.655 13.93-4.408 2.275-2.86 4.206-5.819 6-9"/><path fill="#1e7294" d="m196.875 225.813 3.336-.038 3.219-.005 2.882-.013c3.049.276 5.066.632 7.688 2.243l1 6h-15l1-4 2-1c-5.417 1.019-10.74 2.184-16.062 3.625-5.158 1.328-9.63 1.64-14.938 1.375.134 9.165.268 17.392 6 25 4.3 4.147 8.448 5.807 14.313 6.25 5.446-.37 9.152-2 13.375-5.437 3.445-4.19 5.602-8.683 7.312-13.813h2c-.422 6.744-2.78 11.653-7.488 16.547-5.759 5.059-11.046 5.97-18.504 5.832-6.018-.758-9.497-3.936-13.758-8.004-5.347-7.069-7.225-15.69-6.25-24.375.465-2.82 1.105-5.265 2-8 7.17-3.585 18.036-2.183 25.875-2.187"/><path fill="#bb6869" d="M134 227c.269 6.643-.194 13.044-1 19.625-1.408 11.768-1.188 23.543-1 35.375-6.182-9.274-8.542-21.514-10.875-32.25l-.652-2.993c-.905-4.346-1.585-8.302-1.473-12.757l-2-1q3.685-1.506 7.375-3l2.117-.867C131.773 227 131.773 227 134 227"/><path fill="#be6a6a" d="M158 176h2c-2.539 8.886-6.71 16.857-11 25l-1.504 2.902c-3.765 6.79-8.864 11.815-14.496 17.098l-1.373 1.519c-1.895 1.725-3.536 2.423-5.936 3.305l-2.513.928-2.615.935-2.604.971C113.999 230.1 111.284 231 107 231v-13h1v10c15.238-8.106 28.91-21.037 39.125-34.875l1.573-2.111c3.539-4.812 6.626-9.662 9.302-15.014"/><path fill="#f8fafa" d="m422 209 3 1c-.96 9.04-4.271 17.06-11.39 22.992-9.185 6.193-18.627 6.14-29.423 4.133-3.033-.64-3.944-.882-6.187-3.125.375-3.125.375-3.125 1-6 3.638-.922 6.12-.97 9.75-.062 8.627 1.853 15.587 1.949 23.25-2.938 5.076-4.354 7.63-9.853 10-16"/><path fill="#f5f8f9" d="M463 144c5.48 5.48 4.23 18.05 4.313 25.438l.053 2.581c-.005 5.084-.547 8.58-3.366 12.981-4.258 4.034-8.216 6.05-14.062 6.375-4.466-.425-5.092-1.167-7.938-4.375l2.703-.77 3.547-1.042 3.516-1.02c2.993-1.081 4.937-1.996 7.234-4.168 3.522-10.567.377-24.154-1-35 2.375-.625 2.375-.625 5-1"/><path fill="#65181c" d="M312 173c2.184-.324 2.184-.324 5 0 2.535 2.23 2.535 2.23 5.063 5.188l2.535 2.917a187 187 0 0 1 4.398 5.493c3.726 4.466 8.445 7.825 13.004 11.402l2.86 2.266C352.536 206.2 360.627 211.135 369 216q2.503 1.495 5 3l-2 4c-20.459-7.378-48.45-27.874-58.746-47.293z"/><path fill="#207292" d="m316.063 225.813 3.896-.038c7.262-.01 13.997.4 21.041 2.225l1 6c-5.126.103-9.95.036-15-1l1-3c-5.007.518-9.223 1.374-14 3-5.071.94-9.866 1.09-15 1v15h-2c-2.244-6.733-.984-13.348 1-20 2.625-5.25 13.05-3.185 18.063-3.187"/><path fill="#e1e449" d="m204 229-8 7 3 3.813c3 3.812 3 3.812 3 7.187-6.811 5.227-12.647 6.384-21 7l1.277-1.61 1.66-2.14 1.653-2.11c1.415-2.148 2.199-3.577 2.41-6.14a142 142 0 0 0-5-5v-3c15.425-6.394 15.425-6.394 21-5"/><path fill="#163f4b" d="M394 178c1 2 1 2 .259 4.775l-1.208 3.526-.648 1.916a1195 1195 0 0 1-2.09 6.095q-1.354 3.962-2.7 7.926l-.67 1.967c-1.823 5.372-3.514 10.78-5.157 16.21-.569 1.87-1.168 3.73-1.786 5.585-2.763-.523-5.326-1.109-8-2 2.333-7.341 5.067-14.497 7.969-21.63a396 396 0 0 0 1.54-3.87c3.089-7.874 6.262-14.599 12.491-20.5"/><path fill="#e3e547" d="m329 229-6 8 3 3.313c3 3.312 3 3.312 3 6.687-4.847 4.192-10.72 5.985-17 7l-4-1 7-9c-1.63-3.82-1.63-3.82-3.625-5.562C310 237 310 237 310 234q2.374-.974 4.75-1.937l2.672-1.09C321.676 229.368 324.316 229 329 229"/><path fill="#bd6969" d="M106 464c1.02.2 1.02.2 2.063.402l2.937.536 3.3.617c2.83.34 4.965.421 7.743.203 4.434-.264 7.692-.211 11.957 1.242 4.261 4.493 9 12.652 9 19-5.562-1.556-10.188-4.215-15.125-7.125l-2.529-1.478c-6.59-3.884-13.21-7.816-19.346-12.397z"/><path fill="#bc6869" d="M404 466c-7.773 5.35-15.612 10.51-23.812 15.188l-2.083 1.206c-1.666.935-3.382 1.78-5.105 2.606l-2-1q1.931-3.94 3.875-7.875l1.105-2.262 1.075-2.168.984-2C379 468 379 468 381 466a90 90 0 0 1 7.313-.062c5.136.115 10.922-1.526 15.687.062"/><path fill="#e05c5d" d="m263 442 2 4a389 389 0 0 1-11.562 11.188l-1.71 1.615c-2.75 2.557-5.186 4.785-8.728 6.197-1.464-2.325-2.04-3.588-1.773-6.36.896-3.058 2.173-4.766 4.21-7.202 2.259-2.72 4.106-5.208 5.563-8.438l2 1c3.956.258 6.597.094 10-2"/><path fill="#648cc5" d="m264 495 2 1c.633 2.074.633 2.074 1.125 4.688l.508 2.574C268 506 268 506 268 512h-22c3.167-3.958 5.68-6.551 9.563-9.625 4.397-3.49 4.397-3.49 8.437-7.375"/><path fill="#65191c" d="M215 267v4c-8.837 4.356-16.685 5.473-26.5 5.438l-3.146-.008c-5.145-.1-9.55-.381-14.354-2.43v-4l1.914.219C187.88 271.77 201 266.632 215 267"/><path fill="#b86c6e" d="m382 246 21 2v1h-11l-.348 3.457c-.572 4.57-1.742 8.836-3.09 13.23l-.658 2.221c-1.134 3.778-2.362 7.455-3.904 11.092h-1c-.582-11.008-1.147-21.974-1-33"/><path fill="#63161a" d="M297 267c4.208.468 7.962 1.283 12 2.563 10.34 2.911 21.45 1.665 32 .437v4c-6.035 1.745-11.479 2.352-17.75 2.313l-2.652-.009c-8.363-.134-16.145-1.336-23.598-5.304z"/><path fill="#247b9d" d="M169 236h3l.043 2.492c.36 8.42 1.395 16.088 7.703 22.2 5.274 3.98 9.76 4.748 16.254 4.308 6.921-2.267 10.955-5.688 14.25-12.125A59 59 0 0 0 213 246h2c-.422 6.744-2.78 11.653-7.488 16.547-5.759 5.059-11.046 5.97-18.504 5.832-6.018-.758-9.497-3.936-13.758-8.004-5.44-7.192-6.937-15.576-6.25-24.375"/><path fill="#e2b7a8" d="M302.32 171.355c4.507-.27 7.469-.391 11.008 2.637 2.06 2.586 3.887 5.226 5.672 8.008a536 536 0 0 0 3 4.125l2 2.875c-7.375-1.17-12.064-3.548-18-8l-2.344-1.727A438 438 0 0 1 298 175c2-3 2-3 4.32-3.645"/><path fill="#638bc4" d="m264 447 3 1c.86 1.863.86 1.863 1 4-1.047 1.605-1.047 1.605-2.75 3.188l-1.941 1.804C250.789 467.88 250.789 467.88 246 470l-2-6 6.625-5.687 1.871-1.608a891 891 0 0 1 3.708-3.163 155 155 0 0 0 3.49-3.087c1.58-1.412 1.58-1.412 4.306-3.455"/><path fill="#638ac2" d="M270 458c.664 1.758.664 1.758 1 4-1.04 1.93-1.04 1.93-2.625 3.875l-1.715 2.121L265 470l-2.187 2.938c-4.185 4.982-9.989 10.15-15.813 13.062.22-4.772.843-8.62 3.973-12.352 2.599-2.331 5.273-4.501 8.027-6.648a599 599 0 0 0 3.105-2.562A714 714 0 0 1 270 458m-8 23c1.267 2.086 2.016 3.481 1.941 5.95-1.388 3.024-3.507 4.682-6.003 6.863l-3 2.636L252 499l-2.437 2.207C244.253 506 244.253 506 242 506c0-5.318.595-8.103 4.375-11.937 5.01-4.582 10.31-8.843 15.625-13.063"/><path fill="#e6e5e3" d="M342 479c4.546 1.818 7.108 3.445 10.813 6.5l2.957 2.406L358 490v2l-16 6z"/><path fill="#e6e4e2" d="m377 429 2 13-22-2c3.872-3.872 6.557-6.207 11.125-8.875l3.133-1.867C374 428 374 428 377 429"/><path fill="#61c2cc" d="M326 251c2.375 1.5 2.375 1.5 4 3-.25 2.375-.25 2.375-1 5-3.11 2.09-5.808 2.297-9.5 2.313l-2.844.05c-3.11-.425-4.49-1.1-6.656-3.363v-4c11.13-3.696 11.13-3.696 16-3"/><path fill="#61c2cd" d="m200 252 2 2c-.125 2.5-.125 2.5-1 5-3.123 2.075-5.801 2.297-9.5 2.313l-2.844.05c-3.11-.425-4.49-1.1-6.656-3.363v-4c11.696-3.744 11.696-3.744 18-2"/><path fill="#e05d5e" d="M262 474c1.563 4.08 1.563 4.08 1 7-2.937 3.474-6.45 6.175-10 9a560 560 0 0 0-4.625 4.063q-1.687 1.47-3.375 2.937c-1.35-4.048-.327-5.748 1.422-9.512C248.945 483.51 256.827 474 262 474"/><path fill="#22799b" d="M341 247c1.362 4.086.215 5.86-1.562 9.645-3.357 5.499-8.32 9.395-14.438 11.355-6.887.902-12.612.68-18.312-3.5-3.47-3.084-6.193-6.014-7.688-10.5h3l1.75 2.75c3.218 4.648 6.87 6.457 12.25 8.25 6.23.528 10.96-.077 16-4 2.334-2.825 4.185-5.823 6-9l1.875-3.062z"/><path fill="#66181c" d="m212 147 3 1v22c-7-6-7-6-8-10 .488-2.727.488-2.727 1.313-5.625l.8-2.914C210 149 210 149 212 147"/><path fill="#d3d2d2" d="m171 228-1 8-1.871-.035c-5.804-.062-11.372.292-17.129 1.035v-6c6.642-1.748 13.08-3.21 20-3"/><path fill="#e6b8b1" d="M379 409c1.992 2.988 2.95 5.48 4.063 8.875l1.035 3.117c1.546 5.153 2.06 9.74 2.09 15.133l.042 3.695C386 443 386 443 384 446q-1.33-6.453-2.618-12.915a857 857 0 0 0-.894-4.388 839 839 0 0 1-1.273-6.33l-.778-3.84c-.432-3.484-.21-6.122.563-9.527"/><path fill="#d6d5d6" d="M341 228q3.876.465 7.75.938l2.21.263c3.416.42 6.716.916 10.04 1.799v6c-6.352-.549-12.679-1.165-19-2z"/><path fill="#f1d0c9" d="M200 172h6c.533 3.582 1.05 7.165 1.563 10.75l.458 3.078c.14.98.278 1.96.42 2.969l.397 2.73c.16 2.433-.1 4.165-.838 6.473-8.618-16.316-8.618-16.316-8-26"/><path fill="#d8caa6" d="M238 465c3.012 3.531 5.521 6.584 7 11-.434 4.178-1.522 8.142-2.625 12.188l-.832 3.251A736 736 0 0 1 239 501l-.882 3.252Q237.065 508.127 236 512l-2-2c.408-7.614 2.787-14.763 4.916-22.043 1.989-6.86 1.989-6.86 2.084-13.957a132 132 0 0 0-3-5z"/><path fill="#5d1b1b" d="M416 86h1c.54 6.792-.414 12.4-2.312 18.875l-.646 2.234c-1.175 3.824-2.328 6.85-5.042 9.891l-1-1c.44-6.856 2.41-13.007 4.563-19.5l.998-3.07Q414.77 89.712 416 86"/><path fill="#d4c5a2" d="M270 443q2.712.364 5.422.738c7.863.799 15.782.485 23.578-.738-6.04 5.536-14.505 5.314-22.242 5.754-2.716.073-2.716.073-4.758 1.246l-3-6z"/><path fill="#d3d1d1" d="M223 224c2.932 2.853 5.643 5.65 8 9-2.972-1.125-5.334-2.223-8-4v5h-8l-2-7q2.188-.04 4.375-.062l2.46-.036C222 227 222 227 224 228z"/><path fill="#dbdddb" d="m371 223 10 3-1 2.25c-1.228 2.889-1.228 2.889-1 6.75-7.489-1.45-7.489-1.45-9.625-3.75-.527-3.16.43-5.33 1.625-8.25"/><path fill="#123d49" d="M406 165c.155 5.731-.348 10.893-1.5 16.5l-.434 2.203A863 863 0 0 1 403 189h-2a617 617 0 0 1-.25-9.187l-.102-2.62c-.066-4.317-.042-6.565 2.305-10.306C405 165 405 165 406 165"/><path fill="#f1e7e6" d="M103 206h1c-.357 7.637-1.23 14.74-3.234 22.121-1.131 4.252-1.953 8.557-2.766 12.879h-3c1.337-8.002 3.114-15.83 5.125-23.687l.84-3.319q1.012-3.998 2.035-7.994"/><path fill="#d66369" d="M266 502c2.322 3.774 2 5.012 2 10h-13c3.494-3.596 7.111-6.835 11-10"/><path fill="#cecbcb" d="m288 226 11 1-2 10-1-3h-7z"/><path fill="#163f4b" d="M368 232c2.763.523 5.326 1.109 8 2l-1 8c-3.375-.547-5.082-1.055-8-3z"/><path fill="#eeefec" d="M385 188c1 2 1 2 .004 5.04l-1.442 3.585-1.433 3.602L381 203c-3 0-3 0-4.687-1.5L375 200c1.477-3.452 3.438-5.65 6.125-8.25l2.195-2.14z"/><path fill="#6484b9" d="m250 443 7 2c-4.444 4.587-9.202 8.788-14 13 0-3.584.73-4.23 2.938-6.937 2.182-2.678 3.457-4.638 4.062-8.063"/><path fill="#ba6768" d="M323 364h1a3381 3381 0 0 1 1.5 7.813l.434 2.236c.575 3.029 1.066 5.86 1.066 8.951-2.437-.375-2.437-.375-5-1-1.623-3.246-.547-6.638-.062-10.125l.302-2.285q.373-2.796.76-5.59"/><path fill="#e8c3be" d="M218 173h1l.076 1.92c.627 16.562.627 16.562 1.924 33.08-5.103-5.103-4.516-15.182-5-22h2z"/><path fill="#2b7fa0" d="M299 254h3l1.75 2.75c3.218 4.648 6.87 6.457 12.25 8.25v3c-5.894-.693-10-3.647-13.812-8.062C300 257 300 257 299 254"/><path fill="#eedaca" d="M187 199c4 2 4 2 6 5a311 311 0 0 1-4.25 1.063l-2.39.597C184 206 184 206 180 205z"/><path fill="#257d9e" d="M298 233h1v16h-2c-.924-2.77-1.163-4.567-1.187-7.437l-.043-2.31c.254-2.486.99-4.101 2.23-6.253"/><path fill="#cfbc9b" d="M239 495c1.617 3.234.009 6.306-.937 9.625l-.592 2.14A912 912 0 0 1 236 512l-2-2c.369-5.627.853-10.853 5-15"/><path fill="#ccb998" d="M256 434c1.938.813 1.938.813 4 2l1 3-6 2-3-3z"/><path fill="#a37274" d="m352 284 3 1-2 10-3 1q.21-2.72.438-5.437c.08-1.01.162-2.02.246-3.06C351 285 351 285 352 284"/><path fill="#a37374" d="m171 284 3 1-2 11h-3q.212-2.437.438-4.875c.08-.905.162-1.81.246-2.742C170 286 170 286 171 284"/><path fill="#a17172" d="M333 285h3l-2 11h-3q.21-2.47.438-4.937c.08-.917.162-1.834.246-2.778C332 286 332 286 333 285"/><path fill="#a27173" d="M181 284h2q-.213 2.438-.437 4.875l-.247 2.742C182 294 182 294 181 296l-3-1q.462-2.47.938-4.937l.527-2.778C180 285 180 285 181 284"/><path fill="#a07071" d="M343 284h2c.178 4.548-.002 7.88-2 12h-2q.21-2.72.438-5.437c.08-1.01.162-2.02.246-3.06C342 285 342 285 343 284"/><path fill="#a2d3ae" d="m419 58 2 1c-.647 6.95-2.86 13.382-5 20-.958-3.045-.994-5.023-.223-8.11l.557-2.285.603-2.355.592-2.402c.482-1.952.976-3.9 1.471-5.848"/><path fill="#edf6f8" d="M179.563 245.938 182 246c.563 1.938.563 1.938 1 4-1 1-1 1-4.062 1.063L176 251c0-4.976 0-4.976 3.563-5.062"/><path fill="#9c6c6d" d="M161 285h3l-1 10-3 1z"/><path fill="#fefcfb" d="m255 269 4 1 1 4-4 2-2-2c.375-2.625.375-2.625 1-5"/><path fill="#631518" d="M255 276h4v6h-4z"/><path fill="#c88384" d="M446 243c1.904 2.856 2.695 4.931 3.625 8.188l.79 2.73L451 256h-2l-1 2q-.506-2.625-1-5.25l-.562-2.953C446 247 446 247 446 243"/><path fill="#ba706f" d="m374 199 6 5-1 3c-3-1-3-1-4.687-4.062L373 200z"/><path fill="#d8bbae" d="M281 183c1 2 1 2 .441 4.164l-.878 2.461-.872 2.477L279 194h-3c1.225-4.053 2.699-7.444 5-11"/><path fill="#9ac9d7" d="m288 1 1 3-12-1V2c3.734-.879 7.168-1.09 11-1"/><path fill="#dbafa1" d="M223 224c2.932 2.853 5.643 5.65 8 9-3.312-1.164-5.89-2.112-8-5z"/><path fill="#c77775" d="M158 176h2l-3 9h-3c1.199-3.083 2.477-6.063 4-9"/><path fill="#722c2d" d="M360 259a250 250 0 0 1 6 4v1l-8-1z"/><path fill="#702829" d="m151 259 3 3c-3.228 2.152-4.284 2.2-8 2z"/><path fill="#4c9261" d="m386 93 1 2c-1.187 3.063-1.187 3.063-3 6-2.187.875-2.187.875-4 1 1.527-3.436 3.6-6.12 6-9"/><path fill="#ce8e8d" d="M323 364h1l1 8h-2l-1 4c-.143-8.571-.143-8.571 1-12"/><path fill="#6f2628" d="M352 267c1.938.313 1.938.313 4 1l1 3-7-1z"/><path fill="#6b2123" d="M157 267c1.938.375 1.938.375 4 1l1 2-7 1z"/><path fill="#5e2c27" d="M416 86h1v10l-3-1z"/></svg>