<svg width="512" height="512"><path fill="#cb847c" d="m255.625-.312 3.085.006c14.609.05 28.94.3 43.29 3.306l2.954.602C353.336 13.722 397.324 35.64 433 70l1.998 1.916C444.486 81.06 453.226 90.357 461 101l2.574 3.453c6.038 8.19 11.42 16.692 16.426 25.547l1.219 2.143c13.025 23.135 21.774 48.307 27.094 74.295l.446 2.178c2.974 15.646 3.614 31.12 3.553 47.009l-.006 3.085c-.05 14.609-.3 28.94-3.306 43.29l-.602 2.954C498.278 353.336 476.36 397.324 442 433l-1.916 1.998C430.94 444.486 421.643 453.226 411 461l-3.453 2.574c-8.19 6.038-16.692 11.42-25.547 16.426l-2.143 1.219c-23.135 13.025-48.307 21.774-74.295 27.094l-2.178.446c-15.646 2.974-31.12 3.614-47.009 3.553l-3.085-.006c-14.609-.05-28.94-.3-43.29-3.306l-2.954-.602C158.664 498.278 114.676 476.36 79 442l-1.998-1.916C67.514 430.94 58.774 421.643 51 411l-2.574-3.453C42.388 399.357 37.006 390.855 32 382l-1.219-2.143C17.756 356.722 9.007 331.55 3.688 305.562l-.447-2.178c-2.974-15.646-3.614-31.12-3.553-47.009l.006-3.085c.05-14.609.3-28.94 3.306-43.29l.602-2.954C13.722 158.664 35.64 114.676 70 79l1.916-1.998C81.06 67.514 90.357 58.774 101 51l3.453-2.574C112.643 42.388 121.145 37.006 130 32l2.143-1.219c23.135-13.025 48.307-21.774 74.295-27.093l2.178-.447c15.646-2.974 31.12-3.614 47.009-3.553"/><path fill="#42a20f" d="m255.625-.312 3.085.006c14.609.05 28.94.3 43.29 3.306l2.954.602C353.336 13.722 397.324 35.64 433 70l1.998 1.916C444.486 81.06 453.226 90.357 461 101l2.574 3.453c6.038 8.19 11.42 16.692 16.426 25.547l1.219 2.143c13.025 23.135 21.774 48.307 27.094 74.295l.446 2.178c2.974 15.646 3.614 31.12 3.553 47.009l-.006 3.085c-.05 14.609-.3 28.94-3.306 43.29l-.602 2.954C498.278 353.336 476.36 397.324 442 433l-1.916 1.998C430.94 444.486 421.643 453.226 411 461l-3.453 2.574C393.587 473.865 378.517 482.292 363 490l-1.977.99c-3.755 1.763-4.822 2.06-9.023 1.01l-3-11 3-1c-.847-16.7-2.216-33.313-4.056-49.93q-.315-2.846-.619-5.69c-1.006-9.354-2.17-18.599-4.286-27.775l-.464-2.035c-1.68-6.813-4.138-12.924-9.575-17.57-5.293-1.973-10.396-2.597-16-3l-3.633-.34c-2.034-.179-4.07-.332-6.11-.45C305 373 305 373 303 372c1.618-5.599 4.275-10.076 7.342-14.965 2.126-3.28 2.126-3.28 2.342-7.028-.86-2.525-1.877-4.977-2.906-7.437-4.393-10.554-8.31-21.289-12.147-32.055a883 883 0 0 0-1.877-5.2c-4.25-11.682-7.15-22.981-8.754-35.315l-2.702.959c-8.923 3.166-8.923 3.166-12.298 2.041-.907-2.42-.907-2.42-1.64-5.61l-.805-3.476-.805-3.664-.852-3.617c-2.297-10.169-2.297-10.169-.898-14.633 1.969-1.484 1.969-1.484 4.5-2.75C282.97 232.754 288.44 224 293 212c.385-1.655.743-3.32 1-5l-1.645.875-2.168 1.125-2.144 1.125C286 211 286 211 283 211c.61-4.141 2.957-7.18 5.25-10.562 7.587-11.536 12.268-22.445 11.75-36.438l-2.117 1.313-2.758 1.687-2.742 1.688C290 170 290 170 288 170c.647-3.683 2.298-6.194 4.313-9.312 4.155-6.918 5.972-13.89 7.687-21.688 12.867 9.124 23.64 21.482 28 37v3l1.773-.656c14.082-4.567 27.639-3.183 41.284 1.928a287 287 0 0 0 6.052 2.173A698 698 0 0 1 387 186l-.89-3.5a252 252 0 0 1-1.97-8.437c-7.823-36.133-28.017-64.99-58.882-85.204-19.993-12.74-43.142-19.047-66.723-19.044a758 758 0 0 1-6.398-.04c-10.5-.043-20.401 1.093-30.574 3.787q-2.78.731-5.563 1.438l-2.684.738L211 76c-2.625-2.375-2.625-2.375-5-5l-3-1-.875-3.312C200.82 62.41 199.876 61.153 196 59c-4.397-.707-6.237-.52-9.937 2-2.293 3.335-2.828 5.1-2.536 9.063.879 3.6 2.422 4.945 5.473 6.937 3.05.393 5.945.3 9 0l1 5c-9.825 6.224-9.825 6.224-14.613 5.73a268 268 0 0 1-5.207-1.835c-9.193-2.587-20.861-2.158-29.618 1.66-8.43 4.754-15.749 11.303-23.022 17.639C117.52 113 117.52 113 114 113a647 647 0 0 1-1.5-4.75l-.844-2.672C111 103 111 103 111 99q-3.846.93-7.687 1.875l-2.186.527c-3.847.949-7.484 2.003-11.127 3.598.593 4.124 1.988 7.092 4.063 10.688C97 120.795 97 120.795 97 123q-3.093.973-6.187 1.938l-3.481 1.09C72.386 130.39 55.497 129.271 41 124l1 22c20.738 5.925 38.997.251 57.992-8.2 1.985-.79 3.926-1.333 6.008-1.8a791 791 0 0 1 3.5 4.375l1.969 2.46C113 145 113 145 113 147l-3.516.043c-14.147.352-23.897 2.852-34.523 12.773-2.907 3.237-3.879 5.278-4.273 9.621 1.586 4.307 2.526 4.564 6.562 6.438 14.676 5.99 28.198 2.416 42.75-1.875q2.034-.585 4.07-1.164L127 172c-.378 11.27-.378 11.27-4.184 15.328a181 181 0 0 1-5.328 3.75c-3.787 2.925-5.59 6.607-7.488 10.922-6-2-6-2-8.692-3.008-3.852-1.155-7.632-1.615-11.617-1.992l-2.408-.244c-2.573-.259-5.147-.508-7.72-.756l-5.351-.533a1834 1834 0 0 0-29.993-2.744C32.124 191.707 20.063 190.333 8 189c11.304-41.54 32.107-78.963 62-110l1.916-1.998C81.06 67.514 90.357 58.774 101 51l3.453-2.574C112.643 42.388 121.145 37.006 130 32l2.143-1.219c23.135-13.025 48.307-21.774 74.295-27.093l2.178-.447c15.646-2.974 31.12-3.614 47.009-3.553"/><path fill="#b5916c" d="M408.438 199.688c5.864 4.058 10.864 7.568 12.266 15.016 1.25 9.697 1.363 19.255 1.183 29.019q-.05 4.254-.092 8.51c-.048 4.407-.104 8.815-.193 13.222-.328 16.84.007 31.686 6.398 47.545 1.519 5.594 2.01 10.923 2.1 16.709.245 9.303 2.362 16.672 6.161 25.108a363 363 0 0 1 2.794 6.402q1.946 4.548 3.92 9.082c3.111 7.186 6.083 14.428 9.018 21.687a937 937 0 0 0 2.826 6.853q.856 2.104 1.708 4.21c.4.948.4.948.81 1.914 1.488 3.738 1.995 6.2.663 10.035a67 67 0 0 1-4.75 6l-1.561 1.784C439.291 436.704 426.153 450.093 411 461a2262 2262 0 0 0-3.437 2.559c-11.27 8.32-23.219 15.283-35.563 21.878l-2.391 1.29-2.296 1.207-2.012 1.064c-3.022 1.316-6.122 2.145-9.301 3.002l-.196-3.448c-1.252-21.675-2.775-43.29-5.241-64.865l-.295-2.667c-2.174-19.497-5.653-34.223-17.893-50.02q-1.945-2.52-3.877-5.046a501 501 0 0 0-2.989-3.86c-10.605-13.72-16.169-28.111-21.572-44.469q-1.23-3.608-2.466-7.215c-2.993-8.771-5.912-17.563-8.691-26.405l-.994-3.158c-1.103-3.994-1.447-6.736-.786-10.847 2.25-3.062 2.25-3.062 5-5 1.96.085 1.96.085 4 1 1.704 2.034 1.704 2.034 3.39 4.707l1.891 2.952 1.969 3.154 4.02 6.312 1.943 3.074c2.761 4.328 5.656 8.56 8.564 12.79C323 301 323 301 323 303h3c-2.553-5.31-5.298-10.208-8.625-15.062l-1.297-1.924c-1.814-2.69-3.638-5.37-5.467-8.049a2057 2057 0 0 1-4.048-5.965l-1.251-1.813c-2.64-3.905-4.516-7.808-6.312-12.187a235 235 0 0 0-1.824-3.648c-7.014-13.898-7.014-13.898-5.176-20.352 1.267-3.21 2.028-3.785 5-6 4.082-.988 7.1-.507 11 1 4.265 2.954 7.81 6.776 11.433 10.46 2.245 2.206 4.665 4.149 7.13 6.102 5.118 4.107 9.917 8.48 14.71 12.958 4.861 4.56 4.861 4.56 10.727 7.48-1.244-3.733-2.727-4.599-5.812-7A204 204 0 0 1 334 248.5c-4.671-4.347-9.487-8.444-14.477-12.426-2.327-1.913-4.475-3.928-6.648-6.012-3.898-3.493-7.746-4.48-12.875-5.062.132-8.16 2.848-12.768 8-19l1.333-1.626c2.188-1.804 3.324-1.679 6.124-1.519l2.623.14 2.733.192 2.697.135c9.24.555 15.694 3.711 23.615 8.303l2.822 1.62c6.11 3.539 12.015 7.243 17.776 11.33 2.153 1.347 3.793 1.995 6.277 2.425.84-2.74.84-2.74 0-6-1.918-1.542-1.918-1.542-4.387-2.86l-2.757-1.57L364 215l-2.614-1.449a560 560 0 0 0-7.824-4.176l-2.619-1.406c-9.545-5.025-18.26-8.53-29.13-8.719l-2.596-.09c-2.072-.07-4.144-.117-6.217-.16-.156-9.548-.156-9.548 3-13 2.744-1.345 5.082-2.175 8-3l3.555-1.07c27.457-7.892 57.107 3.25 80.883 17.757"/><path fill="#dab58e" d="m302 370 1 2c2.736.36 2.736.36 6.063.438 1.954.133 3.908.267 5.86.411q2.08.15 4.161.275c6.333.442 11.823 1.06 16.787 5.368 10.695 14.084 11.038 32.946 12.757 49.888.388 3.778.804 7.552 1.224 11.327 1.463 13.474 2.644 26.736 2.148 40.293l-2 1 3 13c-26.845 10.477-55.138 18.06-84.133 18.203l-2.868.022c-39.516.227-39.516.227-55.999-3.225l-2.954-.602C159.534 498.459 116.53 477.156 81 444c1.66-5.028 4.594-9.051 7.563-13.375C94.01 422.584 99.102 414.386 104 406l1.398 1.066A833 833 0 0 0 112 412l2.371 1.781c14.938 10.899 30.208 13.758 48.338 13.665 2.524-.008 5.045.02 7.568.052 14.621.065 28.216-2.142 41.473-8.623l4.422-2.07 2.006-.966C220 415 220 415 222.953 413.945L225 413l1-3 .505 1.675a4165 4165 0 0 0 5.257 17.276 1777 1777 0 0 1 1.955 6.446c.933 3.093 1.88 6.182 2.83 9.271l.865 2.905c1.919 6.171 3.725 10.685 9.463 14.177 6.19 2.476 10.95 2.683 17.125.25 4.642-2.767 6.196-4.945 7.96-10.021l1.036-2.974a625 625 0 0 0 4.395-13.728l1.902-6.072q1.466-4.683 2.915-9.37c3.928-12.712 8.223-24.965 13.924-36.997 1.325-2.805 2.594-5.635 3.868-8.463q.999-2.188 2-4.375"/><path fill="#fdfcfc" d="m284 118 3.215 1.098c11.89 4.514 21.78 12.045 30.785 20.902l2.34 2.3c8.593 8.976 17.66 21.928 17.66 34.7l-10 2-.848-2.457C321.737 161.585 313.334 150.016 301 140l-.848 3.113c-2.293 8.05-4.822 14.827-9.699 21.75-1.613 2.164-1.613 2.164-2.453 5.137l2.59-1.531 3.348-1.969 3.34-1.969C300 163 300 163 301 163c.832 16.369-5.542 30.989-15.871 43.484-1.344 1.64-1.344 1.64-2.129 4.516l12-5c-2.123 12.736-8.802 23.995-19 32-2.912 1.894-5.843 3.551-9 5 .687 6.637 2.042 13.008 3.563 19.5l.708 3.07A2679 2679 0 0 0 273 273l2.266-.621 2.984-.817 2.953-.808A372 372 0 0 1 288 269v11c-10.65 4.5-19.6 6.374-31.187 6.313l-3.36-.018c-24.998-.37-44.805-10.68-62.348-28.186-14.476-15.554-21.96-36.712-22.542-57.796.81-21.06 8.002-40.056 21.437-56.313l1.902-2.488C213.568 115.57 252.854 107.192 284 118"/><path fill="#dab48d" d="M408.438 199.688A120 120 0 0 1 413 203c.643.49 1.286.98 1.95 1.484 2.88 2.498 4.04 4.483 5.113 8.141.505 9.77-3.358 18.733-9.502 26.1-5.05 6.16-7.055 12.774-9.307 20.318-2.24 6.815-4.842 10.573-11.254 13.957a120 120 0 0 1-7.187 2.438c-4.458 1.794-6.34 2.67-8.614 6.96-.877 2.604-1.564 5.25-2.246 7.91-1.838 7.12-4.487 11.34-10.836 15.13-5.646 3.143-11.224 6.017-17.441 7.816-2.331.85-3.404 1.348-4.814 3.41-.905 2.106-1.619 4.21-2.3 6.399C333.09 332.73 327.53 341.346 318 346c-2.035-.114-2.035-.114-4-1-1.175-2.083-1.175-2.083-2.135-4.864l-1.112-3.149-1.16-3.44-1.231-3.534q-1.621-4.673-3.211-9.356c-1.068-3.127-2.156-6.247-3.24-9.368C289.925 276.68 289.925 276.68 291 270c2.25-3.062 2.25-3.062 5-5 1.96.085 1.96.085 4 1 1.704 2.034 1.704 2.034 3.39 4.707l1.891 2.952 1.969 3.154 4.02 6.312 1.943 3.074c2.761 4.328 5.656 8.56 8.564 12.79C323 301 323 301 323 303h3c-2.553-5.31-5.298-10.208-8.625-15.062l-1.297-1.924c-1.814-2.69-3.638-5.37-5.467-8.049a2057 2057 0 0 1-4.048-5.965l-1.251-1.813c-2.64-3.905-4.516-7.808-6.312-12.187a235 235 0 0 0-1.824-3.648c-7.014-13.898-7.014-13.898-5.176-20.352 1.267-3.21 2.028-3.785 5-6 4.082-.988 7.1-.507 11 1 4.265 2.954 7.81 6.776 11.433 10.46 2.245 2.206 4.665 4.149 7.13 6.102 5.118 4.107 9.917 8.48 14.71 12.958 4.861 4.56 4.861 4.56 10.727 7.48-1.244-3.733-2.727-4.599-5.812-7A204 204 0 0 1 334 248.5c-4.671-4.347-9.487-8.444-14.477-12.426-2.327-1.913-4.475-3.928-6.648-6.012-3.898-3.493-7.746-4.48-12.875-5.062.132-8.16 2.848-12.768 8-19l1.333-1.626c2.188-1.804 3.324-1.679 6.124-1.519l2.623.14 2.733.192 2.697.135c9.24.555 15.694 3.711 23.615 8.303l2.822 1.62c6.11 3.539 12.015 7.243 17.776 11.33 2.153 1.347 3.793 1.995 6.277 2.425.84-2.74.84-2.74 0-6-1.918-1.542-1.918-1.542-4.387-2.86l-2.757-1.57L364 215l-2.614-1.449a560 560 0 0 0-7.824-4.176l-2.619-1.406c-9.545-5.025-18.26-8.53-29.13-8.719l-2.596-.09c-2.072-.07-4.144-.117-6.217-.16-.156-9.548-.156-9.548 3-13 2.744-1.345 5.082-2.175 8-3l3.555-1.07c27.457-7.892 57.107 3.25 80.883 17.757"/><path fill="#1b6db6" d="M128.86 40.892C162.85 39.822 196.433 47.105 224 68c1.36 1.306 2.704 2.63 4 4q-2.843.72-5.687 1.438l-3.2.808L216 75l-2.73.746L211 76c-2.625-2.375-2.625-2.375-5-5l-3-1-.875-3.312C200.82 62.41 199.876 61.153 196 59c-4.397-.707-6.237-.52-9.937 2-2.293 3.335-2.828 5.1-2.536 9.063.879 3.6 2.422 4.945 5.473 6.937 3.05.393 5.945.3 9 0l1 5c-9.825 6.224-9.825 6.224-14.613 5.73a268 268 0 0 1-5.207-1.835c-9.193-2.587-20.861-2.158-29.617 1.66-8.43 4.754-15.75 11.303-23.023 17.639C117.52 113 117.52 113 114 113a647 647 0 0 1-1.5-4.75l-.844-2.672C111 103 111 103 111 99q-3.846.93-7.687 1.875l-2.186.527c-3.847.949-7.484 2.003-11.127 3.598.593 4.124 1.988 7.092 4.063 10.688C97 120.795 97 120.795 97 123q-3.093.973-6.187 1.938l-3.481 1.09C72.386 130.39 55.497 129.271 41 124l1 22c20.738 5.925 38.997.251 57.992-8.2 1.985-.79 3.926-1.333 6.008-1.8a791 791 0 0 1 3.5 4.375l1.969 2.46C113 145 113 145 113 147l-3.516.043c-14.147.352-23.897 2.852-34.523 12.773-2.907 3.237-3.879 5.278-4.273 9.622 1.586 4.306 2.526 4.563 6.562 6.437 14.676 5.99 28.198 2.416 42.75-1.875q2.034-.585 4.07-1.164L127 172c-.378 11.27-.378 11.27-4.184 15.328a181 181 0 0 1-5.328 3.75c-3.787 2.925-5.59 6.607-7.488 10.922-6-2-6-2-8.692-3.008-3.852-1.155-7.632-1.615-11.617-1.992l-2.408-.244c-2.573-.259-5.147-.508-7.72-.756l-5.351-.533a1834 1834 0 0 0-29.993-2.744C32.124 191.707 20.063 190.333 8 189c11.304-41.54 32.107-78.963 62-110l1.916-1.998c8.174-8.481 16.412-16.604 25.889-23.627a126 126 0 0 0 6.015-4.75c7.965-6.502 15.08-7.357 25.04-7.733"/><path fill="#dab48d" d="M131 271c2.688 1.938 2.688 1.938 4 5 .67 6.294-1.618 10.945-5.266 15.93-6.099 7.28-13.11 11.33-22.332 13.414-5.995 1.465-11.482 3.562-17.152 5.969-13.482 5.576-27.233 10.312-41.03 15.04l-2.582.889q-2.417.833-4.838 1.652c-3.246 1.118-5.928 2.191-8.8 4.106l1 5c4.077-.705 7.841-1.901 11.75-3.25a2074 2074 0 0 1 6.11-2.039q2.146-.712 4.287-1.434C65.6 328.13 73.923 326.06 84 327l3.55.324c9.85 1.194 9.85 1.194 13.45 5.676 4.225 6.96 5.633 12.952 5 21l-2.45.04c-8.389.355-14.409 2.132-21.777 6.054l-3.016 1.535c-3.139 1.603-6.26 3.236-9.382 4.871q-4.742 2.441-9.489 4.87a1208 1208 0 0 0-5.866 3.036l-2.663 1.385-2.337 1.222C47 378 47 378 44 379l1 2c5.664-1.63 10.632-4.282 15.824-7.008q2.902-1.495 5.807-2.988c3.029-1.56 6.054-3.128 9.07-4.714a881 881 0 0 1 8.81-4.548l2.688-1.44C93.204 357.276 99.26 355.389 106 357c3.058 3.295 3.904 6.168 4.25 10.574-.805 7.813-8.972 15.1-14.25 20.426l-2 1-1.258 2.215c-2.09 3.343-4.698 5.753-7.617 8.348l-3.492 3.16-1.812 1.63a529 529 0 0 0-5.391 4.956l-1.743 1.62-3.284 3.061A144 144 0 0 1 60 422c-27.118-30.18-45.182-68.776-54.625-108l-.5-2.065c-.703-3.178-.927-4.78.125-7.935 2.825-1.18 2.825-1.18 6.613-2.305l2.052-.619c2.212-.663 4.43-1.307 6.648-1.951q2.282-.675 4.564-1.354a575 575 0 0 1 28.799-7.705c4.899-1.183 9.716-2.6 14.54-4.052 6.425-1.928 12.883-3.723 19.347-5.514 8.498-2.359 16.937-4.836 25.328-7.555 5.97-1.815 11.878-2.837 18.109-1.945"/><path fill="#65191b" d="M132 268c3.313 2 3.313 2 5 5 .648 2.737.856 5.166 1 8l2 .75c2.442 1.017 4.673 2.132 7 3.375 3.143 1.607 5.408 2.324 9 1.875v2c-3.587 1.255-4.953 1.019-8.55-.434a192 192 0 0 1-3.762-2.003l-1.956-1.026A413 413 0 0 1 137 283l-.375 2.25c-.58 2.551-1.362 4.477-2.625 6.75l2.152 1.46 2.786 1.915 2.777 1.898C144 299 144 299 145 301c-1.728.082-3.458.14-5.187.188l-2.918.105c-3.333-.337-5.173-1.397-7.895-3.293l-1.766 1.39c-6.458 4.834-12.545 7.361-20.234 9.61-7.113 2.25-14.085 4.862-21.062 7.5l-3.143 1.184-3.08 1.16-2.962 1.113a482 482 0 0 0-5.174 1.992C68.569 323.121 66.26 324 63 324v2l1.906-.656 2.594-.844 2.531-.844c7.06-1.56 13.829-.365 20.844.844l5.055.844 2.226.38c1.863.325 1.863.325 3.844.276 1.599-1.746 3.014-3.599 4.465-5.469C108 319 108 319 111 319c-.576 3.885-2.538 6.03-5 9 22.286 5.58 47.962 5.03 69.758-2.5 2.56-.57 3.839-.539 6.242.5 1.337 1.56 1.337 1.56 2.516 3.578l1.342 2.251 1.392 2.421 2.906 4.934 1.446 2.472a170 170 0 0 0 3.93 6.254l1.143 1.759a807 807 0 0 0 3.06 4.632C201 357 201 357 200.91 359.64c-2.715 7.038-11.06 10.977-17.52 14.004-15.858 6.34-32.299 8.148-48.39 1.355-12.118-5.587-19.29-15.22-25-27-.383 6.254.424 10.204 3 16 .797 5.481-.429 8.526-3.426 12.95-2.213 2.882-4.618 5.557-7.12 8.19-1.588 2.031-2.252 3.291-2.454 5.86 1.22 1.484 2.451 2.962 3.758 4.371C105 397 105 397 105.688 400.375c2.063 5.7 6.442 8.253 11.312 11.625l2.426 1.7c6.437 4.182 13.167 6.412 20.574 8.3l2.07.542c5.546 1.36 10.79 1.81 16.493 1.77l2.631-.014c21.328-.381 44.41-6.994 59.806-22.298l2 4c-22.282 18.298-48.585 23.799-77 22-13.742-1.7-26.6-8.394-37.012-17.3-2.082-1.849-2.082-1.849-4.988-3.7l-1.025 1.96c-4.003 7.513-8.453 14.64-13.162 21.728l-2.155 3.318-2.076 3.13-1.868 2.835L82 442c-3.823 0-4.32-.935-6.977-3.578l-2.28-2.27-2.368-2.402-2.39-2.355-2.274-2.286-2.085-2.094C61.928 424.91 61.18 423.695 61 421a55 55 0 0 1 5.438-5.812l1.683-1.621a267 267 0 0 1 10.797-9.782 536 536 0 0 0 7.957-6.973l2.805-2.48c2.113-2.124 3.131-3.645 4.32-6.332a142 142 0 0 1 3.434-3.445c1.99-1.977 3.873-4.036 5.754-6.118l2.042-2.253c2.265-2.795 3.74-4.78 3.817-8.438l-.297-2.308-.266-2.317c-.417-2.405-.417-2.405-2.484-5.121-8.425-1.835-15.21 1.388-22.469 5.285l-3.16 1.622a1103 1103 0 0 0-9.871 5.156 2111 2111 0 0 1-9.957 5.166 627 627 0 0 0-6.167 3.225l-2.804 1.456-2.463 1.3C47 382 47 382 44 381v-2a2435 2435 0 0 1 16.203-8.465 926 926 0 0 0 13.656-7.226q3.382-1.782 6.766-3.559l3.152-1.735C91.37 354.08 97.497 353.286 106 354c-1.18-12.357-1.18-12.357-7-23-3.317-1.43-6.426-1.738-10-2l-2.473-.496c-12.573-2.507-23.102 1.528-34.868 5.596-12.615 4.27-12.615 4.27-17.659 4.9-2-2-2-2-2.187-4.375 2.144-4.74 7.956-5.78 12.617-7.545a577 577 0 0 1 7.695-2.725l5.832-2.052q4.514-1.581 9.029-3.159c10.636-3.721 21.224-7.455 31.569-11.934 3.935-1.686 7.759-2.884 11.945-3.772 8.74-1.976 15.474-7.06 20.5-14.438 2.426-4.21 3.652-8.113 3-13-1.805-3.101-1.805-3.101-4.953-4.531-11.822.16-23.018 4.503-34.152 8.105-9.375 2.98-18.91 5.34-28.438 7.77-8.19 2.09-16.328 4.345-24.457 6.656l-2.521.714A3160 3160 0 0 0 4 305c-2.14-11.728-4.19-23.039-4-35l1.469 1.172C11.063 278.626 20.306 281.332 32 284l1 8c10.185-2.475 20.32-5.017 30.354-8.056 5.987-1.795 12.026-3.342 18.084-4.882a316 316 0 0 0 25.75-7.765c8.4-2.883 15.888-4.332 24.812-3.297"/><path fill="#611415" d="M300 139c12.867 9.124 23.64 21.482 28 37v3l1.773-.656c14.082-4.567 27.639-3.183 41.284 1.928a287 287 0 0 0 6.052 2.173A698 698 0 0 1 387 186l-1-4c14.962 4.275 31.646 12.045 40.06 25.722 3.9 9.445 3.212 22.072 3.153 32.076-.01 2.166-.004 4.332.006 6.5.027 6.147.04 12.294.011 18.441-.158 22.628-.158 22.628 4.538 44.67 2.016 6.246 2.747 11.998 3.087 18.54.694 11.178 3.958 20.739 8.272 31.015 1.196 2.875 2.314 5.772 3.43 8.679C453.303 379.488 457.594 386 469 392l2 2c-.238 4.162-3.11 7.398-5.437 10.688l-1.237 1.798c-3.063 4.382-3.063 4.382-5.326 5.514l-4.013-9.767q-2.686-6.532-5.352-13.071c-4.729-11.587-4.729-11.587-9.618-23.107a1275 1275 0 0 1-3.607-8.453 283 283 0 0 0-1.69-3.867c-3.93-8.816-5.324-16.375-5.581-25.88-.165-4.564-.855-8.75-1.952-13.168l-.462-2.064c-.735-3.14-1.544-6.156-2.709-9.167-3.144-8.236-3.516-15.534-3.336-24.284q.019-2.103.031-4.206c.027-3.663.075-7.326.13-10.989.088-5.845.147-11.69.193-17.534.02-2.01.055-4.019.09-6.028.639-17.965.639-17.965-5.507-34.153C404.492 196.209 388.955 190.918 375 186l-2.503-.885c-19.01-6.579-36.755-6.993-55.5 1.197-2.687 2.272-2.864 3.932-3.31 7.375l-.425 3.012L313 199l3.629-.21c11.456-.47 20.037.937 30.371 6.21l2.804 1.397C369.959 216.478 369.959 216.478 375 221l-1 6c-4.451-.5-7.113-1.426-10.668-4.133-5.361-3.93-10.924-7.363-16.644-10.742l-2.917-1.758-2.822-1.672-2.52-1.5c-5.352-2.635-11.499-2.725-17.366-3.195l-2.67-.309c-4.989-.412-4.989-.412-9.297 1.788A47.5 47.5 0 0 0 305 211l-1.75 2.375c-1.776 3.73-2.5 7.579-3.25 11.625l3.875-.062c5.716.634 8.533 3.627 12.527 7.535 2.57 2.5 5.235 4.73 8.036 6.964 4.76 3.85 9.275 7.91 13.769 12.067 3.784 3.382 7.753 6.488 11.773 9.586L352 263v3c-3.884-.566-5.758-2.338-8.562-5-3.514-3.261-7.073-6.376-10.813-9.375-4.091-3.309-8.012-6.745-11.875-10.312l-1.548-1.416c-2.095-1.92-4.155-3.848-6.128-5.893-4.087-4.068-7.839-5.091-13.605-5.29-2.672.112-2.672.112-5.156 2.161-2.107 5.015-2.622 8.88-.575 13.955 1.941 4.217 4.13 8.298 6.331 12.384 1.078 2.068 1.958 4.178 2.806 6.349 2.7 6.236 6.873 11.724 10.687 17.318a872 872 0 0 1 7.563 11.369l1.47 2.203c.446.68.892 1.361 1.35 2.063l1.204 1.82C326 300 326 300 326 303h-3c-1.682-2.104-1.682-2.104-3.512-5.047l-2.049-3.254-2.127-3.449a7334 7334 0 0 0-4.136-6.61l-2.064-3.306C305.834 276.16 302.427 271.076 299 266c-4.188.92-4.188.92-7 4-.338 5.658.356 10.207 2.238 15.566l.716 2.133a829 829 0 0 0 2.358 6.863q.825 2.404 1.647 4.808 1.686 4.917 3.39 9.828c1.31 3.79 2.577 7.59 3.823 11.402 4.546 13.886 8.986 26.964 18.285 38.464 2.443 3.065 4.74 6.236 7.055 9.398a616 616 0 0 0 3.63 4.896A506 506 0 0 1 340 380l1.384 1.777c8.435 11.762 8.736 29.139 10.241 43.036l.641 5.732c2.3 20.799 4.193 41.508 3.734 62.455l-4-1-3-11 3-1c-.847-16.7-2.216-33.313-4.056-49.93q-.315-2.846-.619-5.69c-1.006-9.354-2.17-18.599-4.286-27.775l-.464-2.035c-1.68-6.813-4.138-12.924-9.575-17.57-5.293-1.973-10.396-2.597-16-3l-3.633-.34c-2.034-.179-4.07-.332-6.11-.45C305 373 305 373 303 372c1.618-5.599 4.275-10.076 7.342-14.965 2.126-3.28 2.126-3.28 2.342-7.028-.86-2.525-1.877-4.977-2.906-7.437-4.393-10.554-8.31-21.289-12.147-32.055a883 883 0 0 0-1.877-5.2c-4.25-11.682-7.15-22.981-8.754-35.315l-2.702.959c-8.923 3.166-8.923 3.166-12.298 2.041-.907-2.42-.907-2.42-1.64-5.61l-.805-3.476-.805-3.664-.852-3.617c-2.297-10.169-2.297-10.169-.898-14.633 1.969-1.484 1.969-1.484 4.5-2.75C282.97 232.754 288.44 224 293 212c.385-1.655.743-3.32 1-5l-1.645.875-2.168 1.125-2.144 1.125C286 211 286 211 283 211c.61-4.141 2.957-7.18 5.25-10.562 7.587-11.536 12.268-22.445 11.75-36.438l-2.117 1.313-2.758 1.687-2.742 1.688C290 170 290 170 288 170c.647-3.683 2.298-6.194 4.313-9.312 4.155-6.918 5.972-13.89 7.687-21.688"/><path fill="#a6a6a5" d="M8 189c13.56.391 26.65 1.574 40 4l.82 3.215c2.393 7.676 6.865 12.46 13.93 16.222 9.65 4.315 19.667 4.908 30.082 5.779 9.662.858 9.662.858 14.168 2.784 4.354 6.716 5.804 15.09 6 23-2.53-3.018-4.717-6.112-6.812-9.437-4.26-6.45-9.14-10.402-16.188-13.563-3.063-.602-3.063-.602-6.293-.784l-3.711-.293-3.969-.275q-2.055-.156-4.108-.316c-3.593-.277-7.186-.539-10.78-.798-5.756-.417-11.51-.857-17.263-1.295q-3.005-.224-6.01-.44l-3.702-.274-3.25-.235c-2.695-.268-5.27-.706-7.914-1.29q2.537 5.262 5.115 10.504a933 933 0 0 1 2.56 5.287C35.43 240.437 40.893 249.769 49 257l2.375 2.188c9.827 6.785 24.885 4.371 36.098 2.376 7.907-1.62 15.3-4.675 22.69-7.856C112 253 112 253 116 252l9 14c-3 2-5.27 2.803-8.707 3.805l-3.445 1.012-3.66 1.058-3.741 1.093Q100.225 274.491 95 276l-4.125 1.203c-8.647 2.5-17.336 4.849-26.023 7.203a1648 1648 0 0 0-12.016 3.313l-3.025.84q-2.88.8-5.754 1.612l-2.627.727-2.305.646C37 292 37 292 33 292l-1-8-3.812-.25c-9.489-1.087-17.7-4.9-25.188-10.75l-1.592-1.118c-2.175-2.907-1.835-5.97-1.806-9.46l-.013-2.288a610 610 0 0 1 .036-7.384l.013-2.54C-.234 229.092 2.666 209.427 8 189"/><path fill="#dab58d" d="M109 346c2.17 2.782 3.96 5.614 5.688 8.688 7.163 11.852 16.02 18.536 29.187 22.75 16.311 3.088 34.2-.556 48.125-9.438a105 105 0 0 0 9-8c3.72 1.24 3.905 2.137 5.672 5.531l1.505 2.875c.52 1.02 1.038 2.042 1.573 3.094l1.61 3.132c3.2 6.304 6.233 12.654 8.952 19.18l.896 2.133c.664 1.66 1.238 3.355 1.792 5.055-4.715 9.43-21.676 15.765-31 19-22.99 6.808-47.67 8.39-69.348-3.355-4.156-2.578-7.898-5.523-11.652-8.645-1.423-.96-1.423-.96-2.875-1.937-2.57-2.495-3.275-4.67-4.367-8.024-1.133-3.048-2.855-5.414-4.758-8.039 2.627-4.603 5.79-8.525 9.16-12.598 3.51-4.582 4.335-7.563 3.84-13.402a259 259 0 0 0-2.332-4.957c-1.369-4.186-.88-8.693-.668-13.043"/><path fill="#f0bf59" d="m141 92 2 1v3c4.545 5.718 10.91 8.705 18.063 9.75L164 106c-2.221 3.909-3.78 5.59-8.11 7.043-1.887.456-3.775.911-5.668 1.349-10.777 2.569-21.1 7.337-30.222 13.608 2.889 8.419 7.203 15.572 12 23-3.174 1.829-6.472 2.746-9.992 3.7-7.056 1.914-13.136 3.774-19.008 8.3l-1 2c8.752-1.324 17.424-3.905 25.195-8.219C129 156 129 156 132 157a216 216 0 0 1-1.5 6.75l-.844 3.797c-2.267 4.727-4.862 5.74-9.656 7.453-13.92 4.827-27.901 7.728-42 2l-2.137-.844c-1.925-.906-1.925-.906-4.863-3.156-1.436-4.082-1.461-6.015.375-9.937C77.532 155.23 85.211 149.293 95 147c5.999-.527 11.995-.3 18 0l-7-10c-6.285 1.975-12.32 4.54-18.393 7.078-9.379 3.829-17.606 5.255-27.732 5.172l-2.879.023C44.238 149.238 44.238 149.238 41 146a83 83 0 0 1-.098-4.91l.01-2.998.026-3.155.013-3.166q.018-3.885.049-7.771l1.793.402c.79.177 1.58.354 2.395.535l2.355.528L50 126l2.482.552c14.755 2.627 30.259.48 44.518-3.552l-1.785-3.14-2.278-4.11-1.181-2.066-1.104-2.012-1.031-1.84c-.802-2.366-.602-3.55.379-5.832a50.6 50.6 0 0 1 7.188-2.75l2.001-.668C103.46 99.225 106.38 99 111 99l3 14c6.84-4.29 12.89-9.152 18.984-14.414 2.63-2.255 5.296-4.44 8.016-6.586"/><path fill="#181918" d="M23 215a4128 4128 0 0 1 22.191 1.528c4.77.337 9.54.644 14.313.937 3.41.213 6.82.445 10.23.68q2.498.166 4.998.31c12.072.697 21.061 2.39 29.64 11.525 4.226 5.241 10.84 13.996 10.542 21.055-1.399 3.007-3.436 3.375-6.477 4.528-1.517.59-1.517.59-3.066 1.19L102 258l-1.906.76c-13.327 5.25-32.703 8.833-46.29 3.193-14.898-7.869-24.64-29.535-30.152-44.648z"/><path fill="#191a19" d="M251 175c.233 7.806-.37 15.183-1.687 22.875l-.54 3.177C246.566 213.33 243.45 225.294 233 233c-9.428 4.83-19.583 7.382-30 9-.918.148-1.836.296-2.781.45-2.97.26-5.315.26-8.219-.45-6.103-5.567-9.238-17.112-11-25 .351-5.35 1.912-8.132 5.527-11.95 5.462-4.529 12.048-7.166 18.473-10.05l3.332-1.507a2981 2981 0 0 1 16.933-7.592 782 782 0 0 0 21.278-9.827C249 175 249 175 251 175"/><path fill="#4f92be" d="M148 41c2.832.105 5.51.33 8.313.688l2.47.301C182.399 45.027 211.149 54.204 228 72q-2.843.72-5.687 1.438l-3.2.808L216 75l-2.73.746L211 76c-2.625-2.375-2.625-2.375-5-5l-3-1-.875-3.312C200.82 62.41 199.876 61.153 196 59c-4.397-.707-6.237-.52-9.937 2-2.293 3.335-2.828 5.1-2.536 9.063.879 3.6 2.422 4.945 5.473 6.937 3.05.393 5.945.3 9 0l1 5c-9.825 6.224-9.825 6.224-14.613 5.73a268 268 0 0 1-5.207-1.835C168.947 83.015 156.317 83.843 147 89c-2.217 1.554-4.307 3.143-6.344 4.926L139 95c-3-1-3-1-4.168-2.758-4.069-9.447-4.615-19.63-.894-29.305C137.486 55.443 142.103 46.898 148 41"/><path fill="#d9b48d" d="M162 296c2.812 2.673 5.05 5.34 7.164 8.59l1.711 2.627 1.75 2.72 1.773 2.71c2.62 4.046 4.918 7.817 6.602 12.353-23.234 8.492-51.375 10.887-75 3 1.524-3.1 3.198-6.052 5-9-3.065 1.617-4.8 2.683-6.676 5.652C102 327 102 327 98.285 327.086q-2.118-.316-4.222-.711l-2.131-.332a192 192 0 0 1-8.705-1.617c-6.953-1.33-13.44.016-20.227 1.574v-2l2.073-.731c15.441-5.369 15.441-5.369 30.552-11.582 4.61-2.07 9.157-3.468 14.063-4.625 7.133-1.757 12.39-4.813 18.312-9.062l2-1 1 2c3.588 1.048 7.304 1.48 11 2l3.375.488c6.953.797 10.994.834 16.625-3.488z"/><path fill="#bb2e3e" d="M174.221 341.729c15.06-1.835 15.06-1.835 19.582 1.667 3.876 4.502 7.308 10.32 7.103 16.377-2.825 6.94-11.087 10.86-17.515 13.872-15.825 6.326-32.34 8.189-48.391 1.355-6.274-3.098-11.42-6.697-16-12v-2c16.522-12.608 35.075-16.81 55.221-19.271"/><path fill="#4e91be" d="m255.313 124.688 3.185-.05c9.663-.005 18.435 2.088 27.502 5.362v2c-18.478 8.778-36.955 17.555-55.524 26.138a2912 2912 0 0 0-19.652 9.182l-2.366 1.116q-5.768 2.72-11.531 5.45l-4.18 1.973-1.938.92c-2.583 1.218-5.096 2.317-7.809 3.221 2.533-16.608 13.907-30.99 27-41 14.248-9.517 28.178-14.364 45.313-14.312"/><path fill="#f1bf5a" d="M120 131c2.154 3.231 4.08 6.565 6 9.938l1.078 1.88c1.726 3.024 3.383 6.06 4.922 9.182l-1.8.471a1088 1088 0 0 0-8.2 2.216l-2.832.74c-5.976 1.652-11.285 3.654-16.168 7.573l-1 2c8.752-1.324 17.424-3.905 25.195-8.219C129 156 129 156 132 157a216 216 0 0 1-1.5 6.75l-.844 3.797c-2.267 4.727-4.862 5.74-9.656 7.453-13.92 4.827-27.901 7.728-42 2l-2.137-.844c-1.925-.906-1.925-.906-4.863-3.156-1.436-4.082-1.461-6.015.375-9.937C77.532 155.23 85.211 149.293 95 147c5.999-.527 11.995-.3 18 0l-1.129-1.426-1.433-1.887-1.442-1.863L108 140c1.323-3.969 2.911-4.3 6.563-6.187l3.066-1.606z"/><path fill="#5e2d33" d="M182 326a78 78 0 0 1 4.75 6.938l1.246 1.958C191 339.702 191 339.702 191 342l-2.36.104c-15.677.745-30.702 1.73-45.64 6.896l-3.469 1.191c-6.175 2.363-11.205 5.433-16.375 9.551C121 361 121 361 118.91 361c-2.71-1.419-3.523-3.209-4.972-5.875-1.94-3.605-1.94-3.605-4.555-6.703-1.684-1.732-1.975-2.948-2.445-5.297-.53-2.44-1.072-4.437-2.063-6.75-1.065-2.892-1.017-5.318-.875-8.375 3.114-1.557 5.284-.078 8.563.938 19.683 5.4 44 3.193 63.195-3.439 2.546-.567 3.843-.502 6.242.501"/><path fill="#cfcfcf" d="M9 190c13.362-.38 25.865.504 39 3l.82 3.215c2.393 7.676 6.865 12.46 13.93 16.222 9.65 4.315 19.667 4.908 30.082 5.779 9.662.858 9.662.858 14.168 2.784 4.354 6.716 5.804 15.09 6 23-2.53-3.018-4.717-6.112-6.812-9.437-4.26-6.45-9.14-10.402-16.188-13.563-3.063-.602-3.063-.602-6.293-.784l-3.711-.293-3.969-.275q-2.055-.156-4.108-.316c-3.593-.277-7.186-.539-10.78-.798-5.756-.417-11.51-.857-17.263-1.295q-3.005-.224-6.01-.44l-3.702-.274-3.25-.235c-2.695-.268-5.27-.706-7.914-1.29l1.063 1.75c1.103 2.648.739 3.582-.063 6.25-8.217-7.3-13.042-15.14-15-26a287 287 0 0 1 0-7"/><path fill="#efec79" d="m141 92 2 1v3c4.545 5.718 10.91 8.705 18.063 9.75L164 106c-2.221 3.909-3.78 5.59-8.11 7.043-1.887.456-3.775.911-5.668 1.349-10.46 2.493-21.708 7.005-30.222 13.608l-.387 2.469C119 133 119 133 116.82 134.617l-2.695 1.258-2.68 1.305C109 138 109 138 106 137l-.367-2.379-.508-3.184-.492-3.128c-.575-3.348-.575-3.348-1.684-6.66-1.107-4.258-1.28-8.087-1.261-12.461l-.05-2.311c-.001-2.209-.001-2.209.362-5.877 3-2 3-2 9-2l3 14c6.84-4.29 12.89-9.152 18.984-14.414 2.63-2.255 5.296-4.44 8.016-6.586"/><path fill="#1d6cb3" d="M296 192c4.026 4.026 4.135 10.58 4.313 16.063-.098 4.831-1.395 8.559-3.313 12.937a492 492 0 0 0-2 6h-2l-.875 1.75a93 93 0 0 1-2.195 4.145c-1.645 3.724-.898 7.293.07 11.105 1.417 3.402 2.97 6.691 4.625 9.984 1.247 2.735 1.937 5.059 2.375 8.016l-2.75 1.75c-3.191 2.016-3.191 2.016-5.062 4.313-3.218 2.849-6.98 4.144-11.188 4.937a72 72 0 0 1-4-1 2205 2205 0 0 1-2.5-10.625l-.723-3.027c-2.53-10.92-2.53-10.92-1.777-14.348a46.4 46.4 0 0 1 6.625-4.875C288.669 230.42 293.978 217.971 298 203l-10 4c1.525-3.813 3.008-6.86 5.125-10.312l1.633-2.676z"/><path fill="#5c1114" d="m140 33.438 1.99.024c18.663.24 36.966 2.64 54.01 10.538l2.422 1.12C212.242 51.6 225.425 58.915 237 69v1c-3.472 1.193-6.35 1.474-10 1-3.22-1.758-6.084-3.69-9.056-5.823C201.32 53.251 181.21 45.765 161 43l-2.01-.286c-6.598-.85-13.157-.862-19.803-.839l-3.33-.012c-7.332.009-14.56.413-21.857 1.137 8.196-8.385 14.254-9.811 26-9.562"/><path fill="#d8b38b" d="M96 393c4.688 3.32 4.688 3.32 6 5 .786 5.196-1.04 8.711-3.625 13.063l-1.172 2.03C91.575 422.67 85.258 431.83 79 441c-4.329-3.63-8.467-7.35-12.437-11.375l-2.622-2.648L62 425c3.041-3.726 6.039-7.143 9.703-10.262 5.029-4.342 9.832-8.91 14.649-13.484l2.039-1.926 1.813-1.722C92.06 395.948 93.99 394.464 96 393"/><path fill="#1e6fb6" d="m157 113-2.238 2.762c-7.377 9.337-13.147 18.995-18.485 29.62l-1.22 2.427c-.88 1.823-1.658 3.694-2.409 5.574-2.256 3.582-5.183 4.803-8.96 6.367l-1.975.879c-6.763 2.965-12.306 4.626-19.713 4.371 1.843-4.564 4.41-5.654 8.715-7.695 6.594-2.619 13.447-4.44 20.285-6.305l-.886-1.465a1872 1872 0 0 1-3.989-6.66l-1.395-2.305c-2.442-4.105-4.44-7.93-5.73-12.57 29.2-19.4 29.2-19.4 38-15"/><path fill="#d1d0d1" d="M232 157v2c-1.582 1.086-3.22 2.092-4.875 3.063-11.877 7.42-25.647 20.238-29.812 34.25L197 198l2 1-1.977.848c-6.187 2.838-9.978 5.727-14.023 11.152l-2 2c-1.753-3.506-1.19-7.512-1.187-11.375l-.002-2.726c.053-6.822.671-13.232 2.189-19.899l2.627-.825c3.252-1.133 6.245-2.46 9.338-3.968l3.404-1.652 3.569-1.743 5.467-2.649 5.34-2.588c4.097-1.982 8.2-3.949 12.317-5.887l3.41-1.614C230 157 230 157 232 157"/><path fill="#b17921" d="M99 148h-2c-2.293 10.317-1.416 17.941 4 27a233 233 0 0 1 2 4c-5.706 2.853-14.427 1.434-20.375-.25A105 105 0 0 1 78 177l-2.137-.844c-1.925-.906-1.925-.906-4.863-3.156-1.436-4.082-1.461-6.015.375-9.937C77.065 155.823 88.958 144.207 99 148"/><path fill="#216fb5" d="M251.91 256.767c2.172 1.282 3.852 2.663 5.692 4.385l1.984 1.854 2.039 1.932 2.063 1.92c2.802 2.633 5.167 4.925 7.312 8.142-5.513.925-10.852 1.183-16.437 1.188l-2.448.037c-8.658.02-14.636-1.322-21.115-7.225a156 156 0 0 0-5-3l-1-1a92 92 0 0 0-5.062-.062l-2.786.027L215 265l-1-2 2.013-.212c16.277-1.504 16.277-1.504 31.815-6.214 2.172-.574 2.172-.574 4.083.193"/><path fill="#efed7e" d="m141 92 2 1v3c4.545 5.718 10.91 8.705 18.063 9.75L164 106c-2.288 4.027-3.871 5.61-8.32 7.148-2.62.662-5.236 1.295-7.868 1.903-4.163 1.036-7.881 2.51-11.761 4.312-2.48.77-3.654.593-6.051-.363-2.562-2.375-2.562-2.375-5-5l-1.875-1.562L122 111c.624-4.678 3.762-6.699 7.25-9.5l1.738-1.434c3.31-2.722 6.66-5.395 10.012-8.066"/><path fill="#44a111" d="M306 144c9.717 7.49 16.387 17.676 21 29v3l-2.668.734-3.52 1.016-3.48.984c-3.513 1.335-5.68 2.614-8.332 5.266-1.217 2.542-1.217 2.542-1.812 5.25l-.708 2.703L306 194c-2-2-2-2-2.219-4.75.221-3.28.847-6.085 1.719-9.25 1.864-7.65 3.036-16.393.5-24h-2c.938-8.036.938-8.036 2-12"/><path fill="#1b5686" d="m0 273 1.984 1.39c6.763 4.548 13.194 7.4 21.016 9.61l2.313.684c1.557.455 3.121.889 4.687 1.316l1 8q-5.874 1.72-11.75 3.438l-3.367.986-3.242.947-2.984.873C7.446 300.874 5.234 301.46 3 302a3997 3997 0 0 1-1.5-11.125l-.434-3.172C.411 282.773-.207 277.987 0 273"/><path fill="#b8946e" d="m198 379 1 2c-6.881 8.977-15.682 15.152-27 17-9.32.776-18.67.87-27-4a112 112 0 0 1-5-5c.79.01 1.581.02 2.396.032 3.639.042 7.277.067 10.917.093 1.243.017 2.486.034 3.767.05 10.118.054 19.286-.798 28.732-4.613 1.038-.41 2.076-.822 3.145-1.246 3.077-1.33 6.06-2.787 9.043-4.316"/><path fill="#ae7924" d="M41 124q2.188.465 4.375.938l2.46.527C50 126 50 126 52 127c.179 1.911.268 3.831.313 5.75.286 4.3.412 5.87 3 9.438 3.915 2.64 7.009 2.938 11.671 2.91l2.832-.01 2.934-.025 2.98-.014q3.636-.018 7.27-.049c-6.86 4.573-15.13 4.316-23.125 4.25l-2.879.023C44.238 149.238 44.238 149.238 41 146a83 83 0 0 1-.098-4.91l.01-2.998.026-3.155.013-3.166q.018-3.885.049-7.771"/><path fill="#b38e6b" d="M137 283c2.415.935 4.792 1.9 7.125 3.023 4.805 2.406 4.805 2.406 10.063 2.664 2.812.313 2.812.313 4.511 2.301A105 105 0 0 1 163 298c-5.23 4.11-7.984 5.302-14.75 4.625l-3.547-.336L142 302l2-2-1.898-1.242-2.477-1.633-2.46-1.617C135 294 135 294 133 292z"/><path fill="#5f2029" d="m274 127 12 3v2c-18.478 8.778-36.955 17.555-55.524 26.138a2912 2912 0 0 0-19.652 9.182l-2.366 1.116q-5.768 2.72-11.531 5.45l-4.18 1.973-1.938.92c-2.583 1.218-5.096 2.317-7.809 3.221v-3c15.463-7.522 30.958-14.95 46.573-22.153 9.537-4.41 19.01-8.944 28.46-13.535C263.978 138.43 269.94 135.63 276 133z"/><path fill="#581b27" d="m125 185-2.012 1.434c-6.056 4.536-9.932 8.619-12.988 15.566-6-2-6-2-8.692-3.008-3.852-1.155-7.632-1.615-11.617-1.992l-2.408-.244c-2.573-.259-5.147-.508-7.72-.756l-5.351-.533a1834 1834 0 0 0-29.993-2.744C32.124 191.707 20.063 190.333 8 189l1-2c8.111-.21 16.057.448 24.125 1.242l4.065.39q4.247.406 8.492.822 5.358.523 10.717 1.035a5484 5484 0 0 1 22.132 2.165q3.263.326 6.524.643 3.798.373 7.593.766l2.087.198c5.387.577 9.551 2.12 14.265 4.739l.625-2.062c2.664-5.692 8.409-14.26 15.375-11.938"/><path fill="#66232a" d="m295 189 2 3-1.496 2.555-1.942 3.32-1.933 3.305c-.915 1.585-1.81 3.183-2.629 4.82l2.813-1.5C295 203 295 203 298 203c-1.347 9.748-5.242 19.035-11 27l-2.062 3c-3.975 4.671-9.799 7.77-14.938 11 .616 6.439 1.662 12.627 3.063 18.938q.55 2.512 1.097 5.027l.489 2.207C275 272 275 272 275 274l-3-1c-.907-2.42-.907-2.42-1.64-5.61l-.805-3.476-.805-3.664-.852-3.617c-2.297-10.169-2.297-10.169-.898-14.633 1.969-1.484 1.969-1.484 4.5-2.75C282.97 232.754 288.44 224 293 212c.385-1.655.743-3.32 1-5l-1.645.875-2.168 1.125-2.144 1.125C286 211 286 211 283 211c.891-4.259 3.05-7.428 5.438-11 3.57-5.332 3.57-5.332 6.562-11"/><path fill="#1b588a" d="M105.813 136.5c3.195 2.191 5.262 5.156 7.187 8.5v2c-1.812-.187-1.812-.187-4-1-1.75-2.562-1.75-2.562-3-5a1418 1418 0 0 0-14.121 4.754l-5.317 1.809-2.658.92C70.47 153.026 55.8 155.6 42 151v-4l2.832.484c18.945 2.684 47.263-14.768 60.98-10.984"/><path fill="#1f6cb2" d="M17 284c1.816.064 3.629.201 5.438.375l2.996.273C28 285 28 285 30 286c.594 2.649.742 5.292 1 8a5356 5356 0 0 1-10.375 3l-2.984.867-2.852.82-2.634.762C10 300 10 300 8 300c1.491-5.817 4.713-11.713 9-16"/><path fill="#b28c69" d="m222 406 2 1c.625 3.063.625 3.063 1 6q-3.78 1.91-7.562 3.813c-.705.356-1.41.712-2.135 1.08-6.914 3.473-13.702 6.485-21.24 8.295l-2.2.528c-7.636 1.685-15.087 1.66-22.863 1.284v-1l2.246-.262C190.124 424.22 207.11 418.155 222 406"/><path fill="#1f6eb4" d="m262 125 12 1 3 7q-3.871 1.976-7.75 3.938l-2.21 1.13-2.15 1.084-1.967 1C261 141 261 141 257 142z"/><path fill="#236eac" d="M132 152c-.05 1.773-.05 1.773-1 4a63 63 0 0 1-7.187 3.625l-2.002.906c-6.802 3.035-12.339 4.727-19.811 4.469 1.844-4.629 4.579-5.713 8.93-7.762C117.645 154.53 124.72 152 132 152"/><path fill="#f1c05b" d="M122 109a220 220 0 0 1 3.625 5.11c1.888 2.596 4.042 4.69 6.375 6.89a984 984 0 0 1-4.875 3l-2.742 1.688C122 127 122 127 120 127q-1.004-3.187-2-6.375l-1.125-3.586C116 114 116 114 116 112c3.462-3 3.462-3 6-3"/><path fill="#692429" d="M251.91 256.767c2.172 1.282 3.852 2.663 5.692 4.385l1.984 1.854 2.039 1.932 2.063 1.92c2.802 2.633 5.167 4.925 7.312 8.142-3.445-.58-5.027-1.692-7.426-4.195l-1.916-1.918a381 381 0 0 1-3.906-4.047c-3.98-4.061-3.98-4.061-9.467-4.863-3.8 1.17-3.8 1.17-7.535 2.523-8.272 2.879-17.084 2.67-25.75 2.5l-1-2 2.013-.212c16.277-1.504 16.277-1.504 31.815-6.214 2.172-.574 2.172-.574 4.083.193"/><path fill="#245b85" d="M105.938 136.438c3.045 2.307 5.161 5.259 7.062 8.562v2c-1.812-.187-1.812-.187-4-1-1.75-2.562-1.75-2.562-3-5l-3.75 1.25-2.465.813q-2.968 1.001-5.914 2.062l-3.183 1.125-2.989 1.078c-2.751.685-4.079.643-6.699-.328 3.456-2.954 7.301-4.469 11.5-6.062 5.001-1.897 5.001-1.897 9.848-4.149 1.652-.789 1.652-.789 3.59-.351"/><path fill="#275e86" d="M157 113c-3.965 2.593-8.054 4.2-12.5 5.75-6.696 2.4-12.682 5.326-18.828 8.93C123 129 123 129 119 129c3.363-3.853 7.04-5.812 11.563-8l2.147-1.055c19.412-9.384 19.412-9.384 24.29-6.945"/><path fill="#d4ad87" d="M454 391c3.376 1.688 6.19 3.45 9.25 5.625l2.703 1.914L468 400c-3.625 6.75-3.625 6.75-7 9z"/><path fill="#449c10" d="M312 355c4.01 3.676 6.453 7.19 9 12l-15-1c4.875-9.875 4.875-9.875 6-11"/><path fill="#1c598b" d="M69 166h1l.313 3.188c.783 2.597 1.47 3.644 3.636 5.32C82.44 178.85 91.65 179.31 101 180c-5.265 3.51-11.876 2.505-18 2-5.21-1.286-11.093-3.243-14-8-.307-2.757-.186-5.21 0-8"/><path fill="#2266a8" d="M296 192c3.584 3.584 3.924 9.135 4.125 14.063L300 208l-3 1 1-6-10 4c1.525-3.813 3.008-6.86 5.125-10.312l1.633-2.676z"/><path fill="#e4b75a" d="m73 161 2 1c.527 1.855.527 1.855.938 4.188.797 3.992 2.048 7.242 4.062 10.812-4.331-1.181-7.429-2.195-10-6 .149-4.233.64-6.461 3-10"/><path fill="#b38d6a" d="m104 406 1.398 1.066c10.76 8.339 10.76 8.339 22.602 14.934-3.58 1.194-4.684.47-7.947-1.156l-1.865-.969-1.83-.898c-4.309-2.19-7.716-4.808-11.358-7.977l-3-2z"/><path fill="#e1b86c" d="m229 265-2 1 1.68.988 2.195 1.325 2.18 1.3C235 271 235 271 237 274c-7.151-1.872-13.494-4.498-20-8v-1c8.571-1.286 8.571-1.286 12 0"/><path fill="#2372b7" d="M190 162h2q.039 2.156.063 4.313l.035 2.425C192 171 192 171 191 174c-3.562 1.688-3.562 1.688-7 3 .45-5.853 3.038-10.082 6-15"/><path fill="#591922" d="M9 187c6.713-.22 13.264.21 19.938.875l2.548.238 2.416.254 2.172.222C38 189 38 189 41 191c-11.08.413-21.996-.837-33-2z"/><path fill="#641c22" d="m274 127 12 3v2q-2.653 1.259-5.312 2.5l-2.989 1.406C275 137 275 137 272 137v-2c2-1.625 2-1.625 4-3z"/><path fill="#712f33" d="m241 259 2 1c-1 2-1 2-3.375 3.063-8.052 2.082-16.351 2.099-24.625 1.937l-1-2 2.156-.26q4.829-.585 9.656-1.178l3.393-.408 3.252-.4 3-.365c2.657-.333 2.657-.333 5.543-1.389"/><path fill="#6e2d32" d="M286 229c-1.392 4.842-3.765 6.693-7.812 9.563-3.81 2.73-7.555 5.475-11.188 8.437l-1-4 2.16-1.285c5.48-3.356 10.195-6.64 14.5-11.43C284 229 284 229 286 229"/><path fill="#e9b757" d="M82 319v4c-6.324 1.07-12.644 2.133-19 3v-2a879 879 0 0 1 6.688-2.5l1.896-.723c3.598-1.318 6.581-2.07 10.416-1.777"/><path fill="#2b6086" d="M122 155c-2.666 1.777-5.254 3.16-8.125 4.563-3.155 1.402-3.155 1.402-5.875 3.437l2 2h-8c1.459-3.865 3.249-4.97 6.938-6.687l2.652-1.262c3.676-1.603 6.424-2.159 10.41-2.051"/><path fill="#6b282e" d="m295 189 2 3c-7.114 12.854-7.114 12.854-12 17l1 2h-3c.891-4.259 3.05-7.428 5.438-11 3.57-5.332 3.57-5.332 6.562-11"/><path fill="#1d5a89" d="M157 113c-4.095 2.712-8.175 4.219-12.812 5.688l-2.1.681c-1.694.55-3.39 1.09-5.088 1.631 1.026-2.863 1.666-3.83 4.426-5.23l2.887-.957 2.863-.981c7.229-2.13 7.229-2.13 9.824-.832"/><path fill="#5a1b26" d="M298 203c-.498 3.735-.875 5.812-3 9l-1-5-2.75 1.563C288 210 288 210 285.625 209.688L284 209c9.714-6 9.714-6 14-6"/><path fill="#5a2735" d="m45.863 190.121 2.686.147 2.764.17 2.822.158q3.433.194 6.865.404v1c-8.147 1.81-16.823 1.487-25 0v-1c3.403-.787 6.38-1.081 9.863-.879"/><path fill="#375f91" d="M63 325v2a2751 2751 0 0 1-12.375 4.063l-3.562 1.181-3.399 1.104-3.142 1.031C38 335 38 335 36 334a437 437 0 0 1 17.438-6.75l3.558-1.297C60 325 60 325 63 325"/><path fill="#346484" d="m127 172-1 3c-1.762.8-1.762.8-4.043 1.387l-2.506.654-2.638.647-2.58.681c-4.505 1.146-8.547 1.915-13.233 1.631 3.61-2.058 7.439-3 11.438-4 4.674-1.177 9.843-4 14.562-4"/><path fill="#225c87" d="M88 105c2.072 3.108 3.843 6.28 5.625 9.563l1.914 3.503C97 121 97 121 97 123l-3 1-.77-1.977c-1.545-3.924-3.073-7.725-5.043-11.46C87 108 87 108 88 105"/><path fill="#6f292c" d="M297 151c1.133 1.71 1.133 1.71 2 4-.758 2.29-.758 2.29-2.125 4.625l-1.32 2.352c-1.685 2.192-3.014 3.009-5.555 4.023 1.366-3.542 2.91-6.926 4.625-10.312l1.352-2.676z"/><path fill="#c09975" d="M419 217h2v19h-1l-.184-2.3-.253-3.012-.247-2.989c-.234-2.793-.234-2.793-1.316-5.699.438-2.687.438-2.687 1-5"/><path fill="#5b171f" d="m22 283 10 1v7l-2-1v-4l-3.437-.375L23 285z"/><path fill="#631b20" d="m0 270 1.68 1.277 2.195 1.66 2.18 1.653c1.889 1.45 1.889 1.45 3.945 2.41v2c-3.985-1.366-6.925-3.101-10-6z"/><path fill="#622e38" d="M252 145v3c-5.75 3-5.75 3-8 3v-3c5.75-3 5.75-3 8-3"/><path fill="#d4d4d4" d="M193 242h5v7a141 141 0 0 1-5-5z"/><path fill="#5b1b25" d="M261 141c-1 3-1 3-3.937 4.688C254 147 254 147 252 147c1-3 1-3 3.938-4.687C259 141 259 141 261 141"/><path fill="#6a303a" d="m274 266 1 8-3-1-1-6c2-1 2-1 3-1"/><path fill="#336484" d="M93 116c2.5 2.174 3.436 3.73 4 7l-3 1z"/></svg>