<svg width="512" height="512"><path fill="#323232" d="m255.625-.312 2.94.005C272.914-.262 286.878.243 301 3l2.718.488C344.77 10.916 385.113 28.886 417 56l3.078 2.523c14.267 11.81 27.704 24.808 38.664 39.775a251 251 0 0 0 3.945 5.163C470.556 113.68 476.863 124.677 483 136l1.16 2.112c11.716 21.498 19.376 45.547 24.09 69.513l.458 2.307c2.875 15.67 3.674 31.419 3.604 47.318l-.006 2.712c-.053 13.87-.575 27.4-3.306 41.038l-.618 3.123C499.885 345.858 482.706 383.788 456 417l-2.477 3.102C442.737 433.352 430.52 445.554 417 456l-2.363 1.96C402.745 467.81 389.595 475.75 376 483l-1.94 1.039C349.387 497.124 322.643 505.94 295 510l-3.644.535c-11.716 1.604-23.355 1.865-35.168 1.84l-2.988-.002c-16.37-.041-32.13-1.016-48.2-4.373l-3.081-.633c-29.62-6.295-58.54-17.769-83.919-34.367l-1.97-1.28C106.437 465.437 97.59 458.585 89 451l-2.336-2.035a705 705 0 0 1-3.902-3.426 160 160 0 0 0-3.555-3.016c-3.815-3.149-7.07-6.502-10.27-10.273-2.187-2.54-4.466-4.983-6.75-7.437-29.189-32.144-48.455-73.173-57.624-115.375l-.712-3.272C.566 290.063-.351 274.12-.316 257.716c.003-3.015-.02-6.028-.045-9.042-.056-16.969 1.783-33.468 5.736-49.987l.645-2.754A259 259 0 0 1 13 172l1.227-3.66C23.319 142.16 37.083 117.154 55 96l1.561-1.848q4.504-5.319 9.086-10.57c1.398-1.635 2.736-3.31 4.08-4.988L72 76h2l1-3c1.496-1.508 1.496-1.508 3.438-3.125a284 284 0 0 0 9.25-8.187C109.725 41.894 136.31 26.377 164 16l2.691-1.015C195.482 4.324 225.038-.432 255.625-.312M121 120l-2.348 2.191C112.024 128.54 106.5 135.681 101 143l-1.937 2.559C93.685 152.94 89.273 160.942 85 169l-1.45 2.721c-3.758 7.256-6.644 14.579-9.175 22.341l-1.172 3.573C70.09 207.328 67.586 216.945 66 227c-.12.714-.24 1.427-.362 2.163-7.458 46.41 5.42 97.54 32.3 135.837 12.695 17.54 27.57 33.228 45.062 46l1.712 1.256c41.004 29.677 91.659 40.624 141.412 33.283 49.903-8.293 95.09-35.798 124.855-76.803C426.789 346.563 438.132 321.601 444 295l.496-2.097c9.824-42.642.265-91.031-20.496-128.903l-1.022-1.873c-24.969-45.09-67.296-76.697-116.294-91.372C240.28 52.075 169.924 72.82 121 120"/><path fill="#323232" d="m182.3 124.853 2.752.002 2.883-.01q4.759-.013 9.518-.013l6.638-.01q6.992-.009 13.983-.007c5.915 0 11.831-.014 17.747-.031q6.877-.015 13.755-.013 3.265 0 6.53-.013c10.833-.035 21.58.126 32.373 1.12l2.54.23c21.595 2.23 40.427 12.762 54.66 28.982 14.012 17.573 19.078 40.402 16.696 62.472-2.716 21.408-13.196 40.946-30.187 54.313-24.719 17.383-51.349 17.462-80.375 17.25q-3.63-.016-7.256-.027-8.78-.033-17.557-.098l.007 3.676q.03 17.107.045 34.214.007 8.796.023 17.592.016 8.481.02 16.961.003 3.244.01 6.487.01 4.527.009 9.052l.01 2.738c-.01 6.166-.01 6.166-1.124 7.28-1.56.098-3.124.128-4.687.13l-3.024.009-3.289-.006-3.352.003q-3.515 0-7.03-.006-5.403-.006-10.805.007-3.406 0-6.813-.004l-3.29.006-3.022-.01-2.676-.002C176 387 176 387 175 386a60 60 0 0 1-.126-4.18l-.008-2.75.007-3.054-.005-3.218c-.004-3.588 0-7.175.003-10.763l-.006-7.68q-.005-9.375 0-18.748.003-7.616.001-15.23v-2.186l-.001-4.394q-.004-20.628.006-41.255.005-17.719-.001-35.438a66884 66884 0 0 1-.004-45.48v-2.177q.002-7.61-.002-15.22-.004-10.234.005-20.468l-.002-7.536q-.002-5.12.006-10.239l-.007-3.055.008-2.748v-2.39c.297-4.238 4.018-2.92 7.427-2.938M227 172v70l26.875.187 8.425.083q3.346.014 6.692.023l3.444.046c10.925.004 20.113-2.151 28.564-9.339 7.883-8.469 10.366-17.718 10.21-29.133-.673-9.16-4.444-17.174-10.991-23.62-9.095-7.437-19.13-8.84-30.543-8.638l-3.303.013c-4.02.02-8.04.076-12.06.128z"/></svg>