<?xml version="1.0" encoding="UTF-8"?>
<svg version="1.1" xmlns="http://www.w3.org/2000/svg" width="512" height="512">
<path d="M0 0 C0.96988861 0.00182281 1.93977722 0.00364563 2.9390564 0.00552368 C17.29056055 0.05091691 31.25442918 0.5562653 45.375 3.3125 C46.72053955 3.55395752 46.72053955 3.55395752 48.09326172 3.80029297 C89.14499411 11.22856577 129.48815395 29.19852581 161.375 56.3125 C162.39078125 57.14523438 163.4065625 57.97796875 164.453125 58.8359375 C178.71975309 70.64494758 192.15680077 83.64321968 203.1171875 98.61035156 C204.40539472 100.35363199 205.72956407 102.06417698 207.0625 103.7734375 C214.92998694 113.99277107 221.23707623 124.98955171 227.375 136.3125 C227.75785156 137.00956055 228.14070313 137.70662109 228.53515625 138.42480469 C240.2513006 159.92241642 247.91136365 183.97148645 252.625 207.9375 C252.77622314 208.69893311 252.92744629 209.46036621 253.08325195 210.24487305 C255.95810167 225.91450849 256.75704413 241.66311239 256.6875 257.5625 C256.68534485 258.45736115 256.6831897 259.35222229 256.68096924 260.27420044 C256.62754949 274.14465394 256.1060455 287.67431113 253.375 301.3125 C253.06900879 302.8581665 253.06900879 302.8581665 252.75683594 304.43505859 C244.26012692 346.17034909 227.0808174 384.10009948 200.375 417.3125 C199.55773437 418.33601563 198.74046875 419.35953125 197.8984375 420.4140625 C187.11157014 433.66384522 174.89467621 445.86645447 161.375 456.3125 C160.59511719 456.95960938 159.81523437 457.60671875 159.01171875 458.2734375 C147.11965391 468.12185781 133.97020367 476.06150327 120.375 483.3125 C119.73481934 483.65522949 119.09463867 483.99795898 118.43505859 484.35107422 C93.76204418 497.43610268 67.01829476 506.25340207 39.375 510.3125 C38.17254639 510.48910156 36.97009277 510.66570312 35.73120117 510.84765625 C24.01474155 512.4516435 12.37597836 512.71213344 0.5625 512.6875 C-0.42334076 512.68695618 -1.40918152 512.68641235 -2.42489624 512.68585205 C-18.79440674 512.64448691 -34.55539842 511.6699816 -50.625 508.3125 C-52.15012207 507.99901611 -52.15012207 507.99901611 -53.70605469 507.67919922 C-83.32667787 501.38446316 -112.24612031 489.91087864 -137.625 473.3125 C-138.2751709 472.89000977 -138.9253418 472.46751953 -139.59521484 472.03222656 C-149.18840902 465.74995781 -158.03380809 458.89783611 -166.625 451.3125 C-167.39585937 450.64089844 -168.16671875 449.96929687 -168.9609375 449.27734375 C-170.26574112 448.14001493 -171.56689184 446.99847305 -172.86328125 445.8515625 C-174.03346908 444.8292698 -175.21851188 443.82372551 -176.41796875 442.8359375 C-180.23262705 439.68652866 -183.48790809 436.33344761 -186.6875 432.5625 C-188.87517281 430.02197673 -191.1540499 427.57970885 -193.4375 425.125 C-222.62670585 392.9815996 -241.89333929 351.95294419 -251.0625 309.75 C-251.29735107 308.67041016 -251.53220215 307.59082031 -251.77416992 306.47851562 C-255.05927923 290.3752771 -255.97646661 274.43261309 -255.94067383 258.02758789 C-255.93751412 255.01346583 -255.96108276 252.00032999 -255.98632812 248.98632812 C-256.04200709 232.01764632 -254.20325301 215.51865705 -250.25 199 C-250.03722412 198.0910498 -249.82444824 197.18209961 -249.60522461 196.24560547 C-247.66234582 188.12967414 -245.33459957 180.20318237 -242.625 172.3125 C-242.22023437 171.10464844 -241.81546875 169.89679688 -241.3984375 168.65234375 C-232.30615771 142.47355622 -218.54239121 117.46626245 -200.625 96.3125 C-200.1098584 95.7026123 -199.5947168 95.09272461 -199.06396484 94.46435547 C-196.06012422 90.91915137 -193.0330817 87.39526667 -189.97753906 83.89453125 C-188.58011383 82.25999776 -187.24209579 80.58508567 -185.8984375 78.90625 C-185.14820313 78.0503125 -184.39796875 77.194375 -183.625 76.3125 C-182.965 76.3125 -182.305 76.3125 -181.625 76.3125 C-181.13 74.8275 -181.13 74.8275 -180.625 73.3125 C-179.12890625 71.8046875 -179.12890625 71.8046875 -177.1875 70.1875 C-174.03681869 67.52282804 -170.96944867 64.79910294 -167.9375 62 C-145.90019833 42.20661811 -119.3154025 26.69103458 -91.625 16.3125 C-90.73683594 15.97766602 -89.84867188 15.64283203 -88.93359375 15.29785156 C-60.14302972 4.63653352 -30.58651754 -0.11946452 0 0 Z M-134.625 120.3125 C-135.39972656 121.03566406 -136.17445313 121.75882813 -136.97265625 122.50390625 C-143.60092141 128.85160992 -149.12521541 135.99332011 -154.625 143.3125 C-155.264375 144.15683594 -155.90375 145.00117188 -156.5625 145.87109375 C-161.93990972 153.25258441 -166.35199276 161.25440975 -170.625 169.3125 C-171.10356445 170.21057373 -171.58212891 171.10864746 -172.07519531 172.03393555 C-175.83288682 179.28985891 -178.71872563 186.61205067 -181.25 194.375 C-181.63679932 195.55384766 -182.02359863 196.73269531 -182.42211914 197.94726562 C-185.53456898 207.6401164 -188.03901643 217.25825765 -189.625 227.3125 C-189.74456055 228.02615723 -189.86412109 228.73981445 -189.98730469 229.47509766 C-197.44541575 275.88460392 -184.56720957 327.01635453 -157.6875 365.3125 C-144.99166608 382.85216772 -130.11605175 398.54011988 -112.625 411.3125 C-112.06006836 411.72709473 -111.49513672 412.14168945 -110.91308594 412.56884766 C-69.90942639 442.24533447 -19.25445952 453.19249528 30.49902344 445.8515625 C80.40154911 437.55839748 125.58937079 410.053188 155.35400391 369.04858398 C171.16309188 346.87526767 182.50667934 321.91327914 188.375 295.3125 C188.62056641 294.27464355 188.62056641 294.27464355 188.87109375 293.21582031 C198.69451849 250.57322658 189.13588663 202.18432836 168.375 164.3125 C168.03774902 163.69455566 167.70049805 163.07661133 167.35302734 162.43994141 C142.38407834 117.34888732 100.05657024 85.74217132 51.05859375 71.06738281 C-15.34496375 52.38836173 -85.70081121 73.13300739 -134.625 120.3125 Z " fill="#323232" transform="translate(255.625,-0.3125)"/>
<path d="M0 0 C0.90783737 0.00045319 1.81567474 0.00090637 2.75102234 0.00137329 C3.70254684 -0.00198532 4.65407135 -0.00534393 5.63442993 -0.00880432 C8.80709618 -0.01836376 11.97970973 -0.02026134 15.15238953 -0.02133179 C17.36509727 -0.024546 19.57780479 -0.0279102 21.79051208 -0.03141785 C26.45134471 -0.03742506 31.11215877 -0.03925663 35.772995 -0.03866577 C41.68872171 -0.03856521 47.6043255 -0.05209857 53.52002335 -0.06943798 C58.10515362 -0.08068259 62.69025562 -0.08258104 67.27539825 -0.08205605 C69.45183986 -0.08322208 71.62828254 -0.0875646 73.80471039 -0.09538841 C84.63822764 -0.13061939 95.38484668 0.03037703 106.17875671 1.02432251 C107.01696079 1.10032842 107.85516487 1.17633432 108.71876907 1.25464344 C130.31334328 3.4852024 149.14514107 14.01707544 163.37895203 30.23648071 C177.3901086 47.80939595 182.45622593 70.63881522 180.07426453 92.70913696 C177.35811047 114.11623797 166.87837993 133.65489951 149.88676453 147.02163696 C125.16844705 164.4041957 98.5384563 164.48399319 69.51176453 164.27163696 C67.09314848 164.26157765 64.67452834 164.25245707 62.25590515 164.24429321 C56.40360038 164.22253543 50.55145238 164.18929612 44.69926453 164.14663696 C44.70148514 165.35963974 44.70370575 166.57264252 44.70599365 167.82240295 C44.72622325 179.227103 44.74123578 190.63179944 44.7510767 202.03651333 C44.75630599 207.9004586 44.76340447 213.76438945 44.77470398 219.62832642 C44.78553122 225.28225408 44.79154101 230.93616783 44.79414177 236.59010506 C44.79599631 238.75237307 44.79961748 240.91464027 44.80499458 243.07690239 C44.81220285 246.09422353 44.81325556 249.1114864 44.81278992 252.1288147 C44.81638519 253.03224106 44.81998047 253.93566742 44.82368469 254.86647034 C44.81331669 261.0325848 44.81331669 261.0325848 43.69926453 262.14663696 C42.13927404 262.24510663 40.57485908 262.27462314 39.01176453 262.27603149 C38.01403015 262.27918365 37.01629578 262.28233582 35.98832703 262.2855835 C34.9029364 262.28355927 33.81754578 262.28153503 32.69926453 262.27944946 C31.5932489 262.28040619 30.48723328 262.28136292 29.34770203 262.28234863 C27.00395145 262.28303063 24.660199 262.281175 22.31645203 262.27700806 C18.71484665 262.2716601 15.11336599 262.27695243 11.51176453 262.28335571 C9.24093092 262.28269493 6.97009738 262.28141378 4.69926453 262.27944946 C3.6138739 262.28147369 2.52848328 262.28349792 1.41020203 262.2855835 C0.41246765 262.28243134 -0.58526672 262.27927917 -1.61323547 262.27603149 C-2.49624329 262.2752359 -3.3792511 262.27444031 -4.28901672 262.27362061 C-6.30073547 262.14663696 -6.30073547 262.14663696 -7.30073547 261.14663696 C-7.39812126 259.75582085 -7.42628969 258.36008751 -7.42657661 256.96586609 C-7.42918436 256.05880889 -7.43179211 255.15175169 -7.43447888 254.21720791 C-7.43224816 253.20915631 -7.43001744 252.20110472 -7.42771912 251.1625061 C-7.42927911 250.10063363 -7.4308391 249.03876116 -7.43244636 247.94471073 C-7.43646137 244.35705778 -7.43326478 240.76944654 -7.43013 237.18179321 C-7.43148382 234.62172419 -7.43326365 232.06165537 -7.43544006 229.50158691 C-7.43954057 223.25223432 -7.43892103 217.00289738 -7.43602742 210.75354457 C-7.43377362 205.67682086 -7.43346077 200.60010053 -7.43455124 195.52337646 C-7.43470447 194.80220676 -7.43485771 194.08103705 -7.43501558 193.33801371 C-7.43533529 191.87320097 -7.4356595 190.40838824 -7.43598817 188.9435755 C-7.43884314 175.19185154 -7.43555568 161.44013423 -7.43018781 147.68841136 C-7.42571975 135.87598062 -7.42649568 124.06355971 -7.43110657 112.25112915 C-7.43645204 98.55029227 -7.43856845 84.84946124 -7.4354943 71.14862347 C-7.43517574 69.68904813 -7.43486137 68.2294728 -7.43455124 66.76989746 C-7.43439696 66.05166449 -7.43424269 65.33343152 -7.43408374 64.59343392 C-7.4332185 59.51986842 -7.4346816 54.44630662 -7.43703079 49.3727417 C-7.4401201 42.5504292 -7.43793646 35.7281382 -7.43213654 28.90582657 C-7.43080817 26.3938818 -7.43120434 23.88193547 -7.4333992 21.3699913 C-7.4361077 17.95689522 -7.43273327 14.54385996 -7.42771912 11.13076782 C-7.42994984 10.12271623 -7.43218056 9.11466463 -7.43447888 8.07606602 C-7.43187113 7.16900882 -7.42926338 6.26195162 -7.42657661 5.32740784 C-7.42633309 4.1440631 -7.42633309 4.1440631 -7.42608464 2.9368124 C-7.12942983 -1.29986646 -3.40873038 0.017711 0 0 Z M44.69926453 47.14663696 C44.69926453 70.24663696 44.69926453 93.34663696 44.69926453 117.14663696 C53.56801453 117.20851196 62.43676453 117.27038696 71.57426453 117.33413696 C74.35461121 117.36144897 77.13495789 117.38876099 79.9995575 117.41690063 C82.2301846 117.42567143 84.46081655 117.43331396 86.69145203 117.43960571 C87.82784119 117.45495361 88.96423035 117.47030151 90.13505554 117.4861145 C101.05989216 117.48966537 110.24847701 115.33466313 118.69926453 108.14663696 C126.58257778 99.67809958 129.06487222 90.42848507 128.91020203 79.01382446 C128.23635187 69.85445386 124.46514475 61.83935675 117.91801453 55.39273071 C108.82279042 47.95626674 98.78799052 46.55342711 87.37504578 46.75601196 C86.28526428 46.76004028 85.19548279 46.7640686 84.07267761 46.76821899 C80.05219878 46.78894239 76.0319624 46.84478564 72.01176453 46.89663696 C58.49207703 47.02038696 58.49207703 47.02038696 44.69926453 47.14663696 Z " fill="#323232" transform="translate(182.3007354736328,124.85336303710938)"/>
</svg>
