<?xml version="1.0" encoding="UTF-8"?>
<svg version="1.1" xmlns="http://www.w3.org/2000/svg" width="512" height="512">
<path d="M0 0 C1.01790619 0.00215515 2.03581238 0.0043103 3.08456421 0.00653076 C17.69363523 0.05620146 32.02575853 0.30709809 46.375 3.3125 C47.34985352 3.51117676 48.32470703 3.70985352 49.32910156 3.91455078 C97.7109774 14.03517194 141.69928269 35.9516877 177.375 70.3125 C178.3640332 71.26068604 178.3640332 71.26068604 179.37304688 72.22802734 C188.86130305 81.37247479 197.6012044 90.66984009 205.375 101.3125 C206.23306152 102.46355017 207.09113451 103.61459177 207.94921875 104.765625 C213.98677396 112.95525981 219.36957302 121.45788276 224.375 130.3125 C224.7771875 131.01971191 225.179375 131.72692383 225.59375 132.45556641 C238.6191741 155.59095836 247.36801461 180.76212409 252.6875 206.75 C252.83485596 207.46889404 252.98221191 208.18778809 253.1340332 208.9284668 C256.10789088 224.57475609 256.74800362 240.04818046 256.6875 255.9375 C256.68534485 256.95540619 256.6831897 257.97331238 256.68096924 259.02206421 C256.63129854 273.63113523 256.38040191 287.96325853 253.375 302.3125 C253.07698486 303.77478027 253.07698486 303.77478027 252.77294922 305.26660156 C242.65232806 353.6484774 220.7358123 397.63678269 186.375 433.3125 C185.74287598 433.97185547 185.11075195 434.63121094 184.45947266 435.31054688 C175.31502521 444.79880305 166.01765991 453.5387044 155.375 461.3125 C154.22394983 462.17056152 153.07290823 463.02863451 151.921875 463.88671875 C143.73224019 469.92427396 135.22961724 475.30707302 126.375 480.3125 C125.66778809 480.7146875 124.96057617 481.116875 124.23193359 481.53125 C101.09654164 494.5566741 75.92537591 503.30551461 49.9375 508.625 C49.21860596 508.77235596 48.49971191 508.91971191 47.7590332 509.0715332 C32.11274391 512.04539088 16.63931954 512.68550362 0.75 512.625 C-0.77685928 512.62176727 -0.77685928 512.62176727 -2.33456421 512.61846924 C-16.94363523 512.56879854 -31.27575853 512.31790191 -45.625 509.3125 C-47.08728027 509.01448486 -47.08728027 509.01448486 -48.57910156 508.71044922 C-96.9609774 498.58982806 -140.94928269 476.6733123 -176.625 442.3125 C-177.28435547 441.68037598 -177.94371094 441.04825195 -178.62304688 440.39697266 C-188.11130305 431.25252521 -196.8512044 421.95515991 -204.625 411.3125 C-205.48306152 410.16144983 -206.34113451 409.01040823 -207.19921875 407.859375 C-213.23677396 399.66974019 -218.61957302 391.16711724 -223.625 382.3125 C-224.0271875 381.60528809 -224.429375 380.89807617 -224.84375 380.16943359 C-237.8691741 357.03404164 -246.61801461 331.86287591 -251.9375 305.875 C-252.08485596 305.15610596 -252.23221191 304.43721191 -252.3840332 303.6965332 C-255.35789088 288.05024391 -255.99800362 272.57681954 -255.9375 256.6875 C-255.93534485 255.66959381 -255.9331897 254.65168762 -255.93096924 253.60293579 C-255.88129854 238.99386477 -255.63040191 224.66174147 -252.625 210.3125 C-252.42632324 209.33764648 -252.22764648 208.36279297 -252.02294922 207.35839844 C-241.90232806 158.9765226 -219.9858123 114.98821731 -185.625 79.3125 C-184.99287598 78.65314453 -184.36075195 77.99378906 -183.70947266 77.31445312 C-174.56502521 67.82619695 -165.26765991 59.0862956 -154.625 51.3125 C-153.47394983 50.45443848 -152.32290823 49.59636549 -151.171875 48.73828125 C-142.98224019 42.70072604 -134.47961724 37.31792698 -125.625 32.3125 C-124.91778809 31.9103125 -124.21057617 31.508125 -123.48193359 31.09375 C-100.34654164 18.0683259 -75.17537591 9.31948539 -49.1875 4 C-48.46860596 3.85264404 -47.74971191 3.70528809 -47.0090332 3.5534668 C-31.36274391 0.57960912 -15.88931954 -0.06050362 0 0 Z " fill="#601519" transform="translate(255.625,-0.3125)"/>
<path d="M0 0 C1.01790619 0.00215515 2.03581238 0.0043103 3.08456421 0.00653076 C17.69363523 0.05620146 32.02575853 0.30709809 46.375 3.3125 C47.34985352 3.51117676 48.32470703 3.70985352 49.32910156 3.91455078 C97.7109774 14.03517194 141.69928269 35.9516877 177.375 70.3125 C178.3640332 71.26068604 178.3640332 71.26068604 179.37304688 72.22802734 C188.86130305 81.37247479 197.6012044 90.66984009 205.375 101.3125 C206.23306152 102.46355017 207.09113451 103.61459177 207.94921875 104.765625 C213.98677396 112.95525981 219.36957302 121.45788276 224.375 130.3125 C224.7771875 131.01971191 225.179375 131.72692383 225.59375 132.45556641 C238.6191741 155.59095836 247.36801461 180.76212409 252.6875 206.75 C252.83485596 207.46889404 252.98221191 208.18778809 253.1340332 208.9284668 C256.10803724 224.57552614 256.74513065 240.04762833 256.6875 255.9375 C256.68600952 256.95307983 256.68451904 257.96865967 256.6829834 259.01501465 C256.64436374 273.6403353 256.31216281 287.93492502 253.375 302.3125 C253.19855957 303.18825684 253.02211914 304.06401367 252.84033203 304.96630859 C251.78383601 310.1075509 250.62847836 315.21586973 249.375 320.3125 C248.59753418 320.24393799 247.82006836 320.17537598 247.01904297 320.10473633 C227.6403648 318.49201218 208.79846803 317.38039691 190.4296875 324.4453125 C183.20819546 326.49540359 176.1478919 324.7150664 168.9375 323.375 C162.42659704 322.1854677 155.95317553 321.05734705 149.375 320.3125 C150.25 319.29166667 151.125 318.27083333 152 317.25 C152.55042969 316.6003125 153.10085938 315.950625 153.66796875 315.28125 C154.70285492 314.08769707 155.76224823 312.91407138 156.86328125 311.78125 C171.30987617 296.51692329 173.88997923 274.38304057 173.65625 254.3984375 C173.27039684 241.89293661 169.34881488 229.21231861 162 219 C159.56172746 214.75995176 160.4430757 210.63963762 160.96484375 205.93359375 C161.35309879 202.21231849 161.45320406 198.52591078 161.50390625 194.78515625 C161.52493408 193.60985352 161.54596191 192.43455078 161.56762695 191.22363281 C161.60510425 188.87292921 161.62648141 186.52189865 161.62963867 184.17089844 C161.78403278 177.09031299 162.99347355 172.02870673 166.20361328 165.71704102 C167.65922115 162.72907063 168.26226039 159.91094243 168.6875 156.625 C168.89826172 155.10326172 168.89826172 155.10326172 169.11328125 153.55078125 C169.19964844 152.81214844 169.28601563 152.07351562 169.375 151.3125 C166.735 151.9725 164.095 152.6325 161.375 153.3125 C161.83390625 152.631875 162.2928125 151.95125 162.765625 151.25 C166.52976808 145.30328657 169.1228896 139.87223906 170.8125 133.0625 C171.05758301 132.08990234 171.05758301 132.08990234 171.30761719 131.09765625 C172.37698498 126.40101195 172.50777347 122.09234496 172.375 117.3125 C170.91607996 117.43045524 169.45788823 117.55741151 168 117.6875 C167.18789063 117.75710937 166.37578125 117.82671875 165.5390625 117.8984375 C161.1049921 118.47869856 156.75082704 119.39867698 152.375 120.3125 C152.12443848 119.65467529 151.87387695 118.99685059 151.61572266 118.3190918 C134.7578441 74.36246015 110.53366585 38.23524692 66.375 18.3125 C32.36524303 3.41356138 -9.72188054 2.59618285 -44.48828125 15.62109375 C-62.12186537 22.64882125 -77.59111116 32.59604014 -91.625 45.3125 C-92.47578125 46.06789062 -93.3265625 46.82328125 -94.203125 47.6015625 C-114.59591946 66.74447601 -128.72802228 94.76436888 -136.625 121.3125 C-141.80556545 120.51613476 -146.89030907 119.40314396 -152 118.25 C-152.83144531 118.06373047 -153.66289062 117.87746094 -154.51953125 117.68554688 C-156.55501382 117.22931802 -158.59005255 116.77110975 -160.625 116.3125 C-158.74052613 130.21763292 -156.5173452 141.4739822 -148.625 153.3125 C-151.265 152.6525 -153.905 151.9925 -156.625 151.3125 C-155.39144782 159.0427603 -153.93184043 165.15568078 -150 171.9375 C-145.63994428 180.0976885 -145.59621214 187.89826908 -145.64111328 197.0078125 C-145.62691293 199.03889277 -145.49258409 201.06837124 -145.33984375 203.09375 C-144.8529566 210.52984461 -146.35032474 214.3005006 -150.67578125 220.29296875 C-152.98539607 223.8707889 -154.47148247 227.45532905 -155.9375 231.4375 C-156.17936035 232.08243408 -156.4212207 232.72736816 -156.67041016 233.3918457 C-163.92045215 253.5708738 -162.6975077 277.73177958 -153.9375 297.25 C-153.31247813 298.57345602 -152.6838878 299.89523613 -152.05078125 301.21484375 C-150.625 304.3125 -150.625 304.3125 -150.625 306.3125 C-151.54539062 306.52003906 -152.46578125 306.72757812 -153.4140625 306.94140625 C-163.71352303 309.44809776 -174.01264625 312.6613331 -182.31640625 319.54296875 C-184.625 321.3125 -184.625 321.3125 -187.9375 321.125 C-189.154375 320.856875 -190.37125 320.58875 -191.625 320.3125 C-198.57069263 319.22080799 -205.41451459 319.12902925 -212.4375 319.125 C-213.54931641 319.11275391 -214.66113281 319.10050781 -215.80664062 319.08789062 C-225.16114909 319.0714696 -233.81974579 320.36814165 -242.8125 322.9375 C-243.73417969 323.19789063 -244.65585938 323.45828125 -245.60546875 323.7265625 C-246.27191406 323.91992188 -246.93835938 324.11328125 -247.625 324.3125 C-256.6915146 287.84735493 -260.40106835 247.43920907 -252.625 210.3125 C-252.42632324 209.33764648 -252.22764648 208.36279297 -252.02294922 207.35839844 C-241.90232806 158.9765226 -219.9858123 114.98821731 -185.625 79.3125 C-184.99287598 78.65314453 -184.36075195 77.99378906 -183.70947266 77.31445312 C-174.56502521 67.82619695 -165.26765991 59.0862956 -154.625 51.3125 C-153.47394983 50.45443848 -152.32290823 49.59636549 -151.171875 48.73828125 C-142.98224019 42.70072604 -134.47961724 37.31792698 -125.625 32.3125 C-124.91778809 31.9103125 -124.21057617 31.508125 -123.48193359 31.09375 C-100.34654164 18.0683259 -75.17537591 9.31948539 -49.1875 4 C-48.46860596 3.85264404 -47.74971191 3.70528809 -47.0090332 3.5534668 C-31.36274391 0.57960912 -15.88931954 -0.06050362 0 0 Z " fill="#7D83BA" transform="translate(255.625,-0.3125)"/>
<path d="M0 0 C1.45986328 -0.01836914 1.45986328 -0.01836914 2.94921875 -0.03710938 C9.75126217 -0.05065926 16.10449612 0.7507883 22.75 2.1875 C23.91733097 5.68949291 23.53839721 6.60218637 22.4140625 10.02734375 C21.93779419 11.48285645 21.93779419 11.48285645 21.4519043 12.96777344 C21.09652588 14.0096582 20.74114746 15.05154297 20.375 16.125 C19.82743042 17.74003418 19.82743042 17.74003418 19.26879883 19.38769531 C7.3248337 53.85013799 -11.96965164 84.93973398 -37.25 111.1875 C-37.88212402 111.84685547 -38.51424805 112.50621094 -39.16552734 113.18554688 C-48.30997479 122.67380305 -57.60734009 131.4137044 -68.25 139.1875 C-69.40105017 140.04556152 -70.55209177 140.90363451 -71.703125 141.76171875 C-79.89275981 147.79927396 -88.39538276 153.18207302 -97.25 158.1875 C-98.31081787 158.79078125 -98.31081787 158.79078125 -99.39306641 159.40625 C-122.27362179 172.28819893 -147.40749295 181.43675473 -173.25 186.1875 C-175.64615168 182.89552261 -177.96060362 179.55452241 -180.25 176.1875 C-180.848125 175.33027344 -181.44625 174.47304688 -182.0625 173.58984375 C-186.66931839 166.44310539 -188.80996936 159.36990151 -190.97412109 151.20581055 C-193.45730802 141.98526271 -196.73822572 132.743568 -201.8671875 124.62890625 C-203.48499095 121.77261484 -204.06857284 119.35034092 -204.6875 116.125 C-204.80891357 115.49489014 -204.93032715 114.86478027 -205.05541992 114.21557617 C-206.07573902 108.68336387 -206.82419658 103.11843009 -207.58105469 97.54516602 C-209.88817405 80.55648434 -213.02229143 63.8137062 -217.25 47.1875 C-216.67258057 47.15309814 -216.09516113 47.11869629 -215.50024414 47.08325195 C-191.43059311 45.54567397 -167.90101363 40.11525254 -150.76855469 21.58520508 C-145.36415841 16.03382383 -139.69494936 16.2162561 -132.25 16 C-129.81216689 15.86935549 -127.3746488 15.7326863 -124.9375 15.58984375 C-123.77476562 15.52522949 -122.61203125 15.46061523 -121.4140625 15.39404297 C-108.07243154 14.52313095 -92.98485739 10.33741363 -81.90209961 2.53442383 C-78.45232535 0.78238437 -76.50094864 1.12934959 -72.69921875 1.69921875 C-70.81493164 1.97088867 -70.81493164 1.97088867 -68.89257812 2.24804688 C-67.57420857 2.45696704 -66.25584927 2.66595188 -64.9375 2.875 C-62.99713867 3.15633789 -62.99713867 3.15633789 -61.01757812 3.44335938 C-54.65362197 4.39062855 -48.46348398 5.52661645 -42.25 7.1875 C-37.91655879 7.62968788 -35.22428465 6.88638927 -31.30078125 5.05078125 C-21.24382732 0.81728255 -10.77376313 0.00702331 0 0 Z " fill="#DAB58D" transform="translate(479.25,321.8125)"/>
<path d="M0 0 C2.82369896 2.48608278 5.0988771 5.18298703 7.484375 8.08984375 C11.72902046 13.00018671 16.70310738 17.08845605 23.0234375 18.8359375 C26.49514326 19.02729136 27.60290853 18.51981386 30.375 16.5 C31.52355469 15.6646875 31.52355469 15.6646875 32.6953125 14.8125 C39.71533699 9.32108941 39.71533699 9.32108941 45.4375 2.5625 C48.22800106 -0.22800106 48.70768952 -0.42574028 52.4375 -0.5625 C56.50630982 -0.27720783 59.57841005 0.69042679 63 3 C63.33 3.99 63.66 4.98 64 6 C64.72960937 5.97679687 65.45921875 5.95359375 66.2109375 5.9296875 C73.00358777 5.81228367 79.67809912 6.0964016 86.4375 6.75 C87.19401855 6.81171387 87.95053711 6.87342773 88.72998047 6.93701172 C94.76097828 7.57980143 98.6528619 9.5725775 102.94140625 14.0078125 C117.77652318 33.38283269 119.58610933 56.39281866 119 80 C116.89748139 80.67184618 114.79292237 81.33730968 112.6875 82 C111.51574219 82.37125 110.34398437 82.7425 109.13671875 83.125 C106 84 106 84 103 84 C103 90.93 103 97.86 103 105 C98.545 105.495 98.545 105.495 94 106 C91.78838887 107.1665083 91.78838887 107.1665083 90.25 108.9375 C72.17047398 126.30382973 50.57979998 135.51125792 25.21484375 135.3515625 C22 135 22 135 19 132.75 C18.01 131.38875 18.01 131.38875 17 130 C12.77411908 126.84301837 8.45067043 124.73769951 3.5 123 C2.77876953 122.74508789 2.05753906 122.49017578 1.31445312 122.22753906 C-6.59312588 119.5816698 -14.69403828 118.19891284 -22.90625 116.859375 C-24.60470265 116.5761119 -26.3026384 116.28972917 -28 116 C-28.83088135 115.85892822 -29.6617627 115.71785645 -30.51782227 115.57250977 C-34.97466525 114.71698148 -37.88089625 114.01723887 -40.9375 110.4375 C-43.94043329 106.91724774 -43.94043329 106.91724774 -48.3125 105.7890625 C-50.10385741 105.67970638 -51.89553902 105.57553709 -53.6875 105.4765625 C-56 105 -56 105 -58 102 C-58.09939937 98.72414247 -57.93158856 95.49956214 -57.77734375 92.2265625 C-58.03375505 88.51084793 -58.6693021 86.88632842 -61 84 C-63.68096154 82.13357778 -63.68096154 82.13357778 -66.6875 80.6875 C-67.68136719 80.17574219 -68.67523438 79.66398437 -69.69921875 79.13671875 C-70.45847656 78.76160156 -71.21773437 78.38648438 -72 78 C-72.67030204 54.83734066 -70.00346247 30.01032754 -54 12 C-44.97362698 3.66796336 -28.53315264 5.74867222 -17 6 C-16.67 5.01 -16.34 4.02 -16 3 C-11.13306136 -0.36941906 -5.70773415 -1.7477825 0 0 Z " fill="#DAB58D" transform="translate(238,230)"/>
<path d="M0 0 C4.94489931 5.06038528 6.76024932 12.2598167 8.359375 18.96875 C8.56907425 19.82922943 8.7787735 20.68970886 8.99482727 21.57626343 C11.40391011 31.79197774 12.97337755 42.13449176 14.52734375 52.5078125 C14.97003321 55.40942965 15.41541429 58.31061254 15.86274719 61.21151733 C16.13648393 62.99196718 16.40724029 64.77287923 16.67424011 66.55435181 C18.51854777 79.35716758 18.51854777 79.35716758 23.65234375 91.0703125 C28.77183644 100.12181655 32.01882519 109.37334397 33.90234375 119.6328125 C35.89262403 128.38524987 41.80073182 135.79248047 46.78588867 143.10205078 C47.83984375 144.8828125 47.83984375 144.8828125 47.83984375 146.8828125 C32.78904222 149.33234616 18.14202864 150.38436188 2.90234375 150.2578125 C1.89692535 150.25315979 0.89150696 150.24850708 -0.14437866 150.24371338 C-22.72021951 150.1213851 -43.55184198 147.51009578 -65.38525391 141.609375 C-67.20975518 141.13165938 -69.0493764 140.70785277 -70.89990234 140.34375 C-75.73879998 139.25980802 -78.49548845 138.13269109 -81.35546875 133.98046875 C-82.32302674 132.2996338 -83.25563894 130.59839491 -84.16015625 128.8828125 C-84.97178223 127.44204346 -84.97178223 127.44204346 -85.79980469 125.97216797 C-87.58528211 122.77516416 -89.31613563 119.55350004 -91.03515625 116.3203125 C-91.64576904 115.1765918 -92.25638184 114.03287109 -92.88549805 112.85449219 C-94.65190023 109.53484602 -96.4086391 106.21033267 -98.16015625 102.8828125 C-98.8560083 101.56337646 -98.8560083 101.56337646 -99.56591797 100.21728516 C-100.71361815 98.02842806 -101.8474473 95.83329825 -102.97265625 93.6328125 C-103.29153809 93.02107178 -103.61041992 92.40933105 -103.93896484 91.77905273 C-105.74973395 88.17232341 -106.8968021 84.92472615 -107.16015625 80.8828125 C-105.22265625 78.0078125 -105.22265625 78.0078125 -103.16015625 75.8828125 C-99.25141063 76.42135079 -97.79280496 78.05132394 -95.28515625 81.0078125 C-94.51042969 81.90113281 -93.73570312 82.79445313 -92.9375 83.71484375 C-92.50421387 84.2145166 -92.07092773 84.71418945 -91.62451172 85.22900391 C-88.18835691 89.10971625 -84.5926203 92.84795218 -81.03369141 96.61572266 C-78.52214052 99.28967351 -76.14618714 101.90128305 -73.9296875 104.83203125 C-73.05376953 105.84716797 -73.05376953 105.84716797 -72.16015625 106.8828125 C-71.17015625 106.8828125 -70.18015625 106.8828125 -69.16015625 106.8828125 C-69.62723512 102.53694822 -72.22674876 100.54954989 -75.28515625 97.6328125 C-79.1494617 93.8871126 -82.84612054 90.08649245 -86.3359375 85.98828125 C-89.43912431 82.40665878 -92.69506011 78.96259734 -95.92578125 75.49609375 C-98.01671986 73.05057289 -99.53748776 70.64832816 -101.16015625 67.8828125 C-102.46914252 66.21754973 -103.80339372 64.57188576 -105.16015625 62.9453125 C-112.23778747 54.13411783 -112.23778747 54.13411783 -112.03515625 48.2578125 C-111.16209026 44.89027227 -110.5209985 43.36341239 -108.16015625 40.8828125 C-103.18198121 39.37828031 -98.55025343 40.26207077 -93.88085938 42.34716797 C-90.30330625 44.39082202 -86.8549733 46.56378053 -83.41015625 48.8203125 C-82.16956684 49.60669348 -80.92736661 50.39053884 -79.68359375 51.171875 C-77.25611596 52.70059266 -74.83643846 54.24040809 -72.42382812 55.79248047 C-68.37336433 58.38674072 -64.28149748 60.9032847 -60.16015625 63.3828125 C-59.06703125 64.053125 -57.97390625 64.7234375 -56.84765625 65.4140625 C-54.54326997 66.6734364 -52.72720247 67.43851604 -50.16015625 67.8828125 C-51.66199404 63.81904889 -53.94286993 62.50144686 -57.62890625 60.37890625 C-58.7492627 59.72543213 -59.86961914 59.07195801 -61.02392578 58.39868164 C-62.2357728 57.70549002 -63.44785435 57.01270829 -64.66015625 56.3203125 C-67.12838489 54.8942094 -69.59336335 53.46252786 -72.05859375 52.03125 C-72.66992157 51.67783035 -73.28124939 51.32441071 -73.91110229 50.96028137 C-77.53775039 48.85614379 -81.10712201 46.68471054 -84.63671875 44.421875 C-85.43400391 43.91342041 -86.23128906 43.40496582 -87.05273438 42.88110352 C-88.48952232 41.95702763 -89.91866134 41.02089121 -91.33789062 40.07006836 C-96.20119322 36.97098829 -100.41343977 36.08100373 -106.16015625 35.8828125 C-106.9335846 28.01962427 -105.10439572 22.15695587 -100.16015625 15.8828125 C-95.63790246 13.52431651 -91.15957607 13.26324886 -86.16015625 12.8828125 C-85.38808838 12.80256836 -84.61602051 12.72232422 -83.82055664 12.63964844 C-74.92632574 12.11507901 -67.71110084 15.34819337 -59.72265625 18.7578125 C-58.36204482 19.32074581 -57.00071918 19.88195606 -55.63867188 20.44140625 C-46.06742966 24.39657174 -46.06742966 24.39657174 -42.92163086 26.08251953 C-40.43047125 27.2143312 -38.73053305 26.59680605 -36.16015625 25.8828125 C-36.16015625 24.2328125 -36.16015625 22.5828125 -36.16015625 20.8828125 C-40.07888867 19.40775638 -43.99881688 17.93616938 -47.921875 16.47265625 C-50.34932472 15.56618652 -52.76704994 14.64492274 -55.1796875 13.69921875 C-70.00752401 7.98594441 -83.54675252 7.1916121 -99.16015625 8.8828125 C-99.28515625 1.2578125 -99.28515625 1.2578125 -98.16015625 -2.1171875 C-93.71146178 -4.86586842 -88.92031527 -6.96623863 -84.16015625 -9.1171875 C-82.48953125 -9.89255859 -82.48953125 -9.89255859 -80.78515625 -10.68359375 C-57.71088466 -20.23438305 -20.94067981 -12.40062603 0 0 Z " fill="#DAB48D" transform="translate(253.16015625,362.1171875)"/>
<path d="M0 0 C-0.58420632 16.73751102 -6.84849222 27.89170605 -18 40 C-17.24074219 39.71125 -16.48148438 39.4225 -15.69921875 39.125 C-14.70535156 38.75375 -13.71148437 38.3825 -12.6875 38 C-11.70136719 37.62875 -10.71523438 37.2575 -9.69921875 36.875 C-7 36 -7 36 -4 36 C-5.87283325 48.06936984 -11.4300157 58.14941218 -19.88671875 66.81640625 C-22.08706581 69.01692033 -22.08706581 69.01692033 -24.14453125 71.71484375 C-26 74 -26 74 -28 75 C-28.33 75.99 -28.66 76.98 -29 78 C-23.555 77.01 -23.555 77.01 -18 76 C-20.25787827 85.03151309 -26.39039937 92.75388395 -34 98 C-39.43705836 101.23694637 -43.67807952 102.94634659 -50 104 C-49.67 114.56 -49.34 125.12 -49 136 C-54.57273652 130.42726348 -54.57273652 130.42726348 -56.54296875 127.1953125 C-58.32151124 124.42389273 -60.13755793 121.71878308 -62.1328125 119.09765625 C-62.57254395 118.51250244 -63.01227539 117.92734863 -63.46533203 117.32446289 C-65.5079542 115.56162082 -66.90332993 115.54237002 -69.5625 115.5625 C-70.38363281 115.78550781 -71.20476562 116.00851563 -72.05078125 116.23828125 C-75.79727122 117.20591773 -79.40761537 117.26126187 -83.25 117.25 C-84.38840332 117.24963745 -84.38840332 117.24963745 -85.54980469 117.24926758 C-100.10668407 117.06290851 -116.79479161 115.6026042 -130 109 C-134.62378139 108.50079528 -138.64479402 108.2299966 -142.75 110.5625 C-143.94721733 111.85948544 -145.1353124 113.16807673 -146.2421875 114.54296875 C-150.64184149 119.97418003 -155.76954255 124.73513147 -162 128 C-169.60293649 127.76784927 -176.09465977 120.18564538 -181 115 C-181.63164062 114.44699219 -182.26328125 113.89398438 -182.9140625 113.32421875 C-185.57261824 110.36197031 -187.03332045 107.12549752 -188.5625 103.5 C-188.86623535 102.78368408 -189.1699707 102.06736816 -189.48291016 101.3293457 C-194.03350182 90.32900946 -195.39428948 80.13285289 -195.7890625 68.3203125 C-195.91920324 64.81263673 -196.32315557 61.450797 -197 58 C-202.052086 56.45140812 -207.10855507 54.95152652 -212.21875 53.60546875 C-225.13008435 50.17255015 -237.36220674 46.89226696 -245 35 C-249 26.22848665 -249 26.22848665 -249 22 C-243.43153593 22.66682067 -238.17953827 23.90928196 -232.77734375 25.3984375 C-231.91363663 25.63406403 -231.0499295 25.86969055 -230.16004944 26.11245728 C-228.34332521 26.60957613 -226.52720661 27.10891301 -224.71166992 27.61035156 C-221.94461569 28.37303869 -219.17464682 29.12438475 -216.40429688 29.875 C-214.63262419 30.36129362 -212.86113341 30.84825055 -211.08984375 31.3359375 C-210.26781967 31.55792816 -209.44579559 31.77991882 -208.59886169 32.00863647 C-202.63712108 33.67021843 -197.36149846 35.43081114 -193 40 C-192.01 40.33 -191.02 40.66 -190 41 C-189.7215625 39.948125 -189.7215625 39.948125 -189.4375 38.875 C-186.79724439 33.59448878 -182.39284272 30.28271018 -176.9375 28.125 C-167.29980148 25.36668083 -156.22204577 26.12674078 -147 30 C-143.28834997 32.28175207 -140.30179691 35.29154942 -138 39 C-138 39.66 -138 40.32 -138 41 C-135.37700921 39.45706424 -132.89003519 37.9159991 -130.46875 36.06640625 C-126.23746809 33.24511966 -121.51759288 32.34465213 -116.625 31.1875 C-114.55001371 30.67235267 -112.47581544 30.15402266 -110.40234375 29.6328125 C-108.8088208 29.23304199 -108.8088208 29.23304199 -107.18310547 28.82519531 C-102.14996061 27.52039169 -97.17066451 26.04498525 -92.1875 24.5625 C-84.06885497 22.16145112 -75.93048929 19.86862447 -67.75 17.6875 C-56.89822524 14.79413939 -46.0703495 11.82079528 -35.25 8.8125 C-34.4926355 8.60217133 -33.735271 8.39184265 -32.95495605 8.17514038 C-30.74581616 7.56147373 -28.53693844 6.94687177 -26.328125 6.33203125 C-25.6238739 6.13645126 -24.9196228 5.94087128 -24.19403076 5.73936462 C-20.77255714 4.7861659 -17.35743517 3.81636029 -13.95117188 2.81005859 C-12.08041992 2.26019287 -12.08041992 2.26019287 -10.171875 1.69921875 C-9.07456055 1.37139404 -7.97724609 1.04356934 -6.84667969 0.70581055 C-4 0 -4 0 0 0 Z " fill="#FCFCFC" transform="translate(426,119)"/>
<path d="M0 0 C0.88993652 0.12600586 1.77987305 0.25201172 2.69677734 0.38183594 C6.70554128 1.00430035 9.90969079 1.6628778 13.5 3.625 C12.77296875 4.22634766 12.77296875 4.22634766 12.03125 4.83984375 C2.50875538 12.91565168 -6.43651791 21.80639911 -8.5 34.625 C-8.98427354 40.79948762 -7.45251734 45.84880287 -5.5 51.625 C-8.20636875 53.23249827 -10.9154418 54.83538459 -13.625 56.4375 C-14.38554687 56.88931641 -15.14609375 57.34113281 -15.9296875 57.80664062 C-27.4761063 64.625 -27.4761063 64.625 -31.5 64.625 C-31.83 60.005 -32.16 55.385 -32.5 50.625 C-39.76 51.285 -47.02 51.945 -54.5 52.625 C-52.85949883 57.42811203 -52.85949883 57.42811203 -51.20898438 62.2277832 C-50.22282302 65.14987323 -49.5 67.52114406 -49.5 70.625 C-63.99013185 75.49399592 -81.22201386 73.51360129 -94.8671875 67.0234375 C-97.46531888 65.628512 -99.99847545 64.18520242 -102.5 62.625 C-102.54898438 63.29144531 -102.59796875 63.95789063 -102.6484375 64.64453125 C-103.19664269 71.40257799 -104.17552143 77.97688914 -105.5 84.625 C-104.16809481 85.08746708 -102.8343693 85.54469155 -101.5 86 C-100.38625 86.38285156 -100.38625 86.38285156 -99.25 86.7734375 C-91.7513205 89.09547178 -85.28097662 89.98046369 -77.4375 89.9375 C-75.92047485 89.93339111 -75.92047485 89.93339111 -74.37280273 89.92919922 C-66.09340507 89.81456445 -58.52666567 88.72380926 -50.5 86.625 C-49.613125 86.41230469 -48.72625 86.19960937 -47.8125 85.98046875 C-46.03593211 85.55174837 -44.26645429 85.09365114 -42.5 84.625 C-40.85 88.585 -39.2 92.545 -37.5 96.625 C-39.22089844 96.38716797 -39.22089844 96.38716797 -40.9765625 96.14453125 C-52.74761636 94.68674345 -64.48571965 94.01200215 -74.5859375 101.0859375 C-77.7036739 103.59285207 -80.14173567 105.7765844 -81.5 109.625 C-81.35059347 112.77699588 -81.02064689 114.13055635 -78.71484375 116.3203125 C-64.27818015 125.38346666 -50.05607976 126.31147017 -33.5234375 122.6640625 C-19.75277736 119.22993159 -3.02726349 114.59414531 7.5 104.625 C7.79395471 101.68545285 7.82055788 99.4996803 7.5 96.625 C7.38011719 95.48804687 7.38011719 95.48804687 7.2578125 94.328125 C7.03491583 92.42337164 6.77121092 90.52347647 6.5 88.625 C5.82195312 89.19347656 5.14390625 89.76195313 4.4453125 90.34765625 C-12.32682529 104.26249079 -28.17447176 113.09631671 -50.5 112.625 C-50.25390625 110.73046875 -50.25390625 110.73046875 -49.5 108.625 C-41.21765799 103.93106875 -30.68644896 104.49873246 -21.5 104.625 C-21.71205078 104.04532471 -21.92410156 103.46564941 -22.14257812 102.8684082 C-23.1033173 100.22769517 -24.05174768 97.58272123 -25 94.9375 C-25.33386719 94.02548828 -25.66773438 93.11347656 -26.01171875 92.17382812 C-26.48544922 90.84448242 -26.48544922 90.84448242 -26.96875 89.48828125 C-27.26201172 88.67657471 -27.55527344 87.86486816 -27.85742188 87.02856445 C-28.54326336 84.46317335 -28.61519796 82.26838181 -28.5 79.625 C-15.37771832 72.27652226 -3.19692325 71.02512558 11.5 71.625 C11.5 72.285 11.5 72.945 11.5 73.625 C12.23089844 73.87894531 12.96179688 74.13289063 13.71484375 74.39453125 C19.6966481 77.03726389 25.76535186 82.50673611 28.73046875 88.3828125 C30.64481311 93.96064834 31.53725327 99.82318418 32.5 105.625 C32.70109375 106.77742188 32.70109375 106.77742188 32.90625 107.953125 C34.24961839 116.83428268 33.58182391 125.7646404 32.5 134.625 C31.22125 134.92792969 29.9425 135.23085937 28.625 135.54296875 C26.91648313 135.96540424 25.20815987 136.38862329 23.5 136.8125 C22.66082031 137.00908203 21.82164062 137.20566406 20.95703125 137.40820312 C15.66002795 138.74271946 11.61661876 140.50068081 7.19140625 143.7277832 C6.63324219 144.02386475 6.07507813 144.31994629 5.5 144.625 C2.5 143.625 2.5 143.625 0.4375 140.8125 C-3.79477234 135.46105534 -10.98668065 133.66393438 -17.5 132.625 C-28.31558753 131.97546053 -37.79515333 132.7082821 -46.5 139.625 C-48.93901128 142.2506609 -48.93901128 142.2506609 -50.5 144.625 C-51.07068207 144.33352081 -51.64136414 144.04204163 -52.2293396 143.74172974 C-60.86596018 139.49416765 -69.94132444 136.97787491 -79.2109375 134.5078125 C-80.62863227 134.12494344 -82.04616028 133.74145646 -83.46353149 133.35739136 C-87.17964676 132.35180048 -90.89752165 131.35289365 -94.6159668 130.35595703 C-101.23304986 128.58100835 -107.84733735 126.79568845 -114.4609375 125.0078125 C-115.16771637 124.81700481 -115.87449524 124.62619713 -116.60269165 124.42960739 C-126.65178456 121.71387937 -136.65150692 118.86875705 -146.59912109 115.79980469 C-151.84495816 114.19127856 -157.15501521 112.86347209 -162.5 111.625 C-156.59880352 77.98818006 -131.82521669 43.29115434 -104.34228516 23.87646484 C-73.31327796 2.79845121 -37.09206442 -5.26101071 0 0 Z " fill="#312D59" transform="translate(285.5,11.375)"/>
<path d="M0 0 C3.28520421 0.93929642 6.4095779 2.12480972 9.5625 3.4375 C10.42093506 3.78949463 11.27937012 4.14148926 12.16381836 4.50415039 C25.41215362 10.11048343 37.26349205 17.40635871 48 27 C49.45986328 28.24523438 49.45986328 28.24523438 50.94921875 29.515625 C58.70668404 36.23693503 64.9799346 43.70952274 71 52 C71.41991211 52.56638184 71.83982422 53.13276367 72.27246094 53.71630859 C81.91603475 66.83412855 97 89.16882495 97 106 C86.2489108 109.00488585 75.49629257 112.00422957 64.74168015 114.99648285 C59.74808131 116.38603876 54.75503191 117.77750723 49.76318359 119.17333984 C44.94690736 120.52000293 40.12926004 121.86165066 35.31061554 123.19981384 C33.47129716 123.7115545 31.63248235 124.2251087 29.79418182 124.74049377 C27.22183982 125.46134246 24.64779237 126.17575669 22.07324219 126.88867188 C21.31151199 127.10373886 20.5497818 127.31880585 19.76496887 127.54039001 C16.3449714 128.48069665 13.57832617 129 10 129 C10.165 127.9275 10.33 126.855 10.5 125.75 C12.1960088 111.43369046 11.69239233 90.22233482 2.375 78.3125 C-0.72277984 74.94874916 -4.34214865 72.61075205 -8.2421875 70.26171875 C-9.11230469 69.63716797 -9.11230469 69.63716797 -10 69 C-10 68.34 -10 67.68 -10 67 C-24.1745665 67.18046323 -35.87674826 69.62571596 -49 75 C-48.59242131 81.7929781 -46.46463992 87.62098604 -44.05859375 93.92578125 C-43 97 -43 97 -43 100 C-43.70608398 100.08040527 -44.41216797 100.16081055 -45.13964844 100.24365234 C-48.3440516 100.61298589 -51.54698028 100.99386264 -54.75 101.375 C-55.86117187 101.50132813 -56.97234375 101.62765625 -58.1171875 101.7578125 C-59.18710938 101.88671875 -60.25703125 102.015625 -61.359375 102.1484375 C-62.34389648 102.26364746 -63.32841797 102.37885742 -64.34277344 102.49755859 C-66.95539101 102.99156511 -68.7875545 103.53240694 -71 105 C-71.495 106.485 -71.495 106.485 -72 108 C-51.28218167 106.15413055 -34.3796157 100.7227857 -19.1796875 85.94140625 C-17 84 -17 84 -15 84 C-13.42633376 89.50783186 -12.07973695 94.29436909 -13 100 C-15.22255478 102.72463794 -17.96541267 104.27815267 -21 106 C-21.98355469 106.56589844 -22.96710938 107.13179688 -23.98046875 107.71484375 C-43.04139358 117.92685154 -66.73895575 125.01318872 -88.1328125 119.0546875 C-93.89132336 116.93643418 -100.02562313 113.80975544 -104 109 C-104.1113293 104.10151068 -102.13312678 101.15680262 -98.953125 97.67578125 C-92.15711076 91.84480104 -84.48353742 89.83021263 -75.75 89.875 C-74.64205078 89.86919922 -74.64205078 89.86919922 -73.51171875 89.86328125 C-68.90678461 89.87140283 -64.54262046 90.24289659 -60 91 C-60.28875 90.45730469 -60.5775 89.91460937 -60.875 89.35546875 C-61.431875 88.28232422 -61.431875 88.28232422 -62 87.1875 C-62.37125 86.47980469 -62.7425 85.77210937 -63.125 85.04296875 C-64 83 -64 83 -64 80 C-65.010625 80.433125 -66.02125 80.86625 -67.0625 81.3125 C-84.21219171 87.56499177 -105.97230595 89.51302443 -123 82 C-124.34088237 81.3486501 -125.67736457 80.68764652 -127 80 C-126.45298368 72.55769906 -125.45801591 65.31839056 -124 58 C-121.38102975 59.03229484 -118.78403285 60.09410859 -116.203125 61.21875 C-115.22859375 61.6415625 -114.2540625 62.064375 -113.25 62.5 C-112.28578125 62.9228125 -111.3215625 63.345625 -110.328125 63.78125 C-102.82511841 66.52882988 -95.83204862 67.30255626 -87.875 67.1875 C-87.02035156 67.18685547 -86.16570312 67.18621094 -85.28515625 67.18554688 C-80.42547908 67.15195464 -75.79163215 66.81159081 -71 66 C-71.3609375 64.86820312 -71.721875 63.73640625 -72.09375 62.5703125 C-72.56264982 61.08858907 -73.03139164 59.60681563 -73.5 58.125 C-73.73847656 57.37863281 -73.97695312 56.63226563 -74.22265625 55.86328125 C-76 50.2265625 -76 50.2265625 -76 48 C-69.73781312 44.86890656 -60.80664624 45.91383992 -54 46 C-53.505 52.93 -53.505 52.93 -53 60 C-40.35850294 53.76921816 -40.35850294 53.76921816 -28 47 C-28.2165625 46.35933594 -28.433125 45.71867187 -28.65625 45.05859375 C-31.56134612 36.03396645 -31.82068434 28.79915182 -28 20 C-25.64637777 16.0490754 -22.93848452 12.53216815 -20 9 C-18.81470703 7.53820312 -18.81470703 7.53820312 -17.60546875 6.046875 C-16.78691406 5.12390625 -15.96835937 4.2009375 -15.125 3.25 C-14.38507813 2.40953125 -13.64515625 1.5690625 -12.8828125 0.703125 C-8.47745547 -1.89949785 -4.86697586 -1.07365056 0 0 Z " fill="#373577" transform="translate(307,16)"/>
<path d="M0 0 C14.12820547 -0.77722402 26.80157487 6.44051444 38.6953125 13.32421875 C38.6953125 16.62421875 38.6953125 19.92421875 38.6953125 23.32421875 C37.12007813 23.23140625 35.54484375 23.13859375 33.921875 23.04296875 C13.02750633 22.20797075 -4.15788739 27.45581583 -23.3046875 35.32421875 C-23.3046875 37.63421875 -23.3046875 39.94421875 -23.3046875 42.32421875 C-18.05175337 40.68337685 -13.01871095 38.81562577 -7.96875 36.625 C5.77897906 30.73464557 17.53168542 26.41916327 32.6953125 28.32421875 C33.95859375 28.42347656 35.221875 28.52273438 36.5234375 28.625 C39.6953125 29.32421875 39.6953125 29.32421875 41.47265625 31.1015625 C41.85550781 31.81441406 42.23835938 32.52726562 42.6328125 33.26171875 C43.03371094 33.97199219 43.43460937 34.68226563 43.84765625 35.4140625 C44.6953125 37.32421875 44.6953125 37.32421875 44.6953125 39.32421875 C44.03523193 39.60620117 43.37515137 39.88818359 42.69506836 40.17871094 C39.67243767 41.4728749 36.65262344 42.77348954 33.6328125 44.07421875 C32.59447266 44.51765625 31.55613281 44.96109375 30.48632812 45.41796875 C27.54116097 46.68953298 24.61490012 47.99509435 21.6953125 49.32421875 C20.93653809 49.65744141 20.17776367 49.99066406 19.39599609 50.33398438 C17.23718686 51.31637015 17.23718686 51.31637015 14.6953125 53.32421875 C14.1273202 56.18843572 14.1273202 56.18843572 14.4453125 59.32421875 C14.11858746 63.12454679 13.64417505 65.4437603 10.79882812 68.08398438 C4.81494599 72.43993485 -1.69193577 76.01784289 -8.3046875 79.32421875 C-8.3046875 80.31421875 -8.3046875 81.30421875 -8.3046875 82.32421875 C-3.37585233 80.57647044 0.80143403 77.82994259 5.14257812 74.98242188 C6.62473444 74.03829687 8.15716646 73.17408116 9.6953125 72.32421875 C10.3553125 72.65421875 11.0153125 72.98421875 11.6953125 73.32421875 C11.27378906 74.06285156 10.85226563 74.80148437 10.41796875 75.5625 C6.99943356 81.89282282 5.22934622 86.752636 4.97265625 93.9296875 C4.57334827 97.37723388 2.63513362 99.50834938 0.6953125 102.32421875 C-0.13220792 108.73750198 1.22849965 112.93023501 4.6953125 118.32421875 C5.78761656 119.72935453 6.89188817 121.12526731 8.0078125 122.51171875 C10.67903063 125.97415845 10.67903063 125.97415845 10.8203125 129.01171875 C9.6953125 131.32421875 9.6953125 131.32421875 7.6328125 133.63671875 C5.08124122 137.17599504 5.08296161 140.13881666 5.6953125 144.32421875 C6.7760015 147.23686146 8.22273998 149.87823163 9.7578125 152.57421875 C13.77856308 159.72517351 13.77856308 159.72517351 13.40087891 162.44287109 C12.45571111 164.96310052 11.08814328 166.01117891 9.0078125 167.69921875 C6.28586624 169.9488416 3.8201484 172.21250664 1.4453125 174.82421875 C0.5378125 175.64921875 -0.3696875 176.47421875 -1.3046875 177.32421875 C-16.4660378 176.16306501 -36.25241451 156.85812836 -47.3046875 147.32421875 C-48.42230469 146.37289062 -48.42230469 146.37289062 -49.5625 145.40234375 C-79.53598685 119.18824339 -79.53598685 119.18824339 -84.3046875 109.32421875 C-83.64514088 106.09413147 -82.62231441 103.80679733 -80.81396484 101.05932617 C-79.05714931 97.87563086 -78.4355171 95.11858034 -77.765625 91.546875 C-77.64246918 90.89493668 -77.51931335 90.24299835 -77.39242554 89.57130432 C-76.13014907 82.71729302 -75.17360493 75.81980973 -74.22750854 68.91650391 C-72.73917548 58.1481648 -71.14118469 47.43401361 -68.7421875 36.82421875 C-68.55672363 35.99075928 -68.37125977 35.1572998 -68.18017578 34.29858398 C-64.45654154 18.66156526 -64.45654154 18.66156526 -59.3671875 14.51171875 C-41.97343748 4.16261905 -19.76125146 1.93875162 0 0 Z " fill="#DAB48D" transform="translate(137.3046875,304.67578125)"/>
<path d="M0 0 C5.27699178 0.78082317 10.39522923 2.01251473 15.5625 3.3125 C16.9079187 3.65015381 16.9079187 3.65015381 18.28051758 3.99462891 C23.98203895 5.44323729 29.60081418 7.0518115 35.20703125 8.8359375 C40.5710363 10.4821512 45.97248274 11.98588077 51.375 13.5 C53.00671143 13.96732544 53.00671143 13.96732544 54.67138672 14.4440918 C59.3634961 15.77575106 64.0040859 17.06271064 68.80859375 17.91796875 C72.43374511 18.58943456 75.69959444 19.27370718 79 21 C81.3382598 24.8287619 82.09909183 28.64756053 83 33 C88.52835705 43.2941821 97.764011 47.50698676 108.53417969 50.76708984 C112.27774315 51.85769795 116.02670628 52.92309393 119.78955078 53.9453125 C120.66337402 54.18378906 121.53719727 54.42226562 122.4375 54.66796875 C123.61119141 54.98157349 123.61119141 54.98157349 124.80859375 55.30151367 C127.0480473 56.01531454 128.98443024 56.78813113 131 58 C133.32756758 62.8701016 133.27041297 67.65745577 133.375 72.9375 C133.82245164 84.87454104 136.15037571 95.65036451 142.14453125 106.14453125 C142.42683594 106.75683594 142.70914063 107.36914062 143 108 C142.67 108.66 142.34 109.32 142 110 C141.34 109.67 140.68 109.34 140 109 C134.73406393 108.37138532 130.21374776 108.70781343 125.3125 110.75 C113.24563351 115.53572609 99.30898318 117.34613116 86.375 117.3125 C85.64168457 117.31443359 84.90836914 117.31636719 84.15283203 117.31835938 C80.69669077 117.26495842 77.89400203 116.97126489 74.52734375 116.05859375 C70.88532161 115.14255659 68.66263561 115.20198315 65 116 C62.71364198 117.85434683 62.71364198 117.85434683 60.90234375 120.38671875 C60.21164795 121.27649414 59.52095215 122.16626953 58.80932617 123.08300781 C56.1956293 126.70592943 53.69262369 130.38580744 51.28417969 134.14819336 C50.86040039 134.75928955 50.43662109 135.37038574 50 136 C49.67 136 49.34 136 49 136 C49 125.77 49 115.54 49 105 C45.04 103.35 41.08 101.7 37 100 C29.53638437 95.08972656 24.85828583 89.4523027 20 82 C19.40960938 81.10539062 18.81921875 80.21078125 18.2109375 79.2890625 C17.81132813 78.53367187 17.41171875 77.77828125 17 77 C17.33 76.34 17.66 75.68 18 75 C21.63 75.99 25.26 76.98 29 78 C28.26971972 74.89871285 28.26971972 74.89871285 25.875 73.3125 C15.19498843 64.72205591 7.16564768 52.30821625 4 39 C4 38.01 4 37.02 4 36 C8.84688192 36.78175515 13.3766367 38.39844278 18 40 C17.57589844 39.53851563 17.15179688 39.07703125 16.71484375 38.6015625 C5.55879006 26.19505005 0.74964627 16.7248667 0 0 Z " fill="#A6A6A5" transform="translate(98,119)"/>
<path d="M0 0 C2.63127899 3.94691849 3.26266855 7.71204095 4.25 12.3125 C4.46180908 13.28856201 4.67361816 14.26462402 4.8918457 15.27026367 C7.51319101 27.82103352 9.38271484 40.5033752 11.30970764 53.17541504 C11.86144922 56.78548142 12.42782693 60.39312299 13 64 C13.24036987 65.53660278 13.24036987 65.53660278 13.4855957 67.10424805 C14.42053492 72.4487061 16.02400081 76.55389067 18.8125 81.1875 C23.93199269 90.23900405 27.17898144 99.49053147 29.0625 109.75 C31.05278028 118.50243737 36.96088807 125.90966797 41.94604492 133.21923828 C43 135 43 135 43 137 C27.94863294 139.4496257 13.30252191 140.49877876 -1.9375 140.375 C-2.94059204 140.37101196 -3.94368408 140.36702393 -4.97717285 140.36291504 C-19.50267689 140.2952685 -33.7206035 139.90137955 -48 137 C-48.86512207 136.82887695 -49.73024414 136.65775391 -50.62158203 136.48144531 C-64.70771326 133.64614337 -64.70771326 133.64614337 -68 132 C-67.58427734 131.23623047 -67.58427734 131.23623047 -67.16015625 130.45703125 C-65.66183596 127.28382094 -64.54735633 124.01048232 -63.4375 120.6875 C-63.10588867 119.7294043 -63.10588867 119.7294043 -62.76757812 118.75195312 C-61.68727633 115.53063026 -60.96823929 112.65884 -60.65234375 109.265625 C-60 106 -60 106 -57.8828125 103.84765625 C-56.97273437 103.25855469 -56.06265625 102.66945313 -55.125 102.0625 C-54.13628906 101.3921875 -53.14757812 100.721875 -52.12890625 100.03125 C-50.07446817 98.69753239 -48.01978836 97.36418704 -45.96484375 96.03125 C-39.75510687 91.81899241 -35.6657685 88.50140195 -34 81 C-33.78036509 78.459285 -33.57288925 75.91750114 -33.375 73.375 C-32.62854288 66.70353947 -32.62854288 66.70353947 -29.9375 63.69140625 C-27.36443326 61.93026758 -24.75803038 60.45138333 -22 59 C-20.4770246 57.99222255 -18.9744716 56.95249847 -17.5 55.875 C-16.8709375 55.43929687 -16.241875 55.00359375 -15.59375 54.5546875 C-11.06463901 50.13658414 -11.07535642 42.8078415 -10.23242188 36.85742188 C-9.32284924 30.90248504 -8.14979896 24.83773463 -4.4375 19.9375 C-0.28778745 14.34440918 -0.45916948 6.68212423 0 0 Z " fill="#B5916C" transform="translate(258,372)"/>
<path d="M0 0 C0.33 0 0.66 0 1 0 C0.96334229 0.63389648 0.92668457 1.26779297 0.88891602 1.92089844 C-0.1836975 17.88485876 -0.1836975 17.88485876 6.11328125 32.1015625 C8.44937555 35.69034504 9.6482404 39.23463004 10.875 43.3125 C11.07762451 43.97113037 11.28024902 44.62976074 11.48901367 45.30834961 C17.29586738 65.11982072 14.05870027 87.32429053 4.8125 105.5625 C1.63081609 111.02520654 -2.59567725 115.50311705 -7 120 C-7.51949219 120.55558594 -8.03898437 121.11117187 -8.57421875 121.68359375 C-18.29673694 131.09989089 -35.13824147 137.65459756 -48.359375 138.59765625 C-49.42124023 138.67636963 -50.48310547 138.75508301 -51.57714844 138.83618164 C-52.37668945 138.8902417 -53.17623047 138.94430176 -54 139 C-54.07516846 137.3771106 -54.07516846 137.3771106 -54.15185547 135.72143555 C-54.3438876 131.60771572 -54.54328769 127.49437733 -54.74462891 123.38110352 C-54.82989207 121.61947711 -54.91330172 119.85775977 -54.99462891 118.09594727 C-55.43314216 108.62460229 -55.9837165 99.17830839 -56.92578125 89.7421875 C-56.99735443 88.98777878 -57.06892761 88.23337006 -57.14266968 87.45610046 C-58.72136096 72.64625166 -64.12051122 58.55347341 -74.42578125 47.71484375 C-76 46 -76 46 -76 45 C-75.10539062 44.93941406 -74.21078125 44.87882812 -73.2890625 44.81640625 C-72.07992188 44.73261719 -70.87078125 44.64882812 -69.625 44.5625 C-67.786909 44.4363565 -65.94860721 44.31150935 -64.10888672 44.21191406 C-61.92649114 44.03936742 -61.92649114 44.03936742 -59.55126953 43.42089844 C-56.82485446 42.86181998 -54.75849919 42.58491843 -52 43 C-48.79635451 45.54033394 -46.8003643 48.69595194 -44.625 52.125 C-43.45070346 53.85689468 -42.27622926 55.58866891 -41.1015625 57.3203125 C-40.5643457 58.13661133 -40.02712891 58.95291016 -39.47363281 59.79394531 C-36.41361503 64.61952207 -36.41361503 64.61952207 -32 68 C-32.10828125 66.48986328 -32.10828125 66.48986328 -32.21875 64.94921875 C-32.96015091 53.95243268 -33.10886168 43.01922112 -33 32 C-32.09378906 31.5875 -31.18757813 31.175 -30.25390625 30.75 C-16.18497793 24.16450301 -5.4986323 15.11433098 0 0 Z " fill="#1E69AE" transform="translate(412,194)"/>
<path d="M0 0 C3.40735941 2.58414137 6.05474557 4.70907148 8.44140625 8.2890625 C9.24711658 16.48045088 6.90412141 23.56009482 4.44140625 31.2890625 C1.72314132 29.98693559 -0.74776942 28.53282479 -3.24609375 26.8515625 C-7.48561089 24.17728453 -11.74192501 22.60754935 -16.55859375 21.2890625 C-17.79738281 20.93972656 -19.03617188 20.59039062 -20.3125 20.23046875 C-24.56671735 19.18546047 -28.62555696 18.9043502 -32.99609375 18.9140625 C-33.76888672 18.91567383 -34.54167969 18.91728516 -35.33789062 18.91894531 C-47.21026337 19.16487992 -58.79756528 22.3183663 -69.55859375 27.2890625 C-69.15101506 34.0820406 -67.02323367 39.91004854 -64.6171875 46.21484375 C-63.55859375 49.2890625 -63.55859375 49.2890625 -63.55859375 52.2890625 C-64.61771973 52.40967041 -64.61771973 52.40967041 -65.69824219 52.53271484 C-68.90264535 52.90204839 -72.10557403 53.28292514 -75.30859375 53.6640625 C-76.41976562 53.79039063 -77.5309375 53.91671875 -78.67578125 54.046875 C-79.74570313 54.17578125 -80.815625 54.3046875 -81.91796875 54.4375 C-83.39475098 54.61031494 -83.39475098 54.61031494 -84.90136719 54.78662109 C-87.51398476 55.28062761 -89.34614825 55.82146944 -91.55859375 57.2890625 C-92.05359375 58.7740625 -92.05359375 58.7740625 -92.55859375 60.2890625 C-71.84077542 58.44319305 -54.93820945 53.0118482 -39.73828125 38.23046875 C-37.55859375 36.2890625 -37.55859375 36.2890625 -35.55859375 36.2890625 C-33.98492751 41.79689436 -32.6383307 46.58343159 -33.55859375 52.2890625 C-35.78114853 55.01370044 -38.52400642 56.56721517 -41.55859375 58.2890625 C-42.54214844 58.85496094 -43.52570313 59.42085938 -44.5390625 60.00390625 C-63.59998733 70.21591404 -87.2975495 77.30225122 -108.69140625 71.34375 C-114.44991711 69.22549668 -120.58421688 66.09881794 -124.55859375 61.2890625 C-124.66992305 56.39057318 -122.69172053 53.44586512 -119.51171875 49.96484375 C-112.71570451 44.13386354 -105.04213117 42.11927513 -96.30859375 42.1640625 C-95.20064453 42.15826172 -95.20064453 42.15826172 -94.0703125 42.15234375 C-89.46537836 42.16046533 -85.10121421 42.53195909 -80.55859375 43.2890625 C-80.84734375 42.74636719 -81.13609375 42.20367187 -81.43359375 41.64453125 C-81.80484375 40.92910156 -82.17609375 40.21367188 -82.55859375 39.4765625 C-82.92984375 38.76886719 -83.30109375 38.06117187 -83.68359375 37.33203125 C-84.55859375 35.2890625 -84.55859375 35.2890625 -84.55859375 32.2890625 C-85.56921875 32.7221875 -86.57984375 33.1553125 -87.62109375 33.6015625 C-104.77078546 39.85405427 -126.5308997 41.80208693 -143.55859375 34.2890625 C-144.89947612 33.6377126 -146.23595832 32.97670902 -147.55859375 32.2890625 C-147.01157743 24.84676156 -146.01660966 17.60745306 -144.55859375 10.2890625 C-141.9396235 11.32135734 -139.3426266 12.38317109 -136.76171875 13.5078125 C-135.7871875 13.930625 -134.81265625 14.3534375 -133.80859375 14.7890625 C-132.844375 15.211875 -131.88015625 15.6346875 -130.88671875 16.0703125 C-123.38371216 18.81789238 -116.39064237 19.59161876 -108.43359375 19.4765625 C-107.57894531 19.47591797 -106.72429687 19.47527344 -105.84375 19.47460938 C-100.98407283 19.44101714 -96.3502259 19.10065331 -91.55859375 18.2890625 C-92.1 16.59136719 -92.1 16.59136719 -92.65234375 14.859375 C-93.12124357 13.37765157 -93.58998539 11.89587813 -94.05859375 10.4140625 C-94.29707031 9.66769531 -94.53554687 8.92132813 -94.78125 8.15234375 C-96.55859375 2.515625 -96.55859375 2.515625 -96.55859375 0.2890625 C-90.29640687 -2.84203094 -81.36523999 -1.79709758 -74.55859375 -1.7109375 C-74.06359375 5.2190625 -74.06359375 5.2190625 -73.55859375 12.2890625 C-71.22234008 11.14889615 -68.88914318 10.00330776 -66.55859375 8.8515625 C-65.84034424 8.49682861 -65.12209473 8.14209473 -64.38208008 7.77661133 C-59.91830644 5.54545381 -55.57375592 3.1785292 -51.26757812 0.65771484 C-34.73314421 -9.00334691 -16.74815568 -11.19953006 0 0 Z " fill="#EFEC79" transform="translate(327.55859375,63.7109375)"/>
<path d="M0 0 C5.56846407 0.66682067 10.82046173 1.90928196 16.22265625 3.3984375 C17.08636337 3.63406403 17.9500705 3.86969055 18.83995056 4.11245728 C20.65667479 4.60957613 22.47279339 5.10891301 24.28833008 5.61035156 C27.05538431 6.37303869 29.82535318 7.12438475 32.59570312 7.875 C34.36737581 8.36129362 36.13886659 8.84825055 37.91015625 9.3359375 C39.14319237 9.66892349 39.14319237 9.66892349 40.40113831 10.00863647 C46.36287892 11.67021843 51.63850154 13.43081114 56 18 C56.99 18.33 57.98 18.66 59 19 C59.2784375 17.948125 59.2784375 17.948125 59.5625 16.875 C62.20275561 11.59448878 66.60715728 8.28271018 72.0625 6.125 C81.70019852 3.36668083 92.77795423 4.12674078 102 8 C105.6304244 10.23181828 108.99078165 13.21794194 111 17 C110.76287025 19.92460022 109.86260805 22.4447864 108.99609375 25.25 C108.05454268 28.79466285 107.5928073 32.04313195 107.25 35.6875 C106.26095406 44.80252066 104.22746013 53.68212714 102.24536133 62.6237793 C100.78588122 69.23174582 99.4804442 75.81486032 98.4375 82.5 C97.09515918 90.37349618 95.40717252 98.54188969 89.6484375 104.38671875 C87 106 87 106 84.46875 105.953125 C78.01057406 103.45977859 72.68533458 97.95306799 68 93 C67.36835938 92.44699219 66.73671875 91.89398438 66.0859375 91.32421875 C63.42738176 88.36197031 61.96667955 85.12549752 60.4375 81.5 C60.13376465 80.78368408 59.8300293 80.06736816 59.51708984 79.3293457 C54.96649818 68.32900946 53.60571052 58.13285289 53.2109375 46.3203125 C53.08079676 42.81263673 52.67684443 39.450797 52 36 C46.947914 34.45140812 41.89144493 32.95152652 36.78125 31.60546875 C23.86991565 28.17255015 11.63779326 24.89226696 4 13 C0 4.22848665 0 4.22848665 0 0 Z " fill="#FEFDFD" transform="translate(177,141)"/>
<path d="M0 0 C1.92763565 2.38440149 3.83188819 4.76984692 5.640625 7.24609375 C12.51714128 16.60950549 20.58112737 21.10312986 31 26 C31.1063689 38.04750524 31.14724086 49.99494383 30 62 C30.99 62 31.98 62 33 62 C33.26353271 61.26483154 33.52706543 60.52966309 33.79858398 59.7722168 C35.00288141 56.99335127 36.34193441 55.00560716 38.22265625 52.64453125 C39.15368164 51.46407227 39.15368164 51.46407227 40.10351562 50.25976562 C41.07321289 49.04836914 41.07321289 49.04836914 42.0625 47.8125 C43.34646777 46.19513327 44.62908826 44.57669578 45.91015625 42.95703125 C46.47871338 42.24522705 47.04727051 41.53342285 47.63305664 40.80004883 C49.05691813 39.04013852 49.05691813 39.04013852 50 37 C50.99 37.144375 51.98 37.28875 53 37.4375 C59.96446221 38.32067456 66.99473922 38.60042809 74 39 C73.13375 39.969375 72.2675 40.93875 71.375 41.9375 C55.10150108 61.12108343 53.59469186 83.87921197 52 108 C47.73866106 106.63753109 43.62591638 105.30720264 39.6015625 103.33203125 C34.77018425 101.54515491 30.48136178 101.59286472 25.375 101.6875 C24.40312744 101.69587891 23.43125488 101.70425781 22.42993164 101.71289062 C16.00538212 101.81981497 9.87121068 102.32909859 3.55859375 103.5625 C0.91963432 104.01374192 -1.33408904 104.29671184 -4 104 C-13.84993506 95.18978031 -15.5606414 76.21321897 -16.25390625 63.9375 C-16.89168707 47.29739372 -13.11653862 28.31188896 -1.765625 15.47265625 C0.55751475 12.21923267 0.40956127 10.13664153 0.25 6.1875 C0.19585937 4.44533203 0.19585937 4.44533203 0.140625 2.66796875 C0.09421875 1.78753906 0.0478125 0.90710938 0 0 Z " fill="#1E69AF" transform="translate(114,200)"/>
<path d="M0 0 C0.33 0 0.66 0 1 0 C1.01417969 0.75023437 1.02835938 1.50046875 1.04296875 2.2734375 C1.46493898 11.32869052 4.01950148 17.52925222 9 25 C10.96071279 31.37231656 11.60145245 37.80222205 12.2421875 44.4140625 C13.62429418 50.95413433 17.07276733 54.45971766 22.4375 58.1875 C23.36433594 58.84105469 24.29117188 59.49460937 25.24609375 60.16796875 C27.92128417 62.05462302 27.92128417 62.05462302 30.78125 63.2578125 C33 65 33 65 33.78515625 68.51171875 C33.89491519 69.90238787 33.98655405 71.29457508 34.0625 72.6875 C34.84711068 81.16413128 36.19334236 86.62512598 42.5 92.5 C45.91488112 95.32965667 49.56135676 97.64136096 53.3125 100 C60.66113138 104.80665197 61.39749284 108.44303037 63.42578125 116.83203125 C65.74967978 125.60593385 69.19682912 130.99200494 76 137 C76.66 137.66 77.32 138.32 78 139 C77.49210937 139.43570313 76.98421875 139.87140625 76.4609375 140.3203125 C73.05969821 143.26295773 69.78868765 146.18081811 66.75 149.5 C65.8425 150.325 64.935 151.15 64 152 C48.8386497 150.83884626 29.05227299 131.53390961 18 122 C16.88238281 121.04867187 16.88238281 121.04867187 15.7421875 120.078125 C-14.23129935 93.86402464 -14.23129935 93.86402464 -19 84 C-18.34045338 80.76991272 -17.31762691 78.48257858 -15.50927734 75.73510742 C-13.75246181 72.55141211 -13.1308296 69.79436159 -12.4609375 66.22265625 C-12.33778168 65.57071793 -12.21462585 64.9187796 -12.08773804 64.24708557 C-10.82533088 57.39236465 -9.86837874 50.49409163 -8.92199707 43.59008789 C-4.01596276 8.03192552 -4.01596276 8.03192552 0 0 Z " fill="#B5916C" transform="translate(72,330)"/>
<path d="M0 0 C-0.41594203 7.03837326 -1.71318088 13.19675973 -4.125 19.8125 C-4.43703369 20.67834717 -4.74906738 21.54419434 -5.07055664 22.4362793 C-13.11080117 44.15079359 -13.11080117 44.15079359 -23 50 C-26.28376945 51.30129347 -29.54892333 52.25745277 -33 53 C-32.95359375 53.81984375 -32.9071875 54.6396875 -32.859375 55.484375 C-32.80523437 57.10085937 -32.80523437 57.10085937 -32.75 58.75 C-32.70359375 59.81734375 -32.6571875 60.8846875 -32.609375 61.984375 C-33 65 -33 65 -34.73828125 67.35546875 C-37.90644818 69.65909272 -39.99262995 69.63402822 -43.8046875 69.4453125 C-46 69 -46 69 -49.0625 66.9375 C-51.45704318 63.30706356 -51.47482431 61.27341879 -51 57 C-50.67 56.01 -50.34 55.02 -50 54 C-50.81082031 54.02320313 -51.62164062 54.04640625 -52.45703125 54.0703125 C-62.06153725 54.22684694 -70.95638416 53.4219087 -80 50 C-79.38315147 37.86864567 -74.96318876 26.94664912 -66.35546875 18.359375 C-59.14927284 12.54745325 -49.50029996 11.52137156 -40.69384766 9.61328125 C-36.6705561 8.69733885 -32.71416026 7.57885655 -28.75 6.4375 C-22.71646436 4.7217133 -16.6665313 3.13391272 -10.5625 1.6875 C-9.48790527 1.43021118 -9.48790527 1.43021118 -8.39160156 1.16772461 C-5.52047738 0.49939767 -2.95918349 0 0 0 Z " fill="#191A19" transform="translate(372,158)"/>
<path d="M0 0 C-0.32871094 1.26650391 -0.32871094 1.26650391 -0.6640625 2.55859375 C-3.15559815 12.61589011 -5.14611251 22.74679219 -7 32.9375 C-7.12930908 33.6461319 -7.25861816 34.35476379 -7.3918457 35.08486938 C-8.75634639 42.59717769 -10.04558182 50.10964367 -11.1328125 57.66796875 C-11.30296875 58.84689697 -11.473125 60.0258252 -11.6484375 61.24047852 C-11.95679758 63.43043537 -12.25196204 65.62230815 -12.53125 67.81616211 C-13.36339999 73.79086164 -14.61251211 77.98202002 -18 83 C-21.05902189 81.68356129 -22.65110142 80.51879504 -24.4453125 77.71875 C-25.09330811 76.71751099 -25.09330811 76.71751099 -25.75439453 75.69604492 C-26.20669434 74.9713501 -26.65899414 74.24665527 -27.125 73.5 C-27.60437012 72.74243408 -28.08374023 71.98486816 -28.57763672 71.2043457 C-39.74528062 53.36218921 -48.99994722 34.82135781 -56.125 15 C-56.43268311 14.15711426 -56.74036621 13.31422852 -57.05737305 12.44580078 C-57.46596558 11.26606689 -57.46596558 11.26606689 -57.8828125 10.0625 C-58.12402832 9.37285156 -58.36524414 8.68320312 -58.61376953 7.97265625 C-59.06331631 5.67661457 -58.71925344 4.20398482 -58 2 C-52.66666667 0.66666667 -47.33333333 -0.66666667 -42 -2 C-41.3711792 -2.18087158 -40.7423584 -2.36174316 -40.09448242 -2.5480957 C-27.71657181 -5.21874642 -11.96495433 -3.99624717 0 0 Z " fill="#DAB58D" transform="translate(69,325)"/>
<path d="M0 0 C16.22960914 2.54656631 32.2284732 6.85973774 47.99121094 11.43115234 C49.89465027 11.97016713 51.81045366 12.46494879 53.7265625 12.95703125 C62.26323271 15.26291343 68.01598427 18.10839431 72.7109375 25.8046875 C76.64538804 33.34731708 80.66854376 41.3089311 80 50 C64.31650099 55.93429692 41.20432635 57.56612847 25.4453125 51.296875 C11.22623682 43.75576777 6.72944552 28.00463162 2.08178711 13.58959961 C0.66025255 8.94363914 -0.39268659 4.91676328 0 0 Z " fill="#181918" transform="translate(152,158)"/>
<path d="M0 0 C-1.0621875 0.50789062 -2.124375 1.01578125 -3.21875 1.5390625 C-13.69709738 6.61211 -21.99350047 11.89214251 -30.3125 20.0625 C-30.8290918 20.56942383 -31.34568359 21.07634766 -31.87792969 21.59863281 C-34.76992073 24.5172431 -37.05368714 27.37972522 -39 31 C-38.01 31.33 -37.02 31.66 -36 32 C-36.6290625 32.14695313 -37.258125 32.29390625 -37.90625 32.4453125 C-46.47666965 34.69117548 -52.35943249 38.03102604 -57.25 45.5625 C-61.29025218 52.8283486 -63.48078807 60.86243908 -65 69 C-64.16210938 69.13277344 -63.32421875 69.26554687 -62.4609375 69.40234375 C-58.82473864 70.03026522 -55.23097315 70.78007186 -51.625 71.5625 C-50.37976563 71.83191406 -49.13453125 72.10132813 -47.8515625 72.37890625 C-46.91054688 72.58386719 -45.96953125 72.78882813 -45 73 C-45.11859375 74.03640625 -45.2371875 75.0728125 -45.359375 76.140625 C-45.49071453 77.51030867 -45.62086038 78.88010717 -45.75 80.25 C-45.83121094 80.93191406 -45.91242188 81.61382812 -45.99609375 82.31640625 C-46.24094109 84.60225287 -46.24094109 84.60225287 -46 88 C-44.13531737 90.36650994 -44.13531737 90.36650994 -42 92 C-42 92.66 -42 93.32 -42 94 C-46.8925975 93.63074736 -50.81442543 92.77340698 -55.375 90.9375 C-60.66369332 88.93220378 -65.37457262 88.00787917 -71 89 C-75.04025559 91.29559977 -77.57674191 94.84426614 -80.5078125 98.3828125 C-82.41459571 100.44932624 -84.49565014 101.74782507 -87 103 C-85.94623791 98.13648265 -84.8256748 93.3133608 -83.5625 88.5 C-82.17905218 83.03503698 -81.19357015 77.53797652 -80.26806641 71.98242188 C-79.22999553 65.92678693 -77.85844004 59.97591121 -76.4375 54 C-74.65035182 46.47657714 -73.29598753 39.08259023 -72.72045898 31.36523438 C-72.36106427 27.1774126 -71.52107923 24.38208663 -69 21 C-66.6875 19.4375 -66.6875 19.4375 -64 18 C-63.16855469 17.36835938 -62.33710938 16.73671875 -61.48046875 16.0859375 C-57.24518617 13.24840808 -52.52934329 12.34722123 -47.625 11.1875 C-45.57474123 10.67891382 -43.52528534 10.16708217 -41.4765625 9.65234375 C-40.41727539 9.38663574 -39.35798828 9.12092773 -38.26660156 8.84716797 C-32.81023293 7.43210077 -27.40584658 5.8456412 -22 4.25 C-20.50654053 3.80950317 -20.50654053 3.80950317 -18.98291016 3.36010742 C-18.0397998 3.08142822 -17.09668945 2.80274902 -16.125 2.515625 C-15.23941406 2.25587891 -14.35382813 1.99613281 -13.44140625 1.72851562 C-11.92320238 1.27548359 -10.40914002 0.80799801 -8.90234375 0.31835938 C-5.46856429 -0.77155576 -3.42805361 -1.03470949 0 0 Z " fill="#D2D1D1" transform="translate(357,139)"/>
<path d="M0 0 C4.23290879 0.09558181 7.18042371 0.903036 10.75 3.3125 C11.08 4.3025 11.41 5.2925 11.75 6.3125 C12.47960937 6.28929687 13.20921875 6.26609375 13.9609375 6.2421875 C20.75358777 6.12478367 27.42809912 6.4089016 34.1875 7.0625 C35.32227783 7.1550708 35.32227783 7.1550708 36.47998047 7.24951172 C42.51097828 7.89230143 46.4028619 9.8850775 50.69140625 14.3203125 C65.52652318 33.69533269 67.33610933 56.70531866 66.75 80.3125 C64.64748139 80.98434618 62.54292237 81.64980968 60.4375 82.3125 C58.67986328 82.869375 58.67986328 82.869375 56.88671875 83.4375 C53.75 84.3125 53.75 84.3125 50.75 84.3125 C50.75 88.6025 50.75 92.8925 50.75 97.3125 C50.42 97.3125 50.09 97.3125 49.75 97.3125 C49.720271 95.94653687 49.720271 95.94653687 49.68994141 94.55297852 C50.43137727 60.14721112 50.43137727 60.14721112 38.703125 28.8359375 C37.75 27.3125 37.75 27.3125 37.75 25.3125 C36.20675049 25.29231812 36.20675049 25.29231812 34.63232422 25.27172852 C30.79499962 25.20982155 26.96128248 25.08969199 23.12597656 24.95239258 C21.46981387 24.90114272 19.81309074 24.86544529 18.15625 24.84594727 C4.38546726 24.66801948 4.38546726 24.66801948 0.29394531 21.27685547 C-1.68533939 18.37309005 -3.25 15.88554793 -3.25 12.3125 C-7.705 11.3225 -7.705 11.3225 -12.25 10.3125 C-11.29367001 9.01934939 -10.33486149 7.72803147 -9.375 6.4375 C-8.84132813 5.71820313 -8.30765625 4.99890625 -7.7578125 4.2578125 C-5.21376314 0.97559338 -4.1341236 0.02109247 0 0 Z " fill="#F2BF59" transform="translate(290.25,229.6875)"/>
<path d="M0 0 C0.33 0 0.66 0 1 0 C1.33773437 1.16917969 1.67546875 2.33835937 2.0234375 3.54296875 C2.47382737 5.09118394 2.9243555 6.63935891 3.375 8.1875 C3.59671875 8.95642578 3.8184375 9.72535156 4.046875 10.51757812 C4.97596295 13.70107067 5.913943 16.78832287 7.1640625 19.86328125 C8 22 8 22 8 25 C6.94087402 25.12060791 6.94087402 25.12060791 5.86035156 25.24365234 C2.6559484 25.61298589 -0.54698028 25.99386264 -3.75 26.375 C-4.86117187 26.50132813 -5.97234375 26.62765625 -7.1171875 26.7578125 C-8.72207031 26.95117188 -8.72207031 26.95117188 -10.359375 27.1484375 C-11.34389648 27.26364746 -12.32841797 27.37885742 -13.34277344 27.49755859 C-15.95539101 27.99156511 -17.7875545 28.53240694 -20 30 C-20.495 31.485 -20.495 31.485 -21 33 C-0.28218167 31.15413055 16.6203843 25.7227857 31.8203125 10.94140625 C34 9 34 9 36 9 C37.57366624 14.50783186 38.92026305 19.29436909 38 25 C35.77744522 27.72463794 33.03458733 29.27815267 30 31 C28.52466797 31.84884766 28.52466797 31.84884766 27.01953125 32.71484375 C7.95860642 42.92685154 -15.73895575 50.01318872 -37.1328125 44.0546875 C-42.89132336 41.93643418 -49.02562313 38.80975544 -53 34 C-53.1113293 29.10151068 -51.13312678 26.15680262 -47.953125 22.67578125 C-41.15711076 16.84480104 -33.48353742 14.83021263 -24.75 14.875 C-23.64205078 14.86919922 -23.64205078 14.86919922 -22.51171875 14.86328125 C-17.90678461 14.87140283 -13.54262046 15.24289659 -9 16 C-10.32 13.03 -11.64 10.06 -13 7 C-8.71 6.01 -4.42 5.02 0 4 C0 2.68 0 1.36 0 0 Z " fill="#F0BE59" transform="translate(256,91)"/>
<path d="M0 0 C1.92763565 2.38440149 3.83188819 4.76984692 5.640625 7.24609375 C9.08342658 11.93398619 12.50673683 15.502681 17.30078125 18.80859375 C19 20 19 20 21 22 C20.443125 22.4640625 19.88625 22.928125 19.3125 23.40625 C6.74021877 34.78926138 1.73187269 50.10546734 0.65625 66.70703125 C0.22531505 76.81386548 1.40921821 84.81843641 6 94 C6.40347656 94.84820312 6.80695313 95.69640625 7.22265625 96.5703125 C8.11136572 98.39869685 9.04881823 100.20332332 10 102 C7.01119272 102.72929502 4.01325482 103.38007236 1 104 C-0.36125 104.309375 -0.36125 104.309375 -1.75 104.625 C-4.49061541 103.86371794 -4.90499647 103.17889399 -6.5 100.875 C-16.93481222 82.17792321 -19.0755161 58.78454345 -13.40625 38.23046875 C-10.95478539 30.33844083 -7.26071427 21.68825548 -1.765625 15.47265625 C0.55751475 12.21923267 0.40956127 10.13664153 0.25 6.1875 C0.19585937 4.44533203 0.19585937 4.44533203 0.140625 2.66796875 C0.09421875 1.78753906 0.0478125 0.90710938 0 0 Z " fill="#1E4F7E" transform="translate(114,200)"/>
<path d="M0 0 C1.92005859 0.01933594 1.92005859 0.01933594 3.87890625 0.0390625 C7.26181422 0.35841495 9.51973388 0.65466836 12.4375 2.375 C13.80078125 4.65234375 13.80078125 4.65234375 14.75 7.3125 C15.23919922 8.62541016 15.23919922 8.62541016 15.73828125 9.96484375 C16.4375 12.375 16.4375 12.375 16.4375 15.375 C11.88934753 16.75728163 7.24945581 16.59490927 2.53125 16.703125 C-0.70042799 17.11567167 -0.70042799 17.11567167 -2.8046875 19.58984375 C-4.47974881 22.24388533 -5.90339304 24.82518415 -7.1875 27.6875 C-7.59226563 28.57050781 -7.99703125 29.45351563 -8.4140625 30.36328125 C-11.63886077 38.82015019 -12.11319379 47.01891359 -12.625 56 C-12.7822353 58.57554019 -12.93978611 61.15106114 -13.09765625 63.7265625 C-13.17258301 64.9837207 -13.24750977 66.24087891 -13.32470703 67.53613281 C-13.69324025 73.48563629 -14.12455399 79.43021376 -14.5625 85.375 C-15.2225 85.375 -15.8825 85.375 -16.5625 85.375 C-16.81 84.199375 -17.0575 83.02375 -17.3125 81.8125 C-18.48277898 78.464687 -19.27759282 77.53354019 -22.43359375 75.77734375 C-23.52800781 75.27332031 -24.62242187 74.76929688 -25.75 74.25 C-28.98828125 72.51171875 -28.98828125 72.51171875 -31.5625 70.375 C-32.76321376 66.27941472 -32.40862188 62.62713562 -31.83300781 58.42724609 C-31.54889446 56.27177963 -31.37222521 54.12498331 -31.2109375 51.95703125 C-29.82229925 34.9229471 -25.53141606 17.20765227 -13.5625 4.375 C-8.98278677 0.58272027 -5.90620965 -0.13111666 0 0 Z " fill="#F3C059" transform="translate(197.5625,237.625)"/>
<path d="M0 0 C2.82369896 2.48608278 5.0988771 5.18298703 7.484375 8.08984375 C11.73006222 13.00139185 16.70041213 17.06583097 23.0078125 18.8515625 C26.59179286 19.02935787 27.7795698 18.36144997 30.625 16.25 C31.35976563 15.71890625 32.09453125 15.1878125 32.8515625 14.640625 C34.25916547 13.56572819 35.63311364 12.44492423 36.96484375 11.27734375 C39.60184955 9.62225566 40.90121796 9.77448392 43.9375 10.3125 C48.0220625 11.26576569 49.85037569 12.40498889 52.125 15.9375 C53.59530911 18.64996681 54 19.85026865 54 23 C47.37731047 25.61114852 40.64035566 27.81006616 33.8125 29.8125 C33.06500488 30.04348389 32.31750977 30.27446777 31.54736328 30.51245117 C22.15104072 33.19341647 14.57901753 30.3662111 5.5625 27.5 C-4.40176254 24.43943844 -13.59420886 22.90103188 -24 23 C-24.67057887 21.2097939 -25.3363469 19.41778511 -26 17.625 C-26.37125 16.62726563 -26.7425 15.62953125 -27.125 14.6015625 C-28 12 -28 12 -28 10 C-33.94 9.01 -33.94 9.01 -40 8 C-40 7.67 -40 7.34 -40 7 C-34.98391475 5.9823597 -30.21391694 5.88143566 -25.125 5.9375 C-24.34125 5.94201172 -23.5575 5.94652344 -22.75 5.95117188 C-20.83329986 5.96285907 -18.91663952 5.98079092 -17 6 C-16.67 5.01 -16.34 4.02 -16 3 C-11.13306136 -0.36941906 -5.70773415 -1.7477825 0 0 Z " fill="#B58F69" transform="translate(238,230)"/>
<path d="M0 0 C-0.33 11.22 -0.66 22.44 -1 34 C-19.29890247 40.86208843 -41.51083951 44.15785825 -60 36 C-61.34088237 35.3486501 -62.67736457 34.68764652 -64 34 C-63.45298368 26.55769906 -62.45801591 19.31839056 -61 12 C-58.38102975 13.03229484 -55.78403285 14.09410859 -53.203125 15.21875 C-52.22859375 15.6415625 -51.2540625 16.064375 -50.25 16.5 C-49.28578125 16.9228125 -48.3215625 17.345625 -47.328125 17.78125 C-39.82511841 20.52882988 -32.83204862 21.30255626 -24.875 21.1875 C-24.02035156 21.18685547 -23.16570312 21.18621094 -22.28515625 21.18554688 C-17.42547908 21.15195464 -12.79163215 20.81159081 -8 20 C-8.54140625 18.30230469 -8.54140625 18.30230469 -9.09375 16.5703125 C-9.56264982 15.08858907 -10.03139164 13.60681563 -10.5 12.125 C-10.73847656 11.37863281 -10.97695312 10.63226563 -11.22265625 9.86328125 C-13 4.2265625 -13 4.2265625 -13 2 C-10.73548507 0.86774254 -9.01180526 0.69438917 -6.5 0.4375 C-5.7059375 0.35371094 -4.911875 0.26992188 -4.09375 0.18359375 C-2 0 -2 0 0 0 Z " fill="#F2BF58" transform="translate(244,62)"/>
<path d="M0 0 C2.05400758 0.45936272 4.10794461 0.91904215 6.16162109 1.37988281 C8.14272414 1.81270595 10.12785845 2.22730387 12.11572266 2.62792969 C15.52783287 3.32555246 18.918006 4.09649885 22.3125 4.875 C24.06143555 5.21144531 24.06143555 5.21144531 25.84570312 5.5546875 C29.28542616 6.37847839 31.97927055 7.15085002 35 9 C37.21805472 12.86159142 38.06856032 16.68130224 39 21 C44.52835705 31.2941821 53.764011 35.50698676 64.53417969 38.76708984 C68.27774315 39.85769795 72.02670628 40.92309393 75.78955078 41.9453125 C76.66337402 42.18378906 77.53719727 42.42226562 78.4375 42.66796875 C79.61119141 42.98157349 79.61119141 42.98157349 80.80859375 43.30151367 C83.05041937 44.01607061 84.98575267 44.78051774 87 46 C88.94727814 50.32447483 89.40998286 54.54976302 89.75 59.25 C89.84796875 60.47203125 89.9459375 61.6940625 90.046875 62.953125 C90 66 90 66 88 68 C87.70867187 67.154375 87.41734375 66.30875 87.1171875 65.4375 C83.78271038 56.21001614 80.27731137 47.52144144 71 43 C66.80459037 41.62584262 62.54053588 40.59477598 58.25 39.5625 C55.81088212 38.95439027 53.37207992 38.34501292 50.93359375 37.734375 C49.74620605 37.43982422 48.55881836 37.14527344 47.33544922 36.84179688 C42.97220662 35.74060668 38.64068468 34.54314815 34.3125 33.3125 C26.25001261 31.03522376 18.13892284 28.98483268 10 27 C10 29.31 10 31.62 10 34 C3.53955432 28.25738162 -0.63201868 20.36379551 -1.23046875 11.640625 C-1.21628906 10.52171875 -1.20210937 9.4028125 -1.1875 8.25 C-1.17783203 6.55617187 -1.17783203 6.55617187 -1.16796875 4.828125 C-1 2 -1 2 0 0 Z " fill="#D0D0D0" transform="translate(142,131)"/>
<path d="M0 0 C0.33 0 0.66 0 1 0 C1 4.95 1 9.9 1 15 C0.34 15 -0.32 15 -1 15 C-1.47566406 15.99966797 -1.47566406 15.99966797 -1.9609375 17.01953125 C-8.12787328 29.20008119 -16.41358076 38.33878173 -29 44 C-31.85546875 44.6796875 -31.85546875 44.6796875 -34 45 C-33.9278125 46.17433594 -33.855625 47.34867188 -33.78125 48.55859375 C-33.14652213 59.38743598 -32.87501151 70.1537766 -33 81 C-36.72163331 79.50638174 -38.48887846 77.44940996 -40.890625 74.28125 C-41.59960938 73.34925781 -42.30859375 72.41726562 -43.0390625 71.45703125 C-43.76867187 70.48121094 -44.49828125 69.50539063 -45.25 68.5 C-45.99507812 67.52417969 -46.74015625 66.54835938 -47.5078125 65.54296875 C-53 58.27034684 -53 58.27034684 -53 56 C-53.82177734 56.19916016 -53.82177734 56.19916016 -54.66015625 56.40234375 C-74.40044994 60.79977503 -74.40044994 60.79977503 -80 58 C-82.29778123 57.74210837 -84.60130682 57.53471172 -86.90625 57.3515625 C-88.30343578 57.23235963 -89.70056984 57.11254934 -91.09765625 56.9921875 C-93.30280458 56.80616963 -95.50800833 56.62437841 -97.71435547 56.453125 C-99.8420843 56.28598361 -101.9677195 56.10142578 -104.09375 55.9140625 C-105.36927734 55.8104541 -106.64480469 55.7068457 -107.95898438 55.60009766 C-108.96251953 55.40206543 -109.96605469 55.2040332 -111 55 C-111.66 54.01 -112.32 53.02 -113 52 C-116.5646593 49.9476204 -120.45957978 49.15889205 -124.546875 49.2265625 C-129.06703615 50.65170885 -131.5070644 54.54370127 -134.44921875 58.08984375 C-138.73289418 62.97703853 -143.69293049 67.09652225 -150.03125 68.828125 C-156.89959847 69.22576623 -162.51831324 62.65114986 -167.375 58.375 C-169.72264608 56.25093926 -171.738489 54.39466883 -173.48828125 51.75390625 C-174.87577094 49.7891295 -174.87577094 49.7891295 -177.26953125 49.50390625 C-182.55423671 49.62567366 -186.46166761 49.97444507 -191 53 C-191.495 53.99 -191.495 53.99 -192 55 C-193.06476563 55.04898438 -194.12953125 55.09796875 -195.2265625 55.1484375 C-202.19694358 55.498452 -209.04229974 55.92005201 -215.9375 57.0625 C-221.44580883 57.90944228 -226.8132659 58.21748858 -232.375 58.25 C-233.11226318 58.259104 -233.84952637 58.26820801 -234.60913086 58.27758789 C-239.69796737 58.24946009 -244.10475117 57.39232811 -249 56 C-249.33 56.99 -249.66 57.98 -250 59 C-252.5625 60.1875 -252.5625 60.1875 -255 61 C-253.61971718 58.02708316 -252.2812281 55.37167326 -250 53 C-247.49609375 52.828125 -247.49609375 52.828125 -244.4375 53.25 C-230.6900272 54.66850982 -218.42565457 54.19071136 -204.8125 51.6875 C-203.65411621 51.47464355 -202.49573242 51.26178711 -201.30224609 51.04248047 C-195.46683939 49.898567 -190.39600437 48.45973706 -185 46 C-180.56345527 45.0765563 -176.68858913 44.94977993 -172.7578125 47.39453125 C-170.70873536 49.16910938 -168.8418234 51.01233086 -167 53 C-163.95222031 56.12592789 -160.85301448 59.07990062 -157.5 61.875 C-156.7678125 62.49117187 -156.035625 63.10734375 -155.28125 63.7421875 C-153.0816621 65.20344147 -153.0816621 65.20344147 -150.5859375 64.94921875 C-142.58864431 62.01365645 -135.52729494 55.07899664 -130.3046875 48.53125 C-128.65048582 46.58979175 -127.52967551 46.06322937 -125.00390625 45.76171875 C-119.00106028 45.57923223 -114.66050224 46.6982991 -109.12109375 48.9140625 C-96.99643956 53.13265307 -83.74011022 54.05841406 -71 54.125 C-70.26410645 54.12975342 -69.52821289 54.13450684 -68.77001953 54.1394043 C-67.67729736 54.13614136 -67.67729736 54.13614136 -66.5625 54.1328125 C-65.82314209 54.13289307 -65.08378418 54.13297363 -64.32202148 54.13305664 C-61.94962141 54.05669897 -61.94962141 54.05669897 -59.47680664 53.45874023 C-56.79077377 52.91734352 -54.71963209 52.62284505 -52 53 C-48.76651436 55.43816773 -46.68937374 58.47852454 -44.4375 61.8125 C-43.82326172 62.65876953 -43.20902344 63.50503906 -42.57617188 64.37695312 C-38.43690665 70.12618671 -38.43690665 70.12618671 -37 73 C-37 62.77 -37 52.54 -37 42 C-32.71 40.35 -28.42 38.7 -24 37 C-15.11534869 31.19080491 -9.32346111 23.66420719 -5 14 C-6.0725 14.350625 -7.145 14.70125 -8.25 15.0625 C-11.78720743 15.94680186 -12.74811124 16.02880551 -16 15 C-14.23519919 13.1812664 -12.46369235 11.37005009 -10.6875 9.5625 C-10.18798828 9.04623047 -9.68847656 8.52996094 -9.17382812 7.99804688 C-6.80130365 5.59409824 -5.25029621 4.08343207 -2 3 C-1.34 2.01 -0.68 1.02 0 0 Z " fill="#631D22" transform="translate(413,181)"/>
<path d="M0 0 C5.80641912 0.06895985 8.85806666 0.64249166 13.375 4.3125 C16.12370163 7.62735211 17.25505274 10.48786259 17.875 14.75 C17.01773548 20.85800973 15.14388164 24.83843197 10.375 28.8125 C5.33921283 31.24882036 -0.18906775 31.03829902 -5.625 30.3125 C-10.60091557 28.17996475 -12.79829015 25.21013226 -14.93359375 20.39453125 C-16.49430612 15.69475898 -16.0781286 12.3509197 -14.125 7.875 C-13.63 7.029375 -13.135 6.18375 -12.625 5.3125 C-10.625 6.3125 -8.625 7.3125 -6.625 8.3125 C-6.645625 7.178125 -6.66625 6.04375 -6.6875 4.875 C-6.59020591 -0.67076327 -5.07660377 0.1196718 0 0 Z " fill="#4E91BF" transform="translate(386.625,253.6875)"/>
<path d="M0 0 C0 2.64 0 5.28 0 8 C0.99 8 1.98 8 3 8 C3.66 6.68 4.32 5.36 5 4 C10.90405117 9.75266525 10.90405117 9.75266525 11.25 14.25 C10.8786829 19.81975649 8.90581861 23.36902097 5.125 27.375 C0.82069774 30.84591608 -3.53982454 30.78212916 -8.8984375 30.5234375 C-14.53149634 29.57277014 -17.26987602 26.95336578 -20.9375 22.8125 C-22.56047531 18.5163889 -22.64715757 14.53010302 -22 10 C-17.18529519 0.00022848 -10.08569703 -0.58751633 0 0 Z " fill="#4D91BF" transform="translate(144,254)"/>
<path d="M0 0 C-0.78425578 4.78638579 -2.34338449 7.79626806 -6 11 C-12.30092783 15.2676497 -18.40781121 17.4500609 -26 16 C-32.64806631 13.7675872 -38.44000399 10.20043586 -42 4 C-42.65234375 1.28125 -42.65234375 1.28125 -43 -1 C-41.43979133 -1.65134925 -39.87671421 -2.29582964 -38.3125 -2.9375 C-37.44238281 -3.29714844 -36.57226562 -3.65679687 -35.67578125 -4.02734375 C-23.43030857 -8.47861776 -11.46404081 -5.0246647 0 0 Z " fill="#FCFCF9" transform="translate(325,62)"/>
<path d="M0 0 C1.21236328 0.01353516 1.21236328 0.01353516 2.44921875 0.02734375 C3.37154297 0.04474609 3.37154297 0.04474609 4.3125 0.0625 C4.0959375 0.59617187 3.879375 1.12984375 3.65625 1.6796875 C0.17246463 11.0020391 0.40421355 18.12365905 4.4375 27.2265625 C4.72625 27.83242187 5.015 28.43828125 5.3125 29.0625 C7.9525 29.3925 10.5925 29.7225 13.3125 30.0625 C13.3125 30.3925 13.3125 30.7225 13.3125 31.0625 C-0.53777309 31.66565705 -12.62909848 29.80404139 -23.4609375 20.546875 C-24.6875 19.0625 -24.6875 19.0625 -24.75 16.3125 C-22.60810339 9.76081624 -18.56346498 6.26355606 -12.5 3.1875 C-8.21353862 1.19900333 -4.75387848 -0.06889679 0 0 Z " fill="#B17821" transform="translate(227.6875,105.9375)"/>
<path d="M0 0 C0.66 0 1.32 0 2 0 C2.09796875 0.845625 2.1959375 1.69125 2.296875 2.5625 C3.40238044 10.94909298 4.61687768 17.515738 10.61328125 23.69140625 C13.76978046 27.43578379 13.61379354 30.77370921 13.375 35.5 C13.3450293 36.67344971 13.3450293 36.67344971 13.31445312 37.87060547 C13.2428953 40.24990326 13.13032852 42.62324558 13 45 C12.94054199 46.08909668 12.94054199 46.08909668 12.87988281 47.20019531 C12.64967895 51.13944375 12.35382347 55.07003213 12 59 C11.34 59 10.68 59 10 59 C9.7525 57.824375 9.505 56.64875 9.25 55.4375 C8.07972102 52.089687 7.28490718 51.15854019 4.12890625 49.40234375 C3.03449219 48.89832031 1.94007813 48.39429688 0.8125 47.875 C-2.42578125 46.13671875 -2.42578125 46.13671875 -5 44 C-6.19938321 39.90895316 -5.84917595 36.25668439 -5.27490234 32.06103516 C-4.98400688 29.88009421 -4.79199331 27.70457664 -4.61328125 25.51171875 C-3.84747629 16.78872162 -2.4772104 8.42251537 0 0 Z " fill="#EDEA79" transform="translate(171,264)"/>
<path d="M0 0 C2.97 0 5.94 0 9 0 C9.33 4.62 9.66 9.24 10 14 C12.64 13.01 15.28 12.02 18 11 C18.79275148 12.4160599 19.58415312 13.83287553 20.375 15.25 C20.81585938 16.03890625 21.25671875 16.8278125 21.7109375 17.640625 C22.85747823 19.73914197 23.94649552 21.8536077 25 24 C23.21046815 24.83790789 21.41830305 25.67019396 19.625 26.5 C18.62726563 26.9640625 17.62953125 27.428125 16.6015625 27.90625 C14 29 14 29 12 29 C12 30.32 12 31.64 12 33 C7.30879638 34.90828622 4.07800043 36.0882491 -1 36 C-1.02480062 31.67668037 -1.04290758 27.35339894 -1.05493164 23.0300293 C-1.05994669 21.56062091 -1.06676033 20.09121748 -1.07543945 18.62182617 C-1.08762928 16.50438205 -1.09325669 14.38700417 -1.09765625 12.26953125 C-1.10289307 10.99698486 -1.10812988 9.72443848 -1.11352539 8.41333008 C-1.01539606 5.4629081 -0.69063835 2.86053325 0 0 Z " fill="#EFEC78" transform="translate(244,62)"/>
<path d="M0 0 C3.20895173 2.6240944 5.68020915 5.57215263 8 9 C8 9.33 8 9.66 8 10 C3.545 10.495 3.545 10.495 -1 11 C-1.2475 11.70125 -1.495 12.4025 -1.75 13.125 C-3.24972277 16.57436238 -4.53166836 19.1254872 -7 22 C-9.91258928 22.87674125 -12.72389657 22.88503683 -15.75 22.875 C-16.93916016 22.9059375 -16.93916016 22.9059375 -18.15234375 22.9375 C-20.10110815 22.98445818 -22.05067457 22.99574383 -24 23 C-24.67057887 21.2097939 -25.3363469 19.41778511 -26 17.625 C-26.37125 16.62726563 -26.7425 15.62953125 -27.125 14.6015625 C-28 12 -28 12 -28 10 C-33.94 9.01 -33.94 9.01 -40 8 C-40 7.67 -40 7.34 -40 7 C-34.98391475 5.9823597 -30.21391694 5.88143566 -25.125 5.9375 C-24.34125 5.94201172 -23.5575 5.94652344 -22.75 5.95117188 C-20.83329986 5.96285907 -18.91663952 5.98079092 -17 6 C-16.67 5.01 -16.34 4.02 -16 3 C-11.14873172 -0.35857034 -5.71262555 -1.56834352 0 0 Z " fill="#B1771F" transform="translate(238,230)"/>
<path d="M0 0 C-0.86882812 0.26554687 -1.73765625 0.53109375 -2.6328125 0.8046875 C-4.36144531 1.33449219 -4.36144531 1.33449219 -6.125 1.875 C-7.26195312 2.22304688 -8.39890625 2.57109375 -9.5703125 2.9296875 C-10.70210938 3.28289062 -11.83390625 3.63609375 -13 4 C-14.57201172 4.43505859 -14.57201172 4.43505859 -16.17578125 4.87890625 C-19.3773097 6.14977577 -20.79118471 7.50219032 -23.0625 10.0625 C-36.18395013 23.70968436 -57.76002194 35.33405062 -76.97192383 36.07617188 C-79.10729604 36.09787331 -81.23968359 36.08759866 -83.375 36.0625 C-84.11105469 36.05798828 -84.84710938 36.05347656 -85.60546875 36.04882812 C-87.40368158 36.03715142 -89.20185197 36.01922011 -91 36 C-91.66 34.02 -92.32 32.04 -93 30 C-92.42258057 29.96559814 -91.84516113 29.93119629 -91.25024414 29.89575195 C-65.82187521 28.27137858 -42.51755147 21.99120744 -24.75 2.4375 C-19.15517222 -2.60211586 -6.74168191 -1.89530833 0 0 Z " fill="#B48E6B" transform="translate(355,339)"/>
<path d="M0 0 C1.13622803 0.00628418 1.13622803 0.00628418 2.29541016 0.01269531 C8.67973927 0.14217254 13.81603624 0.7020784 18.75 5.1875 C19.6875 7.3125 19.6875 7.3125 19.75 9.875 C18.6875 12.3125 18.6875 12.3125 15.875 14.0625 C10.08283289 16.33393808 5.0462839 16.5266985 -1.125 16.5625 C-2.44081055 16.5934375 -2.44081055 16.5934375 -3.78320312 16.625 C-9.41933145 16.65872403 -13.31429601 15.95507514 -18.3125 13.3125 C-19.3125 12.3125 -19.3125 12.3125 -19.75 10.0625 C-19.20901294 6.66200988 -17.75817584 5.5239276 -15.11328125 3.42578125 C-10.1932726 0.38412731 -5.69716417 -0.0423581 0 0 Z " fill="#5F2F35" transform="translate(260.3125,305.6875)"/>
<path d="M0 0 C2.1640625 0.5234375 2.1640625 0.5234375 4.7265625 2.0234375 C6.87935477 5.76742406 6.48864614 9.30385024 6.1640625 13.5234375 C6.9684375 13.6678125 7.7728125 13.8121875 8.6015625 13.9609375 C11.1640625 14.5234375 11.1640625 14.5234375 12.1640625 15.5234375 C12.6266712 21.76865489 12.6266712 21.76865489 10.9765625 24.4609375 C8.42792065 25.95496893 7.07047378 26.09054214 4.1640625 25.5234375 C0.1640625 21.41532939 0.1640625 21.41532939 0.1640625 18.5234375 C-1.41375 18.678125 -1.41375 18.678125 -3.0234375 18.8359375 C-6.8359375 18.5234375 -6.8359375 18.5234375 -9.7109375 16.4609375 C-12.25327552 12.94652906 -12.8359375 10.84843179 -12.8359375 6.5234375 C-9.96817892 0.0709807 -6.55418109 -0.96071058 0 0 Z " fill="#F9F8FA" transform="translate(338.8359375,37.4765625)"/>
<path d="M0 0 C0 7.92 0 15.84 0 24 C-8.415 24.495 -8.415 24.495 -17 25 C-17 18.07 -17 11.14 -17 4 C-3.375 0 -3.375 0 0 0 Z " fill="#B07820" transform="translate(358,310)"/>
<path d="M0 0 C1.423125 0.433125 1.423125 0.433125 2.875 0.875 C11.77056592 3.3752429 20.18970355 4.38648081 29.4375 4.375 C30.92733398 4.37693359 30.92733398 4.37693359 32.44726562 4.37890625 C41.63694733 4.24385415 50.14496569 2.29574964 59 0 C53.77804384 7.19783147 46.84872533 11.41756372 38 13 C24.76802053 13.75945136 13.58776092 12.8556119 3 4 C1.95855875 2.6987783 0.94559807 1.37245112 0 0 Z " fill="#B7936E" transform="translate(232,325)"/>
<path d="M0 0 C5 2 5 2 10 4 C9.94199219 5.03640625 9.88398438 6.0728125 9.82421875 7.140625 C9.77730962 8.51037156 9.73181068 9.88016692 9.6875 11.25 C9.64560547 11.93191406 9.60371094 12.61382812 9.56054688 13.31640625 C9.47159104 16.98138659 9.66397289 18.6306128 12.1640625 21.37890625 C19.59731928 25.62794422 28.57325306 26.45934588 37 27 C37 27.33 37 27.66 37 28 C22.57998376 28.48048241 10.09064311 28.80590813 -3 22 C-2.45298368 14.55769906 -1.45801591 7.31839056 0 0 Z " fill="#B07823" transform="translate(183,74)"/>
<path d="M0 0 C1.57366624 5.50783186 2.92026305 10.29436909 2 16 C-0.38047994 18.4964662 -3.05482588 20.23176927 -6 22 C-6.99 22.66 -7.98 23.32 -9 24 C-15.09994279 23.88490674 -17.76001706 22.03315451 -22 18 C-20.77746756 14.33240268 -19.68362496 13.88087362 -16.5 11.8125 C-11.89372359 8.7151762 -7.85089399 5.30432345 -3.8125 1.50390625 C-2 0 -2 0 0 0 Z " fill="#EEEB78" transform="translate(292,100)"/>
<path d="M0 0 C0.66 0 1.32 0 2 0 C6.62 8.25 11.24 16.5 16 25 C14 26 14 26 11.70922852 25.24316406 C10.77522217 24.83807617 9.84121582 24.43298828 8.87890625 24.015625 C7.86119141 23.57476562 6.84347656 23.13390625 5.79492188 22.6796875 C4.72822266 22.20789063 3.66152344 21.73609375 2.5625 21.25 C1.49966797 20.79367187 0.43683594 20.33734375 -0.65820312 19.8671875 C-9.31369535 16.07869881 -9.31369535 16.07869881 -12 13 C-11.21753906 12.22914063 -10.43507812 11.45828125 -9.62890625 10.6640625 C-8.60663943 9.65117427 -7.58451119 8.63814616 -6.5625 7.625 C-6.04623047 7.11710937 -5.52996094 6.60921875 -4.99804688 6.0859375 C-2.142867 3.31431064 -2.142867 3.31431064 0 0 Z " fill="#1C6CB4" transform="translate(152,471)"/>
<path d="M0 0 C0.76699219 0.00515625 1.53398437 0.0103125 2.32421875 0.015625 C3.08347656 0.01046875 3.84273438 0.0053125 4.625 0 C7.35506417 0.30383693 9.5126436 1.15099325 12.01171875 2.265625 C11.49633923 9.39956252 10.57165974 16.28375317 9.01171875 23.265625 C4.45914101 22.76828457 4.45914101 22.76828457 2.4296875 20.48828125 C2.02363281 19.77542969 1.61757813 19.06257813 1.19921875 18.328125 C0.78027344 17.61785156 0.36132812 16.90757812 -0.0703125 16.17578125 C-0.98828125 14.265625 -0.98828125 14.265625 -0.98828125 12.265625 C-5.44328125 11.275625 -5.44328125 11.275625 -9.98828125 10.265625 C-9.03195126 8.97247439 -8.07314274 7.68115647 -7.11328125 6.390625 C-6.57960938 5.67132813 -6.0459375 4.95203125 -5.49609375 4.2109375 C-2.49003715 0.33265722 -2.49003715 0.33265722 0 0 Z " fill="#EFEB78" transform="translate(287.98828125,229.734375)"/>
<path d="M0 0 C1.27875 0.28875 2.5575 0.5775 3.875 0.875 C8.90171927 1.99382464 13.94685368 3.0083596 19 4 C18.88140625 5.03640625 18.7628125 6.0728125 18.640625 7.140625 C18.50928547 8.51030867 18.37913962 9.88010717 18.25 11.25 C18.16878906 11.93191406 18.08757812 12.61382812 18.00390625 13.31640625 C17.75905891 15.60225287 17.75905891 15.60225287 18 19 C19.86468263 21.36650994 19.86468263 21.36650994 22 23 C22 23.66 22 24.32 22 25 C16.76119922 24.44854729 12.02649303 23.57077907 7 22 C6.95875 21.0925 6.9175 20.185 6.875 19.25 C6.20692715 14.23431461 3.64942461 10.06999197 1.27734375 5.671875 C0 3 0 3 0 0 Z " fill="#D0CFCF" transform="translate(293,208)"/>
<path d="M0 0 C2.68835604 0.84503025 5.26278429 1.86761371 7.87890625 2.9140625 C20.65153462 7.35810591 34.71554408 8.18491779 48.125 8.0625 C49.08148438 8.05798828 50.03796875 8.05347656 51.0234375 8.04882812 C53.34902758 8.03720017 55.6744776 8.02086102 58 8 C57.67 8.99 57.34 9.98 57 11 C53.48070466 12.17309845 50.10817622 12.38885432 46.4375 12.625 C45.40979492 12.70234375 45.40979492 12.70234375 44.36132812 12.78125 C39.24530574 13.12265287 39.24530574 13.12265287 37 12 C34.70221877 11.74210837 32.39869318 11.53471172 30.09375 11.3515625 C28.69656422 11.23235963 27.29943016 11.11254934 25.90234375 10.9921875 C23.69719542 10.80616963 21.49199167 10.62437841 19.28564453 10.453125 C17.1579157 10.28598361 15.0322805 10.10142578 12.90625 9.9140625 C11.63072266 9.8104541 10.35519531 9.7068457 9.04101562 9.60009766 C8.03748047 9.40206543 7.03394531 9.2040332 6 9 C5.34 8.01 4.68 7.02 4 6 C-0.37678527 3.48003272 -5.08625492 3.40517823 -10 4 C-13.45346148 5.34746524 -13.45346148 5.34746524 -16 7 C-12.88222732 -0.53461731 -7.37311152 -0.96216491 0 0 Z " fill="#662125" transform="translate(296,227)"/>
<path d="M0 0 C0.556875 0.19335938 1.11375 0.38671875 1.6875 0.5859375 C2.450625 0.84632812 3.21375 1.10671875 4 1.375 C5.11375 1.75785156 5.11375 1.75785156 6.25 2.1484375 C13.7486795 4.47047178 20.21902338 5.35546369 28.0625 5.3125 C29.57952515 5.30839111 29.57952515 5.30839111 31.12719727 5.30419922 C39.40659493 5.18956445 46.97333433 4.09880926 55 2 C55.886875 1.78730469 56.77375 1.57460937 57.6875 1.35546875 C59.46406789 0.92674837 61.23354571 0.46865114 63 0 C64.65 3.96 66.3 7.92 68 12 C66.68 12 65.36 12 64 12 C63.34 9.36 62.68 6.72 62 4 C61.42894531 4.19335938 60.85789063 4.38671875 60.26953125 4.5859375 C41.84792992 10.50193666 17.87982375 12.74124717 0 4 C0 2.68 0 1.36 0 0 Z " fill="#3A2C6B" transform="translate(180,96)"/>
<path d="M0 0 C2.71843438 3.62457917 3.41789544 4.80884715 4 9 C4.66 9 5.32 9 6 9 C7.34287473 11.74569923 8.67446996 14.49594266 10 17.25 C10.57234375 18.41595703 10.57234375 18.41595703 11.15625 19.60546875 C11.5171875 20.35957031 11.878125 21.11367187 12.25 21.890625 C12.58515625 22.58188477 12.9203125 23.27314453 13.265625 23.98535156 C14 26 14 26 14 30 C6.575 29.01 6.575 29.01 -1 28 C-0.67 18.76 -0.34 9.52 0 0 Z " fill="#FBFAFA" transform="translate(287,199)"/>
<path d="M0 0 C1.58193864 2.37290796 2.53089868 4.11962201 3.5078125 6.72265625 C3.77207031 7.42583984 4.03632813 8.12902344 4.30859375 8.85351562 C4.57800781 9.58248047 4.84742188 10.31144531 5.125 11.0625 C5.54072266 12.16174805 5.54072266 12.16174805 5.96484375 13.28320312 C8 18.74203356 8 18.74203356 8 21 C-1.405 23.475 -1.405 23.475 -11 26 C-9.74109573 22.85273932 -8.47569564 19.76567204 -7.08984375 16.6796875 C-6.73986328 15.89722656 -6.38988281 15.11476563 -6.02929688 14.30859375 C-5.29786008 12.67823552 -4.56608596 11.04802857 -3.83398438 9.41796875 C-3.48529297 8.63808594 -3.13660156 7.85820313 -2.77734375 7.0546875 C-2.46015381 6.34812012 -2.14296387 5.64155273 -1.81616211 4.91357422 C-0.9028746 2.84414064 -0.9028746 2.84414064 0 0 Z " fill="#33315E" transform="translate(396,101)"/>
<path d="M0 0 C-0.66 1.65 -1.32 3.3 -2 5 C-3.06476563 5.04898438 -4.12953125 5.09796875 -5.2265625 5.1484375 C-12.19694358 5.498452 -19.04229974 5.92005201 -25.9375 7.0625 C-31.44580883 7.90944228 -36.8132659 8.21748858 -42.375 8.25 C-43.11226318 8.259104 -43.84952637 8.26820801 -44.60913086 8.27758789 C-49.69796737 8.24946009 -54.10475117 7.39232811 -59 6 C-59.33 6.99 -59.66 7.98 -60 9 C-62.5625 10.1875 -62.5625 10.1875 -65 11 C-63.61971718 8.02708316 -62.2812281 5.37167326 -60 3 C-57.49609375 2.828125 -57.49609375 2.828125 -54.4375 3.25 C-39.1776529 4.82456161 -25.91349303 3.78026156 -10.86279297 0.69091797 C-9.74275879 0.46162598 -8.62272461 0.23233398 -7.46875 -0.00390625 C-6.46263672 -0.21861572 -5.45652344 -0.4333252 -4.41992188 -0.65454102 C-2 -1 -2 -1 0 0 Z " fill="#611E24" transform="translate(223,231)"/>
<path d="M0 0 C2.37718618 1.43695583 3.58176399 2.95887711 5.09375 5.265625 C3.95873047 5.02392578 3.95873047 5.02392578 2.80078125 4.77734375 C-2.21749289 4.08462098 -7.15887874 4.08136643 -12.21875 4.078125 C-13.21326172 4.06587891 -14.20777344 4.05363281 -15.23242188 4.04101562 C-21.44105653 4.02878588 -26.89801003 4.69040768 -32.90625 6.265625 C-24.01132106 -4.0639699 -12.19869586 -4.99037558 0 0 Z " fill="#BA9570" transform="translate(274.90625,288.734375)"/>
<path d="M0 0 C0.66 0.33 1.32 0.66 2 1 C1.67 2.98 1.34 4.96 1 7 C12.13622371 16.33203104 23.64611267 18.89326767 38 18 C43.05047033 17.20635466 48.01450098 16.12558073 53 15 C54.97793935 14.59807883 56.95694699 14.20133738 58.9375 13.8125 C59.73027344 13.65394531 60.52304687 13.49539062 61.33984375 13.33203125 C61.88769531 13.22246094 62.43554688 13.11289063 63 13 C63.495 13.99 63.495 13.99 64 15 C61.98135603 15.65264429 59.95996273 16.29678746 57.9375 16.9375 C56.81214844 17.29714844 55.68679688 17.65679687 54.52734375 18.02734375 C46.96063156 20.11384578 39.54628749 20.21291897 31.75 20.25 C30.68136719 20.270625 29.61273438 20.29125 28.51171875 20.3125 C17.36776686 20.36666259 7.75955667 18.61187573 -0.4375 10.625 C-2 8 -2 8 -1.8125 4.8125 C-1 2 -1 2 0 0 Z " fill="#392C6B" transform="translate(203,118)"/>
<path d="M0 0 C0.33 0.66 0.66 1.32 1 2 C-8.79771993 5.6070373 -17.64512192 6.73414947 -28 7 C-27.75390625 5.10546875 -27.75390625 5.10546875 -27 3 C-19.27342472 -1.37895623 -8.50308399 -1.90614943 0 0 Z " fill="#3B3863" transform="translate(263,117)"/>
<path d="M0 0 C0.33 0 0.66 0 1 0 C1 4.95 1 9.9 1 15 C0.34 15 -0.32 15 -1 15 C-1.99 16.485 -1.99 16.485 -3 18 C-3.66 17.67 -4.32 17.34 -5 17 C-5 16.01 -5 15.02 -5 14 C-6.0725 14.350625 -7.145 14.70125 -8.25 15.0625 C-11.78720743 15.94680186 -12.74811124 16.02880551 -16 15 C-14.23519919 13.1812664 -12.46369235 11.37005009 -10.6875 9.5625 C-10.18798828 9.04623047 -9.68847656 8.52996094 -9.17382812 7.99804688 C-6.80130365 5.59409824 -5.25029621 4.08343207 -2 3 C-1.34 2.01 -0.68 1.02 0 0 Z " fill="#5B1821" transform="translate(413,181)"/>
<path d="M0 0 C3.1948843 4.0849547 5.5243672 8.45018836 8 13 C4.04 14.65 0.08 16.3 -4 18 C-4.33 13.05 -4.66 8.1 -5 3 C-3.35 2.01 -1.7 1.02 0 0 Z " fill="#F2C05A" transform="translate(261,73)"/>
<path d="M0 0 C3.5 0.25 3.5 0.25 5.5 2.25 C6.05416667 8.34583333 6.05416667 8.34583333 4.3125 11.1875 C1.79445572 12.66359492 0.37523324 12.74089348 -2.5 12.25 C-4.875 10.625 -4.875 10.625 -6.5 8.25 C-6.28905704 2.97642592 -5.62149309 0.40153522 0 0 Z " fill="#F5F9FB" transform="translate(394.5,258.75)"/>
<path d="M0 0 C0 0.99 0 1.98 0 3 C0.99 3 1.98 3 3 3 C3 2.34 3 1.68 3 1 C3.99 1 4.98 1 6 1 C7.41441874 3.82883747 7.31900332 5.87376745 7 9 C5.375 10.9375 5.375 10.9375 3 12 C-0.125 11.875 -0.125 11.875 -3 11 C-5.15502531 7.76746204 -5.46856135 6.74849077 -5 3 C-2.72413793 0 -2.72413793 0 0 0 Z " fill="#F5F9FB" transform="translate(144,259)"/>
<path d="M0 0 C15.00796163 -0.61256986 29.001775 0.43298807 42 9 C42.66 9.99 43.32 10.98 44 12 C40.65862133 11.58232767 38.50788642 10.73636773 35.5 9.125 C28.29272169 5.35693624 19.95470703 4.27800849 12 3 C12 2.34 12 1.68 12 1 C8.04 1 4.08 1 0 1 C0 0.67 0 0.34 0 0 Z " fill="#47386D" transform="translate(285,82)"/>
<path d="M0 0 C3.58074682 -0.51153526 6.02946876 -0.71384634 9.0234375 1.48828125 C10.82001927 3.25919757 12.49333032 4.97584195 14 7 C14 7.66 14 8.32 14 9 C8.72250715 8.46148032 4.74354436 7.22656164 0 5 C0 3.35 0 1.7 0 0 Z " fill="#65191A" transform="translate(238,250)"/>
<path d="M0 0 C0.1875 2.375 0.1875 2.375 0 5 C-3.14573677 7.09715785 -5.01456251 7.52004559 -8.6875 8.125 C-9.68136719 8.29257812 -10.67523438 8.46015625 -11.69921875 8.6328125 C-12.45847656 8.75398438 -13.21773438 8.87515625 -14 9 C-13.23587913 7.87043002 -12.46340197 6.74651022 -11.6875 5.625 C-11.25824219 4.99851563 -10.82898438 4.37203125 -10.38671875 3.7265625 C-7.27676499 -0.14554894 -4.67815837 -0.20791815 0 0 Z " fill="#621516" transform="translate(284,250)"/>
<path d="M0 0 C0.33 0 0.66 0 1 0 C1.12117187 0.73605469 1.24234375 1.47210938 1.3671875 2.23046875 C1.53476563 3.20628906 1.70234375 4.18210937 1.875 5.1875 C2.03742188 6.15042969 2.19984375 7.11335938 2.3671875 8.10546875 C2.98039517 10.91032604 3.85666343 13.37224747 5 16 C1.10674077 14.70224692 -1.56532028 13.37109499 -4 10 C-3.91173242 5.76315631 -2.86900035 3.10808371 0 0 Z " fill="#E8B658" transform="translate(207,115)"/>
<path d="M0 0 C-0.66 1.65 -1.32 3.3 -2 5 C-5.96 5 -9.92 5 -14 5 C-13.67 4.01 -13.34 3.02 -13 2 C-10.56640625 1.015625 -10.56640625 1.015625 -7.5625 0.25 C-6.57378906 -0.01296875 -5.58507812 -0.2759375 -4.56640625 -0.546875 C-2 -1 -2 -1 0 0 Z " fill="#5F1115" transform="translate(223,231)"/>
<path d="M0 0 C-6.78322677 4.52215118 -15.89610221 6.29545461 -24 6 C-24.66 5.34 -25.32 4.68 -26 4 C-24.99839844 3.80664062 -23.99679688 3.61328125 -22.96484375 3.4140625 C-21.62236492 3.15119951 -20.27991873 2.88816974 -18.9375 2.625 C-18.28072266 2.49867188 -17.62394531 2.37234375 -16.94726562 2.2421875 C-13.62957588 1.58845553 -10.39512641 0.85109974 -7.15625 -0.125 C-4.13410728 -0.96282174 -2.85312792 -1.14125117 0 0 Z " fill="#3F326B" transform="translate(267,132)"/>
<path d="M0 0 C0.66 0.33 1.32 0.66 2 1 C-1.01834862 11.01834862 -1.01834862 11.01834862 -4 14 C-4.99 14.33 -5.98 14.66 -7 15 C-5.46412283 10.27422409 -3.87228255 5.60269461 -2 1 C-1.34 0.67 -0.68 0.34 0 0 Z " fill="#6A252C" transform="translate(422,160)"/>
<path d="M0 0 C1.87939453 -0.34057617 1.87939453 -0.34057617 4.1328125 -0.29296875 C4.93847656 -0.28330078 5.74414062 -0.27363281 6.57421875 -0.26367188 C7.41597656 -0.23853516 8.25773437 -0.21339844 9.125 -0.1875 C9.97449219 -0.17396484 10.82398438 -0.16042969 11.69921875 -0.14648438 C13.79974837 -0.11108219 15.89995293 -0.05727401 18 0 C18 0.66 18 1.32 18 2 C11.4 2.33 4.8 2.66 -2 3 C-1.34 2.01 -0.68 1.02 0 0 Z " fill="#392C6A" transform="translate(279,83)"/>
<path d="M0 0 C2.475 0.495 2.475 0.495 5 1 C5.33 3.31 5.66 5.62 6 8 C5.01 8.66 4.02 9.32 3 10 C0 3.375 0 3.375 0 0 Z " fill="#641617" transform="translate(436,425)"/>
<path d="M0 0 C0 2.64 0 5.28 0 8 C-2.64 8.33 -5.28 8.66 -8 9 C-3 0 -3 0 0 0 Z " fill="#31487D" transform="translate(413,183)"/>
<path d="M0 0 C0.66 0 1.32 0 2 0 C2 3.63 2 7.26 2 11 C4.64 11 7.28 11 10 11 C10 11.33 10 11.66 10 12 C8.54257537 12.08096803 7.08387193 12.13917774 5.625 12.1875 C4.81289062 12.22230469 4.00078125 12.25710938 3.1640625 12.29296875 C2.44992188 12.19628906 1.73578125 12.09960938 1 12 C-1.23551759 8.64672361 -1.17283528 8.09256343 -0.625 4.3125 C-0.51414063 3.50425781 -0.40328125 2.69601562 -0.2890625 1.86328125 C-0.19367188 1.24839844 -0.09828125 0.63351562 0 0 Z " fill="#DCA961" transform="translate(181,323)"/>
<path d="M0 0 C0.99 0.33 1.98 0.66 3 1 C2.67 5.95 2.34 10.9 2 16 C1.34 16 0.68 16 0 16 C0 10.72 0 5.44 0 0 Z " fill="#601216" transform="translate(376,223)"/>
<path d="M0 0 C-2 2 -2 2 -4.5625 3 C-7.14841441 3.74870114 -7.14841441 3.74870114 -8 6 C-9.32 6 -10.64 6 -12 6 C-11.66411682 3.48087612 -11.42645046 2.32803881 -9.375 0.75 C-6.1989627 -0.25295915 -3.30771122 -0.12721966 0 0 Z " fill="#40306B" transform="translate(247,118)"/>
<path d="M0 0 C0.33 0.66 0.66 1.32 1 2 C-0.07192184 3.3218362 -1.15802695 4.63217927 -2.25 5.9375 C-2.85328125 6.66839844 -3.4565625 7.39929688 -4.078125 8.15234375 C-6.10741134 10.10326334 -7.254407 10.61731779 -10 11 C-9.09066991 9.72390677 -8.17217147 8.45434447 -7.25 7.1875 C-6.73953125 6.47980469 -6.2290625 5.77210938 -5.703125 5.04296875 C-3.97517642 2.97022309 -2.21473524 1.52624146 0 0 Z " fill="#5C141B" transform="translate(403,207)"/>
<path d="M0 0 C0 0.66 0 1.32 0 2 C-1.7902061 2.67057887 -3.58221489 3.3363469 -5.375 4 C-6.37273437 4.37125 -7.37046875 4.7425 -8.3984375 5.125 C-11 6 -11 6 -13 6 C-12 3 -12 3 -9.78515625 1.796875 C-8.43744141 1.27867188 -8.43744141 1.27867188 -7.0625 0.75 C-6.16660156 0.39421875 -5.27070313 0.0384375 -4.34765625 -0.328125 C-2 -1 -2 -1 0 0 Z " fill="#41316A" transform="translate(270,87)"/>
<path d="M0 0 C0.66 0.33 1.32 0.66 2 1 C4.09821215 0.60061233 4.09821215 0.60061233 6 0 C4.96508351 2.82249951 4.30084735 3.83374226 1.625 5.3125 C-1.10579853 6.02770914 -2.39189261 5.9659657 -5 5 C-3.35 3.35 -1.7 1.7 0 0 Z " fill="#5F1116" transform="translate(415,152)"/>
<path d="M0 0 C0.66 0.66 1.32 1.32 2 2 C-1.3 2.66 -4.6 3.32 -8 4 C-5.68460883 -0.63078234 -4.96616141 -1.65538714 0 0 Z " fill="#662228" transform="translate(338,141)"/>
<path d="M0 0 C2.3125 -0.25 2.3125 -0.25 5 0 C6.8125 2 6.8125 2 8 4 C5.69 4 3.38 4 1 4 C0.67 2.68 0.34 1.36 0 0 Z " fill="#B28C69" transform="translate(185,339)"/>
<path d="M0 0 C4.29 0.99 8.58 1.98 13 3 C13 3.33 13 3.66 13 4 C9.37 4 5.74 4 2 4 C1.34 2.68 0.68 1.36 0 0 Z " fill="#566580" transform="translate(300,232)"/>
<path d="M0 0 C0.66 0.66 1.32 1.32 2 2 C-1.3 2.66 -4.6 3.32 -8 4 C-5.68460883 -0.63078234 -4.96616141 -1.65538714 0 0 Z " fill="#631C23" transform="translate(360,135)"/>
<path d="M0 0 C-2.39509338 2.89932357 -4.31245243 3.50168276 -8 4 C-7.67 2.68 -7.34 1.36 -7 0 C-3.98968256 -0.93423645 -3.13349732 -1.04449911 0 0 Z " fill="#67222A" transform="translate(418,119)"/>
<path d="M0 0 C-0.33 0.99 -0.66 1.98 -1 3 C-2.65 3.33 -4.3 3.66 -6 4 C-6.33 3.34 -6.66 2.68 -7 2 C-5.26578631 -1.46842738 -3.40984787 -1.13661596 0 0 Z " fill="#662831" transform="translate(385,222)"/>
<path d="M0 0 C-0.33 0.66 -0.66 1.32 -1 2 C-4.63 2 -8.26 2 -12 2 C-12 1.67 -12 1.34 -12 1 C-10.56496445 0.63597631 -9.12683494 0.28413409 -7.6875 -0.0625 C-6.88699219 -0.25972656 -6.08648437 -0.45695313 -5.26171875 -0.66015625 C-3 -1 -3 -1 0 0 Z " fill="#5D6071" transform="translate(222,234)"/>
<path d="M0 0 C-3.21627837 2.14418558 -5.19090105 2.67582137 -9 3 C-9.66 2.34 -10.32 1.68 -11 1 C-3.57142857 -1.42857143 -3.57142857 -1.42857143 0 0 Z " fill="#523F69" transform="translate(267,132)"/>
</svg>
