<svg width="512" height="512"><path fill="#60181c" d="m255.625-.312 3.085.006c14.609.05 28.94.3 43.29 3.306l2.954.602C353.336 13.722 397.324 35.64 433 70l1.998 1.916C444.486 81.06 453.226 90.357 461 101l2.574 3.453c6.038 8.19 11.42 16.692 16.426 25.547l1.219 2.143c13.025 23.135 21.774 48.307 27.094 74.295l.446 2.178c2.974 15.646 3.614 31.12 3.553 47.009l-.006 3.085c-.05 14.609-.3 28.94-3.306 43.29l-.602 2.954C498.278 353.336 476.36 397.324 442 433l-1.916 1.998C430.94 444.486 421.643 453.226 411 461l-3.453 2.574c-8.19 6.038-16.692 11.42-25.547 16.426l-2.143 1.219c-23.135 13.025-48.307 21.774-74.295 27.094l-2.178.446c-15.646 2.974-31.12 3.614-47.009 3.553l-3.085-.006c-14.609-.05-28.94-.3-43.29-3.306l-2.954-.602C158.664 498.278 114.676 476.36 79 442l-1.998-1.916C67.514 430.94 58.774 421.643 51 411l-2.574-3.453C42.388 399.357 37.006 390.855 32 382l-1.219-2.143C17.756 356.722 9.007 331.55 3.688 305.562l-.447-2.178c-2.974-15.646-3.614-31.12-3.553-47.009l.006-3.085c.05-14.609.3-28.94 3.306-43.29l.602-2.954C13.722 158.664 35.64 114.676 70 79l1.916-1.998C81.06 67.514 90.357 58.774 101 51l3.453-2.574C112.643 42.388 121.145 37.006 130 32l2.143-1.219c23.135-13.025 48.307-21.774 74.295-27.093l2.178-.447c15.646-2.974 31.12-3.614 47.009-3.553"/><path fill="#a6eefe" d="m255.625-.312 3.085.006c14.609.05 28.94.3 43.29 3.306l2.954.602C353.336 13.722 397.324 35.64 433 70l1.998 1.916C444.486 81.06 453.226 90.357 461 101l2.574 3.453c6.038 8.19 11.42 16.692 16.426 25.547l1.219 2.143c13.025 23.135 21.774 48.307 27.094 74.295l.446 2.178c2.974 15.647 3.611 31.12 3.553 47.009l-.004 3.078c-.039 14.625-.37 28.92-3.308 43.297l-.535 2.654A409 409 0 0 1 505 320l-2.727-.437c-18.952-2.735-38.313-3.531-56.25 4.136-4.234 1.594-7.663 1.185-12.023.301l-6.906-1.191q-3.798-.682-7.594-1.372l-3.937-.708Q410.78 319.867 406 319l1.187-1.364c16.927-19.576 23.584-41.143 22.048-66.9-.992-11.56-5.047-21.205-10.528-31.31-2.746-5.511-2.846-10.433-2.727-16.508l.043-2.342q.05-2.448.11-4.895c.054-2.475.083-4.95.111-7.425l.111-4.776.014-2.213c.157-4.82 1.268-8.203 3.655-12.397 1.705-3.268 2.418-6.795 3.226-10.37.26-1.09.26-1.09.523-2.203.418-1.764.824-3.53 1.227-5.297l-7 1a203 203 0 0 1 3.438-6.664c5.228-9.908 6.989-18.19 6.562-29.336l-3.812.875a269 269 0 0 1-11.012 2.195l-2.952.532L408 120l-.76-1.993c-17.005-44.343-41.448-80.268-86.013-100.19C294.729 6.31 263.355 3.36 235 9l-2.002.39C206.1 14.767 182.806 27.016 163 46l-2.45 2.258C140.008 67.802 127.254 94.27 119 121a268 268 0 0 1-17.617-4.414c-2.46-.705-2.46-.705-5.383-.586-.597 11.535 1.645 22.293 8 32l1.813 3.063L107 153c-5.75-1.875-5.75-1.875-8-3 1.102 9.277 3.16 18.41 8.533 26.231 2.902 5.476 2.444 12.104 2.654 18.207l.084 2.202c.374 11.822-1.03 18.858-8.271 28.36-9.658 20.057-10.07 45.004-2.778 65.907 3.673 9.877 8.502 17.594 15.837 25.081C117 318 117 318 117 319a18798 18798 0 0 1-16.082 2.788q-2.945.512-5.89 1.02l-3.571.62L88 324l-3.716.632c-4.119.461-6.673-.486-10.534-1.945-9.884-3.7-19.582-5.096-30.125-5.125l-3.106-.011c-9.972.147-19.208 2.202-28.745 4.99C10 323 10 323 8 323c-9.397-35.99-12.686-76.303-5-113l.602-2.954C13.722 158.664 35.64 114.676 70 79l1.916-1.998C81.06 67.514 90.357 58.774 101 51l3.453-2.574C112.643 42.388 121.145 37.006 130 32l2.143-1.219c23.135-13.025 48.307-21.774 74.295-27.093l2.178-.447c15.646-2.974 31.12-3.614 47.009-3.553"/><path fill="#dab58d" d="m479.563 321.75 3.17-.023c6.955.017 13.472.794 20.267 2.273-1.21 6.99-2.988 13.533-5.437 20.188l-1.05 2.854c-10.39 27.539-25.408 52.6-44.513 74.958l-1.93 2.27C438.253 437.765 425.514 450.436 411 461l-3.45 2.57c-8.19 6.04-16.694 11.424-25.55 16.43l-2.143 1.219c-23.135 13.025-48.307 21.774-74.295 27.094l-2.178.446c-15.647 2.974-31.119 3.61-47.009 3.553l-3.068-.003c-45.285-.103-45.285-.103-55.1-8.778l-2.394-3.031-1.354-1.694A347 347 0 0 1 190 493l-1.71-2.226C180.48 480.59 173.18 470.255 167 459l-1.037-1.859C159.78 445.934 155.687 434.231 152 422l-.625-2.058C143.018 391.905 139.52 361.189 140 332l3.84.84 5.097 1.098 2.518.552c7.353 1.574 14.464 2.54 21.99 2.58.932.01 1.864.02 2.825.032q2.866.022 5.734-.024c5.065.098 8.11.428 11.738 4.133l1.648 1.917c12.802 14.883 34.939 22.988 53.944 24.689 27.674 1.9 52.982-2.56 74.666-20.817l2.203-2.602c3.086-3.6 5.552-6.038 10.389-6.814 5.374-.404 10.74-.406 16.127-.436 14.025-.138 30.818-4.599 42.617-12.336 7.534-4.397 17.544-1.376 25.601.125l3.112.553c7.455 1.345 7.455 1.345 10.951 2.51 6.327.804 11.13-.611 16.977-2.933 8.89-3.137 18.249-3.386 27.586-3.317"/><path fill="#dab58d" d="M237 229c2.378 2.273 4.428 4.715 6.523 7.25 4.71 5.23 10.657 8.87 16.477 12.75 10.002-.693 18.087-10.852 24.395-17.875C287 229 287 229 290.055 228.602c2.624.355 4.8.81 7.257 1.773l2.051.773C301 232 301 232 302 234c2.486.533 2.486.533 5.504.781l3.435.364 3.623.355c21.178 2.126 21.178 2.126 26.715 8.281C356.167 262.96 357.237 286.604 357 310l-15 4-1 20-9 1c-3.012 1.954-3.012 1.954-5.437 4.625-18.094 17.618-39.452 24.55-64.25 24.563l-3.608.037c-26.75.043-45.366-9.873-64.705-27.225l-2-2c-2.472-.355-2.472-.355-5.34-.379l-3.22-.103-3.377-.08q-3.296-.09-6.59-.192l-2.961-.072C168 334 168 334 165 333c-1.283-68.584-1.283-68.584 19.594-92.11 5.495-4.317 12.677-4.402 19.406-5.015l2.617-.262c4.819-.461 9.543-.705 14.383-.613v-3c10.951-4.172 10.951-4.172 16-3"/><path fill="#fdfcfc" d="M426 119c-.721 11.463-2.896 20.807-10 30l-1.43 1.855c-3.164 3.942-3.164 3.942-5.57 5.145l-1 3 14-5c-2.338 15.895-10.925 27.52-22.434 38.309-1.803 1.713-1.803 1.713-2.566 4.691l12-3c-5.536 13.841-14.585 22.097-28 28l-5 2 1 31c-5.521-5.521-5.521-5.521-6.664-8.77-2.201-4.875-4.518-8.639-9.336-11.23-7.072-1.218-14.147-.745-21.286-.416q-2.333.108-4.667.213l-2.329.107c-7.278.26-13.97-.702-21.093-2.279l-3.073-.674c-4.362-1.022-8.399-2.264-12.552-3.951-3.935-.982-7.072-1.088-11 0-3.929 3.154-7.168 6.762-10.548 10.482-2.122 2.218-4.425 4.068-6.89 5.893-.761.565-1.523 1.13-2.308 1.71-2.254.915-2.254.915-4.77.27-15.125-8.252-23.263-21.69-28.359-37.667-1.562-6.345-1.683-12.853-1.914-19.356-.16-4.155-.642-8.214-1.211-12.332-4.906-1.692-9.805-3.252-14.812-4.613l-3.07-.846a614 614 0 0 0-6.235-1.672c-9.68-2.703-18.313-7.201-23.883-15.869-2.08-4.252-4-8.222-4-13 5.936.615 11.496 1.764 17.25 3.328l2.599.7q2.703.732 5.405 1.472c2.735.747 5.474 1.473 8.215 2.2q2.64.718 5.281 1.44l2.45.642c5.422 1.517 10.431 3.574 14.8 7.218v2l2.063-2.125q1.463-1.443 2.937-2.875l1.574-1.562c7.238-6.749 14.698-7.948 24.4-7.855 7.28.272 13.698 1.463 19.253 6.394C288 157.207 288 157.207 288 160l1.652-1.207 2.286-1.606 2.214-1.582c6.643-3.744 14.335-5.345 21.66-7.292 8.671-2.333 17.31-4.766 25.938-7.25 13.377-3.843 26.8-7.486 40.25-11.063l7.91-2.11q5.889-1.57 11.779-3.138l3.588-.955 3.433-.912a860 860 0 0 0 12.085-3.36C423 119 423 119 426 119"/><path fill="#1b6db6" d="m284.688 11.375 3.023.382c7.029.983 7.029.983 9.289 3.243l-1.723 1.617c-9.467 9.136-18.386 19.327-18.652 33.008.146 4.8.703 8.882 2.375 13.375-5.243 3.787-10.664 6.982-16.437 9.875l-1.864.94C256.259 76 256.259 76 254 76c-1-4-1-4-1-14l-22 2c1.64 4.803 1.64 4.803 3.291 9.603C235.277 76.525 236 78.896 236 82c-4.827 1.923-9.18 2.281-14.312 2.188l-2.292-.029C205.671 83.93 195.177 80.445 183 74l-.402 3.29-.536 4.335-.263 2.16A246 246 0 0 1 180 96q1.965.696 3.938 1.375l2.214.773c7.279 2.177 14.12 3.24 21.723 3.227l2.726.002c9.433-.151 18.293-2.051 27.399-4.377l4-1 6 12-2.95-.48c-10.881-1.54-22.24-1.996-32.05 3.48l-2.875 1.375c-2.868 2.193-4.415 4.457-6.125 7.625-.417 2.503-.417 2.503 0 5 4.502 5.482 12.217 8.688 19 10 12.21 1.067 24.227.476 36-3l3.656-1.031c9.428-2.883 17.883-6.945 26.344-11.969l2.438-1.336c1.883-1.654 1.883-1.654 1.769-4.695l-.394-3.469-.356-3.469c-.374-3.067-.374-3.067-1.457-6.031l-1.766 1.688c-13.59 12.649-30.32 22.63-49.546 22.374l-2.676-.027L235 124v-4c9.985-3.675 18.113-4 29-4l-8-24c13.34-10.004 31.84-11.45 47.93-9.531C313.162 84.055 323.523 86.746 330 94l-1 2-1.66-1.172C319.218 89.493 309.817 86 300 86l1.758 1.215c10.733 7.81 14.305 15.836 16.555 28.633 3.332 22.274 3.332 22.274-1.313 30.152-2.91 1.373-5.92 1.942-9.062 2.563-7.08 1.603-12.813 3.392-18.938 7.437l-.996-1.39C283.2 148.412 277.576 145.681 270 144c-9.993-.599-18.998-.953-28 4l-2.191 1.004c-2.313 1.274-2.682 2.667-3.809 4.996-3 1-3 1-4.762.304l-1.925-1.097c-4.025-2.136-7.913-3.4-12.313-4.52q-2.379-.63-4.758-1.269l-2.555-.682c-4.876-1.336-9.715-2.798-14.562-4.236a548 548 0 0 0-24.964-6.727c-7.675-1.877-15.278-3.982-22.882-6.13-4.048-1.142-8.101-2.267-12.154-3.393l-2.29-.639c-3.27-.91-6.54-1.798-9.835-2.611.572-5.862 2.22-10.81 4.438-16.25l1.073-2.638C136.88 83.997 147.929 66.765 163 51l2.027-2.219c30.47-32.228 76.924-42.886 119.66-37.406"/><path fill="#4e91be" d="M297 14c21.43 3.228 41.995 14.835 58 29 .491.425.982.85 1.488 1.29C377.846 62.821 395.217 89.675 403 117c.145 2.938.145 2.938 0 5-12.725 3.92-25.587 7.304-38.462 10.69-7.588 1.996-15.17 4.003-22.726 6.123l-2.05.574-1.961.55a1352 1352 0 0 1-12.301 3.375l-3.656.989C319 145 319 145 317 145l.48-1.96c2.446-14.306 1.55-33.606-6.168-46.29-2.96-3.806-6.644-6.65-10.554-9.437L299 86v-1c11.18.495 20.8 3.631 30 10-5.918-7.672-16.767-10.337-26.012-11.715C286.684 81.73 271.334 83.703 257 92l.643 1.88q1.434 4.214 2.857 8.433l1.012 2.958.957 2.842.888 2.619C264 113 264 113 264 116l-1.693.136c-2.583.214-5.163.445-7.745.677l-2.662.212c-5.992.553-11.284 1.815-16.9 3.975v2c7.277.369 13.477-.528 20.438-2.625l2.797-.833C271.63 115.404 280.734 108.262 291 99c3.03 5.276 3.85 11.008 3 17-2.669 3.514-6.08 5.1-10 7l-3.41 1.797c-18.557 9.47-40.453 14.456-61.192 10.52-6.214-2.11-11.75-5.668-16.398-10.317.307-5.324 1.068-8.35 5-12 6.149-3.84 11.752-7.12 19.117-7.133l2.34-.004 2.418.012 2.395-.012c4.355.008 8.442.268 12.73 1.137l-5-10-3.762.84-4.925 1.097-2.475.553q-2.388.532-4.777 1.053c-1.51.335-3.014.695-4.514 1.07C207.86 103.691 192.15 103.087 180 96c.488-7.478 1.334-14.69 3-22 3.178 1.23 6.278 2.581 9.375 4 9.63 4.275 18.935 5.078 29.313 5.125l2.196.014c4.144-.012 8.052-.333 12.116-1.139-.36-1.132-.722-2.264-1.094-3.43l-1.406-4.445-.723-2.262C231 66.227 231 66.227 231 64c7.459-1.848 14.32-2.179 22-2l1 14c12.296-5.968 12.296-5.968 24-13l-1-2.687c-2.76-10.18-1.365-18.608 3.652-27.797C284.572 26.308 289.806 21.139 295 16z"/><path fill="#1b6db6" d="M120.313 322.5c6.556.889 11.369 2.242 15.687 7.5 1.456 5.411 1.004 11.136.957 16.691-.058 8.246.77 16.318 1.73 24.497l.265 2.262c5.708 47.946 21.194 90.035 52.837 126.792C194 503 194 503 194 505c-41.853-9.114-80.404-30.714-111.629-59.84-2.316-2.176-2.316-2.176-4.773-3.976-3.401-2.768-5.408-4.765-6.004-9.225.173-10.425 1.209-20.629 2.594-30.959l.34-2.597c1.67-12.688 3.716-25.184 6.79-37.616.775-3.166 1.5-6.34 2.225-9.517q.79-3.417 1.582-6.832l.732-3.195C88.451 330.345 88.451 330.345 91 327c2.895-.946 5.157-1.461 8.125-1.812l2.324-.338A329 329 0 0 1 108 324l2.875-.398c3.15-.405 6.294-.628 9.438-1.102"/><path fill="#a6a6a5" d="M98 119c6.503 1.254 12.951 2.641 19.375 4.25l2.62.655c6.648 1.69 13.201 3.62 19.755 5.64 12.643 3.853 25.468 7.102 38.25 10.455l.443 3.336c1.185 7.796 4.984 14.243 11.159 19.144 8.142 5.16 17.877 7.36 27.13 9.733 8.786 2.298 8.786 2.298 12.268 4.787 2.039 5.5 2.218 10.692 2.313 16.5.44 12.214 4.068 22.695 9.687 33.5l-1 2-2-2c-5.575-.765-9.596.434-14.875 2.313-19.651 6.91-40.578 7.13-61.125 4.687l-.826 1.757c-1.164 2.223-2.457 4.126-3.96 6.134l-1.607 2.148c-.55.73-1.102 1.46-1.67 2.211l-1.681 2.258-1.604 2.133-1.469 1.954L148 254h-1l1-31-6-1c-13.092-5.717-20.124-13.838-27-26v-2l11 2c-1.954-3.908-3.562-5.686-6.687-8.625-8.364-8.255-16.893-18.964-17.442-31.262L102 154l2.336.91 3.039 1.153 3.023 1.16c2.554 1.086 2.554 1.086 4.602-.223l-1.285-1.145c-8.813-8.27-15.103-18.27-15.887-30.546-.013-2.104.069-4.208.172-6.309"/><path fill="#1b6db5" d="M412 194h1l-.095 1.953c-1.253 15.217-1.253 15.217 4.43 28.715 2.15 3.013 3.294 6.235 4.478 9.707l1.207 3.523c5.103 16.143 4.001 38.721-3.02 54.102l-1.164 2.816C411.41 311.361 397.272 321.266 381 328c-7.543 2.796-15.023 4.248-23 5l-.113-3.8c.49-45.808.49-45.808-18.114-85.454a99 99 0 0 0-4.27-3.539L334 239v-1c8.502-1.694 17.5-3.283 26-1 7.781 5.535 12.792 14.583 17 23l3 1-.184-2.336a6948 6948 0 0 1-.816-10.601l-.29-3.674c-.491-6.486-.822-12.885-.71-19.389l2.02-.594c15.508-5.032 23.925-14.777 31.257-28.86z"/><path fill="#1b6db6" d="M114 200c1.918 2.366 3.806 4.727 5.57 7.21 6.62 9.216 14.866 14.06 25.43 17.79.113 12.05.033 23.988-1 36h3l.807-1.718c2.233-4.271 5.185-8.072 8.006-11.97l1.869-2.666 1.838-2.533c.82-1.148.82-1.148 1.659-2.319 2.832-2.79 5.468-2.782 9.316-2.816l2.587.143 2.822.147 2.909.17 2.966.158q3.611.194 7.221.404l-2.285 2.254C162.913 264.329 166.242 301.56 165 333c-20.559-2.325-39.756-9.19-53.344-25.629-12.474-17.857-16.626-41.558-13.008-62.883 2.136-10.15 6.391-20.074 12.524-28.457 2.117-3.51 2.412-5.84 2.578-9.906l.172-3.492z"/><path fill="#eeec7a" d="M329.695 65.121c4.023 3.28 6.142 5.6 6.805 10.817-.267 6.554-2.523 12.857-4.5 19.062-2.663-1.27-5.024-2.687-7.437-4.375-13.513-8.553-31.879-9.642-47.25-6.445C270 85.876 263.53 88.22 257 92l.643 1.88q1.434 4.214 2.857 8.433l1.012 2.958.957 2.842.888 2.619C264 113 264 113 264 116l-1.693.136c-2.583.214-5.163.445-7.745.677l-2.662.212c-5.992.553-11.284 1.815-16.9 3.975v2c7.277.369 13.477-.528 20.438-2.625l2.797-.833C271.63 115.404 280.734 108.262 291 99c3.03 5.276 3.85 11.008 3 17-2.669 3.514-6.08 5.1-10 7l-3.41 1.797c-18.557 9.47-40.453 14.456-61.192 10.52-6.214-2.11-11.75-5.668-16.398-10.317.307-5.324 1.068-8.35 5-12 6.149-3.84 11.752-7.12 19.117-7.133l2.34-.004 2.418.012 2.395-.012c4.355.008 8.442.268 12.73 1.137l-5-10-3.762.84-4.925 1.097-2.475.553q-2.388.532-4.777 1.053c-1.51.335-3.014.695-4.514 1.07C207.86 103.691 192.15 103.087 180 96c.488-7.478 1.334-14.69 3-22 3.178 1.23 6.278 2.581 9.375 4 9.63 4.275 18.935 5.078 29.313 5.125l2.196.014c4.144-.012 8.052-.333 12.116-1.139l-1.094-3.43-1.406-4.445-.723-2.262C231 66.227 231 66.227 231 64c7.459-1.848 14.32-2.179 22-2l1 14c7.56-3.69 15.065-7.403 22.341-11.631 18.294-10.624 34.993-11.275 53.354.752"/><path fill="#fefefe" d="M177 141c5.936.615 11.496 1.764 17.25 3.328l2.599.7q2.703.732 5.405 1.472c2.735.747 5.474 1.473 8.215 2.2q2.64.718 5.281 1.44l2.45.642c5.422 1.517 10.431 3.574 14.8 7.218v2l2.063-2.125q1.463-1.443 2.937-2.875l1.574-1.562c7.238-6.749 14.698-7.948 24.4-7.855 8.52.318 15.275 2.118 21.276 8.355 1.703 1.964 1.703 1.964 2.75 4.062-.23 2.776-.941 4.864-2.04 7.418-1.141 3.069-1.235 5.625-1.335 8.894-.348 5.746-1.308 10.91-2.832 16.45-1.313 4.944-2.332 9.918-3.25 14.949l-.385 2.107a1419 1419 0 0 0-1.876 10.56c-3.96 22.356-3.96 22.356-9.72 26.997C263 247 263 247 260.548 246.293c-14.715-7.47-21.947-20.312-27.613-35.07-2.28-7.15-2.459-14.449-2.723-21.891-.16-4.155-.642-8.214-1.211-12.332-4.906-1.692-9.805-3.252-14.812-4.613l-3.07-.846a614 614 0 0 0-6.235-1.672c-9.68-2.703-18.313-7.201-23.883-15.869-2.08-4.252-4-8.222-4-13"/><path fill="#dab58d" d="m43.5 321.75 3.184-.023c9.238.022 17.915 1.166 26.629 4.336C77.21 327.473 80.892 328.41 85 329c-1.284 6.674-2.756 13.276-4.375 19.875a584 584 0 0 0-6.184 28.789q-.42 2.222-.855 4.442C70.501 397.905 69.376 413.982 68 430c-4.401-3.455-7.866-6.995-11.25-11.437l-1.425-1.848A672 672 0 0 1 51 411l-1.331-1.773C43.17 400.502 37.352 391.469 32 382l-1.219-2.143C23.576 367.059 17.983 353.807 13 340l-.918-2.538-.836-2.392-.733-2.093C10 331 10 331 10 327q2.153-.699 4.313-1.375l2.425-.773c8.964-2.34 17.51-3.17 26.762-3.102"/><path fill="#191a19" d="M373 157c-8.802 39.636-8.802 39.636-23 50-8.826 4.5-18.083 5.349-27.875 5.25l-2.918-.018c-10.002-.14-18.958-1.319-28.207-5.232 3.02-13.314 6.265-25.485 18.29-33.532 2.812-1.523 5.286-2.32 8.387-3.078l3.376-.839 3.615-.871 3.73-.922q4.893-1.205 9.788-2.396c4.61-1.122 9.216-2.257 13.822-3.392q3.677-.905 7.356-1.8l3.348-.819 2.955-.72C371.694 157 371.694 157 373 157"/><path fill="#181918" d="M151 157a345 345 0 0 1 19.5 4.313l2.604.656a761 761 0 0 1 23.729 6.415c2.183.62 4.373 1.209 6.565 1.796 9.183 2.538 16.125 5.161 21.301 13.586 8.428 15.917 8.428 15.917 6.301 24.234q-3.03.724-6.062 1.438l-3.41.808c-15.567 3.327-34.545 4.192-48.942-3.543C158.836 196.404 153.62 172.98 151 157"/><path fill="#d1d0d0" d="m356 139-1.506.696c-9.548 4.496-18.206 9.218-25.932 16.492l-1.84 1.725c-3.756 3.7-6.3 7.405-8.722 12.087l3 1-2.09.375c-8.626 1.893-14.483 5.489-19.437 12.914C295.998 190.774 292 199.571 292 207c6.308 1.647 12.515 3.263 19 4 1.086 3.257.871 3.866 0 7-.676 6.094-.676 6.094 1.813 11.438A195 195 0 0 0 318 233c-7.279-.7-15.407-1.704-22-5-3.91-.932-7.098-1.021-11 0-3.644 2.588-6.526 5.943-9.469 9.277C273 240 273 240 270 241c1.032-4.76 2.125-9.48 3.375-14.187 1.717-6.756 2.87-13.594 4.067-20.456 1.014-5.7 2.231-11.272 3.745-16.857 1.347-5.076 2.074-9.755 2.313-15 .306-5.616.782-10.106 4.5-14.5 7.973-6.982 18.06-9.096 28.063-11.75 6.215-1.66 12.406-3.372 18.566-5.23l3.287-.988a820 820 0 0 0 6.315-1.935l2.902-.874 2.559-.79c2.475-.464 3.946-.236 6.308.567"/><path fill="#1a5585" d="M114 200c1.928 2.384 3.832 4.77 5.64 7.246 3.876 5.276 7.904 9.14 13.36 12.754-1.557 3.434-3.603 6.249-5.875 9.25-3.251 4.454-6.113 8.61-8.125 13.75l-1.125 2.797c-4.54 13.18-5.6 30.583-.203 43.637C128.067 309.52 144.097 319.032 165 326v7c-20.559-2.325-39.756-9.19-53.344-25.629-12.474-17.857-16.626-41.558-13.008-62.883 2.136-10.15 6.391-20.074 12.524-28.457 2.117-3.51 2.412-5.84 2.578-9.906l.172-3.492z"/><path fill="#f2bf59" d="M289.938 228.375c3.847.785 7.564 1.805 11.062 3.625l1 2c2.486.533 2.486.533 5.504.781l3.435.364 3.623.355c21.178 2.126 21.178 2.126 26.715 8.281C356.167 262.96 357.237 286.604 357 310l-15 4-1 20h-1l-.06-3.003c1.466-39.528 1.466-39.528-11.94-74.997-4.401-1.838-8.195-2.243-12.937-2.281l-3.961-.117a222 222 0 0 0-6.162-.103c-4.485-.015-8.637-.187-12.94-1.499-2.31-2.45-3.535-4.612-4.836-7.707-.959-2.401-.959-2.401-3.05-3.395-2.156-.616-2.156-.616-5.114-.898.968-5.68 5.296-10.425 10.938-11.625"/><path fill="#195585" d="M120.313 322.5c6.03.818 11.087 3.537 15.687 7.5 1.085 3.168.708 4.639 0 8l-1-4c-17.223 1.174-17.223 1.174-34 5-.38 1.524-.38 1.524-.77 3.078l-2.062 8.25-.554 2.236q-.654 2.59-1.345 5.17c-2.017 7.68-3.317 15.342-4.394 23.204l-.512 3.552c-1.642 11.709-2.544 23.312-2.488 35.135l.006 3.09c.053 9.448.497 18.859 1.119 28.285-4.43-2.436-8.097-5.362-11.812-8.75l-1.811-1.457c-2.986-2.778-4.237-4.845-4.838-8.924-.177-10.331 1.279-20.648 2.648-30.869l.34-2.597c1.671-12.688 3.717-25.184 6.792-37.616.774-3.166 1.5-6.34 2.224-9.517q.79-3.417 1.582-6.832l.732-3.195C88.451 330.345 88.451 330.345 91 327c2.895-.946 5.157-1.461 8.125-1.812l2.324-.338A329 329 0 0 1 108 324l2.875-.398c3.15-.405 6.294-.628 9.438-1.102"/><path fill="#f0be5a" d="M256 92c2.105 4.066 3.604 8.251 5.125 12.563l.84 2.326.793 2.24.723 2.033C264 113 264 113 264 116l-1.693.136c-2.583.214-5.163.445-7.745.677l-2.662.212c-5.992.553-11.284 1.815-16.9 3.975v2c7.277.369 13.477-.528 20.438-2.625l2.797-.833C271.63 115.404 280.734 108.262 291 99c3.03 5.276 3.85 11.008 3 17-2.669 3.514-6.08 5.1-10 7l-3.41 1.797c-18.557 9.47-40.453 14.456-61.192 10.52-6.214-2.11-11.75-5.668-16.398-10.317.307-5.324 1.068-8.35 5-12 6.149-3.84 11.752-7.12 19.117-7.133l2.34-.004 2.418.012 2.395-.012c4.355.008 8.442.268 12.73 1.137l-4-9 13-3z"/><path fill="#195585" d="m209 20 2 1-1.358 1.266-6.204 5.797-2.135 1.99C172.857 56.663 152.252 89.997 143 128l-20-5c.572-5.862 2.22-10.81 4.438-16.25l1.073-2.638C136.88 83.997 147.929 66.765 163 51l2.027-2.219C176.752 36.38 192.747 25.418 209 20"/><path fill="#f3c059" d="m196.813 237.875 2.158-.012c3.802.007 7.334.222 11.029 1.137q1.005 2.936 2 5.875l1.125 3.305C214 251 214 251 214 253l-3.727.086c-8.944.172-8.944.172-16.699 3.922-1.593 2.626-2.634 5.07-3.574 7.992l-.926 2.531A78 78 0 0 0 187 275l-.484 1.869c-2.091 8.926-2.178 18.072-2.578 27.193q-.173 3.843-.357 7.686-.114 2.376-.214 4.754c-.255 5.386-.255 5.386-1.367 6.498a226 226 0 0 1-8.062.563l-2.3.13q-2.818.159-5.638.307c-.424-35.637-.424-35.637 2-49l.555-3.184C171.245 259.047 177.46 247.92 187 239c3.112-1.556 6.4-1.143 9.813-1.125"/><path fill="#b6906a" d="M237 229c2.378 2.273 4.428 4.715 6.523 7.25 4.71 5.23 10.657 8.87 16.477 12.75 4.468-.247 7.134-2.279 10.625-4.937l2.852-2.153L276 240l3-2v2l3.125-.062c2.822.374 3.735.912 5.71 3.027 1.598 2.313 3.043 4.456 4.165 7.035l-1 3c-2.082.951-2.082.951-4.812 1.754l-3.012.9-3.176.909-3.082.92q-3.033.893-6.084 1.73a93 93 0 0 0-5.157 1.58c-6.989 2.14-12.384-.194-19.052-2.606-11.061-3.735-20.982-5.411-32.625-5.187a958 958 0 0 1-2-5.312l-1.125-2.989C210 242 210 242 210 239l-16-1v-1c3.187-.34 6.375-.67 9.563-1 .895-.095 1.79-.19 2.712-.29 4.94-.506 9.76-.819 14.725-.71v-3c10.951-4.172 10.951-4.172 16-3"/><path fill="#f2bf59" d="m244 62-.219 2.07c-1.01 10.971-.877 21.923-.781 32.93l-1.731.38c-3.574.79-7.139 1.588-10.69 2.472C214.29 103.637 194.911 104.699 180 96c.488-7.478 1.334-14.69 3-22 3.178 1.23 6.278 2.581 9.375 4 9.63 4.275 18.935 5.078 29.313 5.125l2.196.014c4.144-.012 8.052-.333 12.116-1.139l-1.094-3.43-1.406-4.445-.723-2.262C231 66.227 231 66.227 231 64q2.405-.505 4.813-1l2.707-.562C241 62 241 62 244 62"/><path fill="#b48f6b" d="m140 332 3.84.84 5.097 1.098 2.518.552c7.353 1.574 14.464 2.54 21.99 2.58.932.01 1.864.02 2.825.032q2.866.022 5.734-.024c5.065.098 8.11.428 11.738 4.133l1.648 1.917c12.802 14.883 34.939 22.988 53.944 24.689C277.045 369.72 302.27 365.229 324 347l2.344-2.637c4.028-4.517 6.857-6.54 12.941-6.922 5.254-.094 10.478.136 15.715.559-2.955 1.97-4.967 2.427-8.393 3.038-8.61 1.633-12.915 4.43-18.845 11.08-8.163 8.52-19.74 14.085-30.762 17.882l-2.867 1.043c-9.488 3.122-18.224 3.515-28.138 3.369a529 529 0 0 0-7.673-.04c-9.285-.041-18.173-.639-27.322-2.372l-2.433-.375c-13.596-2.118-25.823-11.128-34.222-21.71-3.888-4.584-6.632-6.419-12.689-6.993q-3.577-.135-7.156-.172c-11.92-.464-22.184-1.978-33.5-5.75v7h-1z"/><path fill="#d0d0d0" d="M142 131c12.125 1.976 24.133 5.866 36 9l.371 3.188c1.296 7.857 4.975 14.328 11.23 19.292 8.143 5.16 17.878 7.36 27.13 9.733 4.383 1.146 8.366 2.402 12.269 4.787 2.902 6.99 2.188 14.544 2 22-1.941-2.912-3.01-5.494-4.25-8.75-3.23-7.796-6.548-12.53-14.281-16.25-4.958-2.008-10.157-3.171-15.344-4.437l-7.242-1.825-3.558-.892A546 546 0 0 1 173 163.25l-2.164-.608-2.059-.58c-4.23-1.19-8.468-2.342-12.71-3.484A108 108 0 0 1 151 157l1 8c-6.08-5.405-9.426-12-11-20-.2-4.341-.27-8.661 0-13z"/><path fill="#671f22" d="M414 181c.081 2.27.14 4.541.188 6.813l.105 3.832C414 195 414 195 412.734 196.582L411 198a233 233 0 0 0-3.937 5.875C400.347 214.201 393.037 221.41 381 225h-3l.184 1.905C380.38 249.996 380.38 249.996 380 261c-2.699-.363-3.811-.8-5.708-2.81l-1.675-2.338-1.847-2.547-1.895-2.68-1.918-2.656c-2.37-3.292-4.707-6.594-6.957-9.969-2.876-.369-2.876-.369-6.281-.187l-3.957.076-2.108.056c-15.454.394-30.34-.7-45.654-2.945l-1-3-2.875-.437C295 231 295 231 293 230c-2.946-.476-5.041-.689-7.545 1.11-1.642 1.593-3.178 3.248-4.705 4.952C270.06 247.334 270.06 247.334 264 250c-8.438-.577-16.237-8.313-22-14a149 149 0 0 1-2.562-3.437c-2.233-2.87-2.233-2.87-5.688-3.063-4.328.577-8.52 1.426-12.75 2.5v3l-13 1 4-1 1-3a87 87 0 0 1 8.063-3.187l2.24-.827c5.098-1.78 9.299-2.39 14.697-1.986 3.442 2.015 5.608 4.727 8.125 7.75 4.172 4.85 9.076 9.462 14.875 12.25 3.917-.874 6.664-3.067 9.75-5.562l2.645-2.13c2.58-2.286 4.767-4.722 7.043-7.308 3.278-3.348 5.279-4.617 10-4.75 4.395.386 8.348 1.467 12.53 2.816 10.595 3.263 20.526 5.248 31.622 4.555 23.454-1.354 23.454-1.354 29.338 2.096 5.007 4.6 8.307 10.12 11.072 16.283l1 2-1-30 9-4c12.08-6.24 18.32-14.46 25-26l-1.863.656-2.45.844-2.425.844C400 197 400 197 397 197c.971-6.4 7.222-10.42 11.813-14.5C411 181 411 181 414 181"/><path fill="#4e91bf" d="M396.25 255.063c4.025 2.812 5.872 5.397 7.75 9.937.711 4.978-.096 8.265-2.723 12.426-2.766 3.41-6.183 5.21-10.277 6.574-5.478.421-9.185-.325-14-3-3.788-3.661-6.141-6.945-6.312-12.25.023-4.792 1.31-7.092 4.312-10.75l5 3v-7c5.749-1.916 11-1.925 16.25 1.063"/><path fill="#eeec79" d="M171 263h2l.078 2.09c.507 8.405 1.976 15.183 8.172 21.16 3.603 3.993 3.278 7.655 3.023 12.844L184 303a995 995 0 0 0-.21 5.031c-.586 13.765-.586 13.765-1.79 14.969a226 226 0 0 1-8.062.563l-2.3.13q-2.818.159-5.638.307c-.5-41.972-.5-41.972 5-61"/><path fill="#4e91bf" d="M143 253c1 1 1 1 1.063 4.563L144 261h3v-2c2.375.313 2.375.313 5 1 2.856 4.284 2.596 7.975 2 13-1.36 4.565-3.677 7.133-7.812 9.438-5.277 2.266-9.352 2.163-14.813.375-4.541-2.44-7.718-4.843-9.375-9.813-.515-4.91-.531-8.852 1.563-13.375 5.83-6.279 11.076-7.602 19.437-6.625"/><path fill="#fcfdf9" d="M325 62c-.507 4.439-1.937 6.772-5 10-5.79 4.405-11.292 6.571-18.566 6.375-7.15-1.102-12.998-5.015-17.383-10.66-1.343-2.192-1.896-4.154-2.051-6.715q2.09-.978 4.188-1.937l2.355-1.09C300.247 53.339 314.217 56.118 325 62"/><path fill="#641718" d="M216.188 278.375 218 279c-1.374 2.96-3.018 5.415-5 8 29.86 13.184 61.923 13.424 92.445 2.148 2.655-1.011 2.655-1.011 4.555-3.148l-5-5 1-3c4.21.468 6.411 2.898 9 6 7.5 9.515 7.5 9.515 7 15-1.812-.187-1.812-.187-4-1-3-4.179-3-4.179-3-7l-3.664 1.426C285.742 302.223 257.908 306.048 231 299l-3.863-.984c-4.661-1.259-9.03-2.456-13.348-4.641-2.72-1.596-2.72-1.596-5.789-1.375l-4 7-3-1c.456-5.248 2.169-8.12 5.375-12.25l2.398-3.14c4.099-4.803 4.099-4.803 7.415-4.235"/><path fill="#b17920" d="m227.75 105.938 2.422.027L232 106l-1.5 3.313c-3.48 9.455-1.387 17.716 2.5 26.687-10.7.836-19.194-2.003-27.54-8.73A48 48 0 0 1 203 125c.307-5.324 1.068-8.35 5-12 6.476-4.045 12.026-7.176 19.75-7.062"/><path fill="#f0ed79" d="M244 62h9l1 14 5-2h3c1.824 2.406 1.824 2.406 3.688 5.5l1.886 3.094L269 85c-2.813 2.304-5.281 3.616-8.75 4.688-.8.25-1.598.502-2.422.761L256 91v4a479 479 0 0 1-4.25 1.5l-2.39.844C247 98 247 98 243 98c-1.098-12.506-1.176-23.604 1-36"/><path fill="#b17720" d="M237 229c3.368 3.049 6.267 6.374 9 10v1l-1.723.086c-2.708.335-4.787.766-7.277 1.914-1.663 2.373-1.663 2.373-3.062 5.125-2.75 4.579-2.75 4.579-5.8 5.34-4.742.426-9.416.045-14.138-.465a742 742 0 0 1-2-4.812l-1.125-2.708C210 242 210 242 210 239l-16-1v-1c3.187-.34 6.375-.67 9.563-1 .895-.095 1.79-.19 2.712-.29 4.94-.506 9.76-.819 14.725-.71v-3c10.951-4.172 10.951-4.172 16-3"/><path fill="#621b22" d="M414 181c.081 2.27.14 4.541.188 6.813l.105 3.832C414 195 414 195 412.734 196.582L411 198a233 233 0 0 0-3.937 5.875C400.347 214.201 393.037 221.41 381 225h-3l.184 1.905C380.38 249.996 380.38 249.996 380 261c-2.699-.363-3.811-.8-5.708-2.81l-1.675-2.338-1.847-2.547-1.895-2.68-1.918-2.656c-2.37-3.292-4.707-6.594-6.957-9.969l-3-1 1-3c2.737.36 3.824.813 5.74 2.858l1.713 2.396 1.693 2.33 2.104 2.978L376 254l-1-30 9-4c12.08-6.24 18.32-14.46 25-26l-1.863.656-2.45.844-2.425.844C400 197 400 197 397 197c.971-6.4 7.222-10.42 11.813-14.5C411 181 411 181 414 181"/><path fill="#f9fbfc" d="M339 37c3.438 1.938 3.438 1.938 6 5 .487 3.068.362 5.924 0 9l2.438.438C350 52 350 52 351 53c.313 3.375.313 3.375 0 7-1.687 2-1.687 2-4 3-2.925-.143-4.48-.605-6.812-2.375C339 59 339 59 339 56l-3.187.313C332 56 332 56 329.125 53.625c-3.052-3.77-3.601-5.767-3.125-10.625 3.728-5.593 6.29-6.671 13-6"/><path fill="#b07821" d="M358 310v23c-4.062.812-7.234 1.107-11.312 1.063L341 334v-20c10.667-4 10.667-4 17-4"/><path fill="#b7936e" d="m233 316 3.2.875c18.496 4.76 35.44 4.146 53.8-.875-1.627 4.881-5.601 6.634-10 9-10.474 4.414-21.03 5.97-31.937 2.25-4.087-1.68-7.544-3.59-11.063-6.25l-2.375-1.625L233 318z"/><path fill="#af7a25" d="m183 74 10 4-.281 3.105c-.621 7.196-.621 7.196 1.43 13.899 6.599 4.763 16.99 4.963 24.851 5.996v1c-27.426.752-27.426.752-39-6 .488-7.478 1.334-14.69 3-22"/><path fill="#ecea7a" d="M291 99c3.016 5.253 3.906 11.036 3 17-3.525 4.27-7.79 6.392-13.066 7.844-3.51.187-4.607-.42-7.309-2.594l-2.086-1.61C270 118 270 118 270 115c2.055-1.508 2.055-1.508 4.875-3.125 6.034-3.655 11.04-8.011 16.125-12.875"/><path fill="#efeb78" d="M290 228.375c3.663.763 6.628 2.006 10 3.625a149 149 0 0 1-3 20c-2.32.305-2.32.305-5 0-1.555-2.117-1.555-2.117-2.875-4.875-1.913-3.703-1.913-3.703-5.062-6.234-2.113-.611-2.113-.611-5.063-.891.974-5.718 5.324-10.443 11-11.625"/><path fill="#fbfbfb" d="M287 199c2.835 3.5 4.908 7.344 7 11.313l1.04 1.935C301 223.476 301 223.476 301 229l-15-3c-.172-9.04.367-17.989 1-27"/><path fill="#1c5887" d="M179 96c4.079.658 7.836 1.914 11.719 3.281 15.213 4.793 32.236 1.561 47.281-2.281l4-1 6 12h-4l-2-8-1.74.351-7.885 1.587-2.738.552c-15.532 3.118-33.716 5.295-48.559-1.908L179 99z"/><path fill="#1d6bb2" d="M396 101c2.048 3.072 3.282 5.942 4.625 9.375l1.352 3.398c.947 2.989 1.243 5.128 1.023 8.227q-4.184 1.293-8.375 2.563l-2.406.748-2.305.693-2.126.65C386 127 386 127 384 126l1.61-3.184c3.63-7.205 7.21-14.397 10.39-21.816"/><path fill="#ebbd5c" d="M165 311h1v13l16-1v11q-3.406.039-6.812.063l-3.833.035C168 334 168 334 165 333z"/><path fill="#6d2e33" d="M429 116c.67 11.207-1.608 22.59-8 32-1.95 1.775-3.631 2.788-6 4 0-3.546.615-3.997 2.75-6.687 5.343-7.667 6.487-17.305 8.25-26.313l-2.957.875-3.856 1.125-3.832 1.125C412 123 412 123 409 123l1-4q3.62-1.048 7.25-2.062l2.066-.604c6.267-1.734 6.267-1.734 9.684-.334m-20 39 2 1v3h-3z"/><path fill="#235c86" d="M327 91c1.828 1.688 1.828 1.688 3 3l-1 2-1.52-1.137c-14.72-9.955-31.59-11.34-48.543-8.113-6.345 1.28-12.305 2.765-18.16 5.613C259 93 259 93 256 92c18.578-15.103 51.725-13.094 71-1"/><path fill="#1c5a8c" d="m202 119 2 1-.207 2.309c-.051 2.7-.051 2.7 1.57 4.351 13.156 9.465 28.01 10.315 43.75 7.762A160 160 0 0 0 259 132q3.437-.848 6.875-1.687 2.564-.653 5.125-1.313c-6.083 7.164-19.172 8.256-28 9-13.52.727-27.417 1.46-38.477-7.5C203 129 203 129 201 126c.375-3.687.375-3.687 1-7"/><path fill="#206fb3" d="m264 116-2 1v2q-2.842.974-5.687 1.938l-3.2 1.09c-4.59 1.433-8.618 2.099-13.425 2.034l-2.676-.027L235 124v-4c9.817-3.613 18.605-4.156 29-4"/><path fill="#f1c05a" d="M262 74c1.824 2.406 1.824 2.406 3.688 5.5l1.886 3.094L269 85c-3.81 3.064-7.413 4.394-12 6l-1-16c3-1 3-1 6-1"/><path fill="#f7fafc" d="M397 258c1.813 1.125 1.813 1.125 3 3 .394 3.15.529 5.12-1.125 7.875-2.786 1.672-4.695 1.589-7.875 1.125-1.937-1.687-1.937-1.687-3-4 .14-2.853.63-4.465 2.25-6.812 2.419-1.642 3.886-1.618 6.75-1.188"/><path fill="#f8f9fa" d="M141 259h3v2l6-1c1.329 6.401 1.329 6.401-.062 8.938-2.805 1.538-4.793 1.455-7.938 1.062-1.875-1.125-1.875-1.125-3-3-.312-3.062-.312-3.062 0-6z"/><path fill="#5d202a" d="M414 181v14l-2-1v-3l-8 1v-2l-5 5 1 2h-3c.971-6.4 7.222-10.42 11.813-14.5C411 181 411 181 414 181"/><path fill="#5d141a" d="M405 188v3h7c-.366 5.852-1.998 10.578-6 15-2.168.727-2.168.727-4 1 1.642-4.776 4.265-8.794 7-13l-2.687 1c-3.022.912-5.197 1.183-8.313 1l2.938-3.437 1.652-1.934A50 50 0 0 1 405 188"/><path fill="#276fac" d="M242 100c1.46 2.647 2 3.894 2 7l-17-1v-3c10.2-3 10.2-3 15-3"/><path fill="#651819" d="M241.563 248.938c5.109 1.579 7.929 5.153 11.437 9.062-3.855 1.285-5.403.405-9.187-.937l-3.293-1.153L238 255a100 100 0 0 1 0-5c1-1 1-1 3.563-1.062"/><path fill="#5f1114" d="M281.938 249.125 284 250v5q-2.936 1.005-5.875 2l-3.305 1.125C272 259 272 259 270 259c2.206-4.989 6.126-10.122 11.938-9.875"/><path fill="#306487" d="M264 116v1c-.585.08-1.17.16-1.772.244a1948 1948 0 0 0-7.978 1.131l-2.79.383-2.694.39-2.476.35c-2.358.517-4.188 1.333-6.29 2.502l5 1v1h-10v-4c9.817-3.613 18.605-4.156 29-4"/><path fill="#336382" d="M271 130c-13.583 7.575-26.834 7.395-42 7v-1l1.842-.104c12.211-.742 23.445-2.02 35.053-5.97C269 129 269 129 271 130"/><path fill="#65191a" d="m285 227 2 1c-1.602 3.976-4.374 6.671-7.375 9.625l-1.46 1.484c-2.537 2.523-4.827 4.546-8.165 5.891 3.231-7.128 9.468-12.603 15-18"/><path fill="#e9bb5a" d="m208 115 .148 1.758c.448 4.681 1.15 8.817 2.852 13.242-6.262-2.2-6.262-2.2-8-5 .128-3.588.269-6.055 2.5-8.937C207 115 207 115 208 115"/><path fill="#b28b68" d="M69 405c.98 3.173 1.001 5.692.66 8.984l-.283 2.832-.314 2.934-.303 2.98q-.37 3.636-.76 7.27c-2.105-1.434-2.105-1.434-4-4 .046-3.142.87-6.042 1.688-9.062l.607-2.471c.797-3.203 1.66-6.335 2.705-9.467"/><path fill="#601418" d="m213 233-1 2c-7.176 2.145-14.575 2.259-22 2l1-2c1.81-.518 1.81-.518 4.148-.887l2.547-.404 2.68-.397 2.656-.431c6.579-1.011 6.579-1.011 9.969.119"/><path fill="#671a1b" d="m437 424 4 1 2 7-4 3c-3.077-6.4-3.077-6.4-2.687-9.437z"/><path fill="#2065a9" d="M412 182h1v9l-9 1 4.492-5.176c1.672-1.959 1.672-1.959 3.508-4.824"/><path fill="#5a3846" d="M221 231v4l-13 1 4-1 1-3c3.315-1.745 4.366-2.211 8-1"/><path fill="#672429" d="M421 118v2a665 665 0 0 1-4.312 1.5l-2.426.844C412 123 412 123 409 123l1-4q2.185-.543 4.375-1.062l2.46-.598C419 117 419 117 421 118"/><path fill="#5f1014" d="M417 149c.84 2.35 1.06 3.734.5 6.188C416 157 416 157 412.375 157.75L409 158q1.436-1.688 2.875-3.375l1.617-1.898A76 76 0 0 1 417 149"/><path fill="#2f6285" d="M231 66c1.866 2.8 2.688 4.82 3.625 8 .39 1.3.39 1.3.79 2.625C236 79 236 79 236 82h-2c-2.45-5.717-3.333-9.79-3-16"/><path fill="#60212a" d="m252 145 2 2-12 4c1.452-4.598 1.452-4.598 3.875-6.375 2.514-.74 3.708-.592 6.125.375"/><path fill="#672125" d="M424 137c.75 1.688.75 1.688 1 4-2.134 3.277-3.25 4.75-7 6 3.38-8.69 3.38-8.69 6-10"/><path fill="#1a588a" d="M284.188 82.938 288 83l1 2-14 2c2.649-3.973 4.695-4.136 9.188-4.062"/><path fill="#27476e" d="M113 185a159 159 0 0 1 6 5v2l-6-1z"/><path fill="#276088" d="M320 88c3.995 1.37 6.8 3.257 10 6l-1 2-10-6z"/><path fill="#4c678a" d="m301 232 15 3v1l-14-1z"/><path fill="#691f1d" d="m277 250 2 1-5 5 1 2-5 1c1.555-3.817 4.036-6.192 7-9"/><path fill="#5c161d" d="M319 146c-2.395 2.9-4.312 3.502-8 4l1-4c4.75-1.125 4.75-1.125 7 0"/><path fill="#2d6184" d="M277 85c-4.308 3.077-4.308 3.077-7.812 2.688L267 87c6.759-3.62 6.759-3.62 10-2"/><path fill="#5c97c0" d="M147 259c2.375.188 2.375.188 5 1 1.313 2.563 1.313 2.563 2 5l-3 1-1-6z"/><path fill="#59151e" d="m401 209 1 2c-2.312 2.5-2.312 2.5-5 5h-3z"/><path fill="#2c6084" d="m243 102 3 1c1.188 2.563 1.188 2.563 2 5h-4z"/></svg>