<?xml version="1.0" encoding="UTF-8"?>
<svg version="1.1" xmlns="http://www.w3.org/2000/svg" width="512" height="512">
<path d="M0 0 C1.01790619 0.00215515 2.03581238 0.0043103 3.08456421 0.00653076 C17.69363523 0.05620146 32.02575853 0.30709809 46.375 3.3125 C47.34985352 3.51117676 48.32470703 3.70985352 49.32910156 3.91455078 C97.7109774 14.03517194 141.69928269 35.9516877 177.375 70.3125 C178.3640332 71.26068604 178.3640332 71.26068604 179.37304688 72.22802734 C188.86130305 81.37247479 197.6012044 90.66984009 205.375 101.3125 C206.23306152 102.46355017 207.09113451 103.61459177 207.94921875 104.765625 C213.98677396 112.95525981 219.36957302 121.45788276 224.375 130.3125 C224.7771875 131.01971191 225.179375 131.72692383 225.59375 132.45556641 C238.6191741 155.59095836 247.36801461 180.76212409 252.6875 206.75 C252.83485596 207.46889404 252.98221191 208.18778809 253.1340332 208.9284668 C256.10789088 224.57475609 256.74800362 240.04818046 256.6875 255.9375 C256.68534485 256.95540619 256.6831897 257.97331238 256.68096924 259.02206421 C256.63129854 273.63113523 256.38040191 287.96325853 253.375 302.3125 C253.07698486 303.77478027 253.07698486 303.77478027 252.77294922 305.26660156 C242.65232806 353.6484774 220.7358123 397.63678269 186.375 433.3125 C185.74287598 433.97185547 185.11075195 434.63121094 184.45947266 435.31054688 C175.31502521 444.79880305 166.01765991 453.5387044 155.375 461.3125 C154.22394983 462.17056152 153.07290823 463.02863451 151.921875 463.88671875 C143.73224019 469.92427396 135.22961724 475.30707302 126.375 480.3125 C125.66778809 480.7146875 124.96057617 481.116875 124.23193359 481.53125 C101.09654164 494.5566741 75.92537591 503.30551461 49.9375 508.625 C49.21860596 508.77235596 48.49971191 508.91971191 47.7590332 509.0715332 C32.11274391 512.04539088 16.63931954 512.68550362 0.75 512.625 C-0.77685928 512.62176727 -0.77685928 512.62176727 -2.33456421 512.61846924 C-16.94363523 512.56879854 -31.27575853 512.31790191 -45.625 509.3125 C-47.08728027 509.01448486 -47.08728027 509.01448486 -48.57910156 508.71044922 C-96.9609774 498.58982806 -140.94928269 476.6733123 -176.625 442.3125 C-177.28435547 441.68037598 -177.94371094 441.04825195 -178.62304688 440.39697266 C-188.11130305 431.25252521 -196.8512044 421.95515991 -204.625 411.3125 C-205.48306152 410.16144983 -206.34113451 409.01040823 -207.19921875 407.859375 C-213.23677396 399.66974019 -218.61957302 391.16711724 -223.625 382.3125 C-224.0271875 381.60528809 -224.429375 380.89807617 -224.84375 380.16943359 C-237.8691741 357.03404164 -246.61801461 331.86287591 -251.9375 305.875 C-252.08485596 305.15610596 -252.23221191 304.43721191 -252.3840332 303.6965332 C-255.35789088 288.05024391 -255.99800362 272.57681954 -255.9375 256.6875 C-255.93534485 255.66959381 -255.9331897 254.65168762 -255.93096924 253.60293579 C-255.88129854 238.99386477 -255.63040191 224.66174147 -252.625 210.3125 C-252.42632324 209.33764648 -252.22764648 208.36279297 -252.02294922 207.35839844 C-241.90232806 158.9765226 -219.9858123 114.98821731 -185.625 79.3125 C-184.99287598 78.65314453 -184.36075195 77.99378906 -183.70947266 77.31445312 C-174.56502521 67.82619695 -165.26765991 59.0862956 -154.625 51.3125 C-153.47394983 50.45443848 -152.32290823 49.59636549 -151.171875 48.73828125 C-142.98224019 42.70072604 -134.47961724 37.31792698 -125.625 32.3125 C-124.91778809 31.9103125 -124.21057617 31.508125 -123.48193359 31.09375 C-100.34654164 18.0683259 -75.17537591 9.31948539 -49.1875 4 C-48.46860596 3.85264404 -47.74971191 3.70528809 -47.0090332 3.5534668 C-31.36274391 0.57960912 -15.88931954 -0.06050362 0 0 Z " fill="#60181C" transform="translate(255.625,-0.3125)"/>
<path d="M0 0 C1.01790619 0.00215515 2.03581238 0.0043103 3.08456421 0.00653076 C17.69363523 0.05620146 32.02575853 0.30709809 46.375 3.3125 C47.34985352 3.51117676 48.32470703 3.70985352 49.32910156 3.91455078 C97.7109774 14.03517194 141.69928269 35.9516877 177.375 70.3125 C178.3640332 71.26068604 178.3640332 71.26068604 179.37304688 72.22802734 C188.86130305 81.37247479 197.6012044 90.66984009 205.375 101.3125 C206.23306152 102.46355017 207.09113451 103.61459177 207.94921875 104.765625 C213.98677396 112.95525981 219.36957302 121.45788276 224.375 130.3125 C224.7771875 131.01971191 225.179375 131.72692383 225.59375 132.45556641 C238.6191741 155.59095836 247.36801461 180.76212409 252.6875 206.75 C252.83485596 207.46889404 252.98221191 208.18778809 253.1340332 208.9284668 C256.10803724 224.57552614 256.74513065 240.04762833 256.6875 255.9375 C256.68600952 256.95307983 256.68451904 257.96865967 256.6829834 259.01501465 C256.64436374 273.6403353 256.31216281 287.93492502 253.375 302.3125 C253.19855957 303.18825684 253.02211914 304.06401367 252.84033203 304.96630859 C251.78383601 310.1075509 250.62847836 315.21586973 249.375 320.3125 C248.47523438 320.168125 247.57546875 320.02375 246.6484375 319.875 C227.6957541 317.14034428 208.3346055 316.34411603 190.3984375 324.01171875 C186.16379943 325.60542159 182.73533651 325.19675787 178.375 324.3125 C176.0731128 323.9142293 173.77100763 323.51721749 171.46875 323.12109375 C168.93711663 322.66619088 166.40587437 322.20910678 163.875 321.75 C162.56253502 321.51347747 161.25003527 321.27714778 159.9375 321.04101562 C156.74965378 320.46673451 153.56217197 319.8905093 150.375 319.3125 C150.96269165 318.63719238 150.96269165 318.63719238 151.56225586 317.94824219 C168.48933302 298.37281686 175.14604942 276.8050388 173.60986328 251.04931641 C172.61771387 239.4879911 168.5633126 229.84308618 163.08203125 219.73828125 C160.33600899 214.22738532 160.23598435 209.30540113 160.35546875 203.23046875 C160.36959305 202.45745926 160.38371735 201.68444977 160.39826965 200.88801575 C160.43128364 199.25657352 160.46762226 197.62519558 160.50708008 195.99389648 C160.56208491 193.51867905 160.59081515 191.04400595 160.61914062 188.56835938 C160.65461936 186.97652532 160.69167817 185.38472554 160.73046875 183.79296875 C160.73483444 183.06248825 160.73920013 182.33200775 160.74369812 181.57939148 C160.90081784 176.75888117 162.0123751 173.37612232 164.39906311 169.18244934 C166.10439422 165.91494012 166.81729976 162.38756664 167.625 158.8125 C167.88410156 157.72195312 167.88410156 157.72195312 168.1484375 156.609375 C168.56612203 154.84581808 168.97186338 153.07943923 169.375 151.3125 C167.065 151.6425 164.755 151.9725 162.375 152.3125 C163.48170769 150.06716036 164.6235866 147.85180418 165.8125 145.6484375 C171.04112236 135.74019813 172.8018696 127.45853957 172.375 116.3125 C171.116875 116.60125 169.85875 116.89 168.5625 117.1875 C164.90452478 118.00311738 161.23950045 118.72023501 157.55078125 119.3828125 C156.08958862 119.64602295 156.08958862 119.64602295 154.59887695 119.91455078 C153.86499756 120.04587402 153.13111816 120.17719727 152.375 120.3125 C152.12443848 119.65467529 151.87387695 118.99685059 151.61572266 118.3190918 C134.60966486 73.9760853 110.16670924 38.05133166 65.6015625 18.12890625 C39.10431875 6.62368121 7.72966341 3.67360649 -20.625 9.3125 C-21.28580566 9.44140625 -21.94661133 9.5703125 -22.62744141 9.703125 C-49.5249499 15.07889353 -72.81934949 27.32797928 -92.625 46.3125 C-93.43324219 47.05757812 -94.24148437 47.80265625 -95.07421875 48.5703125 C-115.61778775 68.11411597 -128.37157299 94.58265115 -136.625 121.3125 C-142.56267414 120.0308574 -148.40356077 118.57849818 -154.2421875 116.8984375 C-156.70156973 116.19310594 -156.70156973 116.19310594 -159.625 116.3125 C-160.22165672 127.8478633 -157.97961699 138.60577114 -151.625 148.3125 C-151.026875 149.323125 -150.42875 150.33375 -149.8125 151.375 C-149.2246875 152.3340625 -149.2246875 152.3340625 -148.625 153.3125 C-154.375 151.4375 -154.375 151.4375 -156.625 150.3125 C-155.52294556 159.58949558 -153.46539745 168.72257456 -148.09228516 176.54345703 C-145.190474 182.01972028 -145.64788667 188.64716556 -145.4375 194.75 C-145.41008728 195.47692047 -145.38267456 196.20384094 -145.35443115 196.95278931 C-144.98002375 208.77446554 -146.38320875 215.81095272 -153.625 225.3125 C-163.28303704 245.36966109 -163.69557056 270.316524 -156.40332031 291.21972656 C-152.73012456 301.09633696 -147.90104025 308.81311465 -140.56640625 316.30078125 C-138.625 318.3125 -138.625 318.3125 -138.625 319.3125 C-142.62664332 320.00758878 -146.62852219 320.70130398 -150.63061523 321.39379883 C-151.98940313 321.62910702 -153.34812837 321.86477729 -154.70678711 322.10083008 C-156.67024108 322.44189278 -158.63394684 322.7815049 -160.59765625 323.12109375 C-161.77593994 323.32532959 -162.95422363 323.52956543 -164.16821289 323.73999023 C-165.30895264 323.92891846 -166.44969238 324.11784668 -167.625 324.3125 C-168.85114014 324.52116699 -170.07728027 324.72983398 -171.34057617 324.94482422 C-175.45986352 325.40595904 -178.01426523 324.45804345 -181.875 323 C-191.75916975 319.29873901 -201.45721853 317.90303465 -212 317.875 C-213.02496582 317.87113281 -214.04993164 317.86726563 -215.10595703 317.86328125 C-225.07807996 318.01049389 -234.31382559 320.06547353 -243.85107422 322.85351562 C-245.625 323.3125 -245.625 323.3125 -247.625 323.3125 C-257.02182418 287.32229199 -260.31096293 247.00900227 -252.625 210.3125 C-252.42632324 209.33764648 -252.22764648 208.36279297 -252.02294922 207.35839844 C-241.90232806 158.9765226 -219.9858123 114.98821731 -185.625 79.3125 C-184.99287598 78.65314453 -184.36075195 77.99378906 -183.70947266 77.31445312 C-174.56502521 67.82619695 -165.26765991 59.0862956 -154.625 51.3125 C-153.47394983 50.45443848 -152.32290823 49.59636549 -151.171875 48.73828125 C-142.98224019 42.70072604 -134.47961724 37.31792698 -125.625 32.3125 C-124.91778809 31.9103125 -124.21057617 31.508125 -123.48193359 31.09375 C-100.34654164 18.0683259 -75.17537591 9.31948539 -49.1875 4 C-48.46860596 3.85264404 -47.74971191 3.70528809 -47.0090332 3.5534668 C-31.36274391 0.57960912 -15.88931954 -0.06050362 0 0 Z " fill="#A6EEFE" transform="translate(255.625,-0.3125)"/>
<path d="M0 0 C1.56911133 -0.01160156 1.56911133 -0.01160156 3.16992188 -0.0234375 C10.12568461 -0.00616683 16.64282634 0.77058934 23.4375 2.25 C22.22751986 9.24027076 20.44924058 15.78300573 18 22.4375 C17.65364502 23.37948242 17.30729004 24.32146484 16.95043945 25.29199219 C6.56085679 52.83064502 -8.45793216 77.89286237 -27.5625 100.25 C-28.19929688 100.99894531 -28.83609375 101.74789062 -29.4921875 102.51953125 C-41.30952468 116.01520621 -54.04801588 128.68558025 -68.5625 139.25 C-69.71244831 140.10649066 -70.86218589 140.96326433 -72.01171875 141.8203125 C-80.20184258 147.86034209 -88.70629618 153.24367614 -97.5625 158.25 C-98.62331787 158.85328125 -98.62331787 158.85328125 -99.70556641 159.46875 C-122.84095836 172.4941741 -148.01212409 181.24301461 -174 186.5625 C-174.71889404 186.70985596 -175.43778809 186.85721191 -176.1784668 187.0090332 C-191.82590778 189.98310978 -207.29735024 190.61872108 -223.1875 190.5625 C-224.20008881 190.56134186 -225.21267761 190.56018372 -226.25595093 190.55899048 C-271.54095369 190.45645772 -271.54095369 190.45645772 -281.35546875 181.78125 C-282.54076172 180.28078125 -282.54076172 180.28078125 -283.75 178.75 C-284.19649902 178.19103027 -284.64299805 177.63206055 -285.10302734 177.05615234 C-286.61595007 175.13985233 -288.09036102 173.1977815 -289.5625 171.25 C-290.40917236 170.14833496 -290.40917236 170.14833496 -291.27294922 169.02441406 C-299.08135484 158.83953717 -306.38131737 148.50515342 -312.5625 137.25 C-312.90474609 136.63656738 -313.24699219 136.02313477 -313.59960938 135.39111328 C-319.78176407 124.18378313 -323.87533693 112.48052955 -327.5625 100.25 C-327.76858887 99.5708252 -327.97467773 98.89165039 -328.18701172 98.19189453 C-336.54471452 70.15526881 -340.04363345 39.43876235 -339.5625 10.25 C-338.29535156 10.52714844 -337.02820313 10.80429687 -335.72265625 11.08984375 C-334.02348785 11.45596291 -332.32426622 11.82183512 -330.625 12.1875 C-329.79419922 12.36990234 -328.96339844 12.55230469 -328.10742188 12.74023438 C-320.75478749 14.31375535 -313.64326537 15.28017166 -306.1171875 15.3203125 C-305.18519531 15.330625 -304.25320313 15.3409375 -303.29296875 15.3515625 C-301.38155884 15.36725123 -299.46981472 15.35924393 -297.55859375 15.328125 C-292.49364884 15.42647344 -289.44841875 15.75593887 -285.8203125 19.4609375 C-285.27648926 20.09370605 -284.73266602 20.72647461 -284.17236328 21.37841797 C-271.3706453 36.26133729 -249.2335728 44.36550784 -230.22875977 46.06689453 C-202.55407149 47.96745457 -177.24600665 43.5068385 -155.5625 25.25 C-154.83546875 24.39148438 -154.1084375 23.53296875 -153.359375 22.6484375 C-150.27360867 19.04837679 -147.80706405 16.61028044 -142.97070312 15.83398438 C-137.59697857 15.42981281 -132.23004637 15.42778845 -126.84375 15.3984375 C-112.81869563 15.2595339 -96.02515855 10.7992843 -84.2265625 3.0625 C-76.69235802 -1.33464574 -66.68214121 1.68620161 -58.625 3.1875 C-57.59826172 3.36990234 -56.57152344 3.55230469 -55.51367188 3.74023438 C-48.05887277 5.08454241 -48.05887277 5.08454241 -44.5625 6.25 C-38.23526562 7.05408604 -33.43169154 5.63887179 -27.58569336 3.31665039 C-18.69460195 0.17967402 -9.33689953 -0.06929053 0 0 Z " fill="#DAB58D" transform="translate(479.5625,321.75)"/>
<path d="M0 0 C2.37770165 2.27333688 4.42772205 4.7149765 6.5234375 7.25 C11.23273467 12.47925112 17.17969042 16.11979361 23 20 C33.00226185 19.30677393 41.08734551 9.14782709 47.39453125 2.125 C50 0 50 0 53.0546875 -0.3984375 C55.67923734 -0.0433923 57.85594262 0.41145711 60.3125 1.375 C60.98925781 1.63023437 61.66601562 1.88546875 62.36328125 2.1484375 C64 3 64 3 65 5 C67.4863194 5.5329024 67.4863194 5.5329024 70.50390625 5.78125 C72.20450195 5.96107422 72.20450195 5.96107422 73.93945312 6.14453125 C75.13505859 6.26183594 76.33066406 6.37914062 77.5625 6.5 C98.74008289 8.62593496 98.74008289 8.62593496 104.27734375 14.78125 C119.16785117 33.95995343 120.23676139 57.60366973 120 81 C112.575 82.98 112.575 82.98 105 85 C104.67 91.6 104.34 98.2 104 105 C99.545 105.495 99.545 105.495 95 106 C91.9879937 107.95369457 91.9879937 107.95369457 89.5625 110.625 C71.46852254 128.24282016 50.11126932 135.17428808 25.3125 135.1875 C24.12205078 135.19974609 22.93160156 135.21199219 21.70507812 135.22460938 C-5.04474231 135.26824693 -23.66078413 125.35190381 -43 108 C-43.66 107.34 -44.32 106.68 -45 106 C-47.47151061 105.64509896 -47.47151061 105.64509896 -50.33984375 105.62109375 C-51.40267578 105.58693359 -52.46550781 105.55277344 -53.56054688 105.51757812 C-54.67494141 105.49115234 -55.78933594 105.46472656 -56.9375 105.4375 C-59.13422385 105.37757776 -61.33085049 105.31394424 -63.52734375 105.24609375 C-64.99288696 105.21020142 -64.99288696 105.21020142 -66.48803711 105.17358398 C-69 105 -69 105 -72 104 C-73.2832723 35.41622476 -73.2832723 35.41622476 -52.40625 11.890625 C-46.9109814 7.57291396 -39.72865978 7.48760932 -33 6.875 C-31.70449219 6.74544922 -31.70449219 6.74544922 -30.3828125 6.61328125 C-25.56434674 6.15193878 -20.83975345 5.90793947 -16 6 C-16 5.01 -16 4.02 -16 3 C-5.04854369 -1.17198336 -5.04854369 -1.17198336 0 0 Z " fill="#DAB58D" transform="translate(237,229)"/>
<path d="M0 0 C-0.72107905 11.46267048 -2.8958652 20.80746376 -10 30 C-10.47179687 30.61230469 -10.94359375 31.22460938 -11.4296875 31.85546875 C-14.59424603 35.79712302 -14.59424603 35.79712302 -17 37 C-17.33 37.99 -17.66 38.98 -18 40 C-11.07 37.525 -11.07 37.525 -4 35 C-6.33755276 50.89535874 -14.92505728 62.52074841 -26.43359375 73.30859375 C-28.23661425 75.02219033 -28.23661425 75.02219033 -29 78 C-25.04 77.01 -21.08 76.02 -17 75 C-22.53639265 88.84098161 -31.58531883 97.09680924 -45 103 C-47.475 103.99 -47.475 103.99 -50 105 C-49.67 115.23 -49.34 125.46 -49 136 C-54.52115583 130.47884417 -54.52115583 130.47884417 -55.6640625 127.23046875 C-57.86497944 122.35471914 -60.18192491 118.59100856 -65 116 C-72.07242786 114.78247059 -79.14744559 115.25506795 -86.28613281 115.58422852 C-87.84176221 115.65586747 -89.39742657 115.72675107 -90.953125 115.796875 C-92.10593964 115.84992043 -92.10593964 115.84992043 -93.28204346 115.90403748 C-100.56000141 116.1646549 -107.25153034 115.20167273 -114.375 113.625 C-115.38900879 113.40247559 -116.40301758 113.17995117 -117.44775391 112.95068359 C-121.81042804 111.92918308 -125.84692561 110.68650149 -130 109 C-133.93454767 108.01791701 -137.07240734 107.91181389 -141 109 C-144.92865593 112.15406268 -148.16848235 115.7619472 -151.54785156 119.48193359 C-153.67006235 121.70047876 -155.97305781 123.55043523 -158.4375 125.375 C-159.19933594 125.93960938 -159.96117187 126.50421875 -160.74609375 127.0859375 C-163 128 -163 128 -165.515625 127.35546875 C-180.64095203 119.10312837 -188.77890243 105.66511993 -193.875 89.6875 C-195.43734831 83.34284161 -195.55790924 76.83519092 -195.7890625 70.33203125 C-195.94862607 66.17680809 -196.43099646 62.1182797 -197 58 C-201.90587465 56.3084953 -206.80457204 54.7483935 -211.8125 53.38671875 C-212.82570312 53.10763672 -213.83890625 52.82855469 -214.8828125 52.54101562 C-216.95798121 51.97281467 -219.03615545 51.41547673 -221.1171875 50.86914062 C-230.797048 48.16592258 -239.43021246 43.66787605 -245 35 C-247.08059533 30.74806687 -249 26.77807455 -249 22 C-243.06375648 22.61497043 -237.50412592 23.76417353 -231.75 25.328125 C-230.89245117 25.55900818 -230.03490234 25.78989136 -229.15136719 26.027771 C-227.3487991 26.5156931 -225.5470491 27.00664669 -223.74609375 27.50048828 C-221.01126159 28.24692629 -218.27160013 28.9733405 -215.53125 29.69921875 C-213.77050025 30.17846541 -212.01007206 30.65889539 -210.25 31.140625 C-209.44143555 31.35229309 -208.63287109 31.56396118 -207.79980469 31.78204346 C-202.37837712 33.29857107 -197.36884154 35.35561809 -193 39 C-193 39.66 -193 40.32 -193 41 C-192.319375 40.29875 -191.63875 39.5975 -190.9375 38.875 C-189.96188606 37.91305012 -188.98238825 36.95503061 -188 36 C-187.48050781 35.484375 -186.96101563 34.96875 -186.42578125 34.4375 C-179.18820102 27.68917345 -171.7275181 26.48999401 -162.02587891 26.58251953 C-154.74626204 26.85467074 -148.32756759 28.04605404 -142.7734375 32.9765625 C-138 38.2064243 -138 38.2064243 -138 41 C-137.45472656 40.60167969 -136.90945313 40.20335937 -136.34765625 39.79296875 C-135.59355469 39.26316406 -134.83945312 38.73335937 -134.0625 38.1875 C-132.96615234 37.40439453 -132.96615234 37.40439453 -131.84765625 36.60546875 C-125.20515317 32.86051846 -117.51322506 31.2598015 -110.1875 29.3125 C-101.51664162 26.97969702 -92.87841695 24.54746021 -84.25 22.0625 C-70.87347215 18.21994733 -57.44949469 14.57745592 -44 11 C-41.36318014 10.29725405 -38.72650986 9.59394755 -36.08984375 8.890625 C-32.16384555 7.84337709 -28.23772213 6.79661643 -24.31103516 5.75195312 C-23.12687012 5.43677734 -21.94270508 5.12160156 -20.72265625 4.796875 C-19.58973145 4.49587891 -18.45680664 4.19488281 -17.28955078 3.88476562 C-13.25165697 2.79872383 -9.22643726 1.66924178 -5.20483398 0.52441406 C-3 0 -3 0 0 0 Z " fill="#FDFCFC" transform="translate(426,119)"/>
<path d="M0 0 C0.99781494 0.12600586 1.99562988 0.25201172 3.02368164 0.38183594 C10.05213005 1.36463005 10.05213005 1.36463005 12.3125 3.625 C11.74402344 4.15867187 11.17554688 4.69234375 10.58984375 5.2421875 C1.12251548 14.3776061 -7.79668809 24.56850452 -8.0625 38.25 C-7.91621398 43.04930683 -7.35914907 47.13244311 -5.6875 51.625 C-10.93087417 55.41188134 -16.3514141 58.60725643 -22.125 61.5 C-22.74004395 61.8101001 -23.35508789 62.1202002 -23.98876953 62.43969727 C-28.42845598 64.625 -28.42845598 64.625 -30.6875 64.625 C-31.6875 60.625 -31.6875 60.625 -31.6875 50.625 C-38.9475 51.285 -46.2075 51.945 -53.6875 52.625 C-52.04699883 57.42811203 -52.04699883 57.42811203 -50.39648438 62.2277832 C-49.41032302 65.14987323 -48.6875 67.52114406 -48.6875 70.625 C-53.51475915 72.54830168 -57.86698466 72.90601417 -63 72.8125 C-63.75619629 72.8031543 -64.51239258 72.79380859 -65.29150391 72.78417969 C-79.01667495 72.55360391 -89.51007857 69.07031633 -101.6875 62.625 C-101.82027344 63.71039063 -101.95304687 64.79578125 -102.08984375 65.9140625 C-102.26816254 67.35938322 -102.44655169 68.80469526 -102.625 70.25 C-102.71201172 70.96285156 -102.79902344 71.67570312 -102.88867188 72.41015625 C-103.39532605 76.50091961 -103.9764043 80.56342635 -104.6875 84.625 C-103.37721889 85.08963869 -102.06409011 85.54624581 -100.75 86 C-100.01910156 86.25523438 -99.28820312 86.51046875 -98.53515625 86.7734375 C-91.25656366 88.95002623 -84.41534002 90.01223131 -76.8125 90 C-75.46297241 90.00084595 -75.46297241 90.00084595 -74.08618164 90.00170898 C-64.65361154 89.85083403 -55.79351556 87.95053628 -46.6875 85.625 C-45.3675 85.295 -44.0475 84.965 -42.6875 84.625 C-40.7075 88.585 -38.7275 92.545 -36.6875 96.625 C-38.14736328 96.38716797 -38.14736328 96.38716797 -39.63671875 96.14453125 C-50.51852009 94.6048343 -61.87815564 94.14861756 -71.6875 99.625 C-72.63625 100.07875 -73.585 100.5325 -74.5625 101 C-77.43008128 103.19285628 -78.977031 105.45746482 -80.6875 108.625 C-81.10416716 111.12764423 -81.10416716 111.12764423 -80.6875 113.625 C-76.18583391 119.1069716 -68.47012545 122.31295114 -61.6875 123.625 C-49.4782654 124.69192201 -37.46038406 124.10080387 -25.6875 120.625 C-24.4809375 120.2846875 -23.274375 119.944375 -22.03125 119.59375 C-12.60309203 116.71075955 -4.1482988 112.64892773 4.3125 107.625 C5.116875 107.18414062 5.92125 106.74328125 6.75 106.2890625 C8.63320245 104.63540156 8.63320245 104.63540156 8.51953125 101.59375 C8.38933594 100.4490625 8.25914062 99.304375 8.125 98.125 C7.94904297 96.40796875 7.94904297 96.40796875 7.76953125 94.65625 C7.39549024 91.5885438 7.39549024 91.5885438 6.3125 88.625 C5.72984375 89.181875 5.1471875 89.73875 4.546875 90.3125 C-9.04259956 102.96182223 -25.77396986 112.94384707 -45 112.6875 C-46.32451172 112.67396484 -46.32451172 112.67396484 -47.67578125 112.66015625 C-48.33964844 112.64855469 -49.00351563 112.63695313 -49.6875 112.625 C-49.6875 111.305 -49.6875 109.985 -49.6875 108.625 C-39.70266584 104.95002632 -31.57481239 104.625 -20.6875 104.625 C-23.3275 96.705 -25.9675 88.785 -28.6875 80.625 C-15.34821244 70.62053433 3.1530352 69.17456682 19.2421875 71.09375 C28.47404728 72.67959094 38.83592404 75.37123493 45.3125 82.625 C44.9825 83.285 44.6525 83.945 44.3125 84.625 C43.76464844 84.23828125 43.21679688 83.8515625 42.65234375 83.453125 C34.53099085 78.11812245 25.12993386 74.625 15.3125 74.625 C15.89257812 75.02589844 16.47265625 75.42679687 17.0703125 75.83984375 C27.80314979 83.65037386 31.37517083 91.67636418 33.625 104.47265625 C36.95700968 126.74697093 36.95700968 126.74697093 32.3125 134.625 C29.40333869 135.99789368 26.39319386 136.56681643 23.25 137.1875 C16.1707364 138.79139048 10.4375106 140.58018168 4.3125 144.625 C3.98378906 144.16609375 3.65507812 143.7071875 3.31640625 143.234375 C-1.48704584 137.03805198 -7.11128184 134.30734036 -14.6875 132.625 C-24.68008497 132.02623017 -33.68562319 131.67216015 -42.6875 136.625 C-43.41066406 136.95628906 -44.13382812 137.28757813 -44.87890625 137.62890625 C-47.19191408 138.90280905 -47.56053077 140.29593026 -48.6875 142.625 C-51.6875 143.625 -51.6875 143.625 -53.44921875 142.92895508 C-54.08472656 142.56697021 -54.72023438 142.20498535 -55.375 141.83203125 C-59.39953659 139.69605793 -63.28737496 138.43256872 -67.6875 137.3125 C-69.27392472 136.89115311 -70.85983609 136.4678701 -72.4453125 136.04296875 C-73.71036621 135.70531494 -73.71036621 135.70531494 -75.00097656 135.36083984 C-79.87699483 134.02529649 -84.71589608 132.56288002 -89.5625 131.125 C-97.84137222 128.68537349 -106.14238605 126.44541823 -114.52636719 124.3984375 C-122.2017729 122.52051127 -129.80475778 120.41593868 -137.40820312 118.26757812 C-141.45671158 117.12622484 -145.50977215 116.00125939 -149.5625 114.875 C-150.31805176 114.66423828 -151.07360352 114.45347656 -151.85205078 114.23632812 C-155.12176204 113.32621 -158.39238635 112.4380918 -161.6875 111.625 C-161.11537341 105.76266176 -159.46741062 100.81501893 -157.25 95.375 C-156.89583008 94.50456055 -156.54166016 93.63412109 -156.17675781 92.73730469 C-147.80702564 72.62236293 -136.7589119 55.39030748 -121.6875 39.625 C-121.01847656 38.8928125 -120.34945312 38.160625 -119.66015625 37.40625 C-89.19105397 5.17822375 -42.73613783 -5.47959616 0 0 Z " fill="#1B6DB6" transform="translate(284.6875,11.375)"/>
<path d="M0 0 C21.42956958 3.22751998 41.99504196 14.83549565 58 29 C58.49097168 29.42539062 58.98194336 29.85078125 59.48779297 30.2890625 C80.84560646 48.82219847 98.21670517 75.67636584 106 103 C106.14453125 105.9375 106.14453125 105.9375 106 108 C93.27525831 111.91985077 80.41255438 115.30388314 67.53833008 118.68994141 C59.95046114 120.6863038 52.36720922 122.69327691 44.8125 124.8125 C44.13582275 125.00223389 43.45914551 125.19196777 42.76196289 125.38745117 C41.79117798 125.65972534 41.79117798 125.65972534 40.80078125 125.9375 C36.70566782 127.08227991 32.60570824 128.20641837 28.5 129.3125 C27.2934375 129.63863281 26.086875 129.96476563 24.84375 130.30078125 C22 131 22 131 20 131 C20.15855469 130.35289062 20.31710937 129.70578125 20.48046875 129.0390625 C22.92596601 114.73382287 22.03027848 95.43381421 14.3125 82.75 C11.35128528 78.94381142 7.66779597 76.09981495 3.7578125 73.3125 C3.17773438 72.879375 2.59765625 72.44625 2 72 C2 71.67 2 71.34 2 71 C13.18062405 71.49471788 22.80037122 74.63102623 32 81 C26.0815452 73.32792896 15.23348517 70.66324019 5.98828125 69.28515625 C-10.31596509 67.72932621 -25.66561361 69.70340138 -40 78 C-39.78794922 78.62044189 -39.57589844 79.24088379 -39.35742188 79.88012695 C-38.40024341 82.68934057 -37.45004925 85.50086777 -36.5 88.3125 C-36.16613281 89.28896484 -35.83226562 90.26542969 -35.48828125 91.27148438 C-35.17246094 92.20927734 -34.85664063 93.14707031 -34.53125 94.11328125 C-34.23798828 94.97735596 -33.94472656 95.84143066 -33.64257812 96.73168945 C-33 99 -33 99 -33 102 C-33.55872803 102.04487549 -34.11745605 102.08975098 -34.69311523 102.13598633 C-37.27567165 102.35002212 -39.85643746 102.58116977 -42.4375 102.8125 C-43.31599609 102.88275391 -44.19449219 102.95300781 -45.09960938 103.02539062 C-51.09162903 103.57815997 -56.383938 104.83958 -62 107 C-62 107.66 -62 108.32 -62 109 C-54.72317513 109.36886681 -48.52337538 108.47153334 -41.5625 106.375 C-40.17792603 105.96241943 -40.17792603 105.96241943 -38.76538086 105.54150391 C-25.36891759 101.40441301 -16.26608482 94.26195681 -6 85 C-2.97070685 90.27559104 -2.1492605 96.00815367 -3 102 C-5.66851584 105.51354585 -9.07971383 107.09983681 -13 109 C-14.68802734 109.88945312 -14.68802734 109.88945312 -16.41015625 110.796875 C-34.96655369 120.26648064 -56.86333236 125.2526213 -77.6015625 121.31640625 C-83.81607478 119.20697321 -89.35122566 115.64877434 -94 111 C-93.69287157 105.67644048 -92.93169941 102.65086374 -89 99 C-82.85127768 95.15938469 -77.24846278 91.87914195 -69.8828125 91.8671875 C-69.11066406 91.86589844 -68.33851563 91.86460938 -67.54296875 91.86328125 C-66.74503906 91.86714844 -65.94710937 91.87101562 -65.125 91.875 C-64.33480469 91.87113281 -63.54460937 91.86726563 -62.73046875 91.86328125 C-58.3748038 91.87052861 -54.28839498 92.13128976 -50 93 C-51.65 89.7 -53.3 86.4 -55 83 C-56.86205078 83.41572266 -56.86205078 83.41572266 -58.76171875 83.83984375 C-60.40363951 84.20575752 -62.04556695 84.57164136 -63.6875 84.9375 C-64.91243164 85.21110352 -64.91243164 85.21110352 -66.16210938 85.49023438 C-67.75373659 85.84464529 -69.34609491 86.19579076 -70.93920898 86.54345703 C-72.44892549 86.8779162 -73.95297384 87.23824346 -75.453125 87.61328125 C-89.13977587 89.69146904 -104.85024672 89.08735608 -117 82 C-116.51172287 74.52165033 -115.66594452 67.31074682 -114 60 C-110.82183404 61.23025779 -107.72195436 62.58122433 -104.625 64 C-94.99422904 68.27504519 -85.69024303 69.0783834 -75.3125 69.125 C-74.22509521 69.13200928 -74.22509521 69.13200928 -73.11572266 69.13916016 C-68.97231972 69.12679747 -65.06407315 68.80641451 -61 68 C-61.3609375 66.86820312 -61.721875 65.73640625 -62.09375 64.5703125 C-62.56264982 63.08858907 -63.03139164 61.60681563 -63.5 60.125 C-63.73847656 59.37863281 -63.97695312 58.63226563 -64.22265625 57.86328125 C-66 52.2265625 -66 52.2265625 -66 50 C-58.54119723 48.15180108 -51.68035307 47.82138714 -44 48 C-43.505 54.93 -43.505 54.93 -43 62 C-30.70420685 56.0319557 -30.70420685 56.0319557 -19 49 C-19.33 48.113125 -19.66 47.22625 -20 46.3125 C-22.75926631 36.13387317 -21.36463132 27.7048278 -16.34765625 18.515625 C-12.42847972 12.30751033 -7.19422047 7.13904665 -2 2 C-1.34 1.34 -0.68 0.68 0 0 Z " fill="#4E91BE" transform="translate(297,14)"/>
<path d="M0 0 C6.55617265 0.88897256 11.36931533 2.24189501 15.6875 7.5 C17.14360885 12.91124897 16.69147277 18.63557144 16.64453125 24.19140625 C16.58645613 32.43693458 17.41411649 40.50942248 18.375 48.6875 C18.50597076 49.80726227 18.50597076 49.80726227 18.6395874 50.949646 C24.34766822 98.89623492 39.83347516 140.98461661 71.4765625 177.7421875 C73.6875 180.5 73.6875 180.5 73.6875 182.5 C31.83404361 173.38578027 -6.71690673 151.7863694 -37.94140625 122.66015625 C-40.25713655 120.48436828 -40.25713655 120.48436828 -42.71484375 118.68359375 C-46.11567629 115.91630822 -48.12275716 113.91925368 -48.71899414 109.45947266 C-48.54598139 99.03419802 -47.50950424 88.83046414 -46.125 78.5 C-45.95652054 77.21425079 -45.95652054 77.21425079 -45.78463745 75.90252686 C-44.11419394 63.21459413 -42.06856889 50.71937022 -38.99365234 38.28662109 C-38.21991954 35.12124971 -37.4936551 31.94660782 -36.76953125 28.76953125 C-36.24325163 26.49194135 -35.71592872 24.21459224 -35.1875 21.9375 C-34.94588135 20.88320801 -34.7042627 19.82891602 -34.45532227 18.74267578 C-31.86175223 7.84453177 -31.86175223 7.84453177 -29.3125 4.5 C-26.41719502 3.55428199 -24.15555657 3.03850218 -21.1875 2.6875 C-20.03725342 2.52060669 -20.03725342 2.52060669 -18.86376953 2.3503418 C-16.68250915 2.04048527 -14.49947596 1.76595493 -12.3125 1.5 C-11.36375 1.36851562 -10.415 1.23703125 -9.4375 1.1015625 C-6.28746341 0.6968703 -3.14328543 0.47445818 0 0 Z " fill="#1B6DB6" transform="translate(120.3125,322.5)"/>
<path d="M0 0 C6.5025054 1.25435978 12.95100406 2.64106619 19.375 4.25 C20.23947754 4.46615967 21.10395508 4.68231934 21.99462891 4.9050293 C28.64251816 6.59563033 35.19633798 8.52497392 41.75048828 10.54443359 C54.3930445 14.39752035 67.21775218 17.64690132 80 21 C80.14622803 22.10085937 80.29245605 23.20171875 80.44311523 24.3359375 C81.62801885 32.13209422 85.42653389 38.5794702 91.6015625 43.48046875 C99.74397581 48.63909868 109.4792239 50.8406368 118.73193359 53.21337891 C127.51828065 55.51080698 127.51828065 55.51080698 131 58 C133.03901214 63.50004427 133.21811474 68.69177502 133.3125 74.5 C133.75372345 86.71438743 137.38149317 97.19517917 143 108 C142.67 108.66 142.34 109.32 142 110 C141.34 109.34 140.68 108.68 140 108 C134.42472977 107.23476683 130.40382114 108.43407704 125.125 110.3125 C105.47359437 117.22256035 84.54716695 117.44338545 64 115 C63.72744385 115.57975586 63.4548877 116.15951172 63.17407227 116.75683594 C62.01023289 118.9804492 60.71711045 120.88295304 59.21484375 122.890625 C58.41916992 123.95410156 58.41916992 123.95410156 57.60742188 125.0390625 C57.05634766 125.76867187 56.50527344 126.49828125 55.9375 127.25 C55.10508789 128.36761719 55.10508789 128.36761719 54.25585938 129.5078125 C53.72669922 130.21164063 53.19753906 130.91546875 52.65234375 131.640625 C52.16757568 132.28547852 51.68280762 132.93033203 51.18334961 133.59472656 C50.79284424 134.0584668 50.40233887 134.52220703 50 135 C49.67 135 49.34 135 49 135 C49.33 124.77 49.66 114.54 50 104 C47.03 103.505 47.03 103.505 44 103 C30.90838034 97.28289156 23.87646872 89.16246169 17 77 C17 76.34 17 75.68 17 75 C20.63 75.66 24.26 76.32 28 77 C26.04592845 73.0918569 24.43808621 71.31391261 21.3125 68.375 C12.94875022 60.11971383 4.42022698 49.41053749 3.87109375 37.11328125 C3.91363281 36.41589844 3.95617187 35.71851563 4 35 C4.77085938 35.30035156 5.54171875 35.60070312 6.3359375 35.91015625 C7.84027344 36.48056641 7.84027344 36.48056641 9.375 37.0625 C10.87160156 37.63677734 10.87160156 37.63677734 12.3984375 38.22265625 C14.95231831 39.30907481 14.95231831 39.30907481 17 38 C16.57589844 37.62230469 16.15179688 37.24460938 15.71484375 36.85546875 C6.90226443 28.58520201 0.6120598 18.5843001 -0.171875 6.30859375 C-0.1850431 4.20499008 -0.10333305 2.10110544 0 0 Z " fill="#A6A6A5" transform="translate(98,119)"/>
<path d="M0 0 C0.33 0 0.66 0 1 0 C0.95286865 0.96655518 0.95286865 0.96655518 0.90478516 1.95263672 C-0.3479746 17.16982238 -0.3479746 17.16982238 5.3359375 30.66796875 C7.4856708 33.68062317 8.62924123 36.903309 9.8125 40.375 C10.21082031 41.53773438 10.60914063 42.70046875 11.01953125 43.8984375 C16.12263234 60.04131505 15.02133997 82.61899836 8 98 C7.61585938 98.92941406 7.23171875 99.85882813 6.8359375 100.81640625 C-0.59019178 117.36101401 -14.72827064 127.26538802 -31 134 C-38.54314001 136.796213 -46.02347916 138.24817453 -54 139 C-54.03738281 137.74574219 -54.07476562 136.49148438 -54.11328125 135.19921875 C-53.62316672 89.39164456 -53.62316672 89.39164456 -72.2265625 49.74609375 C-73.61803424 48.52917058 -75.03843618 47.34383819 -76.49609375 46.20703125 C-76.99238281 45.80871094 -77.48867188 45.41039062 -78 45 C-78 44.67 -78 44.34 -78 44 C-69.49756848 42.30554793 -60.49939404 40.71725538 -52 43 C-44.21880989 48.53480621 -39.20825541 57.58348918 -35 66 C-34.01 66.33 -33.02 66.66 -32 67 C-32.06058594 66.22922119 -32.12117188 65.45844238 -32.18359375 64.66430664 C-32.45930935 61.13064004 -32.72969278 57.59658426 -33 54.0625 C-33.09539062 52.85013672 -33.19078125 51.63777344 -33.2890625 50.38867188 C-33.7811839 43.90321479 -34.11225718 37.50390043 -34 31 C-33.33355469 30.8040625 -32.66710937 30.608125 -31.98046875 30.40625 C-16.47194168 25.37411255 -8.05518852 15.62892474 -0.72265625 1.546875 C-0.48417969 1.03640625 -0.24570312 0.5259375 0 0 Z " fill="#1B6DB5" transform="translate(412,194)"/>
<path d="M0 0 C1.91777276 2.36608328 3.80633971 4.72733402 5.5703125 7.2109375 C12.1901708 16.42551413 20.43584461 21.26996864 31 25 C31.11317227 37.05023529 31.03330247 48.98785879 30 61 C30.99 61 31.98 61 33 61 C33.39964966 60.1495813 33.39964966 60.1495813 33.80737305 59.28198242 C36.03976604 55.01050294 38.99164134 51.20962474 41.8125 47.3125 C42.42931641 46.43271484 43.04613281 45.55292969 43.68164062 44.64648438 C44.28814453 43.81052734 44.89464844 42.97457031 45.51953125 42.11328125 C46.34094604 40.96533081 46.34094604 40.96533081 47.17895508 39.79418945 C50.01115485 37.00375694 52.64674459 37.01178356 56.49536133 36.97827148 C57.3489624 37.02540283 58.20256348 37.07253418 59.08203125 37.12109375 C60.01337891 37.16943359 60.94472656 37.21777344 61.90429688 37.26757812 C62.86400391 37.32365234 63.82371094 37.37972656 64.8125 37.4375 C65.79154297 37.48970703 66.77058594 37.54191406 67.77929688 37.59570312 C70.1865609 37.72487339 72.59335638 37.85981643 75 38 C74.24589844 38.74378906 73.49179688 39.48757812 72.71484375 40.25390625 C48.91323055 64.32949485 52.24192035 101.55980597 51 133 C30.44116851 130.6751654 11.2439569 123.81093724 -2.34375 107.37109375 C-14.81752399 89.51359184 -18.96951153 65.81284141 -15.3515625 44.48828125 C-13.21560399 34.33852733 -8.96086718 24.414135 -2.828125 16.03125 C-0.71133855 12.52136478 -0.41593985 10.19052625 -0.25 6.125 C-0.19328125 4.97257813 -0.1365625 3.82015625 -0.078125 2.6328125 C-0.05234375 1.76398438 -0.0265625 0.89515625 0 0 Z " fill="#1B6DB6" transform="translate(114,200)"/>
<path d="M0 0 C4.02227744 3.27917872 6.14217322 5.59910628 6.8046875 10.81640625 C6.53805265 17.37117976 4.28193712 23.67352018 2.3046875 29.87890625 C-0.35784761 28.60881292 -2.71929552 27.19175554 -5.1328125 25.50390625 C-18.64517428 16.95113793 -37.01117081 15.86223707 -52.3815918 19.05883789 C-59.69486722 20.75479992 -66.16608718 23.09985633 -72.6953125 26.87890625 C-72.48326172 27.49934814 -72.27121094 28.11979004 -72.05273438 28.7590332 C-71.09555591 31.56824682 -70.14536175 34.37977402 -69.1953125 37.19140625 C-68.86144531 38.16787109 -68.52757812 39.14433594 -68.18359375 40.15039062 C-67.86777344 41.08818359 -67.55195313 42.02597656 -67.2265625 42.9921875 C-66.93330078 43.85626221 -66.64003906 44.72033691 -66.33789062 45.6105957 C-65.6953125 47.87890625 -65.6953125 47.87890625 -65.6953125 50.87890625 C-66.25404053 50.92378174 -66.81276855 50.96865723 -67.38842773 51.01489258 C-69.97098415 51.22892837 -72.55174996 51.46007602 -75.1328125 51.69140625 C-76.01130859 51.76166016 -76.88980469 51.83191406 -77.79492188 51.90429688 C-83.78694153 52.45706622 -89.0792505 53.71848625 -94.6953125 55.87890625 C-94.6953125 56.53890625 -94.6953125 57.19890625 -94.6953125 57.87890625 C-87.41848763 58.24777306 -81.21868788 57.35043959 -74.2578125 55.25390625 C-72.87323853 54.84132568 -72.87323853 54.84132568 -71.46069336 54.42041016 C-58.06423009 50.28331926 -48.96139732 43.14086306 -38.6953125 33.87890625 C-35.66601935 39.15449729 -34.844573 44.88705992 -35.6953125 50.87890625 C-38.36382834 54.3924521 -41.77502633 55.97874306 -45.6953125 57.87890625 C-47.38333984 58.76835937 -47.38333984 58.76835937 -49.10546875 59.67578125 C-67.66186619 69.14538689 -89.55864486 74.13152755 -110.296875 70.1953125 C-116.51138728 68.08587946 -122.04653816 64.52768059 -126.6953125 59.87890625 C-126.38818407 54.55534673 -125.62701191 51.52976999 -121.6953125 47.87890625 C-115.54659018 44.03829094 -109.94377528 40.7580482 -102.578125 40.74609375 C-101.80597656 40.74480469 -101.03382813 40.74351563 -100.23828125 40.7421875 C-99.44035156 40.74605469 -98.64242187 40.74992187 -97.8203125 40.75390625 C-97.03011719 40.75003906 -96.23992187 40.74617188 -95.42578125 40.7421875 C-91.0701163 40.74943486 -86.98370748 41.01019601 -82.6953125 41.87890625 C-84.3453125 38.57890625 -85.9953125 35.27890625 -87.6953125 31.87890625 C-88.93667969 32.15605469 -90.17804688 32.43320313 -91.45703125 32.71875 C-93.09895201 33.08466377 -94.74087945 33.45054761 -96.3828125 33.81640625 C-97.60774414 34.09000977 -97.60774414 34.09000977 -98.85742188 34.36914062 C-100.44904909 34.72355154 -102.04140741 35.07469701 -103.63452148 35.42236328 C-105.14423799 35.75682245 -106.64828634 36.11714971 -108.1484375 36.4921875 C-121.83508837 38.57037529 -137.54555922 37.96626233 -149.6953125 30.87890625 C-149.20703537 23.40055658 -148.36125702 16.18965307 -146.6953125 8.87890625 C-143.51714654 10.10916404 -140.41726686 11.46013058 -137.3203125 12.87890625 C-127.68954154 17.15395144 -118.38555553 17.95728965 -108.0078125 18.00390625 C-106.92040771 18.01091553 -106.92040771 18.01091553 -105.81103516 18.01806641 C-101.66763222 18.00570372 -97.75938565 17.68532076 -93.6953125 16.87890625 C-94.23671875 15.18121094 -94.23671875 15.18121094 -94.7890625 13.44921875 C-95.25796232 11.96749532 -95.72670414 10.48572188 -96.1953125 9.00390625 C-96.43378906 8.25753906 -96.67226562 7.51117188 -96.91796875 6.7421875 C-98.6953125 1.10546875 -98.6953125 1.10546875 -98.6953125 -1.12109375 C-91.23650973 -2.96929267 -84.37566557 -3.29970661 -76.6953125 -3.12109375 C-76.2003125 3.80890625 -76.2003125 3.80890625 -75.6953125 10.87890625 C-68.13562399 7.18953699 -60.62990003 3.47601049 -53.35424805 -0.75244141 C-35.06039461 -11.37609558 -18.36095124 -12.0267021 0 0 Z " fill="#EEEC7A" transform="translate(329.6953125,65.12109375)"/>
<path d="M0 0 C5.93624352 0.61497043 11.49587408 1.76417353 17.25 3.328125 C18.10754883 3.55900818 18.96509766 3.78989136 19.84863281 4.027771 C21.6512009 4.5156931 23.4529509 5.00664669 25.25390625 5.50048828 C27.98873841 6.24692629 30.72839987 6.9733405 33.46875 7.69921875 C35.22949975 8.17846541 36.98992794 8.65889539 38.75 9.140625 C39.55856445 9.35229309 40.36712891 9.56396118 41.20019531 9.78204346 C46.62162288 11.29857107 51.63115846 13.35561809 56 17 C56 17.66 56 18.32 56 19 C56.680625 18.29875 57.36125 17.5975 58.0625 16.875 C59.03811394 15.91305012 60.01761175 14.95503061 61 14 C61.51949219 13.484375 62.03898437 12.96875 62.57421875 12.4375 C69.81179898 5.68917345 77.2724819 4.48999401 86.97412109 4.58251953 C95.49470678 4.90106482 102.24898326 6.70068692 108.25 12.9375 C109.953125 14.90234375 109.953125 14.90234375 111 17 C110.76906265 19.77568928 110.05865175 21.86351342 108.9609375 24.41796875 C107.81888702 27.4866491 107.72488653 30.04313709 107.625 33.3125 C107.27734102 39.05771196 106.31712201 44.22273118 104.79345703 49.76196289 C103.47993274 54.70587424 102.46052999 59.67986267 101.54296875 64.7109375 C101.35242668 65.75391495 101.35242668 65.75391495 101.15803528 66.81796265 C100.51928999 70.33584989 99.89461143 73.85581151 99.2824707 77.37841797 C95.32133615 99.73415128 95.32133615 99.73415128 89.5625 104.375 C86 106 86 106 83.546875 105.29296875 C68.83158804 97.82247798 61.60013165 84.98056266 55.93359375 70.22265625 C53.65324032 63.07314236 53.47547661 55.77445294 53.2109375 48.33203125 C53.05137393 44.17680809 52.56900354 40.1182797 52 36 C47.09412535 34.3084953 42.19542796 32.7483935 37.1875 31.38671875 C35.66769531 30.9680957 35.66769531 30.9680957 34.1171875 30.54101562 C32.04201879 29.97281467 29.96384455 29.41547673 27.8828125 28.86914062 C18.202952 26.16592258 9.56978754 21.66787605 4 13 C1.91940467 8.74806687 0 4.77807455 0 0 Z " fill="#FEFEFE" transform="translate(177,141)"/>
<path d="M0 0 C1.05058594 -0.00773437 2.10117187 -0.01546875 3.18359375 -0.0234375 C12.4218912 -0.00059869 21.09906003 1.14288076 29.8125 4.3125 C33.71145362 5.72208078 37.39187038 6.66139059 41.5 7.25 C40.21629029 13.92351988 38.74368644 20.52559388 37.125 27.125 C34.82152641 36.67733958 32.76046779 46.25744476 30.94091797 55.91357422 C30.66128344 57.39535853 30.37700907 58.87628086 30.08642578 60.35595703 C27.00143134 76.15463685 25.8758836 92.23194245 24.5 108.25 C20.09864744 104.79455216 16.63393756 101.25493523 13.25 96.8125 C12.77965332 96.20269287 12.30930664 95.59288574 11.82470703 94.96459961 C10.37154714 93.06818944 8.93285427 91.16178902 7.5 89.25 C7.06075195 88.66476562 6.62150391 88.07953125 6.16894531 87.4765625 C-0.32980706 78.75234519 -6.14751381 69.71856615 -11.5 60.25 C-11.9021875 59.54278809 -12.304375 58.83557617 -12.71875 58.10693359 C-19.92425498 45.3087183 -25.51692034 32.05613881 -30.5 18.25 C-30.80309082 17.41243164 -31.10618164 16.57486328 -31.41845703 15.71191406 C-31.69415527 14.92268555 -31.96985352 14.13345703 -32.25390625 13.3203125 C-32.49568604 12.62953613 -32.73746582 11.93875977 -32.98657227 11.22705078 C-33.5 9.25 -33.5 9.25 -33.5 5.25 C-32.06524053 4.78315852 -30.62694004 4.32720356 -29.1875 3.875 C-28.38699219 3.61976563 -27.58648437 3.36453125 -26.76171875 3.1015625 C-17.79824069 0.76139697 -9.25285648 -0.06811919 0 0 Z " fill="#DAB58D" transform="translate(43.5,321.75)"/>
<path d="M0 0 C-8.80182706 39.63555665 -8.80182706 39.63555665 -23 50 C-31.82637775 54.49972199 -41.08283953 55.34883258 -50.875 55.25 C-51.83809082 55.24395752 -52.80118164 55.23791504 -53.79345703 55.23168945 C-63.79500658 55.09247436 -72.75054134 53.91323251 -82 50 C-78.98028884 36.68581896 -75.73536285 24.51480567 -63.71000671 16.46755981 C-60.89849583 14.94503207 -58.42400191 14.1481594 -55.32348633 13.39013672 C-54.20915726 13.11330048 -53.09482819 12.83646423 -51.94673157 12.55123901 C-50.75388046 12.26362701 -49.56102936 11.97601501 -48.33203125 11.6796875 C-47.10087082 11.37555939 -45.86971039 11.07143127 -44.60124207 10.75808716 C-41.34012907 9.95367748 -38.07749074 9.15619117 -34.81378174 8.36242676 C-30.20443216 7.23978606 -25.59800977 6.10521446 -20.99162292 4.9704895 C-18.54066958 4.36744471 -16.08895352 3.76749006 -13.63642883 3.17086792 C-12.53155624 2.900336 -11.42668365 2.62980408 -10.28833008 2.35107422 C-9.31301834 2.11363495 -8.3377066 1.87619568 -7.33283997 1.63156128 C-1.30623339 0 -1.30623339 0 0 0 Z " fill="#191A19" transform="translate(373,157)"/>
<path d="M0 0 C6.55003663 1.25875967 13.03395824 2.67710966 19.5 4.3125 C20.78922363 4.63734375 20.78922363 4.63734375 22.10449219 4.96875 C30.04868138 6.98613676 37.95808781 9.11101837 45.83300781 11.38378906 C48.01598804 12.0045464 50.20614089 12.59279652 52.3984375 13.1796875 C61.58136514 15.71770887 68.52317084 18.34116082 73.69921875 26.765625 C82.12703389 42.68256401 82.12703389 42.68256401 80 51 C77.98007005 51.4829607 75.95900646 51.96118112 73.9375 52.4375 C72.81214844 52.70433594 71.68679687 52.97117188 70.52734375 53.24609375 C54.960984 56.57312302 35.98346374 57.43771838 21.5859375 49.703125 C7.8365452 39.40435239 2.61962248 15.9796971 0 0 Z " fill="#181918" transform="translate(151,157)"/>
<path d="M0 0 C-0.49701416 0.22961426 -0.99402832 0.45922852 -1.50610352 0.69580078 C-11.05438337 5.1915636 -19.71166074 9.91370972 -27.4375 17.1875 C-28.044729 17.75678223 -28.65195801 18.32606445 -29.27758789 18.91259766 C-33.03418219 22.61315525 -35.57861889 26.31786994 -38 31 C-37.01 31.33 -36.02 31.66 -35 32 C-35.68964844 32.12375 -36.37929688 32.2475 -37.08984375 32.375 C-45.71575982 34.26820517 -51.57291391 37.86375332 -56.52734375 45.2890625 C-60.00219843 51.77404966 -64 60.57072054 -64 68 C-57.69239743 69.64681249 -51.48472993 71.26309887 -45 72 C-43.91444601 75.25666196 -44.12873852 75.86579764 -45 79 C-45.67645129 85.09381191 -45.67645129 85.09381191 -43.1875 90.4375 C-41.4805646 91.65673957 -39.74535785 92.8364281 -38 94 C-45.27876095 93.30011914 -53.4072273 92.29638635 -60 89 C-63.90989787 88.06807094 -67.09835115 87.97882771 -71 89 C-74.64396687 91.58827867 -77.52621927 94.9427081 -80.46875 98.27734375 C-83 101 -83 101 -86 102 C-84.96846565 97.23907223 -83.87545272 92.52048864 -82.625 87.8125 C-80.90798664 81.05661325 -79.75476031 74.21902608 -78.55786133 67.35668945 C-77.54398776 61.65758646 -76.32679647 56.08548565 -74.8125 50.5 C-73.46558356 45.42436122 -72.7389245 40.74522616 -72.5 35.5 C-72.1936522 29.88362368 -71.71798713 25.39398479 -68 21 C-60.02731446 14.01790865 -49.93918989 11.90386477 -39.9375 9.25 C-33.72207804 7.58915774 -27.53071742 5.87796843 -21.37109375 4.01953125 C-20.28642822 3.6937207 -19.2017627 3.36791016 -18.08422852 3.03222656 C-15.97670507 2.39540015 -13.87161165 1.75046444 -11.76928711 1.09667969 C-10.81159424 0.80825195 -9.85390137 0.51982422 -8.8671875 0.22265625 C-8.02269043 -0.03765381 -7.17819336 -0.29796387 -6.30810547 -0.56616211 C-3.83282946 -1.03142184 -2.36240217 -0.80299907 0 0 Z " fill="#D1D0D0" transform="translate(356,139)"/>
<path d="M0 0 C1.92763565 2.38440149 3.83188819 4.76984692 5.640625 7.24609375 C9.51550298 12.52232323 13.54376374 16.38612923 19 20 C17.44333705 23.43428734 15.39715058 26.2490464 13.125 29.25 C9.87387515 33.70415841 7.01249997 37.86093758 5 43 C4.62875 43.92296875 4.2575 44.8459375 3.875 45.796875 C-0.66550685 58.97695737 -1.72432401 76.38011235 3.671875 89.43359375 C14.06713189 109.52089898 30.09742184 119.03247395 51 126 C51 128.31 51 130.62 51 133 C30.44116851 130.6751654 11.2439569 123.81093724 -2.34375 107.37109375 C-14.81752399 89.51359184 -18.96951153 65.81284141 -15.3515625 44.48828125 C-13.21560399 34.33852733 -8.96086718 24.414135 -2.828125 16.03125 C-0.71133855 12.52136478 -0.41593985 10.19052625 -0.25 6.125 C-0.19328125 4.97257813 -0.1365625 3.82015625 -0.078125 2.6328125 C-0.05234375 1.76398438 -0.0265625 0.89515625 0 0 Z " fill="#1A5585" transform="translate(114,200)"/>
<path d="M0 0 C3.84773674 0.7852524 7.56497757 1.80528666 11.0625 3.625 C11.3925 4.285 11.7225 4.945 12.0625 5.625 C14.5488194 6.1579024 14.5488194 6.1579024 17.56640625 6.40625 C18.70013672 6.52613281 19.83386719 6.64601562 21.00195312 6.76953125 C22.19755859 6.88683594 23.39316406 7.00414062 24.625 7.125 C45.80258289 9.25093496 45.80258289 9.25093496 51.33984375 15.40625 C66.23035117 34.58495343 67.29926139 58.22866973 67.0625 81.625 C62.1125 82.945 57.1625 84.265 52.0625 85.625 C51.7325 92.225 51.4025 98.825 51.0625 105.625 C50.7325 105.625 50.4025 105.625 50.0625 105.625 C50.032771 104.13842896 50.032771 104.13842896 50.00244141 102.62182617 C51.46812254 63.09363568 51.46812254 63.09363568 38.0625 27.625 C33.66149486 25.78693551 29.86710371 25.38236648 25.125 25.34375 C23.81789063 25.30507812 22.51078125 25.26640625 21.1640625 25.2265625 C19.10917334 25.16858141 17.05869102 25.12499819 15.00292969 25.12402344 C10.51778769 25.10900861 6.36529514 24.93654718 2.0625 23.625 C-0.24763125 21.17447695 -1.47298472 19.01299335 -2.77392578 15.91845703 C-3.73214761 13.51652892 -3.73214761 13.51652892 -5.82373047 12.52294922 C-7.9795361 11.90743312 -7.9795361 11.90743312 -10.9375 11.625 C-9.96981852 5.94458406 -5.64160568 1.20034163 0 0 Z " fill="#F2BF59" transform="translate(289.9375,228.375)"/>
<path d="M0 0 C6.03059146 0.81770732 11.08759444 3.53711839 15.6875 7.5 C16.77297221 10.66825644 16.3951334 12.13874135 15.6875 15.5 C15.1925 13.52 15.1925 13.52 14.6875 11.5 C-2.5351547 12.67418635 -2.5351547 12.67418635 -19.3125 16.5 C-19.69341797 18.02367187 -19.69341797 18.02367187 -20.08203125 19.578125 C-20.76953125 22.328125 -21.45703125 25.078125 -22.14453125 27.828125 C-22.41861816 28.93498657 -22.41861816 28.93498657 -22.69824219 30.06420898 C-23.13371312 31.79103471 -23.58377699 33.51421014 -24.04394531 35.23461914 C-26.06073926 42.91360672 -27.36054486 50.57572745 -28.4375 58.4375 C-28.60636719 59.60990234 -28.77523437 60.78230469 -28.94921875 61.99023438 C-30.59141186 73.69894194 -31.49304571 85.30169961 -31.4375 97.125 C-31.43459961 98.65447266 -31.43459961 98.65447266 -31.43164062 100.21484375 C-31.37869145 109.66333054 -30.9349951 119.07364563 -30.3125 128.5 C-34.7416386 126.06439083 -38.40926587 123.13848441 -42.125 119.75 C-43.0212207 119.02876953 -43.0212207 119.02876953 -43.93554688 118.29296875 C-46.92157892 115.5151058 -48.17280094 113.44838575 -48.77368164 109.36914062 C-48.9506407 99.0375076 -47.49488134 88.72135555 -46.125 78.5 C-45.95652054 77.21425079 -45.95652054 77.21425079 -45.78463745 75.90252686 C-44.11419394 63.21459413 -42.06856889 50.71937022 -38.99365234 38.28662109 C-38.21991954 35.12124971 -37.4936551 31.94660782 -36.76953125 28.76953125 C-36.24325163 26.49194135 -35.71592872 24.21459224 -35.1875 21.9375 C-34.94588135 20.88320801 -34.7042627 19.82891602 -34.45532227 18.74267578 C-31.86175223 7.84453177 -31.86175223 7.84453177 -29.3125 4.5 C-26.41719502 3.55428199 -24.15555657 3.03850218 -21.1875 2.6875 C-20.03725342 2.52060669 -20.03725342 2.52060669 -18.86376953 2.3503418 C-16.68250915 2.04048527 -14.49947596 1.76595493 -12.3125 1.5 C-11.36375 1.36851562 -10.415 1.23703125 -9.4375 1.1015625 C-6.28746341 0.6968703 -3.14328543 0.47445818 0 0 Z " fill="#195585" transform="translate(120.3125,322.5)"/>
<path d="M0 0 C2.10499901 4.06644958 3.60428433 8.25138023 5.125 12.5625 C5.40214844 13.33013672 5.67929687 14.09777344 5.96484375 14.88867188 C6.35736328 15.99758789 6.35736328 15.99758789 6.7578125 17.12890625 C6.9964502 17.79994385 7.23508789 18.47098145 7.48095703 19.16235352 C8 21 8 21 8 24 C7.44127197 24.04487549 6.88254395 24.08975098 6.30688477 24.13598633 C3.72432835 24.35002212 1.14356254 24.58116977 -1.4375 24.8125 C-2.31599609 24.88275391 -3.19449219 24.95300781 -4.09960938 25.02539062 C-10.09162903 25.57815997 -15.383938 26.83958 -21 29 C-21 29.66 -21 30.32 -21 31 C-13.72317513 31.36886681 -7.52337538 30.47153334 -0.5625 28.375 C0.36054932 28.09994629 1.28359863 27.82489258 2.23461914 27.54150391 C15.63108241 23.40441301 24.73391518 16.26195681 35 7 C38.02929315 12.27559104 38.8507395 18.00815367 38 24 C35.33148416 27.51354585 31.92028617 29.09983681 28 31 C26.87464844 31.59296875 25.74929688 32.1859375 24.58984375 32.796875 C6.03344631 42.26648064 -15.86333236 47.2526213 -36.6015625 43.31640625 C-42.81607478 41.20697321 -48.35122566 37.64877434 -53 33 C-52.69287157 27.67644048 -51.93169941 24.65086374 -48 21 C-41.85127768 17.15938469 -36.24846278 13.87914195 -28.8828125 13.8671875 C-28.11066406 13.86589844 -27.33851563 13.86460938 -26.54296875 13.86328125 C-25.74503906 13.86714844 -24.94710937 13.87101562 -24.125 13.875 C-23.33480469 13.87113281 -22.54460937 13.86726563 -21.73046875 13.86328125 C-17.3748038 13.87052861 -13.28839498 14.13128976 -9 15 C-10.32 12.03 -11.64 9.06 -13 6 C-8.71 5.01 -4.42 4.02 0 3 C0 2.01 0 1.02 0 0 Z " fill="#F0BE5A" transform="translate(256,92)"/>
<path d="M0 0 C0.99 0.495 0.99 0.495 2 1 C1.32795532 1.62660522 1.32795532 1.62660522 0.64233398 2.26586914 C-1.42714504 4.19679672 -3.49482853 6.12963706 -5.5625 8.0625 C-6.26697266 8.71927734 -6.97144531 9.37605469 -7.69726562 10.05273438 C-36.14256051 36.66284894 -56.74822947 69.99721165 -66 108 C-72.66666667 106.33333333 -79.33333333 104.66666667 -86 103 C-85.42787341 97.13766176 -83.77991062 92.19001893 -81.5625 86.75 C-81.20833008 85.87956055 -80.85416016 85.00912109 -80.48925781 84.11230469 C-72.11952564 63.99736293 -61.0714119 46.76530748 -46 31 C-45.33097656 30.2678125 -44.66195312 29.535625 -43.97265625 28.78125 C-32.24768846 16.37942187 -16.25270785 5.41756928 0 0 Z " fill="#195585" transform="translate(209,20)"/>
<path d="M0 0 C0.71220703 -0.00386719 1.42441406 -0.00773438 2.15820312 -0.01171875 C5.96030929 -0.00468433 9.49237007 0.210292 13.1875 1.125 C13.85781719 3.0820868 14.52364683 5.04071113 15.1875 7 C15.55875 8.09054688 15.93 9.18109375 16.3125 10.3046875 C17.1875 13.125 17.1875 13.125 17.1875 15.125 C15.95773438 15.15335938 14.72796875 15.18171875 13.4609375 15.2109375 C4.51638852 15.38311502 4.51638852 15.38311502 -3.23828125 19.1328125 C-4.83102277 21.75857243 -5.87280449 24.20332661 -6.8125 27.125 C-7.11800781 27.9603125 -7.42351562 28.795625 -7.73828125 29.65625 C-8.5680783 32.14170847 -9.23030359 34.56901576 -9.8125 37.125 C-10.05214478 38.05010376 -10.05214478 38.05010376 -10.29663086 38.99389648 C-12.38764779 47.92014876 -12.47491349 57.0657018 -12.875 66.1875 C-12.99056546 68.74940118 -13.10834415 71.31113171 -13.23179626 73.87266541 C-13.307894 75.45720807 -13.37930068 77.04198433 -13.4455719 78.62696838 C-13.7003431 84.0128431 -13.7003431 84.0128431 -14.8125 85.125 C-17.50485776 85.36178716 -20.17748156 85.54698025 -22.875 85.6875 C-24.01291992 85.75227539 -24.01291992 85.75227539 -25.17382812 85.81835938 C-27.05315438 85.92473633 -28.93280244 86.02539934 -30.8125 86.125 C-31.23648309 50.48759034 -31.23648309 50.48759034 -28.8125 37.125 C-28.62945312 36.07441406 -28.44640625 35.02382813 -28.2578125 33.94140625 C-25.56776765 21.17199582 -19.35293328 10.04365351 -9.8125 1.125 C-6.70033541 -0.43108229 -3.4117342 -0.01822832 0 0 Z " fill="#F3C059" transform="translate(196.8125,237.875)"/>
<path d="M0 0 C2.37770165 2.27333688 4.42772205 4.7149765 6.5234375 7.25 C11.23273467 12.47925112 17.17969042 16.11979361 23 20 C27.46767636 19.75345599 30.13440403 17.72131484 33.625 15.0625 C34.56601562 14.35222656 35.50703125 13.64195312 36.4765625 12.91015625 C37.72566406 11.96462891 37.72566406 11.96462891 39 11 C39.99 10.34 40.98 9.68 42 9 C42 9.66 42 10.32 42 11 C43.03125 10.979375 44.0625 10.95875 45.125 10.9375 C47.9465688 11.31178974 48.85993842 11.85010431 50.8359375 13.96484375 C52.43268481 16.27750358 53.87795957 18.42111676 55 21 C54.505 22.485 54.505 22.485 54 24 C51.91796875 24.95141602 51.91796875 24.95141602 49.1875 25.75390625 C48.19363281 26.05103516 47.19976562 26.34816406 46.17578125 26.65429688 C45.12777344 26.95400391 44.07976562 27.25371094 43 27.5625 C41.98292969 27.86607422 40.96585937 28.16964844 39.91796875 28.48242188 C37.89569452 29.078201 35.86771311 29.65495171 33.83447266 30.2121582 C32.10205429 30.69368396 30.37874491 31.21228719 28.67724609 31.79370117 C21.68844625 33.93343688 16.29347741 31.59876776 9.625 29.1875 C-1.43626769 25.45158558 -11.35716345 23.77555978 -23 24 C-23.67260351 22.23141309 -24.33788395 20.46003984 -25 18.6875 C-25.37125 17.70136719 -25.7425 16.71523437 -26.125 15.69921875 C-27 13 -27 13 -27 10 C-32.28 9.67 -37.56 9.34 -43 9 C-43 8.67 -43 8.34 -43 8 C-39.81309767 7.66078548 -36.62539896 7.32970583 -33.4375 7 C-32.54224609 6.90460938 -31.64699219 6.80921875 -30.72460938 6.7109375 C-25.78509212 6.20432035 -20.96511986 5.89102618 -16 6 C-16 5.01 -16 4.02 -16 3 C-5.04854369 -1.17198336 -5.04854369 -1.17198336 0 0 Z " fill="#B6906A" transform="translate(237,229)"/>
<path d="M0 0 C-0.0721875 0.68320312 -0.144375 1.36640625 -0.21875 2.0703125 C-1.22886397 13.04127256 -1.09633511 23.99260228 -1 35 C-1.57137695 35.12552246 -2.14275391 35.25104492 -2.73144531 35.38037109 C-6.30530766 36.16935735 -9.86998615 36.96764495 -13.421875 37.8515625 C-29.70996448 41.63682273 -49.0875486 42.69892998 -64 34 C-63.51172287 26.52165033 -62.66594452 19.31074682 -61 12 C-57.82183404 13.23025779 -54.72195436 14.58122433 -51.625 16 C-41.99422904 20.27504519 -32.69024303 21.0783834 -22.3125 21.125 C-21.22509521 21.13200928 -21.22509521 21.13200928 -20.11572266 21.13916016 C-15.97231972 21.12679747 -12.06407315 20.80641451 -8 20 C-8.54140625 18.30230469 -8.54140625 18.30230469 -9.09375 16.5703125 C-9.56264982 15.08858907 -10.03139164 13.60681563 -10.5 12.125 C-10.73847656 11.37863281 -10.97695312 10.63226563 -11.22265625 9.86328125 C-13 4.2265625 -13 4.2265625 -13 2 C-11.39658445 1.66307215 -9.79223445 1.33058907 -8.1875 1 C-7.29417969 0.814375 -6.40085938 0.62875 -5.48046875 0.4375 C-3 0 -3 0 0 0 Z " fill="#F2BF59" transform="translate(244,62)"/>
<path d="M0 0 C1.26714844 0.27714844 2.53429687 0.55429687 3.83984375 0.83984375 C5.53901215 1.20596291 7.23823378 1.57183512 8.9375 1.9375 C9.76830078 2.11990234 10.59910156 2.30230469 11.45507812 2.49023438 C18.80771251 4.06375535 25.91923463 5.03017166 33.4453125 5.0703125 C34.37730469 5.080625 35.30929688 5.0909375 36.26953125 5.1015625 C38.18094116 5.11725123 40.09268528 5.10924393 42.00390625 5.078125 C47.06885116 5.17647344 50.11408125 5.50593887 53.7421875 9.2109375 C54.55792236 10.16009033 54.55792236 10.16009033 55.39013672 11.12841797 C68.1918547 26.01133729 90.3289272 34.11550784 109.33374023 35.81689453 C137.04522756 37.71998175 162.27024547 33.22947191 184 15 C184.7734375 14.12988281 185.546875 13.25976562 186.34375 12.36328125 C190.37189505 7.84580167 193.20097504 5.82279007 199.28515625 5.44140625 C204.53934198 5.34668839 209.76338645 5.5772262 215 6 C212.04517231 7.96988513 210.03281009 8.42701029 206.60693359 9.0378418 C197.99638288 10.67115252 193.69246937 13.46836394 187.76171875 20.1171875 C179.59908163 28.63773375 168.02243362 34.20284555 157 38 C156.05390869 38.34417969 155.10781738 38.68835938 154.13305664 39.04296875 C144.64464685 42.16494826 135.9093434 42.55804415 125.99536133 42.41162109 C123.4372562 42.37499651 120.88060674 42.37060426 118.32226562 42.37109375 C109.03653002 42.33063731 100.1488824 41.73349965 91 40 C90.1970752 39.87616943 89.39415039 39.75233887 88.56689453 39.62475586 C74.97065771 37.50665758 62.74410666 28.49677863 54.34472656 17.91455078 C50.45729169 13.33139416 47.71346635 11.49641132 41.65625 10.921875 C39.27186182 10.83138746 36.88596965 10.77537417 34.5 10.75 C22.58017369 10.28609408 12.31556421 8.77185474 1 5 C1 7.31 1 9.62 1 12 C0.67 12 0.34 12 0 12 C0 8.04 0 4.08 0 0 Z " fill="#B48F6B" transform="translate(140,332)"/>
<path d="M0 0 C12.12521241 1.97645404 24.13308347 5.86560105 36 9 C36.12246094 10.051875 36.24492187 11.10375 36.37109375 12.1875 C37.6672763 20.04510351 41.34648256 26.51593504 47.6015625 31.48046875 C55.74397581 36.63909868 65.4792239 38.8406368 74.73193359 41.21337891 C79.11402341 42.35919481 83.09735899 43.61538474 87 46 C89.90181208 52.99072911 89.18848337 60.54443561 89 68 C87.05875501 65.08813252 85.98975455 62.50642195 84.75 59.25 C81.52061797 51.4542906 78.20162531 46.71958682 70.46899414 42.99951172 C65.51060205 40.9922283 60.31173158 39.82865561 55.125 38.5625 C52.71063019 37.95564841 50.29656782 37.3475724 47.8828125 36.73828125 C46.12179199 36.29669678 46.12179199 36.29669678 44.32519531 35.84619141 C39.86505006 34.71117941 35.42984751 33.49736071 31 32.25 C29.92890991 31.94896362 29.92890991 31.94896362 28.83618164 31.6418457 C28.15676514 31.45066162 27.47734863 31.25947754 26.77734375 31.0625 C22.54779736 29.87280339 18.30903725 28.72011644 14.06640625 27.578125 C12.36298284 27.10155286 10.6780629 26.5593543 9 26 C9.33 28.64 9.66 31.28 10 34 C3.91983603 28.5954098 0.57375477 21.9999201 -1 14 C-1.20083106 9.6589593 -1.2703906 5.33882583 -1 1 C-0.67 0.67 -0.34 0.34 0 0 Z " fill="#D0D0D0" transform="translate(142,131)"/>
<path d="M0 0 C0.08097324 2.27024968 0.13917704 4.54132075 0.1875 6.8125 C0.22230469 8.07707031 0.25710938 9.34164062 0.29296875 10.64453125 C0 14 0 14 -1.265625 15.58203125 C-1.83796875 16.04996094 -2.4103125 16.51789063 -3 17 C-4.34376745 18.93701181 -5.65321918 20.89804565 -6.9375 22.875 C-13.6532491 33.20094948 -20.96325514 40.41009364 -33 44 C-33.99 44 -34.98 44 -36 44 C-35.93941406 44.62865967 -35.87882813 45.25731934 -35.81640625 45.9050293 C-33.61983878 68.99644479 -33.61983878 68.99644479 -34 80 C-36.69898919 79.63674538 -37.81144634 79.19987658 -39.70751953 77.18994141 C-40.26036621 76.41827637 -40.81321289 75.64661133 -41.3828125 74.8515625 C-41.99253906 74.01109375 -42.60226562 73.170625 -43.23046875 72.3046875 C-43.85566406 71.42039062 -44.48085938 70.53609375 -45.125 69.625 C-45.75792969 68.7484375 -46.39085937 67.871875 -47.04296875 66.96875 C-49.41359606 63.67705094 -51.74975084 60.37537374 -54 57 C-56.87608041 56.63095696 -56.87608041 56.63095696 -60.28125 56.8125 C-61.58707031 56.83763672 -62.89289063 56.86277344 -64.23828125 56.88867188 C-65.28169678 56.91658813 -65.28169678 56.91658813 -66.34619141 56.94506836 C-81.79969175 57.33920093 -96.6866713 56.24446918 -112 54 C-112.33 53.01 -112.66 52.02 -113 51 C-113.94875 50.855625 -114.8975 50.71125 -115.875 50.5625 C-119 50 -119 50 -121 49 C-123.94589312 48.52444868 -126.04140025 48.31134727 -128.54492188 50.10986328 C-130.18715564 51.70345764 -131.72273099 53.35847234 -133.25 55.0625 C-143.94054625 66.33298691 -143.94054625 66.33298691 -150 69 C-158.43813924 68.42258456 -166.23661643 60.68704737 -172 55 C-172.86981537 53.86600002 -173.72563334 52.72102877 -174.5625 51.5625 C-176.79513074 48.69254216 -176.79513074 48.69254216 -180.25 48.5 C-184.57811686 49.07708225 -188.77001638 49.92571845 -193 51 C-193 51.99 -193 52.98 -193 54 C-199.435 54.495 -199.435 54.495 -206 55 C-204.02 54.505 -204.02 54.505 -202 54 C-201.67 53.01 -201.34 52.02 -201 51 C-198.30555914 49.7763368 -195.72677507 48.76258949 -192.9375 47.8125 C-192.19822266 47.53986328 -191.45894531 47.26722656 -190.69726562 46.98632812 C-185.599265 45.20671111 -181.39839613 44.59599855 -176 45 C-172.5580706 47.01478794 -170.39224496 49.72692567 -167.875 52.75 C-163.70275535 57.59931944 -158.79900559 62.21168758 -153 65 C-149.0826176 64.12612239 -146.3357316 61.93331232 -143.25 59.4375 C-142.37730469 58.73496094 -141.50460937 58.03242188 -140.60546875 57.30859375 C-138.02474417 55.02192475 -135.83778015 52.58573131 -133.5625 50 C-130.28364138 46.65186972 -128.28321812 45.38260444 -123.5625 45.25 C-119.16672248 45.63644198 -115.21355873 46.7174826 -111.03125 48.06640625 C-100.43731555 51.32922885 -90.5055076 53.31415692 -79.41015625 52.62109375 C-55.95550741 51.26691727 -55.95550741 51.26691727 -50.07226562 54.71679688 C-45.06507604 59.31656664 -41.76541232 64.83666937 -39 71 C-38.67 71.66 -38.34 72.32 -38 73 C-38.33 63.1 -38.66 53.2 -39 43 C-36.03 41.68 -33.06 40.36 -30 39 C-17.92057479 32.75952133 -11.68053318 24.53910276 -5 13 C-5.61488281 13.2165625 -6.22976563 13.433125 -6.86328125 13.65625 C-7.67152344 13.9346875 -8.47976563 14.213125 -9.3125 14.5 C-10.11300781 14.7784375 -10.91351563 15.056875 -11.73828125 15.34375 C-14 16 -14 16 -17 16 C-16.02863271 9.60040375 -9.77823002 5.58064891 -5.1875 1.5 C-3 0 -3 0 0 0 Z " fill="#671F22" transform="translate(414,181)"/>
<path d="M0 0 C4.02488587 2.81266631 5.87153971 5.39788762 7.75 9.9375 C8.46117567 14.91572972 7.65447751 18.20287369 5.02734375 22.36328125 C2.26063738 25.77301418 -1.15634731 27.5729491 -5.25 28.9375 C-10.7284517 29.35891936 -14.43522681 28.612374 -19.25 25.9375 C-23.03819951 22.2762247 -25.39109049 18.9921732 -25.5625 13.6875 C-25.53927685 8.89579075 -24.25157931 6.59567479 -21.25 2.9375 C-19.6 3.9275 -17.95 4.9175 -16.25 5.9375 C-16.25 3.6275 -16.25 1.3175 -16.25 -1.0625 C-10.50103969 -2.9788201 -5.25021312 -2.98752799 0 0 Z " fill="#4E91BF" transform="translate(396.25,255.0625)"/>
<path d="M0 0 C0.66 0 1.32 0 2 0 C2.02578125 0.68964844 2.0515625 1.37929688 2.078125 2.08984375 C2.5854419 10.49516239 4.05350002 17.27323406 10.25 23.25 C13.85256742 27.24276994 13.5280334 30.90484318 13.2734375 36.09375 C13.18320313 37.3828125 13.09296875 38.671875 13 40 C12.92530689 41.67689394 12.85526975 43.35399959 12.7890625 45.03125 C12.20418414 58.79581586 12.20418414 58.79581586 11 60 C8.30764224 60.23678716 5.63501844 60.42198025 2.9375 60.5625 C1.79958008 60.62727539 1.79958008 60.62727539 0.63867188 60.69335938 C-1.24065438 60.79973633 -3.12030244 60.90039934 -5 61 C-5.49934955 19.02774946 -5.49934955 19.02774946 0 0 Z " fill="#EEEC79" transform="translate(171,263)"/>
<path d="M0 0 C1 1 1 1 1.0625 4.5625 C1.041875 5.696875 1.02125 6.83125 1 8 C1.99 8 2.98 8 4 8 C4 7.34 4 6.68 4 6 C6.375 6.3125 6.375 6.3125 9 7 C11.85601148 11.28401723 11.59570724 14.97467484 11 20 C9.63912846 24.56494883 7.32324848 27.13272366 3.1875 29.4375 C-2.08889558 31.70439588 -6.16427764 31.60135733 -11.625 29.8125 C-16.16599403 27.37381802 -19.34345262 24.96964213 -21 20 C-21.51549132 15.09015642 -21.53143398 11.1478974 -19.4375 6.625 C-13.60721606 0.34623268 -8.36060743 -0.97700585 0 0 Z " fill="#4E91BF" transform="translate(143,253)"/>
<path d="M0 0 C-0.50729073 4.43879389 -1.93727517 6.77172248 -5 10 C-10.7899624 14.40540617 -16.29193166 16.57127587 -23.56640625 16.375 C-30.71601733 15.27329428 -36.56399113 11.36005226 -40.94921875 5.71484375 C-42.2922484 3.5230593 -42.8448028 1.56075379 -43 -1 C-41.60721983 -1.65239158 -40.21060788 -2.29660552 -38.8125 -2.9375 C-38.03519531 -3.29714844 -37.25789063 -3.65679687 -36.45703125 -4.02734375 C-24.75255564 -8.66075301 -10.78321481 -5.88175353 0 0 Z " fill="#FCFDF9" transform="translate(325,62)"/>
<path d="M0 0 C0.8971875 0.309375 0.8971875 0.309375 1.8125 0.625 C0.43844577 3.58450142 -1.20526932 6.03995396 -3.1875 8.625 C26.67300249 21.80948016 58.73530121 22.04881226 89.2578125 10.7734375 C91.91236224 9.76181173 91.91236224 9.76181173 93.8125 7.625 C92.1625 5.975 90.5125 4.325 88.8125 2.625 C89.1425 1.635 89.4725 0.645 89.8125 -0.375 C94.02321451 0.09285717 96.22373293 2.52270033 98.8125 5.625 C106.31202478 15.14002206 106.31202478 15.14002206 105.8125 20.625 C104 20.4375 104 20.4375 101.8125 19.625 C98.8125 15.44642857 98.8125 15.44642857 98.8125 12.625 C97.60335937 13.09550781 96.39421875 13.56601562 95.1484375 14.05078125 C69.5545535 23.84755858 41.72039481 27.67301684 14.8125 20.625 C13.53761719 20.30015625 12.26273438 19.9753125 10.94921875 19.640625 C6.28831612 18.38222969 1.91958106 17.1852746 -2.3984375 15 C-5.11769922 13.40390913 -5.11769922 13.40390913 -8.1875 13.625 C-9.5075 15.935 -10.8275 18.245 -12.1875 20.625 C-13.1775 20.295 -14.1675 19.965 -15.1875 19.625 C-14.73187446 14.37745069 -13.01856441 11.50449397 -9.8125 7.375 C-9.02101562 6.33859375 -8.22953125 5.3021875 -7.4140625 4.234375 C-3.31585821 -0.56843284 -3.31585821 -0.56843284 0 0 Z " fill="#641718" transform="translate(216.1875,278.375)"/>
<path d="M0 0 C0.79921875 0.00902344 1.5984375 0.01804687 2.421875 0.02734375 C3.02515625 0.03894531 3.6284375 0.05054687 4.25 0.0625 C3.755 1.155625 3.26 2.24875 2.75 3.375 C-0.72936973 12.83089476 1.36302047 21.09121243 5.25 30.0625 C-5.45056535 30.89811899 -13.94412111 28.05907584 -22.2890625 21.33203125 C-23.13136506 20.60008384 -23.96094341 19.85155659 -24.75 19.0625 C-24.44287157 13.73894048 -23.68169941 10.71336374 -19.75 7.0625 C-13.27376484 3.0173136 -7.72444086 -0.11359472 0 0 Z " fill="#B17920" transform="translate(227.75,105.9375)"/>
<path d="M0 0 C2.97 0 5.94 0 9 0 C9.33 4.62 9.66 9.24 10 14 C11.65 13.34 13.3 12.68 15 12 C15.99 12 16.98 12 18 12 C19.82421875 14.40625 19.82421875 14.40625 21.6875 17.5 C22.31011719 18.5209375 22.93273437 19.541875 23.57421875 20.59375 C24.04472656 21.3878125 24.51523437 22.181875 25 23 C22.18675674 25.30350423 19.71855963 26.61632717 16.25 27.6875 C15.45078125 27.93886719 14.6515625 28.19023438 13.828125 28.44921875 C13.22484375 28.63097656 12.6215625 28.81273438 12 29 C12 30.32 12 31.64 12 33 C10.58603098 33.50757862 9.16868271 34.00574925 7.75 34.5 C6.96109375 34.7784375 6.1721875 35.056875 5.359375 35.34375 C3 36 3 36 -1 36 C-2.09767863 23.4943042 -2.17615996 12.3963398 0 0 Z " fill="#F0ED79" transform="translate(244,62)"/>
<path d="M0 0 C3.36793393 3.04898032 6.26675243 6.37426343 9 10 C9 10.33 9 10.66 9 11 C8.43152344 11.02835938 7.86304688 11.05671875 7.27734375 11.0859375 C4.56871417 11.42055952 2.48957475 11.85220905 0 13 C-1.66331602 15.37275467 -1.66331602 15.37275467 -3.0625 18.125 C-5.81224896 22.70352937 -5.81224896 22.70352937 -8.86230469 23.46484375 C-13.6042944 23.8909923 -18.27823603 23.51015457 -23 23 C-23.67305018 21.39850114 -24.33822227 19.79368971 -25 18.1875 C-25.37125 17.29417969 -25.7425 16.40085938 -26.125 15.48046875 C-27 13 -27 13 -27 10 C-32.28 9.67 -37.56 9.34 -43 9 C-43 8.67 -43 8.34 -43 8 C-39.81309767 7.66078548 -36.62539896 7.32970583 -33.4375 7 C-32.54224609 6.90460938 -31.64699219 6.80921875 -30.72460938 6.7109375 C-25.78509212 6.20432035 -20.96511986 5.89102618 -16 6 C-16 5.01 -16 4.02 -16 3 C-5.04854369 -1.17198336 -5.04854369 -1.17198336 0 0 Z " fill="#B17720" transform="translate(237,229)"/>
<path d="M0 0 C0.08097324 2.27024968 0.13917704 4.54132075 0.1875 6.8125 C0.23970703 8.70935547 0.23970703 8.70935547 0.29296875 10.64453125 C0 14 0 14 -1.265625 15.58203125 C-2.12414062 16.28392578 -2.12414062 16.28392578 -3 17 C-4.34376745 18.93701181 -5.65321918 20.89804565 -6.9375 22.875 C-13.6532491 33.20094948 -20.96325514 40.41009364 -33 44 C-33.99 44 -34.98 44 -36 44 C-35.93941406 44.62865967 -35.87882812 45.25731934 -35.81640625 45.9050293 C-33.61983878 68.99644479 -33.61983878 68.99644479 -34 80 C-36.69898919 79.63674538 -37.81144634 79.19987658 -39.70751953 77.18994141 C-40.26036621 76.41827637 -40.81321289 75.64661133 -41.3828125 74.8515625 C-41.99253906 74.01109375 -42.60226562 73.170625 -43.23046875 72.3046875 C-43.85566406 71.42039062 -44.48085938 70.53609375 -45.125 69.625 C-45.75792969 68.7484375 -46.39085937 67.871875 -47.04296875 66.96875 C-49.41359606 63.67705094 -51.74975084 60.37537374 -54 57 C-54.99 56.67 -55.98 56.34 -57 56 C-56.67 55.01 -56.34 54.02 -56 53 C-53.26330365 53.35912586 -52.17552797 53.81252213 -50.26074219 55.85766602 C-49.69516602 56.64842529 -49.12958984 57.43918457 -48.546875 58.25390625 C-47.98838867 59.0229126 -47.42990234 59.79191895 -46.85449219 60.58422852 C-46.16000977 61.56705811 -45.46552734 62.5498877 -44.75 63.5625 C-42.5225 66.676875 -40.295 69.79125 -38 73 C-38.33 63.1 -38.66 53.2 -39 43 C-36.03 41.68 -33.06 40.36 -30 39 C-17.92057479 32.75952133 -11.68053318 24.53910276 -5 13 C-5.61488281 13.2165625 -6.22976563 13.433125 -6.86328125 13.65625 C-7.67152344 13.9346875 -8.47976563 14.213125 -9.3125 14.5 C-10.11300781 14.7784375 -10.91351563 15.056875 -11.73828125 15.34375 C-14 16 -14 16 -17 16 C-16.02863271 9.60040375 -9.77823002 5.58064891 -5.1875 1.5 C-3 0 -3 0 0 0 Z " fill="#621B22" transform="translate(414,181)"/>
<path d="M0 0 C3.4375 1.9375 3.4375 1.9375 6 5 C6.48731247 8.06750377 6.36193496 10.92355285 6 14 C6.804375 14.144375 7.60875 14.28875 8.4375 14.4375 C11 15 11 15 12 16 C12.3125 19.375 12.3125 19.375 12 23 C10.3125 25 10.3125 25 8 26 C5.07485537 25.85731002 3.52084787 25.39512597 1.1875 23.625 C0 22 0 22 0 19 C-1.5778125 19.1546875 -1.5778125 19.1546875 -3.1875 19.3125 C-7 19 -7 19 -9.875 16.625 C-12.9265967 12.85538054 -13.47627542 10.85800924 -13 6 C-9.27164865 0.40747298 -6.71012047 -0.67101205 0 0 Z " fill="#F9FBFC" transform="translate(339,37)"/>
<path d="M0 0 C0 7.59 0 15.18 0 23 C-4.06177373 23.81235475 -7.23350092 24.10732417 -11.3125 24.0625 C-13.189375 24.041875 -15.06625 24.02125 -17 24 C-17 17.4 -17 10.8 -17 4 C-6.33333333 0 -6.33333333 0 0 0 Z " fill="#B07821" transform="translate(358,310)"/>
<path d="M0 0 C1.05574219 0.28875 2.11148438 0.5775 3.19921875 0.875 C21.6960159 5.63470696 38.64037151 5.02143685 57 0 C55.37292901 4.88121297 51.39883246 6.63377411 47 9 C36.52558516 13.41383203 25.97051628 14.96964831 15.0625 11.25 C10.97595449 9.56905177 7.51931462 7.6609452 4 5 C3.21625 4.46375 2.4325 3.9275 1.625 3.375 C1.08875 2.92125 0.5525 2.4675 0 2 C0 1.34 0 0.68 0 0 Z " fill="#B7936E" transform="translate(233,316)"/>
<path d="M0 0 C5 2 5 2 10 4 C9.9071875 5.02480469 9.814375 6.04960938 9.71875 7.10546875 C9.09765718 14.3006927 9.09765718 14.3006927 11.1484375 21.00390625 C17.74789216 25.76686108 28.13992109 25.96710501 36 27 C36 27.33 36 27.66 36 28 C8.57409112 28.75155315 8.57409112 28.75155315 -3 22 C-2.51172287 14.52165033 -1.66594452 7.31074682 0 0 Z " fill="#AF7A25" transform="translate(183,74)"/>
<path d="M0 0 C3.01642275 5.25317692 3.90586768 11.03576722 3 17 C-0.52467908 21.27041957 -4.78948493 23.39175636 -10.06640625 24.84375 C-13.57654623 25.03070819 -14.6732216 24.42384469 -17.375 22.25 C-18.06335938 21.71890625 -18.75171875 21.1878125 -19.4609375 20.640625 C-21 19 -21 19 -21 16 C-18.9453125 14.4921875 -18.9453125 14.4921875 -16.125 12.875 C-10.09105682 9.22019914 -5.08456505 4.86397654 0 0 Z " fill="#ECEA7A" transform="translate(291,99)"/>
<path d="M0 0 C3.6625122 0.76302337 6.6275259 2.00621243 10 3.625 C9.45136137 10.4107936 8.45732062 16.97509036 7 23.625 C4.6796875 23.9296875 4.6796875 23.9296875 2 23.625 C0.4453125 21.5078125 0.4453125 21.5078125 -0.875 18.75 C-2.78809767 15.04662517 -2.78809767 15.04662517 -5.9375 12.515625 C-8.05014954 11.90490551 -8.05014954 11.90490551 -11 11.625 C-10.02591365 5.90698664 -5.67550181 1.18239621 0 0 Z " fill="#EFEB78" transform="translate(290,228.375)"/>
<path d="M0 0 C2.83543781 3.49999355 4.90773246 7.34427078 7 11.3125 C7.34289062 11.95123047 7.68578125 12.58996094 8.0390625 13.24804688 C14 24.47599594 14 24.47599594 14 30 C9 29 4 28 -1 27 C-1.1723784 17.95971078 -0.6331684 9.01134307 0 0 Z " fill="#FBFBFB" transform="translate(287,199)"/>
<path d="M0 0 C4.07857939 0.65783539 7.83598003 1.91407748 11.71875 3.28125 C26.93200043 8.07446589 43.95524288 4.84219951 59 1 C60.32 0.67 61.64 0.34 63 0 C64.98 3.96 66.96 7.92 69 12 C67.68 12 66.36 12 65 12 C64.34 9.36 63.68 6.72 63 4 C62.42556152 4.11593506 61.85112305 4.23187012 61.25927734 4.35131836 C58.63139191 4.88107846 56.0031997 5.40930131 53.375 5.9375 C52.47136719 6.11990234 51.56773437 6.30230469 50.63671875 6.49023438 C35.10467775 9.60797983 16.92074097 11.78506547 2.078125 4.58203125 C1.04945313 3.79892578 1.04945313 3.79892578 0 3 C0 2.01 0 1.02 0 0 Z " fill="#1C5887" transform="translate(179,96)"/>
<path d="M0 0 C2.0477514 3.07162709 3.28164879 5.94199136 4.625 9.375 C5.07101562 10.49648437 5.51703125 11.61796875 5.9765625 12.7734375 C6.9243837 15.76160661 7.22049257 17.9014991 7 21 C4.21079611 21.8630406 1.41913928 22.71572307 -1.375 23.5625 C-2.1690625 23.80935547 -2.963125 24.05621094 -3.78125 24.31054688 C-4.92207031 24.65375977 -4.92207031 24.65375977 -6.0859375 25.00390625 C-7.1385376 25.32597046 -7.1385376 25.32597046 -8.21240234 25.65454102 C-10 26 -10 26 -12 25 C-11.46890625 23.94941406 -10.9378125 22.89882812 -10.390625 21.81640625 C-6.76028149 14.61062046 -3.17969615 7.41929102 0 0 Z " fill="#1D6BB2" transform="translate(396,101)"/>
<path d="M0 0 C0.33 0 0.66 0 1 0 C1 4.29 1 8.58 1 13 C8.92 12.505 8.92 12.505 17 12 C17 15.63 17 19.26 17 23 C14.72923158 23.02699725 12.45837179 23.04639453 10.1875 23.0625 C8.29064453 23.07990234 8.29064453 23.07990234 6.35546875 23.09765625 C3 23 3 23 0 22 C0 14.74 0 7.48 0 0 Z " fill="#EBBD5C" transform="translate(165,311)"/>
<path d="M0 0 C0.66942944 11.20674475 -1.60784522 22.58932768 -8 32 C-9.94943093 33.77471778 -11.63129581 34.78810483 -14 36 C-14 32.45354948 -13.38512595 32.00254729 -11.25 29.3125 C-5.90716007 21.64558786 -4.76314152 12.0077329 -3 3 C-3.97582031 3.28875 -4.95164062 3.5775 -5.95703125 3.875 C-7.24212615 4.25021019 -8.52728581 4.62519862 -9.8125 5 C-11.70935547 5.556875 -11.70935547 5.556875 -13.64453125 6.125 C-17 7 -17 7 -20 7 C-19.67 5.68 -19.34 4.36 -19 3 C-16.586238 2.30048937 -14.16989766 1.61516081 -11.75 0.9375 C-11.06808594 0.73833984 -10.38617188 0.53917969 -9.68359375 0.33398438 C-3.41657839 -1.40009269 -3.41657839 -1.40009269 0 0 Z M-20 39 C-19.34 39.33 -18.68 39.66 -18 40 C-18 40.99 -18 41.98 -18 43 C-18.99 43 -19.98 43 -21 43 C-20.67 41.68 -20.34 40.36 -20 39 Z " fill="#6D2E33" transform="translate(429,116)"/>
<path d="M0 0 C1.828125 1.6875 1.828125 1.6875 3 3 C2.67 3.66 2.34 4.32 2 5 C1.49855469 4.62488281 0.99710937 4.24976562 0.48046875 3.86328125 C-14.23997448 -6.09245293 -31.10970828 -7.47630984 -48.0625 -4.25 C-54.40822237 -2.9700822 -60.36781662 -1.48473297 -66.22265625 1.36328125 C-68 2 -68 2 -71 1 C-52.42162054 -14.10297822 -19.27525926 -12.09428032 0 0 Z " fill="#235C86" transform="translate(327,91)"/>
<path d="M0 0 C0.66 0.33 1.32 0.66 2 1 C1.93167969 1.76183594 1.86335937 2.52367188 1.79296875 3.30859375 C1.74194718 6.00928751 1.74194718 6.00928751 3.36328125 7.66015625 C16.51901466 17.12490233 31.37327236 17.97452313 47.11328125 15.421875 C50.45015151 14.72406453 53.71448448 13.90719458 57 13 C59.29102228 12.43488117 61.58266179 11.872257 63.875 11.3125 C65.58395931 10.87745161 67.29255001 10.44093489 69 10 C62.91734017 17.16447517 49.82777301 18.25593172 41 19 C27.48068346 19.72733187 13.58274827 20.45944164 2.5234375 11.5 C1 10 1 10 -1 7 C-0.625 3.3125 -0.625 3.3125 0 0 Z " fill="#1C5A8C" transform="translate(202,119)"/>
<path d="M0 0 C-0.99 0.495 -0.99 0.495 -2 1 C-2 1.66 -2 2.32 -2 3 C-3.89453221 3.64964023 -5.79068649 4.29455115 -7.6875 4.9375 C-8.74324219 5.29714844 -9.79898438 5.65679687 -10.88671875 6.02734375 C-15.47640697 7.4612614 -19.50461559 8.12660513 -24.3125 8.0625 C-25.19550781 8.05347656 -26.07851562 8.04445313 -26.98828125 8.03515625 C-27.65214844 8.02355469 -28.31601563 8.01195313 -29 8 C-29 6.68 -29 5.36 -29 4 C-19.18314587 0.3868523 -10.39465487 -0.15591982 0 0 Z " fill="#206FB3" transform="translate(264,116)"/>
<path d="M0 0 C1.82421875 2.40625 1.82421875 2.40625 3.6875 5.5 C4.31011719 6.5209375 4.93273437 7.541875 5.57421875 8.59375 C6.04472656 9.3878125 6.51523437 10.181875 7 11 C3.18969926 14.06368776 -0.41272428 15.3944535 -5 17 C-5.33 11.72 -5.66 6.44 -6 1 C-3 0 -3 0 0 0 Z " fill="#F1C05A" transform="translate(262,74)"/>
<path d="M0 0 C1.8125 1.125 1.8125 1.125 3 3 C3.39365568 6.14924548 3.52854531 8.11909116 1.875 10.875 C-0.91106042 12.54663625 -2.81988862 12.46376624 -6 12 C-7.9375 10.3125 -7.9375 10.3125 -9 8 C-8.86080792 5.14656236 -8.36922147 3.53537114 -6.75 1.1875 C-4.3314673 -0.45364719 -2.86449123 -0.42967368 0 0 Z " fill="#F7FAFC" transform="translate(397,258)"/>
<path d="M0 0 C0.99 0 1.98 0 3 0 C3 0.66 3 1.32 3 2 C4.98 1.67 6.96 1.34 9 1 C10.32850242 7.40096618 10.32850242 7.40096618 8.9375 9.9375 C6.13281671 11.47555213 4.14485925 11.39310741 1 11 C-0.875 9.875 -0.875 9.875 -2 8 C-2.3125 4.9375 -2.3125 4.9375 -2 2 C-1.34 1.34 -0.68 0.68 0 0 Z " fill="#F8F9FA" transform="translate(141,259)"/>
<path d="M0 0 C0 4.62 0 9.24 0 14 C-0.66 13.67 -1.32 13.34 -2 13 C-2 12.01 -2 11.02 -2 10 C-4.64 10.33 -7.28 10.66 -10 11 C-10 10.34 -10 9.68 -10 9 C-11.65 10.65 -13.3 12.3 -15 14 C-14.67 14.66 -14.34 15.32 -14 16 C-14.99 16 -15.98 16 -17 16 C-16.02863271 9.60040375 -9.77823002 5.58064891 -5.1875 1.5 C-3 0 -3 0 0 0 Z " fill="#5D202A" transform="translate(414,181)"/>
<path d="M0 0 C0 0.99 0 1.98 0 3 C2.31 3 4.62 3 7 3 C6.63422282 8.85243483 5.00179822 13.57752758 1 18 C-1.16796875 18.7265625 -1.16796875 18.7265625 -3 19 C-1.35821735 14.22390502 1.26546702 10.20617096 4 6 C3.113125 6.33 2.22625 6.66 1.3125 7 C-1.70923347 7.91222143 -3.88373706 8.18330958 -7 8 C-6.02133662 6.85373678 -5.04205413 5.70800212 -4.0625 4.5625 C-3.51722656 3.92441406 -2.97195313 3.28632813 -2.41015625 2.62890625 C-1.63204305 1.73008851 -0.84063472 0.84063472 0 0 Z " fill="#5D141A" transform="translate(405,188)"/>
<path d="M0 0 C1.4606285 2.64738916 2 3.89448334 2 7 C-3.61 6.67 -9.22 6.34 -15 6 C-15 5.01 -15 4.02 -15 3 C-4.8 0 -4.8 0 0 0 Z " fill="#276FAC" transform="translate(242,100)"/>
<path d="M0 0 C5.10924611 1.57922153 7.92908739 5.15338036 11.4375 9.0625 C7.58257389 10.34747537 6.03403164 9.4677209 2.25 8.125 C1.16332031 7.74472656 0.07664063 7.36445313 -1.04296875 6.97265625 C-1.87441406 6.67230469 -2.70585937 6.37195313 -3.5625 6.0625 C-3.605221 4.39638095 -3.60313832 2.72867115 -3.5625 1.0625 C-2.5625 0.0625 -2.5625 0.0625 0 0 Z " fill="#651819" transform="translate(241.5625,248.9375)"/>
<path d="M0 0 C0.680625 0.28875 1.36125 0.5775 2.0625 0.875 C2.0625 2.525 2.0625 4.175 2.0625 5.875 C0.1054132 6.54531719 -1.85321113 7.21114683 -3.8125 7.875 C-4.90304687 8.24625 -5.99359375 8.6175 -7.1171875 9 C-9.9375 9.875 -9.9375 9.875 -11.9375 9.875 C-9.73112154 4.88619352 -5.81117571 -0.24728407 0 0 Z " fill="#5F1114" transform="translate(281.9375,249.125)"/>
<path d="M0 0 C0 0.33 0 0.66 0 1 C-0.58491211 1.08040527 -1.16982422 1.16081055 -1.77246094 1.24365234 C-4.43270789 1.61351214 -7.09130653 1.99414033 -9.75 2.375 C-10.67039063 2.50132813 -11.59078125 2.62765625 -12.5390625 2.7578125 C-13.42851562 2.88671875 -14.31796875 3.015625 -15.234375 3.1484375 C-16.45979004 3.32125244 -16.45979004 3.32125244 -17.70996094 3.49755859 C-20.06766104 4.01484503 -21.89785279 4.83073338 -24 6 C-22.35 6.33 -20.7 6.66 -19 7 C-19 7.33 -19 7.66 -19 8 C-22.3 8 -25.6 8 -29 8 C-29 6.68 -29 5.36 -29 4 C-19.18314587 0.3868523 -10.39465487 -0.15591982 0 0 Z " fill="#306487" transform="translate(264,116)"/>
<path d="M0 0 C-13.58334955 7.57532956 -26.83397295 7.39473776 -42 7 C-42 6.67 -42 6.34 -42 6 C-41.3922876 5.96559814 -40.7845752 5.93119629 -40.15844727 5.89575195 C-27.9468423 5.15387711 -16.71320915 3.87546574 -5.10546875 -0.07421875 C-2 -1 -2 -1 0 0 Z " fill="#336382" transform="translate(271,130)"/>
<path d="M0 0 C0.66 0.33 1.32 0.66 2 1 C0.3982422 4.9761282 -2.3736223 7.67101247 -5.375 10.625 C-5.85710937 11.11484375 -6.33921875 11.6046875 -6.8359375 12.109375 C-9.37243881 14.63209098 -11.66236091 16.65545345 -15 18 C-11.76869896 10.87213005 -5.53174141 5.39682089 0 0 Z " fill="#65191A" transform="translate(285,227)"/>
<path d="M0 0 C0.07347656 0.87011719 0.07347656 0.87011719 0.1484375 1.7578125 C0.59649405 6.43923092 1.298021 10.57485459 3 15 C-3.26221692 12.79976162 -3.26221692 12.79976162 -5 10 C-4.87184876 6.41176525 -4.73131073 3.94460969 -2.5 1.0625 C-1 0 -1 0 0 0 Z " fill="#E9BB5A" transform="translate(208,115)"/>
<path d="M0 0 C0.97963374 3.17337094 1.00148074 5.69159758 0.66015625 8.984375 C0.56669922 9.91894531 0.47324219 10.85351562 0.37695312 11.81640625 C0.22129883 13.26853516 0.22129883 13.26853516 0.0625 14.75 C-0.03740234 15.73355469 -0.13730469 16.71710938 -0.24023438 17.73046875 C-0.48732902 20.15434959 -0.74079713 22.57738907 -1 25 C-3.10546875 23.56640625 -3.10546875 23.56640625 -5 21 C-4.95403741 17.85818441 -4.13067287 14.95826143 -3.3125 11.9375 C-3.11205078 11.12216797 -2.91160156 10.30683594 -2.70507812 9.46679688 C-1.90761749 6.26379491 -1.04415801 3.13247403 0 0 Z " fill="#B28B68" transform="translate(69,405)"/>
<path d="M0 0 C-0.33 0.66 -0.66 1.32 -1 2 C-8.17633868 4.14495732 -15.57504858 4.25850895 -23 4 C-22.67 3.34 -22.34 2.68 -22 2 C-20.18994141 1.48168945 -20.18994141 1.48168945 -17.8515625 1.11328125 C-17.01109375 0.97986328 -16.170625 0.84644531 -15.3046875 0.70898438 C-13.97824219 0.51272461 -13.97824219 0.51272461 -12.625 0.3125 C-11.31015625 0.09883789 -11.31015625 0.09883789 -9.96875 -0.11914062 C-3.39019574 -1.13006525 -3.39019574 -1.13006525 0 0 Z " fill="#601418" transform="translate(213,233)"/>
<path d="M0 0 C1.98 0.495 1.98 0.495 4 1 C4.66 3.31 5.32 5.62 6 8 C4.68 8.99 3.36 9.98 2 11 C-1.07692308 4.6 -1.07692308 4.6 -0.6875 1.5625 C-0.460625 1.046875 -0.23375 0.53125 0 0 Z " fill="#671A1B" transform="translate(437,424)"/>
<path d="M0 0 C0.33 0 0.66 0 1 0 C1 2.97 1 5.94 1 9 C-3.455 9.495 -3.455 9.495 -8 10 C-6.50260417 8.27473958 -5.00520833 6.54947917 -3.5078125 4.82421875 C-1.8359553 2.86501788 -1.8359553 2.86501788 0 0 Z " fill="#2065A9" transform="translate(412,182)"/>
<path d="M0 0 C0 1.32 0 2.64 0 4 C-6.435 4.495 -6.435 4.495 -13 5 C-11.68 4.67 -10.36 4.34 -9 4 C-8.67 3.01 -8.34 2.02 -8 1 C-4.68510482 -0.74468167 -3.63361056 -1.21120352 0 0 Z " fill="#5A3846" transform="translate(221,231)"/>
<path d="M0 0 C0 0.66 0 1.32 0 2 C-1.43554025 2.50559908 -2.8735202 3.0042749 -4.3125 3.5 C-5.51326172 3.91765625 -5.51326172 3.91765625 -6.73828125 4.34375 C-9 5 -9 5 -12 5 C-11.67 3.68 -11.34 2.36 -11 1 C-9.5437328 0.63743142 -8.08488815 0.28520207 -6.625 -0.0625 C-5.40683594 -0.35833984 -5.40683594 -0.35833984 -4.1640625 -0.66015625 C-2 -1 -2 -1 0 0 Z " fill="#672429" transform="translate(421,118)"/>
<path d="M0 0 C0.83927091 2.34995854 1.06091226 3.73350886 0.5 6.1875 C-1 8 -1 8 -4.625 8.75 C-5.73875 8.8325 -6.8525 8.915 -8 9 C-7.04270084 7.87411986 -6.08412105 6.7493285 -5.125 5.625 C-4.59132813 4.99851563 -4.05765625 4.37203125 -3.5078125 3.7265625 C-2.38567993 2.44163349 -1.20628025 1.20628025 0 0 Z " fill="#5F1014" transform="translate(417,149)"/>
<path d="M0 0 C1.86610926 2.79916389 2.68785383 4.81938269 3.625 8 C4.01558594 9.299375 4.01558594 9.299375 4.4140625 10.625 C5 13 5 13 5 16 C4.34 16 3.68 16 3 16 C0.54970669 10.28264895 -0.33266291 6.20970773 0 0 Z " fill="#2F6285" transform="translate(231,66)"/>
<path d="M0 0 C0.66 0.66 1.32 1.32 2 2 C-2 3.33333333 -6 4.66666667 -10 6 C-8.54794521 1.40182648 -8.54794521 1.40182648 -6.125 -0.375 C-3.61120812 -1.11435055 -2.41716719 -0.96686687 0 0 Z " fill="#60212A" transform="translate(252,145)"/>
<path d="M0 0 C0.75 1.6875 0.75 1.6875 1 4 C-1.13381449 7.2769294 -2.25018012 8.75006004 -6 10 C-2.62068966 1.31034483 -2.62068966 1.31034483 0 0 Z " fill="#672125" transform="translate(424,137)"/>
<path d="M0 0 C1.8871875 0.0309375 1.8871875 0.0309375 3.8125 0.0625 C4.1425 0.7225 4.4725 1.3825 4.8125 2.0625 C0.1925 2.7225 -4.4275 3.3825 -9.1875 4.0625 C-6.53873473 0.0893521 -4.49238456 -0.07364565 0 0 Z " fill="#1A588A" transform="translate(284.1875,82.9375)"/>
<path d="M0 0 C2.04119788 1.61594832 4.04072937 3.2856382 6 5 C6 5.66 6 6.32 6 7 C3.03 6.505 3.03 6.505 0 6 C0 4.02 0 2.04 0 0 Z " fill="#27476E" transform="translate(113,185)"/>
<path d="M0 0 C3.99500618 1.3697164 6.80009492 3.25722422 10 6 C9.67 6.66 9.34 7.32 9 8 C5.7 6.02 2.4 4.04 -1 2 C-0.67 1.34 -0.34 0.68 0 0 Z " fill="#276088" transform="translate(320,88)"/>
<path d="M0 0 C4.95 0.99 9.9 1.98 15 3 C15 3.33 15 3.66 15 4 C8.07 3.505 8.07 3.505 1 3 C0.67 2.01 0.34 1.02 0 0 Z " fill="#4C678A" transform="translate(301,232)"/>
<path d="M0 0 C0.66 0.33 1.32 0.66 2 1 C0.35 2.65 -1.3 4.3 -3 6 C-2.67 6.66 -2.34 7.32 -2 8 C-3.65 8.33 -5.3 8.66 -7 9 C-5.44499019 5.18315774 -2.96404505 2.80804268 0 0 Z " fill="#691F1D" transform="translate(277,250)"/>
<path d="M0 0 C-2.39509338 2.89932357 -4.31245243 3.50168276 -8 4 C-7.67 2.68 -7.34 1.36 -7 0 C-2.25 -1.125 -2.25 -1.125 0 0 Z " fill="#5C161D" transform="translate(319,146)"/>
<path d="M0 0 C-4.30769231 3.07692308 -4.30769231 3.07692308 -7.8125 2.6875 C-8.534375 2.460625 -9.25625 2.23375 -10 2 C-3.24137931 -1.62068966 -3.24137931 -1.62068966 0 0 Z " fill="#2D6184" transform="translate(277,85)"/>
<path d="M0 0 C2.375 0.1875 2.375 0.1875 5 1 C6.3125 3.5625 6.3125 3.5625 7 6 C6.01 6.33 5.02 6.66 4 7 C3.67 5.02 3.34 3.04 3 1 C2.01 0.67 1.02 0.34 0 0 Z " fill="#5C97C0" transform="translate(147,259)"/>
<path d="M0 0 C0.33 0.66 0.66 1.32 1 2 C-1.3125 4.5 -1.3125 4.5 -4 7 C-4.99 7 -5.98 7 -7 7 C-4.69 4.69 -2.38 2.38 0 0 Z " fill="#59151E" transform="translate(401,209)"/>
<path d="M0 0 C0.99 0.33 1.98 0.66 3 1 C4.1875 3.5625 4.1875 3.5625 5 6 C3.68 6 2.36 6 1 6 C0.67 4.02 0.34 2.04 0 0 Z " fill="#2C6084" transform="translate(243,102)"/>
</svg>
