<?xml version="1.0" encoding="UTF-8"?>
<svg version="1.1" xmlns="http://www.w3.org/2000/svg" width="1000" height="223">
<path d="M0 0 C0.99386719 -0.03738281 1.98773438 -0.07476563 3.01171875 -0.11328125 C10.80064945 0.89144472 16.24609739 5.60340671 21.875 10.75 C24.33066898 12.96596713 26.80434972 15.15606581 29.3125 17.3125 C29.91046387 17.83859863 30.50842773 18.36469727 31.12451172 18.90673828 C33.08146173 20.570266 33.08146173 20.570266 36.3125 22.3125 C40.6327895 21.31803201 43.82136589 19.51025605 47.39453125 16.94140625 C48.79348633 15.95624023 48.79348633 15.95624023 50.22070312 14.95117188 C52.1472998 13.57392086 54.07180478 12.19373884 55.99414062 10.81054688 C66.57932463 3.37250636 74.3725915 1.12525778 87.3125 3.3125 C94.4552162 5.23023891 98.52611535 10.16223985 102.3125 16.3125 C104.5304562 21.58014598 104.38292138 25.80747577 103.3125 31.3125 C103.18746094 32.07046875 103.06242188 32.8284375 102.93359375 33.609375 C100.83684535 44.86759161 92.25602003 52.67698514 83.3125 59.3125 C84.56245625 63.06236874 86.21341854 63.93413516 89.3125 66.3125 C89.84609131 66.89040283 90.37968262 67.46830566 90.92944336 68.0637207 C94.35470983 71.29598476 98.2091364 73.76012339 102.12890625 76.35546875 C103.40821266 77.20906731 103.40821266 77.20906731 104.71336365 78.07991028 C106.51144483 79.27807908 108.3110454 80.47397049 110.11206055 81.66772461 C112.87243665 83.49830008 115.62694667 85.33745364 118.38085938 87.17773438 C120.12986603 88.34166037 121.87920375 89.50508907 123.62890625 90.66796875 C124.45395157 91.21897751 125.27899689 91.76998627 126.12904358 92.33769226 C127.28055153 93.09902214 127.28055153 93.09902214 128.45532227 93.87573242 C129.12942642 94.3233342 129.80353058 94.77093597 130.49806213 95.23210144 C132.43145045 96.47084649 132.43145045 96.47084649 135.3125 97.3125 C134.8175 96.44625 134.3225 95.58 133.8125 94.6875 C131.06965402 88.19961431 131.0483117 80.23991165 133.19140625 73.58203125 C135.75491477 68.53115804 139.10065576 64.66521511 144.3125 62.3125 C153.5771717 59.56943054 164.11625506 61.9309714 172.5 66.1875 C173.47453125 66.71988281 174.4490625 67.25226563 175.453125 67.80078125 C178.17728956 69.24101579 180.85689338 70.32646284 183.75 71.375 C189.16648616 73.46160783 192.10886985 76.50705477 195.3125 81.3125 C198.01972851 82.18874488 198.01972851 82.18874488 201.125 82.75 C206.69821951 84.05507888 210.27388059 85.14959214 213.48828125 90.13671875 C215.79161872 94.2922245 216.79642215 97.47327855 216.3125 102.3125 C217.53839844 101.99023438 218.76429688 101.66796875 220.02734375 101.3359375 C237.90346066 97.38985192 259.17501866 99.15436536 275.33203125 108.03125 C280.30587334 111.24904133 283.10940939 115.44085382 286.3125 120.3125 C286.29155273 119.4153125 286.27060547 118.518125 286.24902344 117.59375 C286.18042384 114.23150141 286.13049706 110.87000765 286.09277344 107.50732422 C286.07278705 106.05831083 286.04558803 104.60937675 286.01074219 103.16064453 C285.65944993 88.16873099 285.65944993 88.16873099 290.3125 81.3125 C294.63699299 77.09889144 298.61562326 75.20865978 304.625 75.1875 C305.841875 75.22875 307.05875 75.27 308.3125 75.3125 C308.250625 74.301875 308.18875 73.29125 308.125 72.25 C308.39752682 66.52693681 310.00441459 62.82182932 313.75 58.5 C317.62704444 55.19032791 320.24159275 54.0579883 325.34765625 54.08203125 C326.32283203 54.08396484 327.29800781 54.08589844 328.30273438 54.08789062 C329.82350586 54.10625977 329.82350586 54.10625977 331.375 54.125 C332.36177734 54.12564453 333.34855469 54.12628906 334.36523438 54.12695312 C355.86871665 54.25369271 355.86871665 54.25369271 362.3125 59.3125 C365.76927249 63.11494974 367.59744052 66.63131752 367.625 71.8125 C367.521875 72.9675 367.41875 74.1225 367.3125 75.3125 C367.9725 74.9825 368.6325 74.6525 369.3125 74.3125 C375.17110006 73.90845862 380.17393817 74.26114782 385.3125 77.3125 C389.02796326 80.79423564 392.23287745 84.15738288 392.42602539 89.38525391 C392.42078857 90.67351074 392.41555176 91.96176758 392.41015625 93.2890625 C392.4087413 93.97431 392.40732635 94.6595575 392.40586853 95.36557007 C392.40026675 97.55625761 392.38771406 99.7468433 392.375 101.9375 C392.36998522 103.42187352 392.36542228 104.90624865 392.36132812 106.390625 C392.35029677 110.03128315 392.33303099 113.67188164 392.3125 117.3125 C392.86679687 116.879375 393.42109375 116.44625 393.9921875 116 C394.71664062 115.443125 395.44109375 114.88625 396.1875 114.3125 C396.90679688 113.755625 397.62609375 113.19875 398.3671875 112.625 C400.3125 111.3125 400.3125 111.3125 402.3125 111.3125 C402.333125 110.61125 402.35375 109.91 402.375 109.1875 C403.81369516 104.77550151 406.38095534 102.67925077 410.3125 100.3125 C414.56943235 98.65191775 418.89166657 97.45336024 423.3125 96.3125 C424.08335937 96.085625 424.85421875 95.85875 425.6484375 95.625 C431.83360354 93.86479465 437.24608798 93.27414092 443.1875 95.875 C446.33369888 97.18188261 448.32555365 97.38159465 451.6875 96.875 C456.7616217 96.15577091 461.49564216 96.52206925 466.5625 97.0625 C467.33126465 97.13670166 468.1000293 97.21090332 468.89208984 97.28735352 C475.11480732 98.00556727 479.57378161 99.53426528 484.0625 104.125 C487.38210425 108.82777269 488.42860849 112.20501217 488.0625 117.875 C487.94801756 120.19236001 487.94801756 120.19236001 488.3125 122.3125 C490.63714819 124.58498956 490.63714819 124.58498956 492.51953125 125.80859375 C498.22453123 130.59383339 502.73614928 139.0522424 503.54541016 146.43823242 C503.68861825 148.85834804 503.73284799 151.26334869 503.75 153.6875 C503.78287109 154.49960938 503.81574219 155.31171875 503.84960938 156.1484375 C503.9047432 162.40362014 502.25973421 166.46674238 498.3125 171.3125 C494.17577975 175.48702233 490.52678297 177.4466109 484.625 177.6875 C479.0548702 177.67114132 475.62047539 175.68186623 471.3125 172.3125 C471.68503906 173.35148438 472.05757812 174.39046875 472.44140625 175.4609375 C477.70372517 190.71854856 477.70372517 190.71854856 475.3125 198.3125 C472.3261042 204.07197761 468.70629185 207.51209901 462.52734375 209.578125 C461.10600474 209.92498753 459.67981414 210.25241983 458.25 210.5625 C457.11836426 210.81290039 457.11836426 210.81290039 455.96386719 211.06835938 C444.76652062 213.40213216 434.94720403 212.93752565 424.3125 208.3125 C419.41537923 204.80370261 416.48375892 201.28699506 415.3125 195.3125 C415.24625493 193.56363019 415.22697405 191.81247252 415.25 190.0625 C415.25902344 189.17046875 415.26804687 188.2784375 415.27734375 187.359375 C415.29474609 186.34617188 415.29474609 186.34617188 415.3125 185.3125 C414.075 185.415625 412.8375 185.51875 411.5625 185.625 C405.21534963 185.67561523 399.95112874 182.98393155 394.3125 180.3125 C394.065 181.22 393.8175 182.1275 393.5625 183.0625 C392.2465903 186.48386522 390.85215786 187.77793164 388.3125 190.3125 C387.52386545 192.77262835 387.52386545 192.77262835 387.125 195.4375 C385.21707941 203.15168703 380.41859106 208.32429761 374.07421875 212.94140625 C362.53115042 219.80983945 349.15247374 221.6377327 336.06640625 219.02734375 C328.17253382 216.97829601 322.90788477 213.1323174 318.3125 206.3125 C318.04953125 205.22195312 318.04953125 205.22195312 317.78125 204.109375 C317.54921875 203.21992188 317.54921875 203.21992188 317.3125 202.3125 C316.466875 202.065 315.62125 201.8175 314.75 201.5625 C305.39384144 198.16026053 300.75339754 188.63918288 296.3125 180.3125 C295.86261719 180.68761719 295.41273438 181.06273437 294.94921875 181.44921875 C289.44984042 185.82447566 283.7385865 188.54636613 277.3125 191.3125 C272.32847475 193.63188653 267.67338528 196.24847171 263.07421875 199.26171875 C257.96997096 202.30615923 252.04418649 201.82893368 246.3125 201.3125 C240.61719635 199.68394095 236.38712371 196.39904191 233.3125 191.3125 C231.5088854 187.70028843 229.86986376 184.03691887 228.3125 180.3125 C228.09207031 181.38177734 228.09207031 181.38177734 227.8671875 182.47265625 C226.3449511 188.97278063 224.74016049 194.1391308 219.3125 198.3125 C209.93894964 203.38186907 199.7549372 204.70428105 189.25 204.6875 C188.24791504 204.68661377 187.24583008 204.68572754 186.21337891 204.68481445 C176.82681989 204.53695326 166.73429172 203.61772239 158.55078125 198.62890625 C157.44283203 197.97728516 157.44283203 197.97728516 156.3125 197.3125 C153.6120961 197.95913567 153.6120961 197.95913567 151.3125 199.3125 C147.04835121 201.44457439 141.93179612 200.88419506 137.3125 200.3125 C129.30355952 197.14012747 123.14680413 189.44124565 117.3125 183.3125 C112.31791181 188.96491201 108.93350733 195.74953365 105.265625 202.296875 C101.52534401 208.79407672 98.37239925 213.32766037 91.5 216.6875 C84.06745575 218.14486162 78.58087948 216.46294126 72.3125 212.3125 C70.12635366 210.65135876 68.06027702 208.87629436 66 207.0625 C64.87199938 206.08879363 63.74308269 205.11614754 62.61328125 204.14453125 C62.05979004 203.66709473 61.50629883 203.1896582 60.93603516 202.69775391 C56.23609275 198.68760756 51.45475382 194.74066921 46.3125 191.3125 C43.04093107 191.64885996 41.16129856 192.99212595 38.6953125 195.0859375 C37.67099121 195.94493652 37.67099121 195.94493652 36.62597656 196.82128906 C35.54268066 197.74506348 35.54268066 197.74506348 34.4375 198.6875 C32.91499319 199.96205008 31.39154101 201.23547165 29.8671875 202.5078125 C29.1050293 203.1462207 28.34287109 203.78462891 27.55761719 204.44238281 C24.25837782 207.19055305 20.92363928 209.89054469 17.5625 212.5625 C17.00320801 213.01544434 16.44391602 213.46838867 15.86767578 213.93505859 C10.59427766 218.10909545 6.31702548 219.8096122 -0.34765625 219.62109375 C-5.124649 218.991073 -8.96038176 217.15961653 -12.26171875 213.62890625 C-16.41077605 208.10079265 -16.81778632 203.93741156 -16.6015625 197.01953125 C-16.58032318 196.31406662 -16.55908386 195.60860199 -16.53720093 194.88175964 C-16.4910271 193.38975621 -16.44210624 191.89783559 -16.390625 190.40600586 C-16.31336956 188.15038839 -16.24581453 185.89463996 -16.1796875 183.63867188 C-15.95690919 176.48986433 -15.63584743 169.40903203 -14.6875 162.3125 C-17.13028263 162.88692644 -17.13028263 162.88692644 -19.6875 164.3125 C-20.70515927 166.30357248 -21.70327854 168.30468823 -22.6875 170.3125 C-26.47715463 174.01402312 -30.2303278 176.26024197 -35.05078125 178.41796875 C-36.87549805 179.21318088 -36.87549805 179.21318088 -37.6875 181.3125 C-37.12160156 181.99054688 -36.55570312 182.66859375 -35.97265625 183.3671875 C-31.11622437 189.52947892 -27.90016203 194.29232845 -28.6875 202.3125 C-29.63140183 207.66127704 -31.91429988 211.51021056 -36.24609375 214.79296875 C-45.44932268 220.52105844 -53.88384411 223.94569548 -64.8125 224.0625 C-65.6055957 224.07780762 -66.39869141 224.09311523 -67.21582031 224.10888672 C-72.86216622 223.95612022 -75.68944443 222.52432444 -79.6875 218.3125 C-86.47201058 209.0773566 -89.49577761 199.41530421 -91.6875 188.3125 C-92.11160156 189.26511719 -92.53570312 190.21773437 -92.97265625 191.19921875 C-98.78324533 203.79523819 -98.78324533 203.79523819 -105.6875 207.3125 C-115.64119486 210.21163443 -123.29678427 206.15169358 -131.9375 201.5 C-132.70578125 201.06042969 -133.4740625 200.62085938 -134.265625 200.16796875 C-138.94433348 198.51532818 -143.42378485 200.50412223 -148 201.875 C-153.2116984 203.19095385 -158.15144591 203.67025771 -163.5 203.75 C-164.20487549 203.77199463 -164.90975098 203.79398926 -165.63598633 203.81665039 C-171.05247675 203.79557952 -174.2105613 202.35837745 -178.6875 199.3125 C-182.6875 195.00480769 -182.6875 195.00480769 -182.6875 192.3125 C-183.23019531 192.73402344 -183.77289063 193.15554687 -184.33203125 193.58984375 C-185.04746094 194.13769531 -185.76289063 194.68554688 -186.5 195.25 C-187.20769531 195.79527344 -187.91539062 196.34054688 -188.64453125 196.90234375 C-193.23095106 200.06811345 -198.32507797 199.89329645 -203.6875 199.3125 C-208.68577537 197.6435257 -212.73627991 194.76981758 -216.6875 191.3125 C-217.22375 192.22 -217.76 193.1275 -218.3125 194.0625 C-220.91648876 197.90043466 -223.8909686 200.75087632 -228.60620117 201.6978302 C-234.53335329 202.32091858 -240.35747754 202.39444102 -246.3125 202.26171875 C-247.29943848 202.2428511 -248.28637695 202.22398346 -249.30322266 202.20454407 C-251.37734175 202.1629153 -253.45140112 202.11820671 -255.52539062 202.07055664 C-258.67827201 202.00020591 -261.83116466 201.94586836 -264.984375 201.89257812 C-267.01043738 201.84993124 -269.03648021 201.80634287 -271.0625 201.76171875 C-271.99400879 201.74703049 -272.92551758 201.73234222 -273.88525391 201.71720886 C-282.1023121 201.50425208 -290.29660867 200.96026443 -296.6875 195.3125 C-301.93038326 188.84464401 -301.08755916 181.22478113 -300.6875 173.3125 C-302.3375 173.6425 -303.9875 173.9725 -305.6875 174.3125 C-305.62949219 175.158125 -305.57148438 176.00375 -305.51171875 176.875 C-305.25349265 183.36754193 -305.12722787 188.4120641 -309.15234375 193.7265625 C-314.88303202 199.64681552 -320.81811103 200.05930216 -328.6875 200.3125 C-330.32912109 200.40724609 -330.32912109 200.40724609 -332.00390625 200.50390625 C-338.77714121 200.74720901 -344.16590664 200.52527123 -349.6875 196.3125 C-354.3022501 191.45486832 -355.94273705 187.71923861 -355.91796875 181.04296875 C-355.91603516 179.82416016 -355.91410156 178.60535156 -355.91210938 177.34960938 C-355.89986328 176.07923828 -355.88761719 174.80886719 -355.875 173.5 C-355.8740332 171.6118457 -355.8740332 171.6118457 -355.87304688 169.68554688 C-355.84502699 163.77957735 -355.61524705 158.15614962 -354.6875 152.3125 C-357.47066778 151.81494275 -357.47066778 151.81494275 -360.6875 152.3125 C-362.74764868 154.29012047 -364.19994279 155.95389313 -365.8125 158.25 C-366.24771973 158.84321045 -366.68293945 159.4364209 -367.13134766 160.04760742 C-370.35943368 164.55996603 -372.72443679 169.12369976 -374.6875 174.3125 C-380.10032076 187.46832444 -392.6768908 192.98680853 -404.9375 198.875 C-408.44447428 200.57691399 -411.52705801 202.53050385 -414.6875 204.8125 C-423.90394015 211.45354557 -432.90434621 215.37335167 -444.375 215.75 C-449.47707239 215.97139287 -454.11209531 216.5045128 -459.0625 217.875 C-467.52827741 220.20051125 -475.7340652 220.45607267 -483.6875 216.3125 C-490.05141658 211.93987345 -494.91839621 206.97471112 -496.6875 199.3125 C-497.57797091 191.68257028 -497.56895321 184.56019084 -492.6875 178.3125 C-488.08439918 173.53851841 -483.6638088 170.28099784 -476.9375 169.6875 C-475.73867188 169.57535156 -475.73867188 169.57535156 -474.515625 169.4609375 C-473.91234375 169.41195312 -473.3090625 169.36296875 -472.6875 169.3125 C-472.11862461 164.90597316 -471.60943245 160.94409148 -474.140625 157.11328125 C-475.33863639 155.83221444 -476.5780893 154.58811623 -477.86328125 153.39453125 C-482.72855122 147.84166423 -483.31159484 141.59271284 -483.625 134.5 C-483.68844604 133.17476318 -483.68844604 133.17476318 -483.75317383 131.82275391 C-483.93631316 125.35501234 -483.330816 119.84828049 -479.6875 114.3125 C-478.6975 113.3225 -478.6975 113.3225 -477.6875 112.3125 C-477.07691605 110.34763507 -476.52293351 108.36498681 -476 106.375 C-473.89618267 99.4103773 -470.92153801 94.18874499 -466.6875 88.3125 C-466.17300293 87.59723145 -465.65850586 86.88196289 -465.12841797 86.14501953 C-461.56334698 81.2063625 -457.94423658 76.31112308 -454.28369141 71.44287109 C-452.96036649 69.67668369 -451.65547279 67.89670388 -450.35546875 66.11328125 C-444.28356449 58.03801958 -436.79258583 53.38834353 -427.984375 48.703125 C-424.38141319 46.52173996 -421.24329594 43.8136132 -418.046875 41.08203125 C-414.65043374 38.53470031 -411.94491908 37.3125 -407.6875 37.3125 C-407.55214844 36.77882812 -407.41679687 36.24515625 -407.27734375 35.6953125 C-404.51778291 26.14425762 -399.48970879 18.55575824 -390.859375 13.4296875 C-383.34705558 9.56543686 -374.52621523 9.09926047 -366.28125 10.8125 C-360.22222289 12.86324764 -355.64003001 16.40987808 -352.375 21.875 C-349.86162831 26.99483122 -348.8122016 31.57443272 -349.6875 37.3125 C-350.37725866 38.98447499 -351.13455727 40.62933645 -351.9375 42.25 C-354.2082489 46.84842464 -355.4718484 51.31624518 -356.5 56.3125 C-359.45062804 69.98595403 -364.32489162 82.89883192 -373.90234375 93.28125 C-375.89289951 95.28081386 -375.89289951 95.28081386 -376.6875 98.3125 C-375.74390625 98.26029297 -375.74390625 98.26029297 -374.78125 98.20703125 C-367.30962859 97.97072997 -362.0171213 99.09275246 -355.6875 103.3125 C-355.43742188 102.77882813 -355.18734375 102.24515625 -354.9296875 101.6953125 C-353.39070052 98.74316767 -351.60421285 95.99338993 -349.8125 93.1875 C-347.29459259 89.20946442 -345.17555951 85.33709048 -343.625 80.875 C-341.83911086 75.97975031 -339.08077979 73.07486386 -334.6875 70.3125 C-329.38984119 68.54661373 -324.12086915 68.30570631 -318.90234375 70.46484375 C-317.98582031 70.93019531 -317.06929687 71.39554687 -316.125 71.875 C-310.74063099 74.60553471 -307.5405915 74.55988016 -301.6875 73.3125 C-301.5225 72.136875 -301.3575 70.96125 -301.1875 69.75 C-299.86172535 64.27143123 -296.11799193 61.49691608 -291.6875 58.3125 C-287.31909549 56.12829774 -281.47413604 57.04416485 -276.62158203 57.01733398 C-274.45930818 57.00017308 -272.29858493 56.95629458 -270.13671875 56.91210938 C-268.75261538 56.90197724 -267.36849903 56.89346277 -265.984375 56.88671875 C-264.72979492 56.87213623 -263.47521484 56.85755371 -262.18261719 56.8425293 C-257.02622466 57.53588328 -253.20751234 60.24198371 -249.875 64.1875 C-247.61368275 67.41795321 -246.96516359 69.42520969 -246.6875 73.3125 C-246.14609375 73.15394531 -245.6046875 72.99539062 -245.046875 72.83203125 C-238.69492295 71.43333982 -231.95285222 71.21887292 -226.1875 74.4375 C-225.0325 75.05625 -223.8775 75.675 -222.6875 76.3125 C-220.35546525 75.44973256 -218.99226375 74.64496955 -217.3125 72.8125 C-213.60395656 69.38922913 -208.66933536 68.89371708 -203.7734375 68.96875 C-200.63632799 69.48572685 -198.21152827 70.94813502 -195.546875 72.6328125 C-193.64841114 73.55623329 -193.64841114 73.55623329 -191.609375 72.52734375 C-190.97515625 72.12644531 -190.3409375 71.72554688 -189.6875 71.3125 C-183.75282844 67.60333027 -179.39352362 67.17011634 -172.4375 67.25 C-171.69242187 67.25451172 -170.94734375 67.25902344 -170.1796875 67.26367188 C-168.3489236 67.27540754 -166.51820127 67.2933415 -164.6875 67.3125 C-164.50960937 66.15621094 -164.50960937 66.15621094 -164.328125 64.9765625 C-163.24238891 60.46148925 -159.93177135 58.22933152 -156.3125 55.5625 C-149.84829157 52.48430551 -142.13572987 53.09824623 -135.125 53.0625 C-134.10986328 53.041875 -133.09472656 53.02125 -132.04882812 53 C-125.47053909 52.96562618 -120.81807092 53.42026473 -115.7890625 58.06640625 C-115.30179687 58.66324219 -114.81453125 59.26007812 -114.3125 59.875 C-113.80976563 60.47441406 -113.30703125 61.07382812 -112.7890625 61.69140625 C-111.6875 63.3125 -111.6875 63.3125 -111.6875 65.3125 C-110.98625 65.20550781 -110.285 65.09851563 -109.5625 64.98828125 C-103.21492012 64.18620934 -98.30749535 64.00963257 -92.6875 67.3125 C-87.96593736 71.08975012 -85.15230361 75.59723037 -84.40014648 81.609375 C-84.28508832 84.14217196 -84.27808765 86.65245663 -84.3125 89.1875 C-84.30089844 90.03441406 -84.28929687 90.88132812 -84.27734375 91.75390625 C-84.30426259 97.61323951 -85.08016542 103.00398311 -87.6875 108.3125 C-88.46782593 109.07530273 -88.46782593 109.07530273 -89.26391602 109.85351562 C-91.68977378 112.33969741 -91.14801578 115.33846972 -91.25 118.6875 C-91.41366303 123.71641846 -91.7789412 126.54110299 -93.6875 131.3125 C-75.3725 130.3225 -75.3725 130.3225 -56.6875 129.3125 C-57.3475 127.6625 -58.0075 126.0125 -58.6875 124.3125 C-59.94331465 115.48777541 -60.10991682 105.0119681 -55.26953125 97.3046875 C-49.95317621 90.61001819 -43.71604034 87.15227931 -36.09643555 83.49682617 C-22.45031253 76.90315732 -10.07575397 67.97768828 2.3125 59.3125 C-1.24977489 55.09913062 -4.89286113 51.00747919 -8.6875 47 C-16.5033256 38.44149414 -21.16799508 30.95531345 -21.02734375 19.265625 C-20.3722308 13.57291939 -18.0742662 8.58436717 -13.90234375 4.61328125 C-9.32609784 1.22238991 -5.58901588 0.13596838 0 0 Z M120.3125 146.3125 C120.6425 147.9625 120.9725 149.6125 121.3125 151.3125 C122.3025 150.9825 123.2925 150.6525 124.3125 150.3125 C124.3125 149.6525 124.3125 148.9925 124.3125 148.3125 C122.9925 147.6525 121.6725 146.9925 120.3125 146.3125 Z M469.3125 169.3125 C470.3125 171.3125 470.3125 171.3125 470.3125 171.3125 Z " fill="#FEFDFD" transform="translate(496.6875,-0.3125)"/>
<path d="M0 0 C0.515625 0.495 1.03125 0.99 1.5625 1.5 C1.07546656 4.03257389 0.36380926 5.86868772 -0.87109375 8.16015625 C-2.58728962 11.81937686 -3.4000237 15.38332136 -4.1875 19.3125 C-7.50392955 34.15546545 -12.76974398 45.45318693 -22.6171875 57.046875 C-29.41401357 65.13469318 -32.82927091 72.92218538 -32.4375 83.5 C-31.77127647 86.65324744 -31.77127647 86.65324744 -29.20703125 87.671875 C-23.39491928 89.40977026 -17.0747936 89.11160297 -11.25 87.5 C-6.98386899 86.38101482 -3.82029808 86.19773806 0.5625 86.5 C2.5625 88.5 2.5625 88.5 2.625 92.3125 C0.92381836 103.9803871 -7.50014324 113.40371503 -14.44628906 122.45458984 C-18.75676597 128.20150593 -21.15937876 133.26832549 -23.3828125 140.09375 C-24.4375 142.5 -24.4375 142.5 -27.75 144.5 C-28.966875 144.83 -30.18375 145.16 -31.4375 145.5 C-33.40046286 146.63126574 -35.26717775 147.86569749 -37.15234375 149.12109375 C-39.14738994 150.32494213 -41.12669005 151.3333855 -43.22265625 152.34375 C-48.07419548 154.73495809 -52.38862639 157.75682428 -56.79296875 160.87695312 C-62.82032749 165.02787 -68.90433818 168.16961438 -76.4375 167.5 C-77.53384766 167.16935547 -77.53384766 167.16935547 -78.65234375 166.83203125 C-82.43095379 166.38156582 -85.34452797 167.60393244 -88.8125 168.9375 C-93.78367186 170.84210548 -98.05024709 171.96645726 -103.4375 171.5 C-106.19079021 169.70437595 -107.96377461 168.44745078 -109.4375 165.5 C-109.6875 162.5 -109.6875 162.5 -109.4375 159.5 C-106.15898265 157.31432177 -104.88807807 157.23543709 -101.0625 157.0625 C-95.14490856 156.59470621 -92.3022199 155.46831545 -88.1875 151.125 C-86.12159145 147.87507272 -86.15963379 144.78806664 -86 141 C-85.55199398 132.95417751 -85.55199398 132.95417751 -82.2421875 129.703125 C-78.97049632 127.52199755 -75.40519489 126.03784554 -71.765625 124.578125 C-69.29055475 123.72585793 -69.29055475 123.72585793 -68.4375 121.5 C-67.88819042 116.12310433 -67.89564892 111.85920132 -71.4375 107.5 C-74.58661479 105.92544261 -76.95758816 106.15200882 -80.4375 106.5 C-84.12687454 109.05418237 -86.94919164 111.76753746 -89.4375 115.5 C-91.3125 115.1875 -91.3125 115.1875 -93.4375 114.5 C-95.96525351 110.70836973 -95.66193035 107.69125969 -95.5625 103.3125 C-95.55347656 102.56291016 -95.54445313 101.81332031 -95.53515625 101.04101562 C-95.51162578 99.19387346 -95.47575561 97.34689588 -95.4375 95.5 C-94.47263672 95.18675781 -94.47263672 95.18675781 -93.48828125 94.8671875 C-91.15487083 93.65312246 -91.15487083 93.65312246 -90.85546875 90.8828125 C-90.77941406 89.80773437 -90.70335938 88.73265625 -90.625 87.625 C-88.6190019 72.54712901 -76.55467328 60.1300696 -67.4375 48.5 C-66.69318726 47.51809692 -66.69318726 47.51809692 -65.93383789 46.51635742 C-62.24916744 41.87679707 -58.18784434 39.22178074 -53 36.4375 C-47.83561037 33.62348147 -43.38133289 30.73697683 -38.99389648 26.80932617 C-37.03513852 25.16151144 -35.05627274 24.14088903 -32.6875 23.1875 C-31.95015625 22.88199219 -31.2128125 22.57648437 -30.453125 22.26171875 C-28.79553072 21.63530231 -27.11857546 21.06035849 -25.4375 20.5 C-24.38972586 18.26115626 -24.38972586 18.26115626 -23.4375 15.5 C-22.32057101 13.27690761 -21.17274176 11.069162 -20 8.875 C-19.10474609 7.18503906 -19.10474609 7.18503906 -18.19140625 5.4609375 C-16.39469631 2.42773898 -15.01504361 0.11974928 -11.6875 -1.1875 C-3.72645184 -2.29320113 -3.72645184 -2.29320113 0 0 Z " fill="#47B036" transform="translate(127.4375,29.5)"/>
<path d="M0 0 C25.41 0 50.82 0 77 0 C77 13.86 77 27.72 77 42 C69.90348145 43.2902761 63.42314548 44.33794282 56.3125 44.625 C55.50361328 44.66367188 54.69472656 44.70234375 53.86132812 44.7421875 C51.90785047 44.83465981 49.95395851 44.91831637 48 45 C69.75354983 62.2751769 69.75354983 62.2751769 96 68 C94.71075644 71.40202433 93.2347924 74.50564554 91.3984375 77.64453125 C90.90859375 78.48564453 90.41875 79.32675781 89.9140625 80.19335938 C89.15222656 81.48983398 89.15222656 81.48983398 88.375 82.8125 C87.859375 83.69615234 87.34375 84.57980469 86.8125 85.49023438 C85.54468886 87.66194789 84.27377652 89.8317818 83 92 C78.16807366 90.48889195 75.07468692 87.74064589 71.375 84.4375 C70.12328488 83.34143179 68.87067195 82.24638809 67.6171875 81.15234375 C66.69437988 80.34385986 66.69437988 80.34385986 65.75292969 79.51904297 C63.37707782 77.46019195 60.944482 75.4766212 58.5 73.5 C54.18371674 69.98942295 49.92098559 66.4221035 45.6875 62.8125 C45.11257813 62.32523438 44.53765625 61.83796875 43.9453125 61.3359375 C43.11193359 60.62244141 43.11193359 60.62244141 42.26171875 59.89453125 C41.71193359 59.4243457 41.16214844 58.95416016 40.59570312 58.46972656 C39 57 39 57 37.56054688 55.35058594 C34.20730166 51.51666291 31.73250172 50.27441141 26.64892578 49.77587891 C25.81603027 49.72608887 24.98313477 49.67629883 24.125 49.625 C21.44375 49.41875 18.7625 49.2125 16 49 C16 55.93 16 62.86 16 70 C17.918125 69.649375 19.83625 69.29875 21.8125 68.9375 C27.625 67.875 27.625 67.875 31 69 C24.2616071 74.78695869 17.4727497 80.49632816 10.5 86 C9.92556152 86.45608643 9.35112305 86.91217285 8.75927734 87.38208008 C5.62150583 89.84142694 2.43353889 91.98232346 -1 94 C-1.21848023 62.65649059 -0.57370471 31.33861971 0 0 Z " fill="#289167" transform="translate(500,106)"/>
<path d="M0 0 C0.63421875 0.32742187 1.2684375 0.65484375 1.921875 0.9921875 C5.3806293 3.24861293 6.50993298 5.83883448 7.375 9.6875 C8.05723447 14.85700861 8.22847859 20.0412045 8.3125 25.25 C8.33038574 26.00627686 8.34827148 26.76255371 8.36669922 27.54174805 C8.35761312 33.45355046 7.46930247 38.42825922 3.2109375 42.86328125 C2.60507812 43.34152344 1.99921875 43.81976563 1.375 44.3125 C-2.4688313 47.8674421 -2.58573511 50.63741379 -2.79296875 55.703125 C-3.1146128 59.27155337 -4.29721594 60.70263355 -7 63 C-12.53094309 66.92476758 -18.16851215 67.37785329 -24.75 67.4375 C-25.48307373 67.4475708 -26.21614746 67.4576416 -26.97143555 67.46801758 C-31.4359554 67.39613254 -34.58530831 66.96929712 -38 64 C-38.92578125 61.51953125 -38.92578125 61.51953125 -39.3125 58.8125 C-39.45300781 57.91144531 -39.59351563 57.01039063 -39.73828125 56.08203125 C-39.82464844 55.39496094 -39.91101563 54.70789063 -40 54 C-41.010625 53.938125 -42.02125 53.87625 -43.0625 53.8125 C-47.61918643 53.12991944 -50.74315442 51.2241955 -54 48 C-57.33820086 42.89451633 -58.96541475 37.29332727 -60.75 31.5 C-60.97316895 30.78811523 -61.19633789 30.07623047 -61.42626953 29.34277344 C-63.26026915 23.06590612 -64.26219248 17.48086107 -61.1875 11.4375 C-48.28747002 -4.4338852 -17.83382234 -9.68671645 0 0 Z " fill="#9858A0" transform="translate(869,134)"/>
<path d="M0 0 C7.91314425 0.3043517 16.3165414 3.3165414 22 9 C23.21042969 9.13148437 23.21042969 9.13148437 24.4453125 9.265625 C27 10 27 10 28.5546875 12.546875 C28.99039063 13.60390625 29.42609375 14.6609375 29.875 15.75 C32.46122306 21.40736293 34.60837516 23.98069009 40 27 C40.495 25.515 40.495 25.515 41 24 C43.5625 22.8125 43.5625 22.8125 46 22 C45.525625 22.680625 45.05125 23.36125 44.5625 24.0625 C42.7774364 27.41841956 42.36846914 30.24161481 42 34 C43.98 34 45.96 34 48 34 C48.02684312 36.81256281 48.04676188 39.62487241 48.0625 42.4375 C48.07087891 43.23994141 48.07925781 44.04238281 48.08789062 44.86914062 C48.0965143 46.91295221 48.0522815 48.95683902 48 51 C45.14076381 53.85923619 37.46273387 52.99132035 33.66796875 53.0625 C30.77792861 53.0625 27.88966932 53.04468561 25 53 C24.773125 53.52464844 24.54625 54.04929688 24.3125 54.58984375 C22.54217697 57.8407048 20.28273727 60.66342367 18 63.5625 C15.57888121 66.65807332 13.1818227 69.72726594 11 73 C11.59425781 72.6390625 12.18851563 72.278125 12.80078125 71.90625 C19.28650804 68.27504993 24.57801914 67.05709862 32 68 C33 69 33 69 33.09765625 70.93359375 C33.08605469 71.75988281 33.07445312 72.58617187 33.0625 73.4375 C33.05476562 74.33210938 33.04703125 75.22671875 33.0390625 76.1484375 C33.01302083 78.04947917 32.98697917 79.95052083 32.9609375 81.8515625 C32.95320312 82.74617188 32.94546875 83.64078125 32.9375 84.5625 C32.92589844 85.38878906 32.91429687 86.21507812 32.90234375 87.06640625 C32.78372235 89.00723557 32.78372235 89.00723557 34 90 C40.10361476 90.3875311 44.85710771 89.71009592 50.640625 87.75390625 C53 87 53 87 58 86 C58 91.94 58 97.88 58 104 C50.70581437 106.91767425 43.87184968 107.20326184 36.125 107.25 C35.27808594 107.270625 34.43117188 107.29125 33.55859375 107.3125 C32.29595703 107.32023437 32.29595703 107.32023437 31.0078125 107.328125 C30.26160645 107.3374707 29.51540039 107.34681641 28.74658203 107.35644531 C24.70821224 106.83235465 20.86326176 105.28775392 17 104 C17 97.73 17 91.46 17 85 C8.2178596 90.26928424 0.67285641 96.25422958 -7 103 C-10.68069887 101.46356148 -12.98775204 99.21849055 -15.75 96.375 C-16.54921875 95.55773437 -17.3484375 94.74046875 -18.171875 93.8984375 C-18.77515625 93.27195312 -19.3784375 92.64546875 -20 92 C-18.45832383 87.05535571 -15.53731143 83.75231691 -12.25 79.875 C-4.76528237 70.87499761 2.13783313 61.47876591 9 52 C7.83597656 52.10828125 7.83597656 52.10828125 6.6484375 52.21875 C-1.5976714 52.92724623 -9.72394898 53.08359647 -18 53 C-18 48.05 -18 43.1 -18 38 C-7.40695577 36.73245625 3.17448971 35.68701686 13.8125 34.875 C14.91956299 34.78750488 16.02662598 34.70000977 17.16723633 34.60986328 C24.79043273 34.04752879 32.35745562 33.90122468 40 34 C39.505 32.02 39.505 32.02 39 30 C37.24623047 30.05220703 37.24623047 30.05220703 35.45703125 30.10546875 C33.90886859 30.13361716 32.36069032 30.16091619 30.8125 30.1875 C30.04357422 30.21263672 29.27464844 30.23777344 28.48242188 30.26367188 C23.71589055 30.32504352 20.95385654 29.90584637 17 27 C16.15179687 26.52820313 15.30359375 26.05640625 14.4296875 25.5703125 C13.58664062 25.09335938 12.74359375 24.61640625 11.875 24.125 C11.02679687 23.65320313 10.17859375 23.18140625 9.3046875 22.6953125 C6.65025321 20.74272863 5.54218496 18.88479305 4 16 C3.29875 15.05125 2.5975 14.1025 1.875 13.125 C-0.23596151 9.60673081 -0.76947807 7.07255416 -1 3 C-0.67 2.01 -0.34 1.02 0 0 Z " fill="#2B5CA9" transform="translate(648,79)"/>
<path d="M0 0 C4.46487149 0.37336904 6.7811813 2.12531407 10.125 5 C11.08664062 5.8146875 12.04828125 6.629375 13.0390625 7.46875 C14.01617187 8.3040625 14.99328125 9.139375 16 10 C17.82942388 11.50476556 19.66268567 13.00487888 21.5 14.5 C24.3554901 16.8303425 27.20219062 19.16883959 30.03125 21.53125 C31.0109375 22.3459375 31.990625 23.160625 33 24 C33.886875 24.7425 34.77375 25.485 35.6875 26.25 C37.96173555 28.16519737 37.96173555 28.16519737 41 29 C41.34579102 28.53198975 41.69158203 28.06397949 42.04785156 27.58178711 C47.08202834 21.28597958 53.21117592 17.0902931 59.89892578 12.76098633 C61.7675416 11.55114261 63.62463298 10.32504191 65.48046875 9.09570312 C74.48853586 3.17048805 74.48853586 3.17048805 78 2 C76.63295759 6.10112722 73.77122904 7.74392293 70.4375 10.25 C69.16143832 11.22874744 67.88669307 12.20921364 66.61328125 13.19140625 C65.99404785 13.66852051 65.37481445 14.14563477 64.73681641 14.63720703 C61.36660276 17.28164512 58.16734999 20.11790824 55 23 C63.46457877 17.87714872 71.25072608 12.1230352 79 6 C79.99 6.495 79.99 6.495 81 7 C64.85106383 21.14893617 64.85106383 21.14893617 57 27 C60.99127183 25.22831325 64.41637807 22.67029994 67.9375 20.125 C68.54529297 19.69058594 69.15308594 19.25617187 69.77929688 18.80859375 C73.26901805 16.30141543 76.66927835 13.71766662 80 11 C80.99 11.495 80.99 11.495 82 12 C81.35768433 12.55143677 81.35768433 12.55143677 80.70239258 13.11401367 C78.73730869 14.80311009 76.77489303 16.49527829 74.8125 18.1875 C74.13896484 18.76564453 73.46542969 19.34378906 72.77148438 19.93945312 C69.03248867 23.16775674 65.43944529 26.45369816 62 30 C69.39416218 24.74516002 76.77704474 19.48944599 84 14 C84.99 14.495 84.99 14.495 86 15 C64.48529412 36.75735294 64.48529412 36.75735294 56 41 C56 41.66 56 42.32 56 43 C57.90526061 44.77071804 57.90526061 44.77071804 60.375 46.625 C61.27863281 47.33269531 62.18226563 48.04039063 63.11328125 48.76953125 C65.02619861 50.247577 66.94024835 51.72415844 68.85546875 53.19921875 C69.74878906 53.89660156 70.64210938 54.59398437 71.5625 55.3125 C72.38878906 55.94800781 73.21507812 56.58351562 74.06640625 57.23828125 C76 59 76 59 77 62 C78.81072926 63.53410897 78.81072926 63.53410897 81.10498047 64.97094727 C81.97613495 65.5448671 82.84728943 66.11878693 83.74484253 66.71009827 C84.69271637 67.3226799 85.64059021 67.93526154 86.6171875 68.56640625 C88.06933151 69.51845192 88.06933151 69.51845192 89.55081177 70.48973083 C92.65392126 72.52168381 95.7642957 74.5421976 98.875 76.5625 C100.96533408 77.9282863 103.05518417 79.29481366 105.14453125 80.66210938 C109.75040003 83.67455507 114.36090102 86.67975769 118.97555542 89.6787262 C123.98665542 92.94927024 123.98665542 92.94927024 124.51171875 94.9453125 C124.67447917 96.96354167 124.83723958 98.98177083 125 101 C122.50997908 103.39042008 121.13875443 103.98427666 117.65625 104.37890625 C113.13325762 103.91017734 112.05288948 102.77618775 109.0625 99.4375 C107.77472656 98.05498047 107.77472656 98.05498047 106.4609375 96.64453125 C105.64882813 95.77183594 104.83671875 94.89914063 104 94 C102.74990263 92.85200221 101.48056347 91.72437675 100.1875 90.625 C96.5638855 87.5221884 93.05940998 84.30619238 89.5625 81.0625 C87.89103383 79.51811138 86.21897286 77.97436869 84.546875 76.43066406 C83.1533355 75.14181598 81.76390993 73.84852324 80.375 72.5546875 C79.611875 71.85601562 78.84875 71.15734375 78.0625 70.4375 C77.41410156 69.83808594 76.76570312 69.23867187 76.09765625 68.62109375 C73.54846541 66.65104869 70.90044863 65.40501348 68 64 C65.24357672 62.48387845 62.52638339 60.90330247 59.8125 59.3125 C59.06943604 58.87695801 58.32637207 58.44141602 57.56079102 57.99267578 C51.42226598 54.34582994 45.65195911 50.37019732 40 46 C36.07129732 47.70019652 32.88396131 50.29041683 29.5625 52.9375 C28.94850342 53.42331543 28.33450684 53.90913086 27.7019043 54.40966797 C22.95199138 58.18987548 18.29414921 62.07147129 13.68359375 66.02001953 C10.36572136 68.86059458 6.98886911 71.60246244 3.5625 74.3125 C-5.49705249 81.69829353 -14.06754595 89.97470305 -20.859375 99.5078125 C-22.68982177 101.90243807 -24.14790547 103.0050833 -27 104 C-31.68982667 104.03320231 -35.06061232 103.62625845 -39 101 C-39.95302268 96.77355159 -40.17971358 92.08050263 -37.9921875 88.22265625 C-33.63281218 84.10293246 -27.80397947 81.81925785 -22.45654297 79.23046875 C-7.91772555 72.14448909 5.02163123 62.56601438 18 53 C19.49043596 51.90824032 20.98131404 50.81708392 22.47265625 49.7265625 C25.98578196 47.15646559 29.49427058 44.58017548 33 42 C29.92309761 38.87776571 26.78873279 35.85589706 23.54663086 32.90307617 C18.4331518 28.24578368 13.38053713 23.525514 8.4375 18.6875 C7.70551392 17.98741821 7.70551392 17.98741821 6.95874023 17.27319336 C2.96053788 13.31403186 -0.68893886 8.86176244 -1.3125 3.125 C-1 1 -1 1 0 0 Z " fill="#2B9268" transform="translate(495,18)"/>
<path d="M0 0 C3.55975655 0.78961873 6.89326476 0.96452319 10.53515625 1.08984375 C23.99580571 1.8070095 36.28899037 6.43449458 45.72265625 16.33984375 C49.09041939 21.67213538 49.43262376 25.52080207 49.22265625 31.71484375 C48.56265625 31.71484375 47.90265625 31.71484375 47.22265625 31.71484375 C46.74828125 30.51859375 46.27390625 29.32234375 45.78515625 28.08984375 C42.77736442 22.05285231 37.60129396 19.17991674 31.57421875 16.56640625 C27.00397117 15.40520115 22.66815777 15.42424864 17.97265625 15.46484375 C17.06257812 15.45710938 16.1525 15.449375 15.21484375 15.44140625 C13.91160156 15.44527344 13.91160156 15.44527344 12.58203125 15.44921875 C11.39818848 15.45260254 11.39818848 15.45260254 10.19042969 15.45605469 C7.98917748 15.54240938 7.98917748 15.54240938 6.22265625 17.71484375 C6.36517804 27.01374273 11.27994613 36.98230538 14.34765625 45.65234375 C15.19339363 48.04972282 16.03711762 50.44773189 16.87521362 52.84779358 C17.3936381 54.33187021 17.91651103 55.81440228 18.44436646 57.29515076 C19.47328975 60.23599214 20.22265625 62.57428752 20.22265625 65.71484375 C14.53066704 68.99868368 7.66912006 69.37630699 1.22265625 68.71484375 C-0.463978 68.10044393 -2.13712071 67.44415206 -3.77734375 66.71484375 C-3.83341797 65.20857422 -3.83341797 65.20857422 -3.890625 63.671875 C-4.48252522 50.41200561 -5.44580003 33.5937684 -15.71875 23.87890625 C-17.963504 22.38669673 -17.963504 22.38669673 -21.77734375 22.71484375 C-22.76734375 27.99484375 -23.75734375 33.27484375 -24.77734375 38.71484375 C-27.62348399 35.86870351 -27.23313451 32.91115233 -27.40234375 29.08984375 C-27.44101562 28.3834375 -27.4796875 27.67703125 -27.51953125 26.94921875 C-27.61382099 25.20485851 -27.69667266 23.45988684 -27.77734375 21.71484375 C-29.5676375 25.13847399 -31.11846874 28.3137091 -31.96484375 32.08984375 C-32.23296875 33.28609375 -32.50109375 34.48234375 -32.77734375 35.71484375 C-33.10734375 35.71484375 -33.43734375 35.71484375 -33.77734375 35.71484375 C-34.3308745 19.0064155 -34.3308745 19.0064155 -30.77734375 10.71484375 C-35.80283726 16.56116787 -38.48557926 22.38119738 -40.77734375 29.71484375 C-41.10734375 29.71484375 -41.43734375 29.71484375 -41.77734375 29.71484375 C-41.73682079 20.55665466 -38.92455851 12.46651086 -32.84765625 5.50390625 C-22.67516689 -3.87694969 -12.66088342 -3.54504736 0 0 Z " fill="#E85685" transform="translate(933.77734375,125.28515625)"/>
<path d="M0 0 C6.27 0 12.54 0 19 0 C19 5.61 19 11.22 19 17 C28.9 17 38.8 17 49 17 C49 22.28 49 27.56 49 33 C37.45 33 25.9 33 14 33 C13.67 35.97 13.34 38.94 13 42 C11.9074752 44.80896028 10.830598 47.29884322 9.4375 49.9375 C9.08034912 50.6284375 8.72319824 51.319375 8.35522461 52.03125 C1.072382 65.70554979 -9.43114616 76.31795039 -24 82 C-25.98962246 82.39052984 -27.98904701 82.7408105 -30 83 C-29.1875 81.91666667 -28.375 80.83333333 -27.5625 79.75 C-27.0159375 79.01394531 -26.469375 78.27789062 -25.90625 77.51953125 C-24.57985113 75.76640159 -23.22314237 74.03596472 -21.84375 72.32421875 C-12.32085195 60.2738392 -7.53372338 47.8416382 -4 33 C-9.28 33 -14.56 33 -20 33 C-20 28.05 -20 23.1 -20 18 C-12.74 18 -5.48 18 2 18 C1.67 15.958125 1.34 13.91625 1 11.8125 C0.34140907 7.73746862 0 4.15548387 0 0 Z " fill="#F5B91F" transform="translate(213,74)"/>
<path d="M0 0 C7.78040135 -0.07553788 15.29282199 -0.06305904 23 1 C22.88204476 2.45892004 22.75508849 3.91711177 22.625 5.375 C22.55539062 6.18710938 22.48578125 6.99921875 22.4140625 7.8359375 C21.83518767 12.25941495 20.87491206 16.62543971 20 21 C29.24 21 38.48 21 48 21 C48 26.94 48 32.88 48 39 C37.11 39 26.22 39 15 39 C15 43.95 15 48.9 15 54 C13.02 54.66 11.04 55.32 9 56 C6.12552913 57.05294788 3.25760403 58.12215368 0.390625 59.1953125 C-2 60 -2 60 -4 60 C-3.85715908 57.97895295 -3.71057617 55.95817023 -3.5625 53.9375 C-3.48128906 52.81214844 -3.40007813 51.68679687 -3.31640625 50.52734375 C-3.00045232 47.00504258 -2.50012863 43.50090042 -2 40 C-8.6 40.33 -15.2 40.66 -22 41 C-22 34.4 -22 27.8 -22 21 C-15.07 21 -8.14 21 -1 21 C-0.67 14.07 -0.34 7.14 0 0 Z " fill="#9858A0" transform="translate(823,72)"/>
<path d="M0 0 C6.27 0 12.54 0 19 0 C18 9 18 9 17 13 C26.24 12.34 35.48 11.68 45 11 C45 16.28 45 21.56 45 27 C24.65904664 27.65996141 4.35452562 28.17638237 -16 28 C-15.98114746 28.56412598 -15.96229492 29.12825195 -15.94287109 29.70947266 C-15.6867497 43.13755136 -20.08768885 57.10963427 -29.5 66.9375 C-32.45654725 69.67675091 -35.56235134 71.90387277 -39 74 C-39.66 73.67 -40.32 73.34 -41 73 C-40.80365967 72.43192627 -40.60731934 71.86385254 -40.4050293 71.27856445 C-33.57833444 51.4324016 -30 35.28615497 -30 14 C-19.44 14 -8.88 14 2 14 C1.34 11.03 0.68 8.06 0 5 C0 3.35 0 1.7 0 0 Z " fill="#F5B921" transform="translate(349,71)"/>
<path d="M0 0 C0.495 0.495 0.495 0.495 1 1 C2.84891946 1.23363881 4.70488031 1.41303635 6.5625 1.5625 C8.08037109 1.68818359 8.08037109 1.68818359 9.62890625 1.81640625 C10.80259766 1.90728516 10.80259766 1.90728516 12 2 C12.495 3.485 12.495 3.485 13 5 C14.0209375 5.061875 14.0209375 5.061875 15.0625 5.125 C20.65834079 6.79184619 24.11428712 10.42857392 26.9375 15.4375 C28.54831613 20.83847171 28.7180666 24.89190505 26.4375 30.0625 C22.7234006 36.81065243 17.16551333 40.4408881 10 43 C8.906875 43.2475 7.81375 43.495 6.6875 43.75 C2.19797603 45.27187253 -0.88680564 47.70050481 -4.5703125 50.63671875 C-7 52 -7 52 -9.69140625 51.859375 C-12 51 -12 51 -13.8125 48.5625 C-15.33634104 43.99097688 -15.46845684 39.78366501 -15 35 C-12.6724393 32.6724393 -6.11279272 33.590575 -2.7890625 33.48242188 C1.54495786 33.29536725 5.04636818 32.98485175 9 31 C9.22174933 29.54364629 9.42698698 28.08477044 9.625 26.625 C9.74101563 25.81289062 9.85703125 25.00078125 9.9765625 24.1640625 C9.98429688 23.44992188 9.99203125 22.73578125 10 22 C9.34 21.34 8.68 20.68 8 20 C7.01 20 6.02 20 5 20 C4.505 18.515 4.505 18.515 4 17 C1.98491642 16.26676204 1.98491642 16.26676204 0 16 C0 16.66 0 17.32 0 18 C-0.99 18 -1.98 18 -3 18 C-3 17.34 -3 16.68 -3 16 C-3.66 15.67 -4.32 15.34 -5 15 C-5.433125 15.8971875 -5.433125 15.8971875 -5.875 16.8125 C-7 19 -7 19 -9 22 C-9.66613335 24.27538323 -9.66613335 24.27538323 -10.125 26.6875 C-10.29257812 27.49574219 -10.46015625 28.30398437 -10.6328125 29.13671875 C-10.81457031 30.05904297 -10.81457031 30.05904297 -11 31 C-12.58158962 27.99112219 -13.43945339 25.36327963 -14 22 C-15.32 24.64 -16.64 27.28 -18 30 C-18.33 30 -18.66 30 -19 30 C-19.125 23.375 -19.125 23.375 -18 20 C-23.40049736 20.31767632 -25.52337065 23.19996327 -29 27 C-29.66 26.67 -30.32 26.34 -31 26 C-29.02 23.03 -27.04 20.06 -25 17 C-28.15133488 18.83827868 -31.11964908 20.75972706 -34 23 C-34.66 22.67 -35.32 22.34 -36 22 C-34.90653119 20.65787938 -33.7998425 19.32652025 -32.6875 18 C-31.76517578 16.88625 -31.76517578 16.88625 -30.82421875 15.75 C-29 14 -29 14 -26 14 C-27.49479421 11.83341465 -27.49479421 11.83341465 -30 10 C-32.79596625 9.81360225 -35.23456514 9.79960617 -38 10 C-45.33554817 10.53156146 -45.33554817 10.53156146 -48.5 8 C-48.995 7.34 -49.49 6.68 -50 6 C-48.68 6.33 -47.36 6.66 -46 7 C-45.67 6.34 -45.34 5.68 -45 5 C-44.2575 5.495 -43.515 5.99 -42.75 6.5 C-39.93681812 8.31923475 -39.93681812 8.31923475 -36 8 C-36 7.01 -36 6.02 -36 5 C-36.9590625 4.566875 -36.9590625 4.566875 -37.9375 4.125 C-40 3 -40 3 -41 1 C-39.66775391 1.27650391 -39.66775391 1.27650391 -38.30859375 1.55859375 C-32.55713865 2.37857742 -26.81527838 1.58371402 -21.0625 1.0625 C-6.13770508 -0.24373558 -6.13770508 -0.24373558 0 0 Z " fill="#C43D48" transform="translate(758,131)"/>
<path d="M0 0 C12.54 0 25.08 0 38 0 C38 5.28 38 10.56 38 16 C34.04 16 30.08 16 26 16 C26.01160156 17.04800781 26.02320313 18.09601563 26.03515625 19.17578125 C26.04453655 20.55468572 26.0536365 21.93359211 26.0625 23.3125 C26.07087891 24.00279297 26.07925781 24.69308594 26.08789062 25.40429688 C26.10307906 28.5483025 26.00193327 30.99420019 25 34 C30.61 34 36.22 34 42 34 C42 39.61 42 45.22 42 51 C25.63465555 51.09760643 9.33554051 51.1521288 -7 50 C-7 45.05 -7 40.1 -7 35 C-0.07 35 6.86 35 14 35 C14 28.73 14 22.46 14 16 C9.38 16 4.76 16 0 16 C0 10.72 0 5.44 0 0 Z " fill="#F5BA22" transform="translate(221,132)"/>
<path d="M0 0 C1.89709988 0.93493439 3.79262578 1.87306296 5.6875 2.8125 C6.74324219 3.33457031 7.79898438 3.85664062 8.88671875 4.39453125 C11.66776696 5.8286728 14.33904567 7.35603378 17 9 C16.40628078 13.21000901 14.96123054 16.22263242 12.8125 19.875 C12.24144531 20.86242187 11.67039063 21.84984375 11.08203125 22.8671875 C9 26 9 26 7.504776 27.33634949 C3.4683962 31.04641239 2.55940854 34.03561036 2.31884766 39.48608398 C2.31979435 42.07799921 2.35207096 44.65622241 2.4140625 47.24609375 C2.42526902 48.62612555 2.43380233 50.00618141 2.43978882 51.38624573 C2.46257411 54.99867987 2.52140244 58.60964024 2.5880127 62.22149658 C2.64966161 65.91503975 2.6768516 69.60882376 2.70703125 73.30273438 C2.77116152 80.53590233 2.87659565 87.76755597 3 95 C-1.62 95 -6.24 95 -11 95 C-10.67 77.18 -10.34 59.36 -10 41 C-13.96 42.98 -13.96 42.98 -18 45 C-23.23624554 46.87008769 -27.51742033 47.19237122 -33 47 C-30.3128807 43.81788504 -27.63389888 40.66598102 -24.76171875 37.6484375 C-14.19324949 26.49002179 -5.79250288 14.2735092 0 0 Z " fill="#F5B91F" transform="translate(170,87)"/>
<path d="M0 0 C0 3.96 0 7.92 0 12 C-1.711875 12.86625 -3.42375 13.7325 -5.1875 14.625 C-10.94849602 17.76129513 -14.85993537 20.57980611 -17 27 C-17.92380177 35.33760334 -17.27363647 41.05501381 -12.41015625 47.9765625 C-11 50 -11 50 -10 53 C-15.61 55.31 -21.22 57.62 -27 60 C-32.75148209 51.94792507 -36.91385757 43.2906614 -36.390625 33.125 C-35.26099312 26.97980256 -32.25851656 21.53325957 -28 17 C-27.01 16.34 -26.02 15.68 -25 15 C-40.84 15.495 -40.84 15.495 -57 16 C-57 11.05 -57 6.1 -57 1 C-51.29327043 0.85518456 -45.58648514 0.71288694 -39.87963867 0.57275391 C-37.94505183 0.52491498 -36.01048082 0.47643105 -34.07592773 0.42724609 C-22.71446532 0.13886917 -11.36551408 -0.07959508 0 0 Z " fill="#5F4043" transform="translate(459,147)"/>
<path d="M0 0 C0.88365234 0.00451172 1.76730469 0.00902344 2.67773438 0.01367188 C4.84768559 0.02540134 7.01760172 0.04333505 9.1875 0.0625 C8.80868078 5.79284155 8.02896963 10.24511719 5.25 15.375 C4.72535156 16.36113281 4.20070313 17.34726563 3.66015625 18.36328125 C2.93119141 19.69939453 2.93119141 19.69939453 2.1875 21.0625 C1.51466363 22.3927306 0.84525466 23.72474777 0.1875 25.0625 C8.17484511 27.5369657 15.80593511 29.67625277 24.1875 30.0625 C22.5216708 36.22606805 19.30944714 41.54509656 16.1875 47.0625 C9.27688517 46.54476664 3.88803672 42.82839207 -2 39.48046875 C-2.81726563 39.03058594 -3.63453125 38.58070313 -4.4765625 38.1171875 C-5.21342285 37.69937012 -5.9502832 37.28155273 -6.70947266 36.85107422 C-9.22518116 35.90775654 -10.32838748 36.14166802 -12.8125 37.0625 C-14.09950009 37.67548355 -15.37052441 38.32294087 -16.625 39 C-23.08100037 42.28170074 -28.64625459 43.31394721 -35.8125 43.0625 C-32.04475289 39.18057874 -28.18452211 35.26718119 -23.8125 32.0625 C-23.1525 32.0625 -22.4925 32.0625 -21.8125 32.0625 C-22.08284634 29.62532742 -22.08284634 29.62532742 -22.8125 27.0625 C-23.8025 26.4025 -24.7925 25.7425 -25.8125 25.0625 C-24.37286361 21.70334842 -22.68833411 19.34625062 -19.8125 17.0625 C-17.875 17.1875 -17.875 17.1875 -15.8125 18.0625 C-14.905 18.413125 -13.9975 18.76375 -13.0625 19.125 C-12.32 19.434375 -11.5775 19.74375 -10.8125 20.0625 C-9.8225 16.5975 -9.8225 16.5975 -8.8125 13.0625 C-9.69550781 13.1346875 -10.57851563 13.206875 -11.48828125 13.28125 C-18.9577645 13.85891143 -26.3215079 14.16372962 -33.8125 14.0625 C-33.8125 10.1025 -33.8125 6.1425 -33.8125 2.0625 C-31.84216797 1.97162109 -31.84216797 1.97162109 -29.83203125 1.87890625 C-28.09634459 1.79446744 -26.36066802 1.70982112 -24.625 1.625 C-23.76068359 1.58568359 -22.89636719 1.54636719 -22.00585938 1.50585938 C-17.1273781 1.2795143 -17.1273781 1.2795143 -12.3125 0.53125 C-8.23434982 -0.23340316 -4.13807818 -0.0401156 0 0 Z " fill="#F5B920" transform="translate(367.8125,141.9375)"/>
<path d="M0 0 C3.3 0 6.6 0 10 0 C10 1.98 10 3.96 10 6 C13.96 6 17.92 6 22 6 C22 9.96 22 13.92 22 18 C18.37 18.33 14.74 18.66 11 19 C10.7215625 21.6296875 10.7215625 21.6296875 10.4375 24.3125 C9.41625298 29.69474782 9.41625298 29.69474782 6.1875 32.0625 C4.3203125 32.5859375 4.3203125 32.5859375 2 33 C0.48019531 33.29777344 0.48019531 33.29777344 -1.0703125 33.6015625 C-7.09677594 34.65025103 -12.88976307 35.23961713 -19 35 C-19 30.38 -19 25.76 -19 21 C-22.96 21.33 -26.92 21.66 -31 22 C-31 18.04 -31 14.08 -31 10 C-27.37 10 -23.74 10 -20 10 C-20 7.03 -20 4.06 -20 1 C-15.71 1 -11.42 1 -7 1 C-7 3.31 -7 5.62 -7 8 C-4.69 8 -2.38 8 0 8 C0 5.36 0 2.72 0 0 Z " fill="#F5B81E" transform="translate(365,104)"/>
<path d="M0 0 C7.91314425 0.3043517 16.3165414 3.3165414 22 9 C23.21042969 9.13148437 23.21042969 9.13148437 24.4453125 9.265625 C27 10 27 10 28.5546875 12.546875 C28.99039063 13.60390625 29.42609375 14.6609375 29.875 15.75 C32.46122306 21.40736293 34.60837516 23.98069009 40 27 C40.495 25.515 40.495 25.515 41 24 C43.5625 22.8125 43.5625 22.8125 46 22 C45.525625 22.721875 45.05125 23.44375 44.5625 24.1875 C43.05847097 26.89475226 42.43400818 28.96194275 42 32 C41.01 32 40.02 32 39 32 C39 31.34 39 30.68 39 30 C37.24623047 30.05220703 37.24623047 30.05220703 35.45703125 30.10546875 C33.90886859 30.13361716 32.36069032 30.16091619 30.8125 30.1875 C30.04357422 30.21263672 29.27464844 30.23777344 28.48242188 30.26367188 C23.71589055 30.32504352 20.95385654 29.90584637 17 27 C16.15179687 26.52820313 15.30359375 26.05640625 14.4296875 25.5703125 C13.58664062 25.09335938 12.74359375 24.61640625 11.875 24.125 C11.02679687 23.65320313 10.17859375 23.18140625 9.3046875 22.6953125 C6.65025321 20.74272863 5.54218496 18.88479305 4 16 C2.948125 14.576875 2.948125 14.576875 1.875 13.125 C-0.23596151 9.60673081 -0.76947807 7.07255416 -1 3 C-0.67 2.01 -0.34 1.02 0 0 Z " fill="#2D5DAA" transform="translate(648,79)"/>
<path d="M0 0 C3.29011698 2.83103089 3.8778124 4.15996028 4.5 8.4375 C3.79393256 13.46823054 2.0773239 16.21030556 -1.77734375 19.53125 C-11.78408013 26.83598121 -23.93063953 30.12181479 -36.1875 30.1875 C-38.00314453 30.20876953 -38.00314453 30.20876953 -39.85546875 30.23046875 C-43 30 -43 30 -46 28 C-44.91203125 27.92523438 -43.8240625 27.85046875 -42.703125 27.7734375 C-31.98173342 26.87794929 -21.60365457 25.19975877 -13.75 17.0625 C-11.60030716 13.30053754 -11.21080712 11.26164154 -12 7 C-15.87074158 2.66007762 -20.87587975 1.19527632 -26.53491211 0.84155273 C-29.33845774 0.80386597 -32.13417758 0.82518019 -34.9375 0.875 C-36.3925293 0.88853516 -36.3925293 0.88853516 -37.87695312 0.90234375 C-40.25156407 0.92573893 -42.62564776 0.95851824 -45 1 C-35.82378615 -8.17621385 -10.29906132 -6.2282861 0 0 Z " fill="#FAF8FB" transform="translate(869,136)"/>
<path d="M0 0 C2.09733845 2.09733845 2.68847755 3.40303355 3.7265625 6.1328125 C4.190625 7.34130859 4.190625 7.34130859 4.6640625 8.57421875 C4.98117187 9.41597656 5.29828125 10.25773438 5.625 11.125 C5.94984375 11.97449219 6.2746875 12.82398438 6.609375 13.69921875 C7.41104454 15.79770665 8.20769797 17.89796129 9 20 C4.34472043 21.33188292 -0.19094837 21.18406496 -5 21.1875 C-6.35351562 21.20586914 -6.35351562 21.20586914 -7.734375 21.22460938 C-8.60578125 21.22654297 -9.4771875 21.22847656 -10.375 21.23046875 C-11.16648437 21.23457764 -11.95796875 21.23868652 -12.7734375 21.24291992 C-15.23783271 20.97405224 -16.86541094 20.2296427 -19 19 C-18.04738281 18.21496094 -17.09476563 17.42992187 -16.11328125 16.62109375 C-14.8459933 15.5603268 -13.57908646 14.49910444 -12.3125 13.4375 C-11.68666016 12.92380859 -11.06082031 12.41011719 -10.41601562 11.88085938 C-6.16133997 8.29445738 -3.065338 4.64782606 0 0 Z " fill="#32946C" transform="translate(593,138)"/>
<path d="M0 0 C7.91314425 0.3043517 16.3165414 3.3165414 22 9 C23.21042969 9.13148437 23.21042969 9.13148437 24.4453125 9.265625 C27 10 27 10 28.5546875 12.546875 C28.99039063 13.60390625 29.42609375 14.6609375 29.875 15.75 C32.46122306 21.40736293 34.60837516 23.98069009 40 27 C40.495 25.515 40.495 25.515 41 24 C43.5625 22.8125 43.5625 22.8125 46 22 C45.525625 22.721875 45.05125 23.44375 44.5625 24.1875 C43.05847097 26.89475226 42.43400818 28.96194275 42 32 C41.01 32 40.02 32 39 32 C38.505 31.01 38.505 31.01 38 30 C36.906875 29.525625 35.81375 29.05125 34.6875 28.5625 C27.64246405 25.21866047 21.72128537 19.01557069 16.46875 13.34765625 C13.73243594 10.83694256 10.32071762 9.27919251 7.08203125 7.5 C6.39496094 7.005 5.70789063 6.51 5 6 C5 5.01 5 4.02 5 3 C3.35 2.67 1.7 2.34 0 2 C0 1.34 0 0.68 0 0 Z " fill="#3864AE" transform="translate(648,79)"/>
<path d="M0 0 C-0.30238669 9.23791351 -1.93348885 17.28540319 -5 26 C-9.36206 26 -11.54287202 23.35057138 -14.6875 20.625 C-15.29400391 20.11710937 -15.90050781 19.60921875 -16.52539062 19.0859375 C-18.06065678 17.77344899 -19.53568462 16.39120406 -21 15 C-21 14.34 -21 13.68 -21 13 C-20.05898438 12.48050781 -19.11796875 11.96101562 -18.1484375 11.42578125 C-16.89044274 10.72167971 -15.63264048 10.01723415 -14.375 9.3125 C-13.75753906 8.97283203 -13.14007813 8.63316406 -12.50390625 8.28320312 C-9.50037578 6.59174123 -2.89051241 0 0 0 Z " fill="#F5B922" transform="translate(304,154)"/>
<path d="M0 0 C1.19088986 5.38027025 2.2919519 10.45291384 2 16 C-1.46222615 17.06723961 -4.64039266 17.10173486 -8.25 17.0625 C-9.32765625 17.05347656 -10.4053125 17.04445313 -11.515625 17.03515625 C-12.33546875 17.02355469 -13.1553125 17.01195313 -14 17 C-14.84681133 11.91913204 -15.09038099 7.15171623 -15 2 C-9.77487721 0.53329887 -5.4185766 -0.22577402 0 0 Z " fill="#2C9269" transform="translate(544,82)"/>
<path d="M0 0 C4.34170523 2.3836813 8.2064129 4.78119883 12 8 C10.23570801 12.97209562 7.6060834 17.43438061 5 22 C1.31930113 20.46356148 -0.98775204 18.21849055 -3.75 15.375 C-4.54921875 14.55773437 -5.3484375 13.74046875 -6.171875 12.8984375 C-6.77515625 12.27195313 -7.3784375 11.64546875 -8 11 C-6.63629701 8.00779732 -5.05091917 5.70973471 -2.875 3.25 C-2.33617187 2.63640625 -1.79734375 2.0228125 -1.2421875 1.390625 C-0.62730469 0.70226562 -0.62730469 0.70226562 0 0 Z " fill="#F5BA23" transform="translate(287,120)"/>
<path d="M0 0 C5.05229955 0.14859705 8.94546921 3.27350411 13 6 C11.23570801 10.97209562 8.6060834 15.43438061 6 20 C0.59510481 18.47987323 -2.98492628 14.72614782 -7 11 C-6.21258141 9.53936857 -5.4199095 8.08156827 -4.625 6.625 C-4.18414062 5.81289062 -3.74328125 5.00078125 -3.2890625 4.1640625 C-2 2 -2 2 0 0 Z " fill="#F5BA23" transform="translate(290,88)"/>
<path d="M0 0 C8.58 0 17.16 0 26 0 C26 1.98 26 3.96 26 6 C17.42 6 8.84 6 0 6 C0 4.02 0 2.04 0 0 Z " fill="#FAFBFA" transform="translate(526,135)"/>
<path d="M0 0 C4.95 0 9.9 0 15 0 C13.875 7.875 13.875 7.875 12 12 C10.56208484 11.85831863 9.1246763 11.71148957 7.6875 11.5625 C6.88699219 11.48128906 6.08648438 11.40007812 5.26171875 11.31640625 C3 11 3 11 0 10 C0 6.7 0 3.4 0 0 Z " fill="#E85886" transform="translate(951,115)"/>
<path d="M0 0 C8.25 0 16.5 0 25 0 C25 1.98 25 3.96 25 6 C16.75 6 8.5 6 0 6 C0 4.02 0 2.04 0 0 Z " fill="#F7F9F7" transform="translate(526,117)"/>
<path d="M0 0 C0.33 3.3 0.66 6.6 1 10 C-4.61 9.34 -10.22 8.68 -16 8 C-16 6.68 -16 5.36 -16 4 C-13.52122809 3.33183525 -11.04201406 2.66539997 -8.5625 2 C-7.50192383 1.71382813 -7.50192383 1.71382813 -6.41992188 1.421875 C-1.11328125 0 -1.11328125 0 0 0 Z " fill="#E85685" transform="translate(932,112)"/>
<path d="M0 0 C1.13179687 0.00128906 2.26359375 0.00257812 3.4296875 0.00390625 C9.23277149 0.06506287 14.27849547 0.39830039 19.75 2.375 C16.35715235 3.50594922 14.20714666 3.07161521 10.75 2.375 C7.14769929 2.16230089 3.54551669 2.18989417 -0.0625 2.1875 C-1.50206055 2.16913086 -1.50206055 2.16913086 -2.97070312 2.15039062 C-8.75599537 2.13854361 -13.70400571 2.71448337 -19.25 4.375 C-18.59 5.035 -17.93 5.695 -17.25 6.375 C-18.219375 6.91125 -19.18875 7.4475 -20.1875 8 C-23.51272183 10.07965742 -23.51272183 10.07965742 -24.0625 13.5 C-24.124375 14.44875 -24.18625 15.3975 -24.25 16.375 C-24.58 17.035 -24.91 17.695 -25.25 18.375 C-26.25 17.375 -26.25 17.375 -26.5625 14.6875 C-26.17929614 10.62553907 -24.6921517 8.58032411 -22.25 5.375 C-22.91 5.045 -23.57 4.715 -24.25 4.375 C-16.01737866 0.71858916 -8.95453852 -0.19646216 0 0 Z " fill="#DD9B92" transform="translate(736.25,117.625)"/>
<path d="M0 0 C-1 2 -2 4 -3 6 C-3.25797575 9.95562822 -3.09440189 12.59659693 -1 16 C-3.02045442 15.39816251 -5.02111039 14.72693904 -7 14 C-8.55024464 10.89951072 -8.28992015 8.42105782 -8 5 C-5.0212766 0 -5.0212766 0 0 0 Z " fill="#F3DBD8" transform="translate(714,123)"/>
<path d="M0 0 C0.66 0.33 1.32 0.66 2 1 C-0.96471263 6.06224682 -4.18782544 9.01545571 -9 12.3125 C-9.61617187 12.75400391 -10.23234375 13.19550781 -10.8671875 13.65039062 C-13.88123496 15.76216422 -16.40385047 17.25716791 -20 18 C-15.93512864 13.80884137 -11.61623098 9.98900401 -7.1875 6.1875 C-6.49462891 5.59001953 -5.80175781 4.99253906 -5.08789062 4.37695312 C-3.39342817 2.91620963 -1.69744286 1.45727785 0 0 Z " fill="#ECF1EC" transform="translate(571,28)"/>
<path d="M0 0 C1.4540625 0.0309375 1.4540625 0.0309375 2.9375 0.0625 C2.9375 2.7025 2.9375 5.3425 2.9375 8.0625 C0.9575 8.3925 -1.0225 8.7225 -3.0625 9.0625 C-3.94140625 2.91015625 -3.94140625 2.91015625 -4.0625 1.0625 C-3.0625 0.0625 -3.0625 0.0625 0 0 Z " fill="#6F5253" transform="translate(467.0625,136.9375)"/>
<path d="M0 0 C-0.33 0.33 -0.66 0.66 -1 1 C-0.01 1.66 0.98 2.32 2 3 C0 4 0 4 -2.75 4.1875 C-7.283924 5.320981 -8.91427212 7.54692357 -12 11 C-12.66 10.67 -13.32 10.34 -14 10 C-12.02 7.03 -10.04 4.06 -8 1 C-8.66 0.67 -9.32 0.34 -10 0 C-3.375 -1.125 -3.375 -1.125 0 0 Z " fill="#CC5B5E" transform="translate(741,147)"/>
<path d="M0 0 C0.66 0.33 1.32 0.66 2 1 C-2.61943794 7.56446444 -8.30359625 11.75456756 -15 16 C-15.66 15.67 -16.32 15.34 -17 15 C-5.47835991 4.44191344 -5.47835991 4.44191344 0 0 Z " fill="#E8EFE9" transform="translate(572,33)"/>
<path d="M0 0 C7.16935169 0.16160424 12.45346194 1.27419073 18 6 C20.125 8.5625 20.125 8.5625 21 11 C20.1875 13.3125 20.1875 13.3125 19 15 C18.67 15 18.34 15 18 15 C17.79375 13.9275 17.5875 12.855 17.375 11.75 C15.6661287 7.0894419 14.40173844 6.20086922 10 4 C6.70035284 2.85743561 3.37822461 1.88127599 0 1 C0 0.67 0 0.34 0 0 Z " fill="#A56FAD" transform="translate(855,131)"/>
<path d="M0 0 C1.98 0 3.96 0 6 0 C6 2.64 6 5.28 6 8 C4.35 8.33 2.7 8.66 1 9 C0.67 6.03 0.34 3.06 0 0 Z " fill="#624446" transform="translate(473,136)"/>
<path d="M0 0 C0.66 0.33 1.32 0.66 2 1 C0.46642041 5.62233847 -3.28707795 7.6356531 -7.125 10.25 C-7.78371094 10.70890625 -8.44242188 11.1678125 -9.12109375 11.640625 C-10.7420005 12.76821231 -12.37029686 13.88516391 -14 15 C-14.66 14.67 -15.32 14.34 -16 14 C-14.2725597 12.4147483 -12.54312043 10.83177374 -10.8125 9.25 C-9.36810547 7.92742188 -9.36810547 7.92742188 -7.89453125 6.578125 C-5.32582261 4.29020637 -2.70839628 2.11918393 0 0 Z " fill="#E8EFE9" transform="translate(565,27)"/>
<path d="M0 0 C0.66 0.33 1.32 0.66 2 1 C1.2884375 1.8353125 1.2884375 1.8353125 0.5625 2.6875 C-1.12395996 5.18346074 -1.58953107 7.0446237 -2 10 C-2.99 10 -3.98 10 -5 10 C-5.33 9.34 -5.66 8.68 -6 8 C-7.97522846 6.95191959 -9.97481509 5.9479589 -12 5 C-9.13822943 3.56911472 -7.06624227 4.40008303 -4 5 C-3.67 4.01 -3.34 3.02 -3 2 C-2.01 1.34 -1.02 0.68 0 0 Z " fill="#4F72B6" transform="translate(692,101)"/>
<path d="M0 0 C0.66 0.33 1.32 0.66 2 1 C-0.4106303 3.13192917 -2.82951043 5.25427532 -5.25 7.375 C-5.93191406 7.97828125 -6.61382813 8.5815625 -7.31640625 9.203125 C-7.98027344 9.78320312 -8.64414062 10.36328125 -9.328125 10.9609375 C-9.9355957 11.49509277 -10.54306641 12.02924805 -11.16894531 12.57958984 C-13.02901183 14.02250544 -14.86404532 15.02273888 -17 16 C-16.61823342 13.48650576 -16.25496173 12.25067368 -14.41772461 10.44433594 C-13.75264893 9.96254883 -13.08757324 9.48076172 -12.40234375 8.984375 C-11.68369141 8.45585938 -10.96503906 7.92734375 -10.22460938 7.3828125 C-9.46986328 6.84398437 -8.71511719 6.30515625 -7.9375 5.75 C-7.17888672 5.19570313 -6.42027344 4.64140625 -5.63867188 4.0703125 C-3.76578134 2.70392695 -1.88630798 1.34777038 0 0 Z " fill="#3C976F" transform="translate(575,29)"/>
<path d="M0 0 C5.63281599 -0.2396943 10.54538831 0.61470179 16 2 C16.33 1.34 16.66 0.68 17 0 C17 0.99 17 1.98 17 3 C16.34 3 15.68 3 15 3 C14.67 3.66 14.34 4.32 14 5 C12.03951648 4.7451971 10.08159327 4.47063056 8.125 4.1875 C6.48917969 3.96126953 6.48917969 3.96126953 4.8203125 3.73046875 C2 3 2 3 0 0 Z " fill="#FBE4E9" transform="translate(917,120)"/>
<path d="M0 0 C0.9075 0.495 1.815 0.99 2.75 1.5 C6.00873038 3.27937212 6.00873038 3.27937212 10 3 C10.33 2.01 10.66 1.02 11 0 C11.99 0.66 12.98 1.32 14 2 C14 2.99 14 3.98 14 5 C11.75106046 5.10823773 9.50062425 5.18569645 7.25 5.25 C5.37054687 5.31960937 5.37054687 5.31960937 3.453125 5.390625 C0 5 0 5 -2.453125 2.984375 C-2.96359375 2.32953125 -3.4740625 1.6746875 -4 1 C-2.68 1.33 -1.36 1.66 0 2 C0 1.34 0 0.68 0 0 Z " fill="#DB918C" transform="translate(712,136)"/>
<path d="M0 0 C2.64 0 5.28 0 8 0 C8 1.32 8 2.64 8 4 C5.29120665 5.35439668 2.99066732 5.06501451 0 5 C0 3.35 0 1.7 0 0 Z " fill="#FEFCF6" transform="translate(356,123)"/>
<path d="M0 0 C2.31 0.33 4.62 0.66 7 1 C6.21625 1.598125 5.4325 2.19625 4.625 2.8125 C1.85425677 4.91085249 1.85425677 4.91085249 0 8 C-0.16699232 11.12521833 -0.16699232 11.12521833 0 14 C-0.66 13.67 -1.32 13.34 -2 13 C-2.50423019 7.70558305 -1.18923033 5.18586481 2 1 C1.34 0.67 0.68 0.34 0 0 Z " fill="#E0A29A" transform="translate(712,122)"/>
<path d="M0 0 C8.6309795 3.85421412 8.6309795 3.85421412 11 8 C6.38486888 6.68139111 2.90102388 4.78644563 -1 2 C-0.67 1.34 -0.34 0.68 0 0 Z " fill="#E7E9F4" transform="translate(656,84)"/>
<path d="M0 0 C1.66362417 0.34820041 3.32995171 0.68404492 5 1 C5 1.33 5 1.66 5 2 C-2.92 2.495 -2.92 2.495 -11 3 C-7.74003139 -0.25996861 -4.40088745 -1.46696248 0 0 Z " fill="#F0EAF3" transform="translate(835,134)"/>
<path d="M0 0 C1.13199353 0.9080162 2.25532363 1.82683826 3.375 2.75 C4.00148438 3.26046875 4.62796875 3.7709375 5.2734375 4.296875 C7.08312318 6.08199481 8.00117455 7.67949644 9 10 C5.78956118 8.61811547 3.95063635 7.07578097 1.75 4.375 C1.22921875 3.74335937 0.7084375 3.11171875 0.171875 2.4609375 C-0.21484375 1.97882813 -0.6015625 1.49671875 -1 1 C-0.67 0.67 -0.34 0.34 0 0 Z " fill="#E3E5F3" transform="translate(667,92)"/>
<path d="M0 0 C2.64 0.33 5.28 0.66 8 1 C7.67 2.65 7.34 4.3 7 6 C6.34 6 5.68 6 5 6 C5 5.01 5 4.02 5 3 C3.35 2.67 1.7 2.34 0 2 C0 1.34 0 0.68 0 0 Z " fill="#758EC5" transform="translate(648,79)"/>
<path d="M0 0 C0.66 0.33 1.32 0.66 2 1 C0.59785066 2.36919284 -0.82228473 3.71998709 -2.25 5.0625 C-3.43335938 6.19365234 -3.43335938 6.19365234 -4.640625 7.34765625 C-5.41921875 7.89292969 -6.1978125 8.43820313 -7 9 C-8.32 8.67 -9.64 8.34 -11 8 C-7.37 5.36 -3.74 2.72 0 0 Z " fill="#55A07B" transform="translate(574,24)"/>
<path d="M0 0 C2.1640625 0.0234375 2.1640625 0.0234375 4.625 0.375 C5.85089844 0.54128906 5.85089844 0.54128906 7.1015625 0.7109375 C7.72804688 0.80632812 8.35453125 0.90171875 9 1 C8.01 1.495 8.01 1.495 7 2 C7 2.66 7 3.32 7 4 C2.545 3.01 2.545 3.01 -2 2 C-1.34 1.34 -0.68 0.68 0 0 Z " fill="#FBE5EA" transform="translate(954,126)"/>
<path d="M0 0 C0.66 0.33 1.32 0.66 2 1 C1.71640113 2.4391134 1.42278601 3.87625518 1.125 5.3125 C0.88136719 6.51326172 0.88136719 6.51326172 0.6328125 7.73828125 C0 10 0 10 -2 13 C-1.85851011 11.3954444 -1.71164314 9.79136233 -1.5625 8.1875 C-1.48128906 7.29417969 -1.40007813 6.40085938 -1.31640625 5.48046875 C-1 3 -1 3 0 0 Z " fill="#EE85A3" transform="translate(894,142)"/>
<path d="M0 0 C0 0.99 0 1.98 0 3 C-4.22857143 7 -4.22857143 7 -8 7 C-6.5361389 2.60841671 -4.02168662 2.12052567 0 0 Z " fill="#519F7A" transform="translate(572,20)"/>
<path d="M0 0 C1.98 0.495 1.98 0.495 4 1 C3.67 2.32 3.34 3.64 3 5 C1.68 4.67 0.36 4.34 -1 4 C-0.67 2.68 -0.34 1.36 0 0 Z " fill="#F9ECEA" transform="translate(737,135)"/>
<path d="M0 0 C1.98 0.495 1.98 0.495 4 1 C3.67 2.32 3.34 3.64 3 5 C1.68 4.67 0.36 4.34 -1 4 C-0.67 2.68 -0.34 1.36 0 0 Z " fill="#FCE9EE" transform="translate(926,131)"/>
<path d="M0 0 C0.66 0.33 1.32 0.66 2 1 C-0.97 3.64 -3.94 6.28 -7 9 C-7.66 8.34 -8.32 7.68 -9 7 C-6.03 4.69 -3.06 2.38 0 0 Z " fill="#559F7A" transform="translate(575,29)"/>
<path d="M0 0 C0.66 0.33 1.32 0.66 2 1 C0.15794162 3.54379491 -1.72478134 5.83312509 -4 8 C-4.66 7.67 -5.32 7.34 -6 7 C-4.02 4.69 -2.04 2.38 0 0 Z " fill="#EFF4F0" transform="translate(572,33)"/>
<path d="M0 0 C0.99 0.33 1.98 0.66 3 1 C1.1875 3 1.1875 3 -1 5 C-1.99 5 -2.98 5 -4 5 C-3 2 -3 2 0 0 Z " fill="#3F9871" transform="translate(562,33)"/>
</svg>
