<svg width="512" height="512"><path fill="#2692c3" d="m372.468 108.71 3.442-.02c3.745-.02 7.49-.024 11.235-.026l7.834-.02q8.207-.018 16.415-.015c6.303.002 12.607-.02 18.91-.051 6.088-.03 12.175-.037 18.262-.035q3.869-.004 7.738-.027c3.613-.02 7.226-.014 10.84-.002l3.201-.034c11.447.096 21.137 4.563 29.561 12.262 6.896 7.289 12.2 17.008 12.241 27.121l.022 3.709.008 4.076.02 4.287c.02 4.695.031 9.39.041 14.085l.013 4.85q.029 11.391.041 22.784.015 13.147.077 26.296.044 10.164.048 20.329c.002 4.046.011 8.093.036 12.14q.034 5.71.018 11.423 0 2.092.02 4.186c.08 8.607-.076 13.325-6.054 19.617-5.238 4.256-8.725 4.81-15.437 4.355-6.045-1.803-9.53-4.876-13-10-.963-2.888-1.124-4.689-1.12-7.689l-.004-2.919.01-3.197v-3.371c0-3.685.009-7.37.016-11.054l.005-7.655q.004-9.053.021-18.105.015-10.305.022-20.611.016-21.2.05-42.399h-7l.003 1.913a116681 116681 0 0 1 .164 128.478c.013 14.485.037 28.97.064 43.456q.043 22.298.051 44.596.005 13.758.042 27.514.023 9.437.017 18.872c-.002 3.629 0 7.257.017 10.886.017 3.938.011 7.875.003 11.814l.026 3.457c-.043 7.682-1.014 14.147-5.075 20.764-5.315 5.172-10.973 8.3-18.437 8.562-6.197-.102-11.922-1.861-16.734-5.855-8.203-8.873-7.559-19.207-7.482-30.521v-5.206c-.002-4.694.016-9.387.037-14.08.019-4.912.02-9.823.024-14.735q.017-13.94.064-27.878c.034-10.583.05-21.166.065-31.749q.048-32.644.151-65.288h-6l.008 2.708q.1 32.639.147 65.277.022 15.784.071 31.568.046 13.76.056 27.52c.004 4.855.013 9.71.035 14.566q.03 6.86.022 13.723.001 2.513.019 5.024c.062 9.526.116 17.953-5.046 26.364-5.315 5.172-10.973 8.3-18.437 8.562-6.197-.102-11.922-1.861-16.734-5.855-7.051-7.627-7.577-15.913-7.502-25.846l-.008-3.746c-.004-3.414.006-6.827.02-10.241.014-3.688.01-7.375.007-11.063q-.001-9.576.025-19.15c.024-9.23.032-18.46.036-27.69q.01-22.462.055-44.926.041-21.817.061-43.633l.003-2.719.011-13.5q.048-55.971.151-111.943h-7l.011 1.742q.134 21.023.196 42.044c.02 6.777.049 13.554.095 20.332.044 6.542.067 13.084.078 19.626q.01 3.742.043 7.483c.029 3.497.033 6.994.031 10.492l.044 3.115c-.043 7.528-1.457 13.125-6.873 18.541-5.463 3.382-9.858 4.042-16.156 3.227-5.344-1.303-8.51-4.037-11.344-8.665-1.678-4.38-2.252-7.923-2.265-12.628l-.018-3.517-.003-3.847-.015-4.062q-.019-5.514-.024-11.027l-.012-6.9q-.02-10.805-.027-21.611-.007-12.448-.05-24.897-.034-9.638-.034-19.274 0-5.748-.025-11.497-.023-5.415-.01-10.83c.002-1.942-.012-3.884-.026-5.826.065-13.864 4.158-24.596 13.696-34.834 9.65-9.02 19.341-11.488 32.156-11.478m-296.098.114 2.195-.02q3.58-.028 7.162-.041l2.485-.013q6.516-.03 13.032-.044c4.461-.011 8.923-.046 13.384-.085 3.452-.027 6.905-.035 10.357-.038a586 586 0 0 0 4.93-.035c15.558-.166 25.896 2.784 37.362 13.601 8.95 9.21 14.066 19.864 17.657 32.036l.868 2.901c4.955 16.682 9.679 33.433 14.407 50.18q1.737 6.15 3.494 12.295a3957 3957 0 0 1 4.265 15.037q.802 2.838 1.616 5.672a1204 1204 0 0 1 2.232 7.904l.675 2.315c1.76 6.398 3.04 13.225-.179 19.324-2.654 3.66-5.267 6.165-9.312 8.188-5.256.524-9.645.665-14.438-1.688-5.519-4.98-7.572-9.482-9.566-16.472l-.873-2.96c-1.058-3.622-2.093-7.25-3.123-10.88l-.637-2.238a7879 7879 0 0 1-10.506-37.353q-2.01-7.193-4.023-14.384-3.92-14.01-7.834-28.025l-7-1 .5 1.696a3257 3257 0 0 1 11.315 39.34q1.783 6.342 3.563 12.686 2.94 10.475 5.888 20.946l.687 2.445a11207 11207 0 0 0 10.657 37.592l2.417 8.478q3.519 12.357 7.054 24.71 1.456 5.096 2.907 10.192.678 2.38 1.361 4.758.933 3.253 1.857 6.508l1.055 3.69C195 339 195 339 195 342h-44l.08 12.541c.082 13.674.138 27.349.18 41.023.025 8.291.06 16.582.117 24.873q.076 10.842.093 21.684c.007 3.825.022 7.65.059 11.476q.05 5.407.037 10.815c.002 1.945.028 3.89.056 5.835-.048 8.213-1.351 13.385-7.136 19.301-3.983 3.573-6.58 4.305-11.736 4.702-6.26-.417-10.83-1.84-15.125-6.563-3.834-4.594-4.876-9.695-4.866-15.572l-.008-3.492.022-3.789v-4.022c-.002-3.628.01-7.255.024-10.883.013-3.795.014-7.591.016-11.387q.011-10.773.043-21.546c.022-8.18.033-16.358.043-24.537q.032-25.23.101-50.459h-9l.014 2.133q.166 25.716.245 51.431c.026 8.291.06 16.582.118 24.873q.076 10.842.093 21.684c.007 3.825.022 7.65.059 11.476q.05 5.407.037 10.815c.002 1.945.028 3.89.056 5.835-.048 8.213-1.351 13.385-7.136 19.301-3.983 3.573-6.58 4.305-11.736 4.702-6.26-.417-10.83-1.84-15.125-6.563-3.834-4.594-4.876-9.695-4.866-15.572l-.008-3.492.022-3.789v-4.022c-.002-3.628.01-7.255.024-10.883.013-3.795.014-7.591.016-11.387q.011-10.773.043-21.546c.022-8.18.033-16.358.043-24.537.021-16.82.058-33.64.101-50.459H19c1.125-7.875 1.125-7.875 2.186-11.615l.728-2.596.805-2.812.866-3.071q1.452-5.142 2.915-10.281l2.084-7.377q1.725-6.114 3.454-12.226a19773 19773 0 0 0 10.34-36.717l.834-2.967 3.35-11.93q2.87-10.225 5.743-20.449C57.545 201.31 62.783 182.657 68 164l-7-1-.285 1.63c-1.535 8.212-3.79 16.215-6.04 24.253l-1.286 4.627q-1.347 4.846-2.7 9.688a8744 8744 0 0 0-3.395 12.189 5966 5966 0 0 1-6.522 23.286 1124 1124 0 0 0-3.767 13.736l-1.775 6.458-.739 2.862c-1.81 6.471-4.499 11.979-10.522 15.437-4.592 1.945-10.39 1.623-15.102.182-3.738-1.886-6.377-4.51-8.215-8.276-3.053-9.707.91-20.108 3.625-29.463q.676-2.385 1.348-4.774c1.182-4.187 2.382-8.37 3.585-12.55 1.189-4.143 2.36-8.29 3.534-12.437a5276 5276 0 0 1 6.249-21.86 3008 3008 0 0 0 3.915-13.725q1.198-4.23 2.407-8.454.81-2.85 1.608-5.704c6.012-20.946 14.897-38.082 34.327-48.918 5.02-2.168 9.684-2.323 15.12-2.364"/><path fill="#2692c2" d="M247 18h31v475h-31z"/><path fill="#2692c3" d="M446.613 25.21C454.525 31.142 461.223 40.089 463 50c.657 9.659.544 18.212-4 27l-1.332 2.578c-5.163 8.523-13.83 14.358-23.148 17.652-10.649 2.329-21.878 1.705-31.329-3.894-9.698-6.606-16.962-15.168-19.777-26.746-1.979-12.377.57-22.655 7.504-32.977 14.076-17.667 37.05-20.286 55.695-8.402m-315.226.707C139.63 32.486 145.319 41.57 147 52c.955 12.984-2.083 22.65-10 33-7 7.712-15.983 12.506-26.383 13.238-12.83.255-22.05-2.4-31.617-11.238-7.433-7.18-12.042-16.223-12.242-26.583-.05-13.16 3.08-21.619 12.09-31.429 15.03-14.228 35.893-14.254 52.539-3.07"/></svg>