<?xml version="1.0" encoding="UTF-8"?>
<svg version="1.1" xmlns="http://www.w3.org/2000/svg" width="512" height="512">
<path d="M0 0 C1.13588058 -0.00671722 2.27176117 -0.01343445 3.44206238 -0.02035522 C7.18692431 -0.03931063 10.93160679 -0.0432582 14.67651367 -0.04541016 C17.28814263 -0.05183969 19.89977086 -0.05856817 22.51139832 -0.06558228 C27.98287112 -0.07834973 33.45429556 -0.08134958 38.92578125 -0.08007812 C45.22938069 -0.07887763 51.53263725 -0.09996852 57.83614999 -0.13156545 C63.92356623 -0.16098008 70.01081928 -0.16805124 76.09830284 -0.16685867 C78.6773894 -0.16921289 81.25647872 -0.17802622 83.83551979 -0.19352341 C87.44922652 -0.2132051 91.06205926 -0.20733576 94.67578125 -0.1953125 C95.73221832 -0.20655151 96.7886554 -0.21779053 97.87710571 -0.22937012 C109.32434536 -0.13300227 119.01415105 4.33365687 127.43823242 12.03271484 C134.33378935 19.32143949 139.63861463 29.04051351 139.67915344 39.15364075 C139.6898864 40.98952003 139.6898864 40.98952003 139.70083618 42.86248779 C139.70367639 44.22106908 139.70638812 45.57965064 139.70898438 46.93823242 C139.71525005 48.36734685 139.72189695 49.79645966 139.72889709 51.22557068 C139.74992567 55.92038847 139.76029763 60.61520654 139.77026367 65.31005859 C139.77431153 66.92673955 139.77842846 68.54342033 139.78261375 70.16010094 C139.80166196 77.75480517 139.81589435 85.3494997 139.82422572 92.94422323 C139.83400034 101.70967558 139.86032712 110.47487555 139.90072662 119.24023896 C139.93088654 126.01656013 139.94569443 132.79280894 139.94900674 139.56919593 C139.95135718 143.61599056 139.96031674 147.66251545 139.98546791 151.70923805 C140.00875202 155.5170071 140.01298077 159.32432886 140.00270653 163.13215065 C140.00221115 164.52773527 140.00853236 165.92334194 140.02226257 167.3188591 C140.10218424 175.92518097 139.9471031 180.64361283 133.96948242 186.93505859 C128.73078174 191.1915029 125.24393787 191.74557517 118.53198242 191.29052734 C112.48650797 189.48749111 109.00239034 186.41461958 105.53198242 181.29052734 C104.56916305 178.40206924 104.40842764 176.60182096 104.41172791 173.60188293 C104.40966591 172.1568766 104.40966591 172.1568766 104.40756226 170.68267822 C104.41115753 169.62747986 104.41475281 168.57228149 104.41845703 167.48510742 C104.418311 166.3727623 104.41816498 165.26041718 104.41801453 164.11436462 C104.41871242 160.42957626 104.42649912 156.74483815 104.43432617 153.06005859 C104.43619079 150.50843839 104.43761449 147.95681783 104.43861389 145.40519714 C104.44204479 139.37040612 104.44993011 133.33563673 104.45996338 127.30085438 C104.47113838 120.43030137 104.47663847 113.55974749 104.48165882 106.68918765 C104.49211309 92.55629085 104.5097039 78.42341009 104.53198242 64.29052734 C102.22198242 64.29052734 99.91198242 64.29052734 97.53198242 64.29052734 C97.53312158 64.92190076 97.53426074 65.55327417 97.53543442 66.20378011 C97.60258086 103.63104723 97.65404827 141.05830544 97.68517841 178.48562047 C97.68893049 182.98040398 97.69281346 187.47518737 97.69677734 191.9699707 C97.69756428 192.86479434 97.69835121 193.75961798 97.69916198 194.68155748 C97.71221292 209.16698217 97.73586505 223.6523711 97.76344081 238.13777458 C97.79150369 253.00312894 97.80816055 267.86846458 97.81424791 282.73384434 C97.81836251 291.90524408 97.83135432 301.07654277 97.85573182 310.2479114 C97.87159989 316.53860291 97.87638035 322.82924225 97.87248655 329.11995231 C97.87056667 332.74838901 97.87349246 336.37664922 97.88959885 340.00505447 C97.90695173 343.94312672 97.90093449 347.88097027 97.89274597 351.81907654 C97.9014845 352.96014545 97.91022302 354.10121437 97.91922635 355.27686113 C97.87606049 362.95834725 96.90462867 369.42399272 92.84448242 376.04052734 C87.52928629 381.21206953 81.87076401 384.34138186 74.40698242 384.60302734 C68.20954212 384.50092783 62.48538102 382.74135181 57.67260742 378.74755859 C49.47000515 369.87494178 50.11406179 359.5404246 50.19140625 348.22607422 C50.19225327 346.49092626 50.19177591 344.75577722 50.19007874 343.02062988 C50.1892203 338.32694343 50.20682153 333.63348839 50.22780061 328.93985558 C50.24659266 324.02847857 50.24831984 319.11709589 50.25187683 314.20568848 C50.26118987 304.91275409 50.28579363 295.61992595 50.3159253 286.32703829 C50.34949238 275.7442396 50.36596113 265.16143576 50.38101161 254.57859707 C50.41234383 232.81584792 50.46508991 211.05319434 50.53198242 189.29052734 C48.55198242 189.29052734 46.57198242 189.29052734 44.53198242 189.29052734 C44.5347478 190.18413436 44.53751318 191.07774137 44.54036236 191.99842739 C44.60666037 213.75750339 44.65628161 235.51656194 44.68741894 257.27571774 C44.70287754 267.79835071 44.72394786 278.3209162 44.75830078 288.84350586 C44.7882339 298.01665895 44.80756474 307.18976316 44.81424791 316.36296374 C44.81815352 321.21859418 44.82731137 326.07408478 44.84917259 330.92967033 C44.86959954 335.50393396 44.87580369 340.0780007 44.87130547 344.6523056 C44.87212789 346.32720829 44.87805647 348.00211785 44.88959885 349.67698097 C44.9519995 359.20231683 45.00569335 367.6296651 39.84448242 376.04052734 C34.52928629 381.21206953 28.87076401 384.34138186 21.40698242 384.60302734 C15.20954212 384.50092783 9.48538102 382.74135181 4.67260742 378.74755859 C-2.37844612 371.12055265 -2.90439993 362.83448082 -2.82878113 352.90136719 C-2.8313444 351.66538253 -2.83390768 350.42939787 -2.83654863 349.15595913 C-2.84062326 345.74196571 -2.83129552 342.32849274 -2.81621444 338.91456246 C-2.80322254 335.2268708 -2.80764576 331.53919433 -2.80992126 327.85148621 C-2.81149201 321.46785704 -2.80210364 315.08432008 -2.78520775 308.70071411 C-2.76079531 299.47118082 -2.75301018 290.24169198 -2.74924377 281.0121299 C-2.74268281 266.03670718 -2.72273128 251.06133357 -2.69433594 236.0859375 C-2.66678618 221.54134364 -2.64555708 206.99676313 -2.6328125 192.45214844 C-2.63202433 191.55516456 -2.63123616 190.65818068 -2.6304241 189.73401546 C-2.62650891 185.23397518 -2.6227178 180.73393479 -2.61898839 176.23389435 C-2.58790354 138.91940401 -2.53507741 101.60496951 -2.46801758 64.29052734 C-4.77801758 64.29052734 -7.08801758 64.29052734 -9.46801758 64.29052734 C-9.46433041 64.86552475 -9.46064323 65.44052216 -9.45684433 66.03294373 C-9.36836769 80.04728351 -9.30224708 94.06158124 -9.26076889 108.07614136 C-9.24017528 114.85359755 -9.21211651 121.63086689 -9.16625977 128.40820312 C-9.12201497 134.95044247 -9.09886984 141.49256072 -9.08850861 148.03494263 C-9.08112601 150.52917534 -9.06670956 153.02339761 -9.04509735 155.51754761 C-9.01600038 159.015023 -9.01206437 162.51170011 -9.01391602 166.00927734 C-8.99234436 167.55108421 -8.99234436 167.55108421 -8.97033691 169.1240387 C-9.01337602 176.65221674 -10.42666816 182.24917793 -15.84301758 187.66552734 C-21.30588543 191.04730268 -25.7009572 191.70783486 -31.99926758 190.89208984 C-37.34287174 189.59000908 -40.50955137 186.85602215 -43.34301758 182.22802734 C-45.02098206 177.84667565 -45.59458084 174.30443578 -45.60845947 169.599823 C-45.61416962 168.43920853 -45.61987976 167.27859406 -45.62576294 166.08280945 C-45.62743973 164.17831779 -45.62743973 164.17831779 -45.62915039 162.23535156 C-45.63378103 160.88154465 -45.63880602 159.52773904 -45.64419556 158.17393494 C-45.65730137 154.49799825 -45.66376143 150.82207981 -45.66820621 147.14612341 C-45.671141 144.84644801 -45.67524667 142.54677755 -45.67971039 140.24710464 C-45.69338302 133.04323376 -45.70304977 125.83937422 -45.70691228 118.63549125 C-45.711387 110.33650518 -45.72890851 102.0376843 -45.75791287 93.73874843 C-45.77958273 87.31393281 -45.78961945 80.88916347 -45.7909534 74.46431172 C-45.79199801 70.63207652 -45.79783156 66.79999666 -45.81577301 62.96780014 C-45.83234484 59.35786189 -45.83436548 55.74819419 -45.825634 52.13823128 C-45.8245058 50.19593958 -45.83815419 48.2536565 -45.85238647 46.31141663 C-45.78681749 32.44760688 -41.69367599 21.71519973 -32.15551758 11.47802734 C-22.50580978 2.45717691 -12.81485674 -0.01093169 0 0 Z " fill="#2692C3" transform="translate(372.468017578125,108.70947265625)"/>
<path d="M0 0 C1.08649841 -0.0098568 1.08649841 -0.0098568 2.19494629 -0.01991272 C4.58227665 -0.03955425 6.96954427 -0.05128979 9.35693359 -0.0612793 C10.17709332 -0.06535482 10.99725304 -0.06943035 11.84226608 -0.07362938 C16.1861826 -0.09445439 20.53006788 -0.1087697 24.87402344 -0.11816406 C29.33573477 -0.12920189 33.79694375 -0.16358139 38.25847816 -0.20333576 C41.71085465 -0.22962293 45.16311378 -0.23786671 48.61558151 -0.24144554 C50.25884761 -0.2462828 51.90210948 -0.25781402 53.54527664 -0.27648354 C69.10339845 -0.44222311 79.44148363 2.50824019 90.90771484 13.32543945 C99.85756087 22.53536647 104.97343507 33.18851234 108.56396484 45.3605957 C108.85066544 46.31805695 109.13736603 47.27551819 109.43275452 48.26199341 C114.38714994 64.94417984 119.11120796 81.69533755 123.83959961 98.44262695 C124.997755 102.54250361 126.16282857 106.64032084 127.33374023 110.73657227 C128.76574271 115.74629406 130.18618908 120.75915593 131.59839058 125.77449417 C132.13304458 127.66613703 132.67165246 129.55666733 133.21442986 131.44599533 C133.96957082 134.07778454 134.70972469 136.71337061 135.4465332 139.3503418 C135.66930435 140.11406601 135.8920755 140.87779022 136.12159729 141.66465759 C137.88148615 148.0629861 139.16197211 154.89039939 135.94287109 160.98950195 C133.28838035 164.6483946 130.67579302 167.15429099 126.63037109 169.17700195 C121.37461944 169.70085955 116.98511015 169.84205567 112.19287109 167.48950195 C106.67368243 162.50877072 104.62025234 158.00699485 102.62646484 151.0168457 C102.33847519 150.03981186 102.05048553 149.06277802 101.75376892 148.05613708 C100.69518163 144.43464892 99.66042767 140.80667478 98.63037109 137.17700195 C98.42026649 136.43860329 98.2101619 135.70020462 97.99369049 134.93943024 C94.4544352 122.49858611 90.96572594 110.0437348 87.48779297 97.58563232 C86.14856722 92.79068179 84.8063183 87.99657766 83.46435547 83.20239258 C80.8501382 73.8614021 78.23916774 64.51950767 75.63037109 55.17700195 C73.32037109 54.84700195 71.01037109 54.51700195 68.63037109 54.17700195 C68.79529053 54.73678238 68.96020996 55.29656281 69.13012695 55.87330627 C72.78476763 68.2970102 76.37414184 80.73791659 79.88037109 93.2043457 C80.06674889 93.86700817 80.25312668 94.52967064 80.44515228 95.21241379 C81.63405636 99.44103013 82.82140415 103.67008264 84.00846863 107.8992157 C85.96869869 114.8817748 87.93167875 121.86356043 89.89599609 128.8449707 C90.12298439 129.6517992 90.34997269 130.4586277 90.58383942 131.28990555 C94.1121976 143.82739669 97.66863049 156.35674298 101.24067688 168.8818531 C102.04652071 171.70770599 102.85188514 174.53369507 103.65710449 177.35972595 C106.00462209 185.59781013 108.35352928 193.83547704 110.71091843 202.07074261 C111.68235003 205.46728858 112.65059592 208.86473678 113.6180191 212.26242638 C114.0704818 213.84879415 114.52435169 215.4347613 114.97969818 217.02030373 C115.602204 219.18839144 116.21989468 221.35779494 116.83642578 223.52758789 C117.18469421 224.74573181 117.53296265 225.96387573 117.89178467 227.21893311 C118.63037109 230.17700195 118.63037109 230.17700195 118.63037109 233.17700195 C104.11037109 233.17700195 89.59037109 233.17700195 74.63037109 233.17700195 C74.65655518 237.31553711 74.68273926 241.45407227 74.7097168 245.71801758 C74.79256923 259.39241906 74.8480512 273.06681672 74.88943195 286.74140167 C74.91518898 295.03223993 74.95029132 303.32284002 75.00756836 311.61352539 C75.05748035 318.84160065 75.0896803 326.06950337 75.10081357 333.29774618 C75.10731926 337.12342284 75.12255625 340.94860601 75.15902138 344.77412415 C75.19310476 348.37917927 75.20339964 351.98354036 75.1959095 355.5887413 C75.19792859 357.53391143 75.22475911 359.47900695 75.25247192 361.42398071 C75.20430957 369.63740881 73.90087767 374.80877987 68.11671925 380.72528839 C64.13321827 384.29822327 61.53557368 385.03044791 56.38037109 385.42700195 C50.12094899 385.00970715 45.54997852 383.58752521 41.25537109 378.86450195 C37.4214386 374.27020854 36.37899982 369.16886328 36.38986206 363.29238892 C36.38711273 362.13981598 36.3843634 360.98724304 36.38153076 359.79974365 C36.39231659 357.92455048 36.39231659 357.92455048 36.40332031 356.01147461 C36.40388496 354.67070525 36.40356682 353.32993526 36.4024353 351.98916626 C36.40186288 348.36148348 36.41359916 344.73393371 36.42758322 341.10628176 C36.44010911 337.31063803 36.44126254 333.51499105 36.44363403 329.71932983 C36.44984335 322.53714217 36.46624672 315.35501558 36.48633301 308.17285478 C36.50870911 299.99391976 36.51968974 291.81498178 36.52972388 283.63602376 C36.55061345 266.8163141 36.58577873 249.99666583 36.63037109 233.17700195 C33.66037109 233.17700195 30.69037109 233.17700195 27.63037109 233.17700195 C27.63498006 233.88084267 27.63958902 234.58468338 27.64433765 235.3098526 C27.75486757 252.45363991 27.83755218 269.59733644 27.88943195 286.74140167 C27.91518898 295.03223993 27.95029132 303.32284002 28.00756836 311.61352539 C28.05748035 318.84160065 28.0896803 326.06950337 28.10081357 333.29774618 C28.10731926 337.12342284 28.12255625 340.94860601 28.15902138 344.77412415 C28.19310476 348.37917927 28.20339964 351.98354036 28.1959095 355.5887413 C28.19792859 357.53391143 28.22475911 359.47900695 28.25247192 361.42398071 C28.20430957 369.63740881 26.90087767 374.80877987 21.11671925 380.72528839 C17.13321827 384.29822327 14.53557368 385.03044791 9.38037109 385.42700195 C3.12094899 385.00970715 -1.45002148 383.58752521 -5.74462891 378.86450195 C-9.5785614 374.27020854 -10.62100018 369.16886328 -10.61013794 363.29238892 C-10.61288727 362.13981598 -10.6156366 360.98724304 -10.61846924 359.79974365 C-10.60768341 357.92455048 -10.60768341 357.92455048 -10.59667969 356.01147461 C-10.59611504 354.67070525 -10.59643318 353.32993526 -10.5975647 351.98916626 C-10.59813712 348.36148348 -10.58640084 344.73393371 -10.57241678 341.10628176 C-10.55989089 337.31063803 -10.55873746 333.51499105 -10.55636597 329.71932983 C-10.55015665 322.53714217 -10.53375328 315.35501558 -10.51366699 308.17285478 C-10.49129089 299.99391976 -10.48031026 291.81498178 -10.47027612 283.63602376 C-10.44938655 266.81630846 -10.41271718 249.99667726 -10.36962891 233.17700195 C-25.87962891 233.17700195 -41.38962891 233.17700195 -57.36962891 233.17700195 C-56.24469731 225.30248081 -56.24469731 225.30248081 -55.18408203 221.56225586 C-54.94355606 220.7054422 -54.70303009 219.84862854 -54.45521545 218.96585083 C-54.18978439 218.03779633 -53.92435333 217.10974182 -53.65087891 216.15356445 C-53.36510483 215.14019012 -53.07933075 214.1268158 -52.78489685 213.08273315 C-51.81722266 209.65465487 -50.84330841 206.22837894 -49.86962891 202.80200195 C-49.17454703 200.34315938 -48.47998327 197.88417028 -47.78588867 195.42504883 C-46.63543512 191.34948284 -45.48452529 187.27404798 -44.3316803 183.19915771 C-40.87053387 170.96397423 -37.42825783 158.72352568 -33.99072266 146.48168945 C-33.57832525 145.01305891 -33.57832525 145.01305891 -33.15759659 143.51475906 C-32.04100232 139.53815692 -30.92448795 135.56153236 -29.80810356 131.58487129 C-27.89451123 124.76851557 -25.98002625 117.95241115 -24.06494141 111.13647461 C-18.82474177 92.48567211 -13.58680955 73.83425973 -8.36962891 55.17700195 C-10.67962891 54.84700195 -12.98962891 54.51700195 -15.36962891 54.17700195 C-15.46383621 54.71461151 -15.55804352 55.25222107 -15.65510559 55.80612183 C-17.18933726 64.01914879 -19.4438395 72.02155395 -21.69384766 80.05981445 C-22.12289758 81.60220887 -22.55166881 83.14468084 -22.98017883 84.68722534 C-23.8782012 87.91702571 -24.77860034 91.14615015 -25.6809082 94.37475586 C-26.81607073 98.43673387 -27.94681039 102.49992553 -29.07609367 106.56354141 C-31.23448868 114.33027027 -33.40814677 122.09249002 -35.59800529 129.85040665 C-36.88513291 134.4207893 -38.13449006 138.99994594 -39.36425781 143.58618164 C-39.95562582 145.73892403 -40.5472395 147.89159896 -41.13916016 150.04418945 C-41.38309006 150.98851837 -41.62701996 151.93284729 -41.87834167 152.90579224 C-43.68823231 159.37734061 -46.37715179 164.88503712 -52.40071106 168.34298706 C-56.99298077 170.28822888 -62.78988581 169.96604426 -67.50244141 168.5246582 C-71.24105305 166.63916792 -73.87942471 164.0142059 -75.71791077 160.24945068 C-78.77070557 150.54163326 -74.80745267 140.14134537 -72.09228516 130.78637695 C-71.64179712 129.19519045 -71.19255991 127.60364936 -70.74449158 126.01177979 C-69.56219812 121.82464469 -68.36266316 117.64264322 -67.15942383 113.46148682 C-65.97067655 109.318928 -64.79890331 105.17158048 -63.62548828 101.0246582 C-61.5596613 93.73341635 -59.47432416 86.44795637 -57.37709999 79.16568756 C-56.06113731 74.59351879 -54.75565559 70.01857274 -53.46140003 65.44021225 C-52.6634106 62.62083459 -51.85958778 59.8031407 -51.05459404 56.98575592 C-50.51372168 55.08591227 -49.97985601 53.18407809 -49.44630432 51.28216553 C-43.43500081 30.33568717 -34.54937206 13.20032025 -15.11962891 2.36450195 C-10.09896432 0.1964877 -5.43589098 0.04097869 0 0 Z " fill="#2692C3" transform="translate(76.36962890625,108.822998046875)"/>
<path d="M0 0 C10.23 0 20.46 0 31 0 C31 156.75 31 313.5 31 475 C20.77 475 10.54 475 0 475 C0 318.25 0 161.5 0 0 Z " fill="#2692C2" transform="translate(247,18)"/>
<path d="M0 0 C7.91133652 5.93026534 14.61030011 14.87664648 16.38671875 24.7890625 C17.04356898 34.44799131 16.93100463 43.00071383 12.38671875 51.7890625 C11.94714844 52.63984375 11.50757813 53.490625 11.0546875 54.3671875 C5.89135681 62.88995108 -2.77536132 68.72515141 -12.09375 72.01953125 C-22.74224458 74.34778145 -33.97174354 73.72410432 -43.421875 68.125 C-53.11986775 61.51931158 -60.38453646 52.95663272 -63.19921875 41.37890625 C-65.17798843 29.00226191 -62.62994401 18.72399528 -55.6953125 8.40234375 C-41.61965418 -9.26485215 -18.64589117 -11.88419437 0 0 Z " fill="#2692C3" transform="translate(446.61328125,25.2109375)"/>
<path d="M0 0 C8.24351294 6.56770164 13.93251505 15.65185593 15.61328125 26.08203125 C16.56825659 39.06602294 13.53056123 48.73233393 5.61328125 59.08203125 C-1.38727853 66.79426619 -10.36968218 71.58775962 -20.76953125 72.3203125 C-33.60054833 72.57478987 -42.81882397 69.91969532 -52.38671875 61.08203125 C-59.8201123 53.90262609 -64.42849501 44.85938565 -64.62866211 34.49853516 C-64.67904884 21.33996425 -61.54888322 12.88015959 -52.5390625 3.0703125 C-37.50869173 -11.15761547 -16.64583467 -11.18355229 0 0 Z " fill="#2692C3" transform="translate(131.38671875,25.91796875)"/>
</svg>
